<?xml version="1.0" encoding="UTF-8" standalone="no"?>
<!DOCTYPE svg PUBLIC "-//W3C//DTD SVG 1.1//EN"
 "http://www.w3.org/Graphics/SVG/1.1/DTD/svg11.dtd">
<!-- Generated by graphviz version 2.38.0 (20140413.2041)
 -->
<!-- Title: %3 Pages: 1 -->
<svg width="690pt" height="347pt"
 viewBox="0.00 0.00 690.00 346.50" xmlns="http://www.w3.org/2000/svg" xmlns:xlink="http://www.w3.org/1999/xlink">
<g id="graph0" class="graph" transform="scale(1 1) rotate(0) translate(4 342.5)">
<title>%3</title>
<polygon fill="white" stroke="none" points="-4,4 -4,-342.5 686,-342.5 686,4 -4,4"/>
<text text-anchor="start" x="8" y="-323.3" font-family="宋体" font-size="14.00">wuliu 关系</text>
<!-- zh_asphalt_repertory -->
<g id="node1" class="node"><title>zh_asphalt_repertory</title>
<polygon fill="#d0e0d0" stroke="none" points="8,-112 8,-215 179,-215 179,-112 8,-112"/>
<polygon fill="none" stroke="black" points="8.5,-186.5 8.5,-214.5 179.5,-214.5 179.5,-186.5 8.5,-186.5"/>
<text text-anchor="start" x="13.5" y="-197.7" font-family="Helvetica,sans-Serif" font-weight="bold" font-size="16.00">zh_asphalt_repertory</text>
<polygon fill="none" stroke="black" points="8.5,-161.5 8.5,-186.5 179.5,-186.5 179.5,-161.5 8.5,-161.5"/>
<text text-anchor="start" x="13.5" y="-171.3" font-family="Helvetica,sans-Serif" text-decoration="underline" font-size="14.00">id</text>
<polygon fill="none" stroke="black" points="8.5,-136.5 8.5,-161.5 179.5,-161.5 179.5,-136.5 8.5,-136.5"/>
<text text-anchor="start" x="13.5" y="-145.3" font-family="Helvetica,sans-Serif" font-size="14.00">reservoir_code</text>
<polygon fill="none" stroke="black" points="8.5,-111.5 8.5,-136.5 179.5,-136.5 179.5,-111.5 8.5,-111.5"/>
<text text-anchor="start" x="13.5" y="-120.3" font-family="Helvetica,sans-Serif" font-size="14.00">storage_code</text>
</g>
<!-- zh_reservoir_area -->
<g id="node2" class="node"><title>zh_reservoir_area</title>
<polygon fill="#d0e0d0" stroke="none" points="362,-183.5 362,-311.5 673,-311.5 673,-183.5 362,-183.5"/>
<polygon fill="none" stroke="black" points="362.5,-283.5 362.5,-311.5 673.5,-311.5 673.5,-283.5 362.5,-283.5"/>
<text text-anchor="start" x="449" y="-294.7" font-family="Helvetica,sans-Serif" font-weight="bold" font-size="16.00">zh_reservoir_area</text>
<polygon fill="none" stroke="black" points="362.5,-258.5 362.5,-283.5 673.5,-283.5 673.5,-258.5 362.5,-258.5"/>
<text text-anchor="start" x="367.5" y="-268.3" font-family="Helvetica,sans-Serif" text-decoration="underline" font-size="14.00">id</text>
<text text-anchor="start" x="379.5" y="-268.3" font-family="Helvetica,sans-Serif" font-size="14.00"> [varchar(32) NOT NULL]</text>
<polygon fill="none" stroke="black" points="362.5,-233.5 362.5,-258.5 673.5,-258.5 673.5,-233.5 362.5,-233.5"/>
<text text-anchor="start" x="367.5" y="-243.3" font-family="Helvetica,sans-Serif" font-size="14.00">reservoir_code</text>
<text text-anchor="start" x="464.5" y="-243.3" font-family="Helvetica,sans-Serif" font-size="14.00"> [varchar(32) DEFAULT NULL]</text>
<polygon fill="none" stroke="black" points="362.5,-208.5 362.5,-233.5 673.5,-233.5 673.5,-208.5 362.5,-208.5"/>
<text text-anchor="start" x="367.5" y="-218.3" font-family="Helvetica,sans-Serif" font-size="14.00">abbreviation</text>
<text text-anchor="start" x="444.5" y="-218.3" font-family="Helvetica,sans-Serif" font-size="14.00"> [varchar(64) DEFAULT NULL]</text>
<polygon fill="none" stroke="black" points="362.5,-183.5 362.5,-208.5 673.5,-208.5 673.5,-183.5 362.5,-183.5"/>
<text text-anchor="start" x="367.5" y="-193.3" font-family="Helvetica,sans-Serif" font-size="14.00">reservoir_name</text>
<text text-anchor="start" x="467.5" y="-193.3" font-family="Helvetica,sans-Serif" font-size="14.00"> [varchar(256) DEFAULT NULL]</text>
</g>
<!-- zh_asphalt_repertory&#45;&#45;zh_reservoir_area -->
<g id="edge1" class="edge"><title>zh_asphalt_repertory&#45;&#45;zh_reservoir_area</title>
<path fill="none" stroke="#7f7f7f" stroke-dasharray="5,2" d="M187.11,-181.934C235.998,-191.665 297.424,-203.892 353.946,-215.143"/>
<text text-anchor="start" x="224" y="-210.3" font-family="Times New Roman,serif" font-size="14.00"> reservoir_code </text>
<text text-anchor="start" x="346.946" y="-203.943" font-family="Times New Roman,serif" font-size="14.00">1</text>
<text text-anchor="start" x="187.11" y="-170.734" font-family="Times New Roman,serif" font-size="14.00">1</text>
</g>
<!-- zh_storage -->
<g id="node3" class="node"><title>zh_storage</title>
<polygon fill="#d0e0d0" stroke="none" points="361,-4 361,-157 674,-157 674,-4 361,-4"/>
<polygon fill="none" stroke="black" points="361.5,-128.5 361.5,-156.5 674.5,-156.5 674.5,-128.5 361.5,-128.5"/>
<text text-anchor="start" x="475.5" y="-139.7" font-family="Helvetica,sans-Serif" font-weight="bold" font-size="16.00">zh_storage</text>
<polygon fill="none" stroke="black" points="361.5,-103.5 361.5,-128.5 674.5,-128.5 674.5,-103.5 361.5,-103.5"/>
<text text-anchor="start" x="366.5" y="-113.3" font-family="Helvetica,sans-Serif" text-decoration="underline" font-size="14.00">id</text>
<text text-anchor="start" x="378.5" y="-113.3" font-family="Helvetica,sans-Serif" font-size="14.00"> [varchar(32) NOT NULL]</text>
<polygon fill="none" stroke="black" points="361.5,-78.5 361.5,-103.5 674.5,-103.5 674.5,-78.5 361.5,-78.5"/>
<text text-anchor="start" x="366.5" y="-88.3" font-family="Helvetica,sans-Serif" font-size="14.00">storage_code</text>
<text text-anchor="start" x="455.5" y="-88.3" font-family="Helvetica,sans-Serif" font-size="14.00"> [varchar(32) DEFAULT NULL]</text>
<polygon fill="none" stroke="black" points="361.5,-53.5 361.5,-78.5 674.5,-78.5 674.5,-53.5 361.5,-53.5"/>
<text text-anchor="start" x="366.5" y="-63.3" font-family="Helvetica,sans-Serif" font-size="14.00">storage_name</text>
<text text-anchor="start" x="458.5" y="-63.3" font-family="Helvetica,sans-Serif" font-size="14.00"> [varchar(128) DEFAULT NULL]</text>
<polygon fill="none" stroke="black" points="361.5,-28.5 361.5,-53.5 674.5,-53.5 674.5,-28.5 361.5,-28.5"/>
<text text-anchor="start" x="366.5" y="-38.3" font-family="Helvetica,sans-Serif" font-size="14.00">reservoir_code</text>
<text text-anchor="start" x="463.5" y="-38.3" font-family="Helvetica,sans-Serif" font-size="14.00"> [varchar(32) DEFAULT NULL]</text>
<polygon fill="none" stroke="black" points="361.5,-3.5 361.5,-28.5 674.5,-28.5 674.5,-3.5 361.5,-3.5"/>
<text text-anchor="start" x="366.5" y="-13.3" font-family="Helvetica,sans-Serif" font-size="14.00">storage_capacity</text>
<text text-anchor="start" x="475.5" y="-13.3" font-family="Helvetica,sans-Serif" font-size="14.00"> [double(8,0) DEFAULT NULL]</text>
</g>
<!-- zh_asphalt_repertory&#45;&#45;zh_storage -->
<g id="edge2" class="edge"><title>zh_asphalt_repertory&#45;&#45;zh_storage</title>
<path fill="none" stroke="#7f7f7f" stroke-dasharray="5,2" d="M187.11,-145.285C235.634,-135.741 296.51,-123.768 352.683,-112.72"/>
<text text-anchor="start" x="228" y="-141.3" font-family="Times New Roman,serif" font-size="14.00"> storage_code </text>
<text text-anchor="start" x="345.683" y="-101.52" font-family="Times New Roman,serif" font-size="14.00">1</text>
<text text-anchor="start" x="187.11" y="-134.085" font-family="Times New Roman,serif" font-size="14.00">1</text>
</g>
</g>
</svg>
