<?xml version="1.0" encoding="UTF-8" standalone="no"?>
<!DOCTYPE svg PUBLIC "-//W3C//DTD SVG 1.1//EN"
 "http://www.w3.org/Graphics/SVG/1.1/DTD/svg11.dtd">
<!-- Generated by graphviz version 2.38.0 (20140413.2041)
 -->
<!-- Title: G Pages: 1 -->
<svg width="778pt" height="199pt"
 viewBox="0.00 0.00 778.00 199.00" xmlns="http://www.w3.org/2000/svg" xmlns:xlink="http://www.w3.org/1999/xlink">
<g id="graph0" class="graph" transform="scale(1 1) rotate(0) translate(4 195)">
<title>G</title>
<polygon fill="white" stroke="none" points="-4,4 -4,-195 774,-195 774,4 -4,4"/>
<g id="clust1" class="cluster"><title>clusterset2</title>
<polygon fill="none" stroke="green" points="8,-8 8,-183 762,-183 762,-8 8,-8"/>
</g>
<!-- md1 -->
<g id="node1" class="node"><title>md1</title>
<polygon fill="none" stroke="black" points="326,-110 182,-110 182,-81 326,-81 326,-110"/>
<text text-anchor="middle" x="254" y="-91.8" font-family="Microsoft Yahei" font-size="14.00">MessageDriver</text>
</g>
<!-- pt5 -->
<g id="node8" class="node"><title>pt5</title>
<text text-anchor="middle" x="441" y="-92.7" font-family="Microsoft Yahei" font-size="11.00">MessageDriver.onmessage(json)</text>
</g>
<!-- md1&#45;&gt;pt5 -->
<g id="edge6" class="edge"><title>md1&#45;&gt;pt5</title>
<path fill="none" stroke="black" d="M336.032,-95C336.032,-95 343.884,-95 343.884,-95"/>
<polygon fill="black" stroke="black" points="336.032,-91.5001 326.032,-95 336.032,-98.5001 336.032,-91.5001"/>
</g>
<!-- cs -->
<g id="node2" class="node"><title>cs</title>
<polygon fill="none" stroke="black" points="525,-175 381,-175 381,-146 525,-146 525,-175"/>
<text text-anchor="middle" x="453" y="-156.8" font-family="Microsoft Yahei" font-size="14.00">CallbackServlet</text>
</g>
<!-- pt4 -->
<g id="node7" class="node"><title>pt4</title>
<text text-anchor="middle" x="628" y="-157.7" font-family="Microsoft Yahei" font-size="11.00">MessageDriver.trigger(json)</text>
</g>
<!-- cs&#45;&gt;pt4 -->
<g id="edge3" class="edge"><title>cs&#45;&gt;pt4</title>
<path fill="none" stroke="black" d="M525.19,-160C525.19,-160 532.875,-160 532.875,-160"/>
<polygon fill="black" stroke="black" points="532.875,-163.5 542.875,-160 532.875,-156.5 532.875,-163.5"/>
</g>
<!-- main -->
<g id="node3" class="node"><title>main</title>
<polygon fill="none" stroke="black" points="185,-175 41,-175 41,-146 185,-146 185,-175"/>
<text text-anchor="middle" x="113" y="-156.8" font-family="Microsoft Yahei" font-size="14.00">Main</text>
</g>
<!-- pt3 -->
<g id="node6" class="node"><title>pt3</title>
<text text-anchor="middle" x="283" y="-157.7" font-family="Microsoft Yahei" font-size="11.00">new URL(url).getContent()</text>
</g>
<!-- main&#45;&gt;pt3 -->
<g id="edge1" class="edge"><title>main&#45;&gt;pt3</title>
<path fill="none" stroke="black" d="M185.095,-160C185.095,-160 193.427,-160 193.427,-160"/>
<polygon fill="black" stroke="black" points="193.427,-163.5 203.427,-160 193.427,-156.5 193.427,-163.5"/>
</g>
<!-- pth -->
<g id="node4" class="node"><title>pth</title>
<polygon fill="none" stroke="black" points="160,-45 16,-45 16,-16 160,-16 160,-45"/>
<text text-anchor="middle" x="88" y="-26.8" font-family="Microsoft Yahei" font-size="14.00">PlanTaskHelper</text>
</g>
<!-- pt7 -->
<g id="node10" class="node"><title>pt7</title>
<text text-anchor="middle" x="250" y="-27.7" font-family="Microsoft Yahei" font-size="11.00">MessageDriver.within()</text>
</g>
<!-- pth&#45;&gt;pt7 -->
<g id="edge9" class="edge"><title>pth&#45;&gt;pt7</title>
<path fill="none" stroke="black" d="M160.471,-30C160.471,-30 167.966,-30 167.966,-30"/>
<polygon fill="black" stroke="black" points="167.966,-33.5001 177.966,-30 167.966,-26.5001 167.966,-33.5001"/>
</g>
<!-- q1 -->
<g id="node5" class="node"><title>q1</title>
<polygon fill="none" stroke="black" points="700,-110 559.222,-110 556,-106.778 556,-81 696.778,-81 700,-84.2222 700,-110"/>
<polyline fill="none" stroke="black" points="696.778,-106.778 556,-106.778 "/>
<polyline fill="none" stroke="black" points="696.778,-106.778 696.778,-81 "/>
<polyline fill="none" stroke="black" points="696.778,-106.778 700,-110 "/>
<text text-anchor="middle" x="628" y="-91.8" font-family="Microsoft Yahei" font-size="14.00">MQ (Public)</text>
</g>
<!-- pt3&#45;&gt;cs -->
<g id="edge2" class="edge"><title>pt3&#45;&gt;cs</title>
<path fill="none" stroke="black" d="M362.525,-160C362.525,-160 370.917,-160 370.917,-160"/>
<polygon fill="black" stroke="black" points="370.917,-163.5 380.917,-160 370.917,-156.5 370.917,-163.5"/>
</g>
<!-- pt4&#45;&gt;q1 -->
<g id="edge4" class="edge"><title>pt4&#45;&gt;q1</title>
<path fill="none" stroke="black" d="M628,-145.75C628,-145.75 628,-120.191 628,-120.191"/>
<polygon fill="black" stroke="black" points="631.5,-120.191 628,-110.191 624.5,-120.191 631.5,-120.191"/>
</g>
<!-- pt5&#45;&gt;q1 -->
<g id="edge5" class="edge"><title>pt5&#45;&gt;q1</title>
<path fill="none" stroke="black" d="M548.06,-95C548.06,-95 555.781,-95 555.781,-95"/>
<polygon fill="black" stroke="black" points="548.06,-91.5001 538.06,-95 548.06,-98.5001 548.06,-91.5001"/>
</g>
<!-- pt6 -->
<g id="node9" class="node"><title>pt6</title>
<text text-anchor="middle" x="90" y="-92.7" font-family="Microsoft Yahei" font-size="11.00">top.handler.on(window)</text>
</g>
<!-- pt6&#45;&gt;md1 -->
<g id="edge7" class="edge"><title>pt6&#45;&gt;md1</title>
<path fill="none" stroke="black" d="M174.323,-95C174.323,-95 181.903,-95 181.903,-95"/>
<polygon fill="black" stroke="black" points="174.323,-91.5001 164.323,-95 174.322,-98.5001 174.323,-91.5001"/>
</g>
<!-- pt6&#45;&gt;pth -->
<g id="edge8" class="edge"><title>pt6&#45;&gt;pth</title>
<path fill="none" stroke="black" d="M88,-80.7505C88,-80.7505 88,-55.1911 88,-55.1911"/>
<polygon fill="black" stroke="black" points="91.5001,-55.1911 88,-45.1911 84.5001,-55.1912 91.5001,-55.1911"/>
</g>
<!-- pt8 -->
<g id="node11" class="node"><title>pt8</title>
<text text-anchor="middle" x="412" y="-27.7" font-family="Microsoft Yahei" font-size="11.00">MessageDriver.check()</text>
</g>
<!-- pt7&#45;&gt;pt8 -->
<g id="edge10" class="edge"><title>pt7&#45;&gt;pt8</title>
<path fill="none" stroke="black" d="M322.471,-30C322.471,-30 329.966,-30 329.966,-30"/>
<polygon fill="black" stroke="black" points="329.966,-33.5001 339.966,-30 329.966,-26.5001 329.966,-33.5001"/>
</g>
<!-- pt9 -->
<g id="node12" class="node"><title>pt9</title>
<text text-anchor="middle" x="628" y="-27.7" font-family="Microsoft Yahei" font-size="11.00">PlanTaskHelper.executeMessageProgram()</text>
</g>
<!-- pt8&#45;&gt;pt9 -->
<g id="edge11" class="edge"><title>pt8&#45;&gt;pt9</title>
<path fill="none" stroke="black" d="M484.225,-30C484.225,-30 492.284,-30 492.284,-30"/>
<polygon fill="black" stroke="black" points="492.284,-33.5001 502.284,-30 492.283,-26.5001 492.284,-33.5001"/>
</g>
</g>
</svg>
