<?xml version="1.0" encoding="UTF-8" standalone="no"?>
<!DOCTYPE svg PUBLIC "-//W3C//DTD SVG 1.1//EN"
 "http://www.w3.org/Graphics/SVG/1.1/DTD/svg11.dtd">
<!-- Generated by graphviz version 2.38.0 (20140413.2041)
 -->
<!-- Title: G Pages: 1 -->
<svg width="1604pt" height="333pt"
 viewBox="0.00 0.00 1604.00 332.53" xmlns="http://www.w3.org/2000/svg" xmlns:xlink="http://www.w3.org/1999/xlink">
<g id="graph0" class="graph" transform="scale(1 1) rotate(0) translate(4 328.527)">
<title>G</title>
<polygon fill="white" stroke="none" points="-4,4 -4,-328.527 1600,-328.527 1600,4 -4,4"/>
<g id="clust1" class="cluster"><title>clusterset1</title>
<polygon fill="none" stroke="green" points="8,-8 8,-316.527 196,-316.527 196,-8 8,-8"/>
</g>
<g id="clust2" class="cluster"><title>clusterset2</title>
<polygon fill="none" stroke="green" points="204,-138 204,-314.763 958,-314.763 958,-138 204,-138"/>
</g>
<!-- start -->
<g id="node1" class="node"><title>start</title>
<ellipse fill="none" stroke="black" cx="102" cy="-292.263" rx="71.3357" ry="16.0303"/>
<text text-anchor="middle" x="102" y="-288.563" font-family="Arial" font-size="14.00">Toolbox Start</text>
</g>
<!-- a -->
<g id="node6" class="node"><title>a</title>
<polygon fill="none" stroke="black" points="174,-240 30,-240 30,-211 174,-211 174,-240"/>
<text text-anchor="middle" x="102" y="-221.8" font-family="Microsoft Yahei" font-size="14.00">Activator</text>
</g>
<!-- start&#45;&gt;a -->
<g id="edge1" class="edge"><title>start&#45;&gt;a</title>
<path fill="none" stroke="black" d="M102,-275.76C102,-275.76 102,-250.447 102,-250.447"/>
<polygon fill="black" stroke="black" points="105.5,-250.447 102,-240.447 98.5001,-250.447 105.5,-250.447"/>
</g>
<!-- md -->
<g id="node2" class="node"><title>md</title>
<polygon fill="none" stroke="black" points="174,-110 30,-110 30,-81 174,-81 174,-110"/>
<text text-anchor="middle" x="102" y="-91.8" font-family="Microsoft Yahei" font-size="14.00">MessageDriver</text>
</g>
<!-- pt2 -->
<g id="node14" class="node"><title>pt2</title>
<text text-anchor="middle" x="102" y="-27.7" font-family="Microsoft Yahei" font-size="11.00">MessageDriver#listen(topic)</text>
</g>
<!-- md&#45;&gt;pt2 -->
<g id="edge4" class="edge"><title>md&#45;&gt;pt2</title>
<path fill="none" stroke="black" d="M102,-80.7505C102,-80.7505 102,-55.1911 102,-55.1911"/>
<polygon fill="black" stroke="black" points="105.5,-55.1911 102,-45.1911 98.5001,-55.1912 105.5,-55.1911"/>
</g>
<!-- md1 -->
<g id="node3" class="node"><title>md1</title>
<polygon fill="none" stroke="black" points="522,-240 378,-240 378,-211 522,-211 522,-240"/>
<text text-anchor="middle" x="450" y="-221.8" font-family="Microsoft Yahei" font-size="14.00">MessageDriver</text>
</g>
<!-- pt5 -->
<g id="node17" class="node"><title>pt5</title>
<text text-anchor="middle" x="637" y="-222.7" font-family="Microsoft Yahei" font-size="11.00">MessageDriver.onmessage(json)</text>
</g>
<!-- md1&#45;&gt;pt5 -->
<g id="edge10" class="edge"><title>md1&#45;&gt;pt5</title>
<path fill="none" stroke="black" d="M532.032,-225C532.032,-225 539.884,-225 539.884,-225"/>
<polygon fill="black" stroke="black" points="532.032,-221.5 522.032,-225 532.032,-228.5 532.032,-221.5"/>
</g>
<!-- t -->
<g id="node4" class="node"><title>t</title>
<polygon fill="none" stroke="black" points="1110,-306.763 966,-306.763 966,-277.763 1110,-277.763 1110,-306.763"/>
<text text-anchor="middle" x="1038" y="-288.563" font-family="Microsoft Yahei" font-size="14.00">Topic</text>
</g>
<!-- cs -->
<g id="node5" class="node"><title>cs</title>
<polygon fill="none" stroke="black" points="721,-306.763 577,-306.763 577,-277.763 721,-277.763 721,-306.763"/>
<text text-anchor="middle" x="649" y="-288.563" font-family="Microsoft Yahei" font-size="14.00">CallbackServlet</text>
</g>
<!-- pt4 -->
<g id="node16" class="node"><title>pt4</title>
<text text-anchor="middle" x="824" y="-289.463" font-family="Microsoft Yahei" font-size="11.00">MessageDriver.trigger(json)</text>
</g>
<!-- cs&#45;&gt;pt4 -->
<g id="edge7" class="edge"><title>cs&#45;&gt;pt4</title>
<path fill="none" stroke="black" d="M721.19,-292C721.19,-292 728.875,-292 728.875,-292"/>
<polygon fill="black" stroke="black" points="728.875,-295.5 738.875,-292 728.875,-288.5 728.875,-295.5"/>
</g>
<!-- pt1 -->
<g id="node13" class="node"><title>pt1</title>
<text text-anchor="middle" x="102" y="-157.7" font-family="Microsoft Yahei" font-size="11.00">Activator#start()</text>
</g>
<!-- a&#45;&gt;pt1 -->
<g id="edge2" class="edge"><title>a&#45;&gt;pt1</title>
<path fill="none" stroke="black" d="M102,-210.75C102,-210.75 102,-185.191 102,-185.191"/>
<polygon fill="black" stroke="black" points="105.5,-185.191 102,-175.191 98.5001,-185.191 105.5,-185.191"/>
</g>
<!-- a2 -->
<g id="node7" class="node"><title>a2</title>
<polygon fill="none" stroke="black" points="1272,-306.763 1128,-306.763 1128,-277.763 1272,-277.763 1272,-306.763"/>
<text text-anchor="middle" x="1200" y="-288.563" font-family="Microsoft Yahei" font-size="14.00">Activator</text>
</g>
<!-- main -->
<g id="node8" class="node"><title>main</title>
<polygon fill="none" stroke="black" points="381,-306.763 237,-306.763 237,-277.763 381,-277.763 381,-306.763"/>
<text text-anchor="middle" x="309" y="-288.563" font-family="Microsoft Yahei" font-size="14.00">Main</text>
</g>
<!-- pt3 -->
<g id="node15" class="node"><title>pt3</title>
<text text-anchor="middle" x="479" y="-289.463" font-family="Microsoft Yahei" font-size="11.00">new URL(url).getContent()</text>
</g>
<!-- main&#45;&gt;pt3 -->
<g id="edge5" class="edge"><title>main&#45;&gt;pt3</title>
<path fill="none" stroke="black" d="M381.095,-292C381.095,-292 389.427,-292 389.427,-292"/>
<polygon fill="black" stroke="black" points="389.427,-295.5 399.427,-292 389.427,-288.5 389.427,-295.5"/>
</g>
<!-- ml -->
<g id="node9" class="node"><title>ml</title>
<polygon fill="none" stroke="black" points="1434,-306.763 1290,-306.763 1290,-277.763 1434,-277.763 1434,-306.763"/>
<text text-anchor="middle" x="1362" y="-288.563" font-family="Microsoft Yahei" font-size="14.00">MessageListener</text>
</g>
<!-- pth -->
<g id="node10" class="node"><title>pth</title>
<polygon fill="none" stroke="black" points="356,-175 212,-175 212,-146 356,-146 356,-175"/>
<text text-anchor="middle" x="284" y="-156.8" font-family="Microsoft Yahei" font-size="14.00">PlanTaskHelper</text>
</g>
<!-- pt7 -->
<g id="node19" class="node"><title>pt7</title>
<text text-anchor="middle" x="446" y="-157.7" font-family="Microsoft Yahei" font-size="11.00">MessageDriver.within()</text>
</g>
<!-- pth&#45;&gt;pt7 -->
<g id="edge13" class="edge"><title>pth&#45;&gt;pt7</title>
<path fill="none" stroke="black" d="M356.471,-160C356.471,-160 363.966,-160 363.966,-160"/>
<polygon fill="black" stroke="black" points="363.966,-163.5 373.966,-160 363.966,-156.5 363.966,-163.5"/>
</g>
<!-- q1 -->
<g id="node11" class="node"><title>q1</title>
<polygon fill="none" stroke="black" points="896,-240 755.222,-240 752,-236.778 752,-211 892.778,-211 896,-214.222 896,-240"/>
<polyline fill="none" stroke="black" points="892.778,-236.778 752,-236.778 "/>
<polyline fill="none" stroke="black" points="892.778,-236.778 892.778,-211 "/>
<polyline fill="none" stroke="black" points="892.778,-236.778 896,-240 "/>
<text text-anchor="middle" x="824" y="-221.8" font-family="Microsoft Yahei" font-size="14.00">MQ (Public)</text>
</g>
<!-- q2 -->
<g id="node12" class="node"><title>q2</title>
<polygon fill="none" stroke="black" points="1596,-306.763 1455.22,-306.763 1452,-303.541 1452,-277.763 1592.78,-277.763 1596,-280.986 1596,-306.763"/>
<polyline fill="none" stroke="black" points="1592.78,-303.541 1452,-303.541 "/>
<polyline fill="none" stroke="black" points="1592.78,-303.541 1592.78,-277.763 "/>
<polyline fill="none" stroke="black" points="1592.78,-303.541 1596,-306.763 "/>
<text text-anchor="middle" x="1524" y="-288.563" font-family="Microsoft Yahei" font-size="14.00">MQ (Private)</text>
</g>
<!-- pt1&#45;&gt;md -->
<g id="edge3" class="edge"><title>pt1&#45;&gt;md</title>
<path fill="none" stroke="black" d="M102,-145.75C102,-145.75 102,-120.191 102,-120.191"/>
<polygon fill="black" stroke="black" points="105.5,-120.191 102,-110.191 98.5001,-120.191 105.5,-120.191"/>
</g>
<!-- pt3&#45;&gt;cs -->
<g id="edge6" class="edge"><title>pt3&#45;&gt;cs</title>
<path fill="none" stroke="black" d="M558.525,-292C558.525,-292 566.917,-292 566.917,-292"/>
<polygon fill="black" stroke="black" points="566.917,-295.5 576.917,-292 566.917,-288.5 566.917,-295.5"/>
</g>
<!-- pt4&#45;&gt;q1 -->
<g id="edge8" class="edge"><title>pt4&#45;&gt;q1</title>
<path fill="none" stroke="black" d="M824,-277.446C824,-277.446 824,-250.276 824,-250.276"/>
<polygon fill="black" stroke="black" points="827.5,-250.276 824,-240.276 820.5,-250.276 827.5,-250.276"/>
</g>
<!-- pt5&#45;&gt;q1 -->
<g id="edge9" class="edge"><title>pt5&#45;&gt;q1</title>
<path fill="none" stroke="black" d="M744.06,-225C744.06,-225 751.781,-225 751.781,-225"/>
<polygon fill="black" stroke="black" points="744.06,-221.5 734.06,-225 744.06,-228.5 744.06,-221.5"/>
</g>
<!-- pt6 -->
<g id="node18" class="node"><title>pt6</title>
<text text-anchor="middle" x="286" y="-222.7" font-family="Microsoft Yahei" font-size="11.00">top.handler.on(window)</text>
</g>
<!-- pt6&#45;&gt;md1 -->
<g id="edge11" class="edge"><title>pt6&#45;&gt;md1</title>
<path fill="none" stroke="black" d="M370.323,-225C370.323,-225 377.903,-225 377.903,-225"/>
<polygon fill="black" stroke="black" points="370.323,-221.5 360.323,-225 370.322,-228.5 370.323,-221.5"/>
</g>
<!-- pt6&#45;&gt;pth -->
<g id="edge12" class="edge"><title>pt6&#45;&gt;pth</title>
<path fill="none" stroke="black" d="M284,-210.75C284,-210.75 284,-185.191 284,-185.191"/>
<polygon fill="black" stroke="black" points="287.5,-185.191 284,-175.191 280.5,-185.191 287.5,-185.191"/>
</g>
<!-- pt8 -->
<g id="node20" class="node"><title>pt8</title>
<text text-anchor="middle" x="608" y="-157.7" font-family="Microsoft Yahei" font-size="11.00">MessageDriver.check()</text>
</g>
<!-- pt7&#45;&gt;pt8 -->
<g id="edge14" class="edge"><title>pt7&#45;&gt;pt8</title>
<path fill="none" stroke="black" d="M518.471,-160C518.471,-160 525.966,-160 525.966,-160"/>
<polygon fill="black" stroke="black" points="525.966,-163.5 535.966,-160 525.966,-156.5 525.966,-163.5"/>
</g>
<!-- pt9 -->
<g id="node21" class="node"><title>pt9</title>
<text text-anchor="middle" x="824" y="-157.7" font-family="Microsoft Yahei" font-size="11.00">PlanTaskHelper.executeMessageProgram()</text>
</g>
<!-- pt8&#45;&gt;pt9 -->
<g id="edge15" class="edge"><title>pt8&#45;&gt;pt9</title>
<path fill="none" stroke="black" d="M680.225,-160C680.225,-160 688.284,-160 688.284,-160"/>
<polygon fill="black" stroke="black" points="688.284,-163.5 698.284,-160 688.283,-156.5 688.284,-163.5"/>
</g>
</g>
</svg>
