<?xml version="1.0" encoding="UTF-8" standalone="no"?>
<!DOCTYPE svg PUBLIC "-//W3C//DTD SVG 1.1//EN"
 "http://www.w3.org/Graphics/SVG/1.1/DTD/svg11.dtd">
<!-- Generated by graphviz version 2.38.0 (20140413.2041)
 -->
<!-- Title: G Pages: 1 -->
<svg width="620pt" height="402pt"
 viewBox="0.00 0.00 620.00 402.05" xmlns="http://www.w3.org/2000/svg" xmlns:xlink="http://www.w3.org/1999/xlink">
<g id="graph0" class="graph" transform="scale(1 1) rotate(0) translate(4 398.054)">
<title>G</title>
<polygon fill="white" stroke="none" points="-4,4 -4,-398.054 616,-398.054 616,4 -4,4"/>
<!-- a -->
<g id="node1" class="node"><title>a</title>
<polygon fill="none" stroke="black" points="192,-310.527 48,-310.527 48,-281.527 192,-281.527 192,-310.527"/>
<text text-anchor="middle" x="120" y="-292.327" font-family="Arial" font-size="14.00">Activator</text>
</g>
<!-- m1 -->
<g id="node9" class="node"><title>m1</title>
<ellipse fill="darkorange" stroke="black" cx="120" cy="-230.027" rx="3.6" ry="3.6"/>
</g>
<!-- a&#45;&gt;m1 -->
<g id="edge2" class="edge"><title>a&#45;&gt;m1</title>
<path fill="none" stroke="black" d="M120,-281.379C120,-266.037 120,-242.934 120,-233.87"/>
<text text-anchor="middle" x="60" y="-237.67" font-family="Times New Roman,serif" font-size="14.00">MessageDriver#listen</text>
</g>
<!-- md -->
<g id="node2" class="node"><title>md</title>
<polygon fill="none" stroke="black" points="229,-164.527 85,-164.527 85,-135.527 229,-135.527 229,-164.527"/>
<text text-anchor="middle" x="157" y="-146.327" font-family="Arial" font-size="14.00">MessageDriver</text>
</g>
<!-- ml -->
<g id="node3" class="node"><title>ml</title>
<polygon fill="none" stroke="black" points="557,-164.527 413,-164.527 413,-135.527 557,-135.527 557,-164.527"/>
<text text-anchor="middle" x="485" y="-146.327" font-family="Arial" font-size="14.00">MessageListener</text>
</g>
<!-- md&#45;&gt;ml -->
<g id="edge7" class="edge"><title>md&#45;&gt;ml</title>
<path fill="none" stroke="black" d="M239.387,-150C239.387,-150 412.798,-150 412.798,-150"/>
<polygon fill="black" stroke="black" points="239.387,-146.5 229.387,-150 239.387,-153.5 239.387,-146.5"/>
<text text-anchor="middle" x="326.092" y="-138.8" font-family="Times New Roman,serif" font-size="14.00">MessageDriver#onmessage()</text>
</g>
<!-- s -->
<g id="node4" class="node"><title>s</title>
<polygon fill="none" stroke="black" points="229,-98.5269 85,-98.5269 85,-69.5269 229,-69.5269 229,-98.5269"/>
<text text-anchor="middle" x="157" y="-80.3269" font-family="Arial" font-size="14.00">Spark</text>
</g>
<!-- md&#45;&gt;s -->
<g id="edge8" class="edge"><title>md&#45;&gt;s</title>
<path fill="none" stroke="black" d="M157,-135.379C157,-135.379 157,-108.634 157,-108.634"/>
<polygon fill="black" stroke="black" points="160.5,-108.633 157,-98.6335 153.5,-108.634 160.5,-108.633"/>
</g>
<!-- end -->
<g id="node11" class="node"><title>end</title>
<ellipse fill="cornflowerblue" stroke="black" cx="157" cy="-16.2635" rx="29.8983" ry="16.0303"/>
<text text-anchor="middle" x="157" y="-12.5635" font-family="Arial" font-size="14.00">End</text>
</g>
<!-- s&#45;&gt;end -->
<g id="edge9" class="edge"><title>s&#45;&gt;end</title>
<path fill="none" stroke="black" d="M157,-69.3233C157,-69.3233 157,-42.843 157,-42.843"/>
<polygon fill="black" stroke="black" points="160.5,-42.8429 157,-32.843 153.5,-42.843 160.5,-42.8429"/>
</g>
<!-- q1 -->
<g id="node5" class="node"><title>q1</title>
<polygon fill="none" stroke="black" points="612,-244.527 399.222,-244.527 396,-241.305 396,-215.527 608.778,-215.527 612,-218.749 612,-244.527"/>
<polyline fill="none" stroke="black" points="608.778,-241.305 396,-241.305 "/>
<polyline fill="none" stroke="black" points="608.778,-241.305 608.778,-215.527 "/>
<polyline fill="none" stroke="black" points="608.778,-241.305 612,-244.527 "/>
<text text-anchor="middle" x="504" y="-226.327" font-family="Arial" font-size="14.00">MQ</text>
</g>
<!-- q1&#45;&gt;ml -->
<g id="edge6" class="edge"><title>q1&#45;&gt;ml</title>
<path fill="none" stroke="black" d="M485,-205.354C485,-205.354 485,-164.607 485,-164.607"/>
<polygon fill="black" stroke="black" points="481.5,-205.354 485,-215.354 488.5,-205.354 481.5,-205.354"/>
<text text-anchor="middle" x="536.5" y="-186.327" font-family="Times New Roman,serif" font-size="14.00">onMessage()</text>
</g>
<!-- p1 -->
<g id="node6" class="node"><title>p1</title>
<polygon fill="none" stroke="black" points="293.278,-241.027 186.254,-241.027 158.722,-219.027 265.746,-219.027 293.278,-241.027"/>
<text text-anchor="middle" x="226" y="-226.927" font-family="Arial" font-size="12.00">HDFSUtil.check</text>
</g>
<!-- p1&#45;&gt;q1 -->
<g id="edge5" class="edge"><title>p1&#45;&gt;q1</title>
<path fill="none" stroke="black" d="M279.601,-230C279.601,-230 385.896,-230 385.896,-230"/>
<polygon fill="black" stroke="black" points="385.896,-233.5 395.896,-230 385.896,-226.5 385.896,-233.5"/>
<text text-anchor="middle" x="353.999" y="-218.8" font-family="Times New Roman,serif" font-size="14.00">sendMessage()</text>
</g>
<!-- n1 -->
<g id="node7" class="node"><title>n1</title>
</g>
<!-- n2 -->
<g id="node8" class="node"><title>n2</title>
</g>
<!-- m1&#45;&gt;md -->
<g id="edge3" class="edge"><title>m1&#45;&gt;md</title>
<path fill="none" stroke="black" d="M120,-226.168C120,-226.168 120,-174.79 120,-174.79"/>
<polygon fill="black" stroke="black" points="123.5,-174.79 120,-164.79 116.5,-174.79 123.5,-174.79"/>
</g>
<!-- m1&#45;&gt;p1 -->
<g id="edge4" class="edge"><title>m1&#45;&gt;p1</title>
<path fill="none" stroke="black" d="M124.026,-230C132.346,-230 152.343,-230 172.447,-230"/>
</g>
<!-- start -->
<g id="node10" class="node"><title>start</title>
<ellipse fill="cornflowerblue" stroke="black" cx="120" cy="-377.79" rx="71.3357" ry="16.0303"/>
<text text-anchor="middle" x="120" y="-374.09" font-family="Arial" font-size="14.00">Toolbox Start</text>
</g>
<!-- start&#45;&gt;a -->
<g id="edge1" class="edge"><title>start&#45;&gt;a</title>
<path fill="none" stroke="black" d="M120,-361.244C120,-361.244 120,-320.63 120,-320.63"/>
<polygon fill="black" stroke="black" points="123.5,-320.63 120,-310.63 116.5,-320.63 123.5,-320.63"/>
<text text-anchor="middle" x="162" y="-332.327" font-family="Times New Roman,serif" font-size="14.00">Activator#start</text>
</g>
</g>
</svg>
