<?xml version="1.0" encoding="UTF-8" standalone="no"?>
<!DOCTYPE svg PUBLIC "-//W3C//DTD SVG 1.1//EN"
 "http://www.w3.org/Graphics/SVG/1.1/DTD/svg11.dtd">
<!-- Generated by graphviz version 2.38.0 (20140413.2041)
 -->
<!-- Title: D Pages: 1 -->
<svg width="298pt" height="179pt"
 viewBox="0.00 0.00 298.00 179.00" xmlns="http://www.w3.org/2000/svg" xmlns:xlink="http://www.w3.org/1999/xlink">
<g id="graph0" class="graph" transform="scale(1 1) rotate(0) translate(4 175)">
<title>D</title>
<polygon fill="white" stroke="none" points="-4,4 -4,-175 294,-175 294,4 -4,4"/>
<g id="clust1" class="cluster"><title>cluster_p</title>
<polygon fill="none" stroke="black" points="8,-8 8,-163 282,-163 282,-8 8,-8"/>
</g>
<g id="clust3" class="cluster"><title>cluster_c2</title>
<polygon fill="none" stroke="black" points="16,-16 16,-90 274,-90 274,-16 16,-16"/>
</g>
<g id="clust2" class="cluster"><title>cluster_c1</title>
<polygon fill="none" stroke="black" points="65,-110 65,-155 225,-155 225,-110 65,-110"/>
</g>
<!-- a -->
<g id="node1" class="node"><title>a</title>
<polygon fill="none" stroke="black" points="217,-147 73,-147 73,-118 217,-118 217,-147"/>
<text text-anchor="middle" x="145" y="-128.8" font-family="Arial" font-size="14.00">ActorSystem</text>
</g>
<!-- parent -->
<g id="node2" class="node"><title>parent</title>
<polygon fill="none" stroke="black" points="36,-54 36,-75 255,-75 255,-54 36,-54"/>
<text text-anchor="start" x="56.5" y="-60.8" font-family="Arial" font-size="14.00">The foo, the bar and the baz</text>
<polygon fill="none" stroke="black" points="36,-31 36,-52 99,-52 99,-31 36,-31"/>
<text text-anchor="start" x="39" y="-37.8" font-family="Arial" font-size="14.00">First port</text>
<polygon fill="none" stroke="black" points="101,-31 101,-52 186,-52 186,-31 101,-31"/>
<text text-anchor="start" x="104" y="-37.8" font-family="Arial" font-size="14.00">Second port</text>
<polygon fill="none" stroke="black" points="188,-31 188,-52 255,-52 255,-31 188,-31"/>
<text text-anchor="start" x="191" y="-37.8" font-family="Arial" font-size="14.00">Third port</text>
<polygon fill="none" stroke="black" points="32.5,-28 32.5,-78 257.5,-78 257.5,-28 32.5,-28"/>
</g>
<!-- a&#45;&gt;parent -->
<g id="edge1" class="edge"><title>a&#45;&gt;parent</title>
<path fill="none" stroke="black" d="M145,-117.645C145,-110.495 145,-101.386 145,-92.3083"/>
<polygon fill="black" stroke="black" points="148.5,-92.1796 145,-82.1797 141.5,-92.1797 148.5,-92.1796"/>
</g>
</g>
</svg>
