<?xml version="1.0" encoding="UTF-8" standalone="no"?><svg xmlns="http://www.w3.org/2000/svg" xmlns:xlink="http://www.w3.org/1999/xlink" contentScriptType="application/ecmascript" contentStyleType="text/css" height="313px" preserveAspectRatio="none" style="width:548px;height:313px;" version="1.1" viewBox="0 0 548 313" width="548px" zoomAndPan="magnify"><defs><filter height="300%" id="fcswg5if1vg4" width="300%" x="-1" y="-1"><feGaussianBlur result="blurOut" stdDeviation="2.0"/><feColorMatrix in="blurOut" result="blurOut2" type="matrix" values="0 0 0 0 0 0 0 0 0 0 0 0 0 0 0 0 0 0 .4 0"/><feOffset dx="4.0" dy="4.0" in="blurOut2" result="blurOut3"/><feBlend in="SourceGraphic" in2="blurOut3" mode="normal"/></filter></defs><g><!--class app_pitchcircle--><rect fill="#FEFECE" filter="url(#fcswg5if1vg4)" height="58.7773" id="app_pitchcircle" style="stroke: #A80036; stroke-width: 1.5;" width="115" x="207.5" y="8"/><ellipse cx="222.5" cy="29.3887" fill="#ADD1B2" rx="11" ry="11" style="stroke: #A80036; stroke-width: 1.0;"/><path d="M221.0781,34.748 Q219.2188,34.748 218.125,33.3574 Q217.0313,31.9668 217.0313,28.9824 Q217.0313,26.4512 218.1953,24.7949 Q219.3594,23.1387 221.3438,23.1387 Q222.8125,23.1387 223.2813,23.2637 Q223.75,23.4668 223.75,23.4668 Q223.75,23.4668 223.75,23.3965 Q223.75,23.3262 224.3594,22.4043 L225.4063,26.0605 L224.0781,26.4668 Q223.6094,24.9199 222.9453,24.2559 Q222.2813,23.5918 221.2188,23.5918 Q220.8281,23.5918 220.0625,25.123 Q219.2969,26.6543 219.2969,28.9043 Q219.2969,31.373 219.9609,32.7637 Q220.625,34.1543 221.1563,34.1543 Q222.2188,34.1543 222.9766,33.3887 Q223.7344,32.623 224.0781,30.9668 L225.4063,31.5605 Q225.0781,32.9668 224.1797,33.8574 Q223.2813,34.748 221.0781,34.748 Z "/><text fill="#000000" font-family="sans-serif" font-size="12" font-style="italic" lengthAdjust="spacingAndGlyphs" textLength="50" x="253" y="26.752">«圈层表»</text><text fill="#000000" font-family="sans-serif" font-size="12" lengthAdjust="spacingAndGlyphs" textLength="83" x="236.5" y="43.1406">app_pitchcircle</text><line style="stroke: #A80036; stroke-width: 1.5;" x1="208.5" x2="321.5" y1="50.7773" y2="50.7773"/><line style="stroke: #A80036; stroke-width: 1.5;" x1="208.5" x2="321.5" y1="58.7773" y2="58.7773"/><!--class app_user_mood--><rect fill="#FEFECE" filter="url(#fcswg5if1vg4)" height="58.7773" id="app_user_mood" style="stroke: #A80036; stroke-width: 1.5;" width="124" x="203" y="127"/><ellipse cx="218" cy="148.3887" fill="#ADD1B2" rx="11" ry="11" style="stroke: #A80036; stroke-width: 1.0;"/><path d="M216.5781,153.748 Q214.7188,153.748 213.625,152.3574 Q212.5313,150.9668 212.5313,147.9824 Q212.5313,145.4512 213.6953,143.7949 Q214.8594,142.1387 216.8438,142.1387 Q218.3125,142.1387 218.7813,142.2637 Q219.25,142.4668 219.25,142.4668 Q219.25,142.4668 219.25,142.3965 Q219.25,142.3262 219.8594,141.4043 L220.9063,145.0605 L219.5781,145.4668 Q219.1094,143.9199 218.4453,143.2559 Q217.7813,142.5918 216.7188,142.5918 Q216.3281,142.5918 215.5625,144.123 Q214.7969,145.6543 214.7969,147.9043 Q214.7969,150.373 215.4609,151.7637 Q216.125,153.1543 216.6563,153.1543 Q217.7188,153.1543 218.4766,152.3887 Q219.2344,151.623 219.5781,149.9668 L220.9063,150.5605 Q220.5781,151.9668 219.6797,152.8574 Q218.7813,153.748 216.5781,153.748 Z "/><text fill="#000000" font-family="sans-serif" font-size="12" font-style="italic" lengthAdjust="spacingAndGlyphs" textLength="74" x="241" y="145.752">«用户动态表»</text><text fill="#000000" font-family="sans-serif" font-size="12" lengthAdjust="spacingAndGlyphs" textLength="92" x="232" y="162.1406">app_user_mood</text><line style="stroke: #A80036; stroke-width: 1.5;" x1="204" x2="326" y1="169.7773" y2="169.7773"/><line style="stroke: #A80036; stroke-width: 1.5;" x1="204" x2="326" y1="177.7773" y2="177.7773"/><!--class app_likes--><rect fill="#FEFECE" filter="url(#fcswg5if1vg4)" height="58.7773" id="app_likes" style="stroke: #A80036; stroke-width: 1.5;" width="102" x="6" y="246"/><ellipse cx="21" cy="267.3887" fill="#ADD1B2" rx="11" ry="11" style="stroke: #A80036; stroke-width: 1.0;"/><path d="M19.5781,272.748 Q17.7188,272.748 16.625,271.3574 Q15.5313,269.9668 15.5313,266.9824 Q15.5313,264.4512 16.6953,262.7949 Q17.8594,261.1387 19.8438,261.1387 Q21.3125,261.1387 21.7813,261.2637 Q22.25,261.4668 22.25,261.4668 Q22.25,261.4668 22.25,261.3965 Q22.25,261.3262 22.8594,260.4043 L23.9063,264.0605 L22.5781,264.4668 Q22.1094,262.9199 21.4453,262.2559 Q20.7813,261.5918 19.7188,261.5918 Q19.3281,261.5918 18.5625,263.123 Q17.7969,264.6543 17.7969,266.9043 Q17.7969,269.373 18.4609,270.7637 Q19.125,272.1543 19.6563,272.1543 Q20.7188,272.1543 21.4766,271.3887 Q22.2344,270.623 22.5781,268.9668 L23.9063,269.5605 Q23.5781,270.9668 22.6797,271.8574 Q21.7813,272.748 19.5781,272.748 Z "/><text fill="#000000" font-family="sans-serif" font-size="12" font-style="italic" lengthAdjust="spacingAndGlyphs" textLength="74" x="33" y="264.752">«用户点赞表»</text><text fill="#000000" font-family="sans-serif" font-size="12" lengthAdjust="spacingAndGlyphs" textLength="54" x="43" y="281.1406">app_likes</text><line style="stroke: #A80036; stroke-width: 1.5;" x1="7" x2="107" y1="288.7773" y2="288.7773"/><line style="stroke: #A80036; stroke-width: 1.5;" x1="7" x2="107" y1="296.7773" y2="296.7773"/><!--class app_share--><rect fill="#FEFECE" filter="url(#fcswg5if1vg4)" height="58.7773" id="app_share" style="stroke: #A80036; stroke-width: 1.5;" width="102" x="143" y="246"/><ellipse cx="158" cy="267.3887" fill="#ADD1B2" rx="11" ry="11" style="stroke: #A80036; stroke-width: 1.0;"/><path d="M156.5781,272.748 Q154.7188,272.748 153.625,271.3574 Q152.5313,269.9668 152.5313,266.9824 Q152.5313,264.4512 153.6953,262.7949 Q154.8594,261.1387 156.8438,261.1387 Q158.3125,261.1387 158.7813,261.2637 Q159.25,261.4668 159.25,261.4668 Q159.25,261.4668 159.25,261.3965 Q159.25,261.3262 159.8594,260.4043 L160.9063,264.0605 L159.5781,264.4668 Q159.1094,262.9199 158.4453,262.2559 Q157.7813,261.5918 156.7188,261.5918 Q156.3281,261.5918 155.5625,263.123 Q154.7969,264.6543 154.7969,266.9043 Q154.7969,269.373 155.4609,270.7637 Q156.125,272.1543 156.6563,272.1543 Q157.7188,272.1543 158.4766,271.3887 Q159.2344,270.623 159.5781,268.9668 L160.9063,269.5605 Q160.5781,270.9668 159.6797,271.8574 Q158.7813,272.748 156.5781,272.748 Z "/><text fill="#000000" font-family="sans-serif" font-size="12" font-style="italic" lengthAdjust="spacingAndGlyphs" textLength="74" x="170" y="264.752">«用户分享表»</text><text fill="#000000" font-family="sans-serif" font-size="12" lengthAdjust="spacingAndGlyphs" textLength="60" x="177" y="281.1406">app_share</text><line style="stroke: #A80036; stroke-width: 1.5;" x1="144" x2="244" y1="288.7773" y2="288.7773"/><line style="stroke: #A80036; stroke-width: 1.5;" x1="144" x2="244" y1="296.7773" y2="296.7773"/><!--class app_collection--><rect fill="#FEFECE" filter="url(#fcswg5if1vg4)" height="58.7773" id="app_collection" style="stroke: #A80036; stroke-width: 1.5;" width="112" x="280" y="246"/><ellipse cx="295" cy="267.3887" fill="#ADD1B2" rx="11" ry="11" style="stroke: #A80036; stroke-width: 1.0;"/><path d="M293.5781,272.748 Q291.7188,272.748 290.625,271.3574 Q289.5313,269.9668 289.5313,266.9824 Q289.5313,264.4512 290.6953,262.7949 Q291.8594,261.1387 293.8438,261.1387 Q295.3125,261.1387 295.7813,261.2637 Q296.25,261.4668 296.25,261.4668 Q296.25,261.4668 296.25,261.3965 Q296.25,261.3262 296.8594,260.4043 L297.9063,264.0605 L296.5781,264.4668 Q296.1094,262.9199 295.4453,262.2559 Q294.7813,261.5918 293.7188,261.5918 Q293.3281,261.5918 292.5625,263.123 Q291.7969,264.6543 291.7969,266.9043 Q291.7969,269.373 292.4609,270.7637 Q293.125,272.1543 293.6563,272.1543 Q294.7188,272.1543 295.4766,271.3887 Q296.2344,270.623 296.5781,268.9668 L297.9063,269.5605 Q297.5781,270.9668 296.6797,271.8574 Q295.7813,272.748 293.5781,272.748 Z "/><text fill="#000000" font-family="sans-serif" font-size="12" font-style="italic" lengthAdjust="spacingAndGlyphs" textLength="74" x="312" y="264.752">«用户收藏表»</text><text fill="#000000" font-family="sans-serif" font-size="12" lengthAdjust="spacingAndGlyphs" textLength="80" x="309" y="281.1406">app_collection</text><line style="stroke: #A80036; stroke-width: 1.5;" x1="281" x2="391" y1="288.7773" y2="288.7773"/><line style="stroke: #A80036; stroke-width: 1.5;" x1="281" x2="391" y1="296.7773" y2="296.7773"/><!--class app_comment--><rect fill="#FEFECE" filter="url(#fcswg5if1vg4)" height="58.7773" id="app_comment" style="stroke: #A80036; stroke-width: 1.5;" width="112" x="427" y="246"/><ellipse cx="442" cy="267.3887" fill="#ADD1B2" rx="11" ry="11" style="stroke: #A80036; stroke-width: 1.0;"/><path d="M440.5781,272.748 Q438.7188,272.748 437.625,271.3574 Q436.5313,269.9668 436.5313,266.9824 Q436.5313,264.4512 437.6953,262.7949 Q438.8594,261.1387 440.8438,261.1387 Q442.3125,261.1387 442.7813,261.2637 Q443.25,261.4668 443.25,261.4668 Q443.25,261.4668 443.25,261.3965 Q443.25,261.3262 443.8594,260.4043 L444.9063,264.0605 L443.5781,264.4668 Q443.1094,262.9199 442.4453,262.2559 Q441.7813,261.5918 440.7188,261.5918 Q440.3281,261.5918 439.5625,263.123 Q438.7969,264.6543 438.7969,266.9043 Q438.7969,269.373 439.4609,270.7637 Q440.125,272.1543 440.6563,272.1543 Q441.7188,272.1543 442.4766,271.3887 Q443.2344,270.623 443.5781,268.9668 L444.9063,269.5605 Q444.5781,270.9668 443.6797,271.8574 Q442.7813,272.748 440.5781,272.748 Z "/><text fill="#000000" font-family="sans-serif" font-size="12" font-style="italic" lengthAdjust="spacingAndGlyphs" textLength="74" x="459" y="264.752">«用户评论表»</text><text fill="#000000" font-family="sans-serif" font-size="12" lengthAdjust="spacingAndGlyphs" textLength="80" x="456" y="281.1406">app_comment</text><line style="stroke: #A80036; stroke-width: 1.5;" x1="428" x2="538" y1="288.7773" y2="288.7773"/><line style="stroke: #A80036; stroke-width: 1.5;" x1="428" x2="538" y1="296.7773" y2="296.7773"/><!--link app_pitchcircle to app_user_mood--><path d="M265,67.121 C265,85.252 265,108.617 265,126.769 " fill="none" id="app_pitchcircle-app_user_mood" style="stroke: #A80036; stroke-width: 1.0;"/><text fill="#000000" font-family="sans-serif" font-size="13" lengthAdjust="spacingAndGlyphs" textLength="7" x="257.3109" y="89.6202">1</text><text fill="#000000" font-family="sans-serif" font-size="13" lengthAdjust="spacingAndGlyphs" textLength="5" x="259.4219" y="115.939">*</text><!--link app_user_mood to app_likes--><path d="M214.117,186.121 C181.765,204.32 140.038,227.7912 107.717,245.9715 " fill="none" id="app_user_mood-app_likes" style="stroke: #A80036; stroke-width: 1.0;"/><text fill="#000000" font-family="sans-serif" font-size="13" lengthAdjust="spacingAndGlyphs" textLength="7" x="196.4103" y="208.6202">1</text><text fill="#000000" font-family="sans-serif" font-size="13" lengthAdjust="spacingAndGlyphs" textLength="5" x="113.8676" y="235.1883">*</text><!--link app_user_mood to app_share--><path d="M247.631,186.121 C236.629,204.252 222.451,227.6168 211.435,245.7686 " fill="none" id="app_user_mood-app_share" style="stroke: #A80036; stroke-width: 1.0;"/><text fill="#000000" font-family="sans-serif" font-size="13" lengthAdjust="spacingAndGlyphs" textLength="7" x="236.5224" y="208.6202">1</text><text fill="#000000" font-family="sans-serif" font-size="13" lengthAdjust="spacingAndGlyphs" textLength="5" x="209.8887" y="234.9385">*</text><!--link app_user_mood to app_collection--><path d="M282.369,186.121 C293.371,204.252 307.549,227.6168 318.565,245.7686 " fill="none" id="app_user_mood-app_collection" style="stroke: #A80036; stroke-width: 1.0;"/><text fill="#000000" font-family="sans-serif" font-size="13" lengthAdjust="spacingAndGlyphs" textLength="7" x="278.0995" y="208.6202">1</text><text fill="#000000" font-family="sans-serif" font-size="13" lengthAdjust="spacingAndGlyphs" textLength="5" x="308.955" y="234.9385">*</text><!--link app_user_mood to app_comment--><path d="M318.329,186.121 C352.237,204.32 395.97,227.7912 429.844,245.9715 " fill="none" id="app_user_mood-app_comment" style="stroke: #A80036; stroke-width: 1.0;"/><text fill="#000000" font-family="sans-serif" font-size="13" lengthAdjust="spacingAndGlyphs" textLength="7" x="321.1391" y="208.6202">1</text><text fill="#000000" font-family="sans-serif" font-size="13" lengthAdjust="spacingAndGlyphs" textLength="5" x="413.8867" y="236.4788">*</text><!--
@startuml

class app_pitchcircle <<圈层表>>
class app_user_mood <<用户动态表>>
class app_likes <<用户点赞表>>
class app_share <<用户分享表>>
class app_collection <<用户收藏表>>
class app_comment <<用户评论表>>

app_pitchcircle "1" - - "*" app_user_mood
app_user_mood "1" - - "*" app_likes
app_user_mood "1" - - "*" app_share
app_user_mood "1" - - "*" app_collection
app_user_mood "1" - - "*" app_comment

@enduml

PlantUML version 1.2017.12(Thu Apr 27 00:06:36 CST 2017)
(GPL source distribution)
Java Runtime: Java(TM) SE Runtime Environment
JVM: Java HotSpot(TM) 64-Bit Server VM
Java Version: 1.7.0_79-b15
Operating System: Windows 8.1
OS Version: 6.3
Default Encoding: GBK
Language: zh
Country: CN
--></g></svg>