<?xml version="1.0" encoding="UTF-8" standalone="no"?><svg xmlns="http://www.w3.org/2000/svg" xmlns:xlink="http://www.w3.org/1999/xlink" contentScriptType="application/ecmascript" contentStyleType="text/css" height="194px" preserveAspectRatio="none" style="width:437px;height:194px;" version="1.1" viewBox="0 0 437 194" width="437px" zoomAndPan="magnify"><defs><filter height="300%" id="f5nf3shi23br" width="300%" x="-1" y="-1"><feGaussianBlur result="blurOut" stdDeviation="2.0"/><feColorMatrix in="blurOut" result="blurOut2" type="matrix" values="0 0 0 0 0 0 0 0 0 0 0 0 0 0 0 0 0 0 .4 0"/><feOffset dx="4.0" dy="4.0" in="blurOut2" result="blurOut3"/><feBlend in="SourceGraphic" in2="blurOut3" mode="normal"/></filter></defs><g><!--class app_group--><rect fill="#FEFECE" filter="url(#f5nf3shi23br)" height="58.7773" id="app_group" style="stroke: #A80036; stroke-width: 1.5;" width="102" x="162" y="8"/><ellipse cx="177" cy="29.3887" fill="#ADD1B2" rx="11" ry="11" style="stroke: #A80036; stroke-width: 1.0;"/><path d="M175.5781,34.748 Q173.7188,34.748 172.625,33.3574 Q171.5313,31.9668 171.5313,28.9824 Q171.5313,26.4512 172.6953,24.7949 Q173.8594,23.1387 175.8438,23.1387 Q177.3125,23.1387 177.7813,23.2637 Q178.25,23.4668 178.25,23.4668 Q178.25,23.4668 178.25,23.3965 Q178.25,23.3262 178.8594,22.4043 L179.9063,26.0605 L178.5781,26.4668 Q178.1094,24.9199 177.4453,24.2559 Q176.7813,23.5918 175.7188,23.5918 Q175.3281,23.5918 174.5625,25.123 Q173.7969,26.6543 173.7969,28.9043 Q173.7969,31.373 174.4609,32.7637 Q175.125,34.1543 175.6563,34.1543 Q176.7188,34.1543 177.4766,33.3887 Q178.2344,32.623 178.5781,30.9668 L179.9063,31.5605 Q179.5781,32.9668 178.6797,33.8574 Q177.7813,34.748 175.5781,34.748 Z "/><text fill="#000000" font-family="sans-serif" font-size="12" font-style="italic" lengthAdjust="spacingAndGlyphs" textLength="74" x="189" y="26.752">«群组信息表»</text><text fill="#000000" font-family="sans-serif" font-size="12" lengthAdjust="spacingAndGlyphs" textLength="60" x="196" y="43.1406">app_group</text><line style="stroke: #A80036; stroke-width: 1.5;" x1="163" x2="263" y1="50.7773" y2="50.7773"/><line style="stroke: #A80036; stroke-width: 1.5;" x1="163" x2="263" y1="58.7773" y2="58.7773"/><!--class app_group_set--><rect fill="#FEFECE" filter="url(#f5nf3shi23br)" height="58.7773" id="app_group_set" style="stroke: #A80036; stroke-width: 1.5;" width="116" x="6" y="127"/><ellipse cx="21" cy="148.3887" fill="#ADD1B2" rx="11" ry="11" style="stroke: #A80036; stroke-width: 1.0;"/><path d="M19.5781,153.748 Q17.7188,153.748 16.625,152.3574 Q15.5313,150.9668 15.5313,147.9824 Q15.5313,145.4512 16.6953,143.7949 Q17.8594,142.1387 19.8438,142.1387 Q21.3125,142.1387 21.7813,142.2637 Q22.25,142.4668 22.25,142.4668 Q22.25,142.4668 22.25,142.3965 Q22.25,142.3262 22.8594,141.4043 L23.9063,145.0605 L22.5781,145.4668 Q22.1094,143.9199 21.4453,143.2559 Q20.7813,142.5918 19.7188,142.5918 Q19.3281,142.5918 18.5625,144.123 Q17.7969,145.6543 17.7969,147.9043 Q17.7969,150.373 18.4609,151.7637 Q19.125,153.1543 19.6563,153.1543 Q20.7188,153.1543 21.4766,152.3887 Q22.2344,151.623 22.5781,149.9668 L23.9063,150.5605 Q23.5781,151.9668 22.6797,152.8574 Q21.7813,153.748 19.5781,153.748 Z "/><text fill="#000000" font-family="sans-serif" font-size="12" font-style="italic" lengthAdjust="spacingAndGlyphs" textLength="62" x="46" y="145.752">«群设置表»</text><text fill="#000000" font-family="sans-serif" font-size="12" lengthAdjust="spacingAndGlyphs" textLength="84" x="35" y="162.1406">app_group_set</text><line style="stroke: #A80036; stroke-width: 1.5;" x1="7" x2="121" y1="169.7773" y2="169.7773"/><line style="stroke: #A80036; stroke-width: 1.5;" x1="7" x2="121" y1="177.7773" y2="177.7773"/><!--class app_complain--><rect fill="#FEFECE" filter="url(#f5nf3shi23br)" height="58.7773" id="app_complain" style="stroke: #A80036; stroke-width: 1.5;" width="111" x="157.5" y="127"/><ellipse cx="172.5" cy="148.3887" fill="#ADD1B2" rx="11" ry="11" style="stroke: #A80036; stroke-width: 1.0;"/><path d="M171.0781,153.748 Q169.2188,153.748 168.125,152.3574 Q167.0313,150.9668 167.0313,147.9824 Q167.0313,145.4512 168.1953,143.7949 Q169.3594,142.1387 171.3438,142.1387 Q172.8125,142.1387 173.2813,142.2637 Q173.75,142.4668 173.75,142.4668 Q173.75,142.4668 173.75,142.3965 Q173.75,142.3262 174.3594,141.4043 L175.4063,145.0605 L174.0781,145.4668 Q173.6094,143.9199 172.9453,143.2559 Q172.2813,142.5918 171.2188,142.5918 Q170.8281,142.5918 170.0625,144.123 Q169.2969,145.6543 169.2969,147.9043 Q169.2969,150.373 169.9609,151.7637 Q170.625,153.1543 171.1563,153.1543 Q172.2188,153.1543 172.9766,152.3887 Q173.7344,151.623 174.0781,149.9668 L175.4063,150.5605 Q175.0781,151.9668 174.1797,152.8574 Q173.2813,153.748 171.0781,153.748 Z "/><text fill="#000000" font-family="sans-serif" font-size="12" font-style="italic" lengthAdjust="spacingAndGlyphs" textLength="74" x="189" y="145.752">«群组投诉表»</text><text fill="#000000" font-family="sans-serif" font-size="12" lengthAdjust="spacingAndGlyphs" textLength="79" x="186.5" y="162.1406">app_complain</text><line style="stroke: #A80036; stroke-width: 1.5;" x1="158.5" x2="267.5" y1="169.7773" y2="169.7773"/><line style="stroke: #A80036; stroke-width: 1.5;" x1="158.5" x2="267.5" y1="177.7773" y2="177.7773"/><!--class app_group_user--><rect fill="#FEFECE" filter="url(#f5nf3shi23br)" height="58.7773" id="app_group_user" style="stroke: #A80036; stroke-width: 1.5;" width="124" x="304" y="127"/><ellipse cx="319" cy="148.3887" fill="#ADD1B2" rx="11" ry="11" style="stroke: #A80036; stroke-width: 1.0;"/><path d="M317.5781,153.748 Q315.7188,153.748 314.625,152.3574 Q313.5313,150.9668 313.5313,147.9824 Q313.5313,145.4512 314.6953,143.7949 Q315.8594,142.1387 317.8438,142.1387 Q319.3125,142.1387 319.7813,142.2637 Q320.25,142.4668 320.25,142.4668 Q320.25,142.4668 320.25,142.3965 Q320.25,142.3262 320.8594,141.4043 L321.9063,145.0605 L320.5781,145.4668 Q320.1094,143.9199 319.4453,143.2559 Q318.7813,142.5918 317.7188,142.5918 Q317.3281,142.5918 316.5625,144.123 Q315.7969,145.6543 315.7969,147.9043 Q315.7969,150.373 316.4609,151.7637 Q317.125,153.1543 317.6563,153.1543 Q318.7188,153.1543 319.4766,152.3887 Q320.2344,151.623 320.5781,149.9668 L321.9063,150.5605 Q321.5781,151.9668 320.6797,152.8574 Q319.7813,153.748 317.5781,153.748 Z "/><text fill="#000000" font-family="sans-serif" font-size="12" font-style="italic" lengthAdjust="spacingAndGlyphs" textLength="90" x="334" y="145.752">«群-用户关系表»</text><text fill="#000000" font-family="sans-serif" font-size="12" lengthAdjust="spacingAndGlyphs" textLength="92" x="333" y="162.1406">app_group_user</text><line style="stroke: #A80036; stroke-width: 1.5;" x1="305" x2="427" y1="169.7773" y2="169.7773"/><line style="stroke: #A80036; stroke-width: 1.5;" x1="305" x2="427" y1="177.7773" y2="177.7773"/><!--link app_group to app_group_set--><path d="M176.55,67.121 C153.375,85.32 123.484,108.7912 100.3311,126.9715 " fill="none" id="app_group-app_group_set" style="stroke: #A80036; stroke-width: 1.0;"/><text fill="#000000" font-family="sans-serif" font-size="13" lengthAdjust="spacingAndGlyphs" textLength="7" x="161.6848" y="89.6202">1</text><text fill="#000000" font-family="sans-serif" font-size="13" lengthAdjust="spacingAndGlyphs" textLength="7" x="100.9233" y="116.1883">1</text><!--link app_group to app_complain--><path d="M213,67.121 C213,85.252 213,108.6168 213,126.7686 " fill="none" id="app_group-app_complain" style="stroke: #A80036; stroke-width: 1.0;"/><text fill="#000000" font-family="sans-serif" font-size="13" lengthAdjust="spacingAndGlyphs" textLength="7" x="205.3109" y="89.6202">1</text><text fill="#000000" font-family="sans-serif" font-size="13" lengthAdjust="spacingAndGlyphs" textLength="5" x="207.4219" y="115.9385">*</text><!--link app_group to app_group_user--><path d="M250.428,67.121 C274.226,85.32 304.919,108.7912 328.694,126.9715 " fill="none" id="app_group-app_group_user" style="stroke: #A80036; stroke-width: 1.0;"/><text fill="#000000" font-family="sans-serif" font-size="13" lengthAdjust="spacingAndGlyphs" textLength="7" x="250.1076" y="89.6202">1</text><text fill="#000000" font-family="sans-serif" font-size="13" lengthAdjust="spacingAndGlyphs" textLength="5" x="314.4889" y="116.1883">*</text><!--
@startuml

class app_group <<群组信息表>>
class app_group_set <<群设置表>>
class app_complain <<群组投诉表>>
class app_group_user <<群-用户关系表>>


app_group "1" - - "1" app_group_set
app_group "1" - - "*" app_complain
app_group "1" - - "*" app_group_user

@enduml

PlantUML version 1.2017.12(Thu Apr 27 00:06:36 CST 2017)
(GPL source distribution)
Java Runtime: Java(TM) SE Runtime Environment
JVM: Java HotSpot(TM) 64-Bit Server VM
Java Version: 1.7.0_79-b15
Operating System: Windows 8.1
OS Version: 6.3
Default Encoding: GBK
Language: zh
Country: CN
--></g></svg>