<?xml version="1.0" encoding="UTF-8" standalone="no"?><svg xmlns="http://www.w3.org/2000/svg" xmlns:xlink="http://www.w3.org/1999/xlink" contentScriptType="application/ecmascript" contentStyleType="text/css" height="313px" preserveAspectRatio="none" style="width:762px;height:313px;" version="1.1" viewBox="0 0 762 313" width="762px" zoomAndPan="magnify"><defs><filter height="300%" id="f1tes768tgfr9r" width="300%" x="-1" y="-1"><feGaussianBlur result="blurOut" stdDeviation="2.0"/><feColorMatrix in="blurOut" result="blurOut2" type="matrix" values="0 0 0 0 0 0 0 0 0 0 0 0 0 0 0 0 0 0 .4 0"/><feOffset dx="4.0" dy="4.0" in="blurOut2" result="blurOut3"/><feBlend in="SourceGraphic" in2="blurOut3" mode="normal"/></filter></defs><g><!--class ti_user--><rect fill="#FEFECE" filter="url(#f1tes768tgfr9r)" height="58.7773" id="ti_user" style="stroke: #A80036; stroke-width: 1.5;" width="78" x="265" y="127"/><ellipse cx="280" cy="148.3887" fill="#ADD1B2" rx="11" ry="11" style="stroke: #A80036; stroke-width: 1.0;"/><path d="M278.5781,153.748 Q276.7188,153.748 275.625,152.3574 Q274.5313,150.9668 274.5313,147.9824 Q274.5313,145.4512 275.6953,143.7949 Q276.8594,142.1387 278.8438,142.1387 Q280.3125,142.1387 280.7813,142.2637 Q281.25,142.4668 281.25,142.4668 Q281.25,142.4668 281.25,142.3965 Q281.25,142.3262 281.8594,141.4043 L282.9063,145.0605 L281.5781,145.4668 Q281.1094,143.9199 280.4453,143.2559 Q279.7813,142.5918 278.7188,142.5918 Q278.3281,142.5918 277.5625,144.123 Q276.7969,145.6543 276.7969,147.9043 Q276.7969,150.373 277.4609,151.7637 Q278.125,153.1543 278.6563,153.1543 Q279.7188,153.1543 280.4766,152.3887 Q281.2344,151.623 281.5781,149.9668 L282.9063,150.5605 Q282.5781,151.9668 281.6797,152.8574 Q280.7813,153.748 278.5781,153.748 Z "/><text fill="#000000" font-family="sans-serif" font-size="12" font-style="italic" lengthAdjust="spacingAndGlyphs" textLength="50" x="292" y="145.752">«用户表»</text><text fill="#000000" font-family="sans-serif" font-size="12" lengthAdjust="spacingAndGlyphs" textLength="38" x="298" y="162.1406">ti_user</text><line style="stroke: #A80036; stroke-width: 1.5;" x1="266" x2="342" y1="169.7773" y2="169.7773"/><line style="stroke: #A80036; stroke-width: 1.5;" x1="266" x2="342" y1="177.7773" y2="177.7773"/><!--class app_friend_recommend--><rect fill="#FEFECE" filter="url(#f1tes768tgfr9r)" height="58.7773" id="app_friend_recommend" style="stroke: #A80036; stroke-width: 1.5;" width="165" x="221.5" y="8"/><ellipse cx="236.5" cy="29.3887" fill="#ADD1B2" rx="11" ry="11" style="stroke: #A80036; stroke-width: 1.0;"/><path d="M235.0781,34.748 Q233.2188,34.748 232.125,33.3574 Q231.0313,31.9668 231.0313,28.9824 Q231.0313,26.4512 232.1953,24.7949 Q233.3594,23.1387 235.3438,23.1387 Q236.8125,23.1387 237.2813,23.2637 Q237.75,23.4668 237.75,23.4668 Q237.75,23.4668 237.75,23.3965 Q237.75,23.3262 238.3594,22.4043 L239.4063,26.0605 L238.0781,26.4668 Q237.6094,24.9199 236.9453,24.2559 Q236.2813,23.5918 235.2188,23.5918 Q234.8281,23.5918 234.0625,25.123 Q233.2969,26.6543 233.2969,28.9043 Q233.2969,31.373 233.9609,32.7637 Q234.625,34.1543 235.1563,34.1543 Q236.2188,34.1543 236.9766,33.3887 Q237.7344,32.623 238.0781,30.9668 L239.4063,31.5605 Q239.0781,32.9668 238.1797,33.8574 Q237.2813,34.748 235.0781,34.748 Z "/><text fill="#000000" font-family="sans-serif" font-size="12" font-style="italic" lengthAdjust="spacingAndGlyphs" textLength="74" x="280" y="26.752">«好友推荐表»</text><text fill="#000000" font-family="sans-serif" font-size="12" lengthAdjust="spacingAndGlyphs" textLength="133" x="250.5" y="43.1406">app_friend_recommend</text><line style="stroke: #A80036; stroke-width: 1.5;" x1="222.5" x2="385.5" y1="50.7773" y2="50.7773"/><line style="stroke: #A80036; stroke-width: 1.5;" x1="222.5" x2="385.5" y1="58.7773" y2="58.7773"/><!--class app_user_authentication--><rect fill="#FEFECE" filter="url(#f1tes768tgfr9r)" height="58.7773" id="app_user_authentication" style="stroke: #A80036; stroke-width: 1.5;" width="169" x="60.5" y="127"/><ellipse cx="75.5" cy="148.3887" fill="#ADD1B2" rx="11" ry="11" style="stroke: #A80036; stroke-width: 1.0;"/><path d="M74.0781,153.748 Q72.2188,153.748 71.125,152.3574 Q70.0313,150.9668 70.0313,147.9824 Q70.0313,145.4512 71.1953,143.7949 Q72.3594,142.1387 74.3438,142.1387 Q75.8125,142.1387 76.2813,142.2637 Q76.75,142.4668 76.75,142.4668 Q76.75,142.4668 76.75,142.3965 Q76.75,142.3262 77.3594,141.4043 L78.4063,145.0605 L77.0781,145.4668 Q76.6094,143.9199 75.9453,143.2559 Q75.2813,142.5918 74.2188,142.5918 Q73.8281,142.5918 73.0625,144.123 Q72.2969,145.6543 72.2969,147.9043 Q72.2969,150.373 72.9609,151.7637 Q73.625,153.1543 74.1563,153.1543 Q75.2188,153.1543 75.9766,152.3887 Q76.7344,151.623 77.0781,149.9668 L78.4063,150.5605 Q78.0781,151.9668 77.1797,152.8574 Q76.2813,153.748 74.0781,153.748 Z "/><text fill="#000000" font-family="sans-serif" font-size="12" font-style="italic" lengthAdjust="spacingAndGlyphs" textLength="98" x="109" y="145.752">«用户个人认证表»</text><text fill="#000000" font-family="sans-serif" font-size="12" lengthAdjust="spacingAndGlyphs" textLength="137" x="89.5" y="162.1406">app_user_authentication</text><line style="stroke: #A80036; stroke-width: 1.5;" x1="61.5" x2="228.5" y1="169.7773" y2="169.7773"/><line style="stroke: #A80036; stroke-width: 1.5;" x1="61.5" x2="228.5" y1="177.7773" y2="177.7773"/><!--class app_friend_add--><rect fill="#FEFECE" filter="url(#f1tes768tgfr9r)" height="58.7773" id="app_friend_add" style="stroke: #A80036; stroke-width: 1.5;" width="126" x="6" y="246"/><ellipse cx="21" cy="267.3887" fill="#ADD1B2" rx="11" ry="11" style="stroke: #A80036; stroke-width: 1.0;"/><path d="M19.5781,272.748 Q17.7188,272.748 16.625,271.3574 Q15.5313,269.9668 15.5313,266.9824 Q15.5313,264.4512 16.6953,262.7949 Q17.8594,261.1387 19.8438,261.1387 Q21.3125,261.1387 21.7813,261.2637 Q22.25,261.4668 22.25,261.4668 Q22.25,261.4668 22.25,261.3965 Q22.25,261.3262 22.8594,260.4043 L23.9063,264.0605 L22.5781,264.4668 Q22.1094,262.9199 21.4453,262.2559 Q20.7813,261.5918 19.7188,261.5918 Q19.3281,261.5918 18.5625,263.123 Q17.7969,264.6543 17.7969,266.9043 Q17.7969,269.373 18.4609,270.7637 Q19.125,272.1543 19.6563,272.1543 Q20.7188,272.1543 21.4766,271.3887 Q22.2344,270.623 22.5781,268.9668 L23.9063,269.5605 Q23.5781,270.9668 22.6797,271.8574 Q21.7813,272.748 19.5781,272.748 Z "/><text fill="#000000" font-family="sans-serif" font-size="12" font-style="italic" lengthAdjust="spacingAndGlyphs" textLength="98" x="33" y="264.752">«添加好友记录表»</text><text fill="#000000" font-family="sans-serif" font-size="12" lengthAdjust="spacingAndGlyphs" textLength="87" x="38.5" y="281.1406">app_friend_add</text><line style="stroke: #A80036; stroke-width: 1.5;" x1="7" x2="131" y1="288.7773" y2="288.7773"/><line style="stroke: #A80036; stroke-width: 1.5;" x1="7" x2="131" y1="296.7773" y2="296.7773"/><!--class app_friendship--><rect fill="#FEFECE" filter="url(#f1tes768tgfr9r)" height="58.7773" id="app_friendship" style="stroke: #A80036; stroke-width: 1.5;" width="115" x="378.5" y="127"/><ellipse cx="393.5" cy="148.3887" fill="#ADD1B2" rx="11" ry="11" style="stroke: #A80036; stroke-width: 1.0;"/><path d="M392.0781,153.748 Q390.2188,153.748 389.125,152.3574 Q388.0313,150.9668 388.0313,147.9824 Q388.0313,145.4512 389.1953,143.7949 Q390.3594,142.1387 392.3438,142.1387 Q393.8125,142.1387 394.2813,142.2637 Q394.75,142.4668 394.75,142.4668 Q394.75,142.4668 394.75,142.3965 Q394.75,142.3262 395.3594,141.4043 L396.4063,145.0605 L395.0781,145.4668 Q394.6094,143.9199 393.9453,143.2559 Q393.2813,142.5918 392.2188,142.5918 Q391.8281,142.5918 391.0625,144.123 Q390.2969,145.6543 390.2969,147.9043 Q390.2969,150.373 390.9609,151.7637 Q391.625,153.1543 392.1563,153.1543 Q393.2188,153.1543 393.9766,152.3887 Q394.7344,151.623 395.0781,149.9668 L396.4063,150.5605 Q396.0781,151.9668 395.1797,152.8574 Q394.2813,153.748 392.0781,153.748 Z "/><text fill="#000000" font-family="sans-serif" font-size="12" font-style="italic" lengthAdjust="spacingAndGlyphs" textLength="74" x="412" y="145.752">«好友关系表»</text><text fill="#000000" font-family="sans-serif" font-size="12" lengthAdjust="spacingAndGlyphs" textLength="83" x="407.5" y="162.1406">app_friendship</text><line style="stroke: #A80036; stroke-width: 1.5;" x1="379.5" x2="492.5" y1="169.7773" y2="169.7773"/><line style="stroke: #A80036; stroke-width: 1.5;" x1="379.5" x2="492.5" y1="177.7773" y2="177.7773"/><!--class app_homeset--><rect fill="#FEFECE" filter="url(#f1tes768tgfr9r)" height="58.7773" id="app_homeset" style="stroke: #A80036; stroke-width: 1.5;" width="126" x="167" y="246"/><ellipse cx="182" cy="267.3887" fill="#ADD1B2" rx="11" ry="11" style="stroke: #A80036; stroke-width: 1.0;"/><path d="M180.5781,272.748 Q178.7188,272.748 177.625,271.3574 Q176.5313,269.9668 176.5313,266.9824 Q176.5313,264.4512 177.6953,262.7949 Q178.8594,261.1387 180.8438,261.1387 Q182.3125,261.1387 182.7813,261.2637 Q183.25,261.4668 183.25,261.4668 Q183.25,261.4668 183.25,261.3965 Q183.25,261.3262 183.8594,260.4043 L184.9063,264.0605 L183.5781,264.4668 Q183.1094,262.9199 182.4453,262.2559 Q181.7813,261.5918 180.7188,261.5918 Q180.3281,261.5918 179.5625,263.123 Q178.7969,264.6543 178.7969,266.9043 Q178.7969,269.373 179.4609,270.7637 Q180.125,272.1543 180.6563,272.1543 Q181.7188,272.1543 182.4766,271.3887 Q183.2344,270.623 183.5781,268.9668 L184.9063,269.5605 Q184.5781,270.9668 183.6797,271.8574 Q182.7813,272.748 180.5781,272.748 Z "/><text fill="#000000" font-family="sans-serif" font-size="12" font-style="italic" lengthAdjust="spacingAndGlyphs" textLength="98" x="194" y="264.752">«个人主页设置表»</text><text fill="#000000" font-family="sans-serif" font-size="12" lengthAdjust="spacingAndGlyphs" textLength="77" x="204.5" y="281.1406">app_homeset</text><line style="stroke: #A80036; stroke-width: 1.5;" x1="168" x2="292" y1="288.7773" y2="288.7773"/><line style="stroke: #A80036; stroke-width: 1.5;" x1="168" x2="292" y1="296.7773" y2="296.7773"/><!--class app_advice--><rect fill="#FEFECE" filter="url(#f1tes768tgfr9r)" height="58.7773" id="app_advice" style="stroke: #A80036; stroke-width: 1.5;" width="102" x="328" y="246"/><ellipse cx="343" cy="267.3887" fill="#ADD1B2" rx="11" ry="11" style="stroke: #A80036; stroke-width: 1.0;"/><path d="M341.5781,272.748 Q339.7188,272.748 338.625,271.3574 Q337.5313,269.9668 337.5313,266.9824 Q337.5313,264.4512 338.6953,262.7949 Q339.8594,261.1387 341.8438,261.1387 Q343.3125,261.1387 343.7813,261.2637 Q344.25,261.4668 344.25,261.4668 Q344.25,261.4668 344.25,261.3965 Q344.25,261.3262 344.8594,260.4043 L345.9063,264.0605 L344.5781,264.4668 Q344.1094,262.9199 343.4453,262.2559 Q342.7813,261.5918 341.7188,261.5918 Q341.3281,261.5918 340.5625,263.123 Q339.7969,264.6543 339.7969,266.9043 Q339.7969,269.373 340.4609,270.7637 Q341.125,272.1543 341.6563,272.1543 Q342.7188,272.1543 343.4766,271.3887 Q344.2344,270.623 344.5781,268.9668 L345.9063,269.5605 Q345.5781,270.9668 344.6797,271.8574 Q343.7813,272.748 341.5781,272.748 Z "/><text fill="#000000" font-family="sans-serif" font-size="12" font-style="italic" lengthAdjust="spacingAndGlyphs" textLength="74" x="355" y="264.752">«用户反馈表»</text><text fill="#000000" font-family="sans-serif" font-size="12" lengthAdjust="spacingAndGlyphs" textLength="63" x="360.5" y="281.1406">app_advice</text><line style="stroke: #A80036; stroke-width: 1.5;" x1="329" x2="429" y1="288.7773" y2="288.7773"/><line style="stroke: #A80036; stroke-width: 1.5;" x1="329" x2="429" y1="296.7773" y2="296.7773"/><!--class app_user_login--><rect fill="#FEFECE" filter="url(#f1tes768tgfr9r)" height="58.7773" id="app_user_login" style="stroke: #A80036; stroke-width: 1.5;" width="126" x="465" y="246"/><ellipse cx="480" cy="267.3887" fill="#ADD1B2" rx="11" ry="11" style="stroke: #A80036; stroke-width: 1.0;"/><path d="M478.5781,272.748 Q476.7188,272.748 475.625,271.3574 Q474.5313,269.9668 474.5313,266.9824 Q474.5313,264.4512 475.6953,262.7949 Q476.8594,261.1387 478.8438,261.1387 Q480.3125,261.1387 480.7813,261.2637 Q481.25,261.4668 481.25,261.4668 Q481.25,261.4668 481.25,261.3965 Q481.25,261.3262 481.8594,260.4043 L482.9063,264.0605 L481.5781,264.4668 Q481.1094,262.9199 480.4453,262.2559 Q479.7813,261.5918 478.7188,261.5918 Q478.3281,261.5918 477.5625,263.123 Q476.7969,264.6543 476.7969,266.9043 Q476.7969,269.373 477.4609,270.7637 Q478.125,272.1543 478.6563,272.1543 Q479.7188,272.1543 480.4766,271.3887 Q481.2344,270.623 481.5781,268.9668 L482.9063,269.5605 Q482.5781,270.9668 481.6797,271.8574 Q480.7813,272.748 478.5781,272.748 Z "/><text fill="#000000" font-family="sans-serif" font-size="12" font-style="italic" lengthAdjust="spacingAndGlyphs" textLength="98" x="492" y="264.752">«用户登录记录表»</text><text fill="#000000" font-family="sans-serif" font-size="12" lengthAdjust="spacingAndGlyphs" textLength="87" x="497.5" y="281.1406">app_user_login</text><line style="stroke: #A80036; stroke-width: 1.5;" x1="466" x2="590" y1="288.7773" y2="288.7773"/><line style="stroke: #A80036; stroke-width: 1.5;" x1="466" x2="590" y1="296.7773" y2="296.7773"/><!--class app_company_authentication--><rect fill="#FEFECE" filter="url(#f1tes768tgfr9r)" height="58.7773" id="app_company_authentication" style="stroke: #A80036; stroke-width: 1.5;" width="194" x="422" y="8"/><ellipse cx="437" cy="29.3887" fill="#ADD1B2" rx="11" ry="11" style="stroke: #A80036; stroke-width: 1.0;"/><path d="M435.5781,34.748 Q433.7188,34.748 432.625,33.3574 Q431.5313,31.9668 431.5313,28.9824 Q431.5313,26.4512 432.6953,24.7949 Q433.8594,23.1387 435.8438,23.1387 Q437.3125,23.1387 437.7813,23.2637 Q438.25,23.4668 438.25,23.4668 Q438.25,23.4668 438.25,23.3965 Q438.25,23.3262 438.8594,22.4043 L439.9063,26.0605 L438.5781,26.4668 Q438.1094,24.9199 437.4453,24.2559 Q436.7813,23.5918 435.7188,23.5918 Q435.3281,23.5918 434.5625,25.123 Q433.7969,26.6543 433.7969,28.9043 Q433.7969,31.373 434.4609,32.7637 Q435.125,34.1543 435.6563,34.1543 Q436.7188,34.1543 437.4766,33.3887 Q438.2344,32.623 438.5781,30.9668 L439.9063,31.5605 Q439.5781,32.9668 438.6797,33.8574 Q437.7813,34.748 435.5781,34.748 Z "/><text fill="#000000" font-family="sans-serif" font-size="12" font-style="italic" lengthAdjust="spacingAndGlyphs" textLength="98" x="483" y="26.752">«用户企业认证表»</text><text fill="#000000" font-family="sans-serif" font-size="12" lengthAdjust="spacingAndGlyphs" textLength="162" x="451" y="43.1406">app_company_authentication</text><line style="stroke: #A80036; stroke-width: 1.5;" x1="423" x2="615" y1="50.7773" y2="50.7773"/><line style="stroke: #A80036; stroke-width: 1.5;" x1="423" x2="615" y1="58.7773" y2="58.7773"/><!--class app_image--><rect fill="#FEFECE" filter="url(#f1tes768tgfr9r)" height="58.7773" id="app_image" style="stroke: #A80036; stroke-width: 1.5;" width="102" x="651" y="8"/><ellipse cx="666" cy="29.3887" fill="#ADD1B2" rx="11" ry="11" style="stroke: #A80036; stroke-width: 1.0;"/><path d="M664.5781,34.748 Q662.7188,34.748 661.625,33.3574 Q660.5313,31.9668 660.5313,28.9824 Q660.5313,26.4512 661.6953,24.7949 Q662.8594,23.1387 664.8438,23.1387 Q666.3125,23.1387 666.7813,23.2637 Q667.25,23.4668 667.25,23.4668 Q667.25,23.4668 667.25,23.3965 Q667.25,23.3262 667.8594,22.4043 L668.9063,26.0605 L667.5781,26.4668 Q667.1094,24.9199 666.4453,24.2559 Q665.7813,23.5918 664.7188,23.5918 Q664.3281,23.5918 663.5625,25.123 Q662.7969,26.6543 662.7969,28.9043 Q662.7969,31.373 663.4609,32.7637 Q664.125,34.1543 664.6563,34.1543 Q665.7188,34.1543 666.4766,33.3887 Q667.2344,32.623 667.5781,30.9668 L668.9063,31.5605 Q668.5781,32.9668 667.6797,33.8574 Q666.7813,34.748 664.5781,34.748 Z "/><text fill="#000000" font-family="sans-serif" font-size="12" font-style="italic" lengthAdjust="spacingAndGlyphs" textLength="74" x="678" y="26.752">«图片信息表»</text><text fill="#000000" font-family="sans-serif" font-size="12" lengthAdjust="spacingAndGlyphs" textLength="63" x="683.5" y="43.1406">app_image</text><line style="stroke: #A80036; stroke-width: 1.5;" x1="652" x2="752" y1="50.7773" y2="50.7773"/><line style="stroke: #A80036; stroke-width: 1.5;" x1="652" x2="752" y1="58.7773" y2="58.7773"/><!--link app_friend_recommend to ti_user--><path d="M304,67.121 C304,85.252 304,108.617 304,126.769 " fill="none" id="app_friend_recommend-ti_user" style="stroke: #A80036; stroke-width: 1.0;"/><text fill="#000000" font-family="sans-serif" font-size="13" lengthAdjust="spacingAndGlyphs" textLength="5" x="298.5078" y="89.6202">*</text><text fill="#000000" font-family="sans-serif" font-size="13" lengthAdjust="spacingAndGlyphs" textLength="7" x="296.1906" y="115.939">1</text><!--link app_user_authentication to ti_user--><path d="M229.779,156.5 C241.473,156.5 253.167,156.5 264.86,156.5 " fill="none" id="app_user_authentication-ti_user" style="stroke: #A80036; stroke-width: 1.0;"/><text fill="#000000" font-family="sans-serif" font-size="13" lengthAdjust="spacingAndGlyphs" textLength="5" x="237.5523" y="153.6844">*</text><text fill="#000000" font-family="sans-serif" font-size="13" lengthAdjust="spacingAndGlyphs" textLength="7" x="249.9983" y="152.9208">1</text><!--link ti_user to app_friend_add--><path d="M264.758,177.136 C258.809,180.108 252.743,183.137 247,186 C206.849,206.0191 161.575,228.5281 126.735,245.8358 " fill="none" id="ti_user-app_friend_add" style="stroke: #A80036; stroke-width: 1.0;"/><text fill="#000000" font-family="sans-serif" font-size="13" lengthAdjust="spacingAndGlyphs" textLength="7" x="249.8774" y="177.3616">1</text><text fill="#000000" font-family="sans-serif" font-size="13" lengthAdjust="spacingAndGlyphs" textLength="5" x="134.5081" y="235.0212">*</text><!--link ti_user to app_friendship--><path d="M343.188,156.5 C354.91,156.5 366.632,156.5 378.355,156.5 " fill="none" id="ti_user-app_friendship" style="stroke: #A80036; stroke-width: 1.0;"/><text fill="#000000" font-family="sans-serif" font-size="13" lengthAdjust="spacingAndGlyphs" textLength="7" x="351.0586" y="152.9208">1</text><text fill="#000000" font-family="sans-serif" font-size="13" lengthAdjust="spacingAndGlyphs" textLength="5" x="365.6489" y="153.3715">*</text><!--link ti_user to app_homeset--><path d="M285.898,186.121 C274.43,204.252 259.653,227.6168 248.172,245.7686 " fill="none" id="ti_user-app_homeset" style="stroke: #A80036; stroke-width: 1.0;"/><text fill="#000000" font-family="sans-serif" font-size="13" lengthAdjust="spacingAndGlyphs" textLength="7" x="274.6451" y="208.6202">1</text><text fill="#000000" font-family="sans-serif" font-size="13" lengthAdjust="spacingAndGlyphs" textLength="7" x="244.5649" y="234.9385">1</text><!--link ti_user to app_advice--><path d="M322.347,186.121 C333.969,204.252 348.947,227.6168 360.582,245.7686 " fill="none" id="ti_user-app_advice" style="stroke: #A80036; stroke-width: 1.0;"/><text fill="#000000" font-family="sans-serif" font-size="13" lengthAdjust="spacingAndGlyphs" textLength="7" x="318.27" y="208.6202">1</text><text fill="#000000" font-family="sans-serif" font-size="13" lengthAdjust="spacingAndGlyphs" textLength="5" x="350.7447" y="234.9385">*</text><!--link ti_user to app_user_login--><path d="M343.018,177.88 C378.992,196.67 432.76,224.754 473.069,245.8084 " fill="none" id="ti_user-app_user_login" style="stroke: #A80036; stroke-width: 1.0;"/><text fill="#000000" font-family="sans-serif" font-size="13" lengthAdjust="spacingAndGlyphs" textLength="7" x="351.123" y="178.3263">1</text><text fill="#000000" font-family="sans-serif" font-size="13" lengthAdjust="spacingAndGlyphs" textLength="5" x="454.7881" y="234.9875">*</text><!--
@startuml

class ti_user <<用户表>>

class app_friend_recommend <<好友推荐表>>
class app_user_authentication <<用户个人认证表>>
class app_friend_add <<添加好友记录表>>
class app_friendship <<好友关系表>>
class app_homeset <<个人主页设置表>>
class app_advice <<用户反馈表>>
class app_user_login <<用户登录记录表>>

class app_company_authentication <<用户企业认证表>>
class app_image <<图片信息表>>


ti_user "1" -up- "*" app_friend_recommend
ti_user "1" -left- "*" app_user_authentication
ti_user "1" - - "*" app_friend_add
ti_user "1" -right- "*" app_friendship
ti_user "1" - - "1" app_homeset
ti_user "1" - - "*" app_advice
ti_user "1" - - "*" app_user_login

@enduml

PlantUML version 1.2017.12(Thu Apr 27 00:06:36 CST 2017)
(GPL source distribution)
Java Runtime: Java(TM) SE Runtime Environment
JVM: Java HotSpot(TM) 64-Bit Server VM
Java Version: 1.7.0_79-b15
Operating System: Windows 8.1
OS Version: 6.3
Default Encoding: GBK
Language: zh
Country: CN
--></g></svg>