<?xml version="1.0" encoding="UTF-8" standalone="no"?><svg xmlns="http://www.w3.org/2000/svg" xmlns:xlink="http://www.w3.org/1999/xlink" contentScriptType="application/ecmascript" contentStyleType="text/css" height="325px" preserveAspectRatio="none" style="width:314px;height:325px;" version="1.1" viewBox="0 0 314 325" width="314px" zoomAndPan="magnify"><defs><filter height="300%" id="fepu05d" width="300%" x="-1" y="-1"><feGaussianBlur result="blurOut" stdDeviation="2.0"/><feColorMatrix in="blurOut" result="blurOut2" type="matrix" values="0 0 0 0 0 0 0 0 0 0 0 0 0 0 0 0 0 0 .4 0"/><feOffset dx="4.0" dy="4.0" in="blurOut2" result="blurOut3"/><feBlend in="SourceGraphic" in2="blurOut3" mode="normal"/></filter></defs><g><!--cluster checkout--><rect fill="#FFFFFF" filter="url(#fepu05d)" height="294" style="stroke: #000000; stroke-width: 2.0;" width="119" x="111" y="24"/><text fill="#000000" font-family="sans-serif" font-size="14" font-weight="bold" lengthAdjust="spacingAndGlyphs" textLength="65" x="138" y="42.0439">checkout</text><ellipse cx="170.3051" cy="182.02" fill="#FEFECE" filter="url(#fepu05d)" rx="43.3051" ry="16.52" style="stroke: #A80036; stroke-width: 1.5;"/><text fill="#000000" font-family="sans-serif" font-size="14" lengthAdjust="spacingAndGlyphs" textLength="57" x="141.8051" y="188.08">checkout</text><ellipse cx="170.6838" cy="79.02" fill="#FEFECE" filter="url(#fepu05d)" rx="41.1838" ry="16.52" style="stroke: #A80036; stroke-width: 1.5;"/><text fill="#000000" font-family="sans-serif" font-size="14" lengthAdjust="spacingAndGlyphs" textLength="54" x="143.6838" y="85.08">payment</text><ellipse cx="170.5919" cy="285.02" fill="#FEFECE" filter="url(#fepu05d)" rx="22.0919" ry="16.52" style="stroke: #A80036; stroke-width: 1.5;"/><text fill="#000000" font-family="sans-serif" font-size="14" lengthAdjust="spacingAndGlyphs" textLength="27" x="157.0919" y="291.08">help</text><!--entity customer--><ellipse cx="35" cy="149" fill="#FEFECE" filter="url(#fepu05d)" rx="8" ry="8" style="stroke: #A80036; stroke-width: 2.0;"/><path d="M35,157 L35,184 M22,165 L48,165 M35,184 L22,199 M35,184 L48,199 " fill="#FEFECE" filter="url(#fepu05d)" style="stroke: #A80036; stroke-width: 2.0;"/><text fill="#000000" font-family="sans-serif" font-size="14" lengthAdjust="spacingAndGlyphs" textLength="58" x="6" y="222.0439">customer</text><!--entity clerk--><ellipse cx="292" cy="149" fill="#FEFECE" filter="url(#fepu05d)" rx="8" ry="8" style="stroke: #A80036; stroke-width: 2.0;"/><path d="M292,157 L292,184 M279,165 L305,165 M292,184 L279,199 M292,184 L305,199 " fill="#FEFECE" filter="url(#fepu05d)" style="stroke: #A80036; stroke-width: 2.0;"/><text fill="#000000" font-family="sans-serif" font-size="14" lengthAdjust="spacingAndGlyphs" textLength="30" x="277" y="222.0439">clerk</text><path d="M64.3119,182 C82.4515,182 106.336,182 126.761,182 " fill="none" style="stroke: #A80036; stroke-width: 1.0;"/><path d="M170.5,165.451 C170.5,147.882 170.5,120.038 170.5,100.716 " fill="none" style="stroke: #A80036; stroke-width: 1.0; stroke-dasharray: 7.0,7.0;"/><polygon fill="#A80036" points="170.5,95.508,166.5,104.508,170.5,100.508,174.5,104.508,170.5,95.508" style="stroke: #A80036; stroke-width: 1.0;"/><text fill="#000000" font-family="sans-serif" font-size="13" lengthAdjust="spacingAndGlyphs" textLength="41" x="137.5" y="136.8979">include</text><path d="M170.5,268.4513 C170.5,250.8821 170.5,223.038 170.5,203.716 " fill="none" style="stroke: #A80036; stroke-width: 1.0; stroke-dasharray: 7.0,7.0;"/><polygon fill="#A80036" points="170.5,198.508,166.5,207.508,170.5,203.508,174.5,207.508,170.5,198.508" style="stroke: #A80036; stroke-width: 1.0;"/><text fill="#000000" font-family="sans-serif" font-size="13" lengthAdjust="spacingAndGlyphs" textLength="46" x="135" y="239.8979">extends</text><path d="M214.305,182 C236.271,182 261.569,182 276.915,182 " fill="none" style="stroke: #A80036; stroke-width: 1.0;"/></g></svg>