<?xml version="1.0" encoding="UTF-8" standalone="no"?>
<!DOCTYPE svg PUBLIC "-//W3C//DTD SVG 1.1//EN"
 "http://www.w3.org/Graphics/SVG/1.1/DTD/svg11.dtd">
<!-- Generated by graphviz version 2.38.0 (20140413.2041)
 -->
<!-- Title: %3 Pages: 1 -->
<svg width="442pt" height="366pt"
 viewBox="0.00 0.00 442.00 366.00" xmlns="http://www.w3.org/2000/svg" xmlns:xlink="http://www.w3.org/1999/xlink">
<g id="graph0" class="graph" transform="scale(1 1) rotate(0) translate(4 362)">
<title>%3</title>
<polygon fill="white" stroke="none" points="-4,4 -4,-362 438,-362 438,4 -4,4"/>
<text text-anchor="start" x="8" y="-343.6" font-family="Times New Roman,serif" font-size="13.00">选课</text>
<!-- hub_学生 -->
<g id="node1" class="node"><title>hub_学生</title>
<polygon fill="#d0e0d0" stroke="none" points="8,-161 8,-253 88,-253 88,-161 8,-161"/>
<polygon fill="none" stroke="black" points="8,-230 8,-253 88,-253 88,-230 8,-230"/>
<text text-anchor="start" x="20.5" y="-239.4" font-family="Helvetica,sans-Serif" font-weight="bold" font-size="12.00">hub_学生</text>
<polygon fill="none" stroke="black" points="8,-207 8,-230 88,-230 88,-207 8,-207"/>
<text text-anchor="start" x="13" y="-216.4" font-family="Helvetica,sans-Serif" text-decoration="underline" font-size="12.00">hub_学生_ID</text>
<polygon fill="none" stroke="black" points="8,-184 8,-207 88,-207 88,-184 8,-184"/>
<text text-anchor="start" x="13" y="-192.4" font-family="Helvetica,sans-Serif" font-size="12.00">ds</text>
<polygon fill="none" stroke="black" points="8,-161 8,-184 88,-184 88,-161 8,-161"/>
<text text-anchor="start" x="13" y="-169.4" font-family="Helvetica,sans-Serif" font-size="12.00">load_time</text>
</g>
<!-- link_选课 -->
<g id="node2" class="node"><title>link_选课</title>
<polygon fill="tomato" stroke="none" points="177,-122 177,-214 257,-214 257,-122 177,-122"/>
<polygon fill="none" stroke="black" points="177,-191 177,-214 257,-214 257,-191 177,-191"/>
<text text-anchor="start" x="190.5" y="-200.4" font-family="Helvetica,sans-Serif" font-weight="bold" font-size="12.00">link_选课</text>
<polygon fill="none" stroke="black" points="177,-168 177,-191 257,-191 257,-168 177,-168"/>
<text text-anchor="start" x="182" y="-177.4" font-family="Helvetica,sans-Serif" text-decoration="underline" font-size="12.00">link_选课_ID</text>
<polygon fill="none" stroke="black" points="177,-145 177,-168 257,-168 257,-145 177,-145"/>
<text text-anchor="start" x="182" y="-154.4" font-family="Helvetica,sans-Serif" text-decoration="underline" font-size="12.00">hub_学生_ID</text>
<polygon fill="none" stroke="black" points="177,-122 177,-145 257,-145 257,-122 177,-122"/>
<text text-anchor="start" x="182" y="-131.4" font-family="Helvetica,sans-Serif" text-decoration="underline" font-size="12.00">hub_课程_ID</text>
</g>
<!-- hub_学生&#45;&#45;link_选课 -->
<g id="edge1" class="edge"><title>hub_学生&#45;&#45;link_选课</title>
<path fill="none" stroke="#7f7f7f" stroke-dasharray="5,2" d="M96.4088,-195.928C119.07,-190.636 146.123,-184.319 168.762,-179.032"/>
<text text-anchor="start" x="161.762" y="-167.832" font-family="Times New Roman,serif" font-size="14.00">1</text>
<text text-anchor="start" x="96.4088" y="-184.728" font-family="Times New Roman,serif" font-size="14.00">1</text>
</g>
<!-- link_分班 -->
<g id="node3" class="node"><title>link_分班</title>
<polygon fill="#d0e0d0" stroke="none" points="177,-240 177,-332 257,-332 257,-240 177,-240"/>
<polygon fill="none" stroke="black" points="177,-309 177,-332 257,-332 257,-309 177,-309"/>
<text text-anchor="start" x="190.5" y="-318.4" font-family="Helvetica,sans-Serif" font-weight="bold" font-size="12.00">link_分班</text>
<polygon fill="none" stroke="black" points="177,-286 177,-309 257,-309 257,-286 177,-286"/>
<text text-anchor="start" x="182" y="-295.4" font-family="Helvetica,sans-Serif" text-decoration="underline" font-size="12.00">link_分班_ID</text>
<polygon fill="none" stroke="black" points="177,-263 177,-286 257,-286 257,-263 177,-263"/>
<text text-anchor="start" x="182" y="-272.4" font-family="Helvetica,sans-Serif" text-decoration="underline" font-size="12.00">hub_学生_ID</text>
<polygon fill="none" stroke="black" points="177,-240 177,-263 257,-263 257,-240 177,-240"/>
<text text-anchor="start" x="182" y="-249.4" font-family="Helvetica,sans-Serif" text-decoration="underline" font-size="12.00">hub_班级_ID</text>
</g>
<!-- hub_学生&#45;&#45;link_分班 -->
<g id="edge2" class="edge"><title>hub_学生&#45;&#45;link_分班</title>
<path fill="none" stroke="#7f7f7f" stroke-dasharray="5,2" d="M96.4088,-229.427C119.07,-240.147 146.123,-252.944 168.762,-263.654"/>
<text text-anchor="start" x="161.762" y="-252.454" font-family="Times New Roman,serif" font-size="14.00">1</text>
<text text-anchor="start" x="96.4088" y="-218.227" font-family="Times New Roman,serif" font-size="14.00">1</text>
</g>
<!-- hub_课程 -->
<g id="node4" class="node"><title>hub_课程</title>
<polygon fill="#d0e0d0" stroke="none" points="346,-43 346,-135 426,-135 426,-43 346,-43"/>
<polygon fill="none" stroke="black" points="346,-112 346,-135 426,-135 426,-112 346,-112"/>
<text text-anchor="start" x="358.5" y="-121.4" font-family="Helvetica,sans-Serif" font-weight="bold" font-size="12.00">hub_课程</text>
<polygon fill="none" stroke="black" points="346,-89 346,-112 426,-112 426,-89 346,-89"/>
<text text-anchor="start" x="351" y="-98.4" font-family="Helvetica,sans-Serif" text-decoration="underline" font-size="12.00">hub_课程_ID</text>
<polygon fill="none" stroke="black" points="346,-66 346,-89 426,-89 426,-66 346,-66"/>
<text text-anchor="start" x="351" y="-74.4" font-family="Helvetica,sans-Serif" font-size="12.00">ds</text>
<polygon fill="none" stroke="black" points="346,-43 346,-66 426,-66 426,-43 346,-43"/>
<text text-anchor="start" x="351" y="-51.4" font-family="Helvetica,sans-Serif" font-size="12.00">load_time</text>
</g>
<!-- link_选课&#45;&#45;hub_课程 -->
<g id="edge4" class="edge"><title>link_选课&#45;&#45;hub_课程</title>
<path fill="none" stroke="#7f7f7f" stroke-dasharray="5,2" d="M265.409,-145.573C288.07,-134.853 315.123,-122.056 337.762,-111.346"/>
<text text-anchor="start" x="330.762" y="-100.146" font-family="Times New Roman,serif" font-size="14.00">1</text>
<text text-anchor="start" x="265.409" y="-134.373" font-family="Times New Roman,serif" font-size="14.00">1</text>
</g>
<!-- hub_班级 -->
<g id="node5" class="node"><title>hub_班级</title>
<polygon fill="#d0e0d0" stroke="none" points="346,-240 346,-332 426,-332 426,-240 346,-240"/>
<polygon fill="none" stroke="black" points="346,-309 346,-332 426,-332 426,-309 346,-309"/>
<text text-anchor="start" x="358.5" y="-318.4" font-family="Helvetica,sans-Serif" font-weight="bold" font-size="12.00">hub_班级</text>
<polygon fill="none" stroke="black" points="346,-286 346,-309 426,-309 426,-286 346,-286"/>
<text text-anchor="start" x="351" y="-295.4" font-family="Helvetica,sans-Serif" text-decoration="underline" font-size="12.00">hub_班级_ID</text>
<polygon fill="none" stroke="black" points="346,-263 346,-286 426,-286 426,-263 346,-263"/>
<text text-anchor="start" x="351" y="-271.4" font-family="Helvetica,sans-Serif" font-size="12.00">ds</text>
<polygon fill="none" stroke="black" points="346,-240 346,-263 426,-263 426,-240 346,-240"/>
<text text-anchor="start" x="351" y="-248.4" font-family="Helvetica,sans-Serif" font-size="12.00">load_time</text>
</g>
<!-- link_分班&#45;&#45;hub_班级 -->
<g id="edge5" class="edge"><title>link_分班&#45;&#45;hub_班级</title>
<path fill="none" stroke="#7f7f7f" stroke-dasharray="5,2" d="M265.409,-286C288.07,-286 315.123,-286 337.762,-286"/>
<text text-anchor="start" x="330.762" y="-274.8" font-family="Times New Roman,serif" font-size="14.00">1</text>
<text text-anchor="start" x="265.409" y="-274.8" font-family="Times New Roman,serif" font-size="14.00">1</text>
</g>
<!-- hub_教师 -->
<g id="node6" class="node"><title>hub_教师</title>
<polygon fill="#d0e0d0" stroke="none" points="8,-4 8,-96 88,-96 88,-4 8,-4"/>
<polygon fill="none" stroke="black" points="8,-73 8,-96 88,-96 88,-73 8,-73"/>
<text text-anchor="start" x="20.5" y="-82.4" font-family="Helvetica,sans-Serif" font-weight="bold" font-size="12.00">hub_教师</text>
<polygon fill="none" stroke="black" points="8,-50 8,-73 88,-73 88,-50 8,-50"/>
<text text-anchor="start" x="13" y="-59.4" font-family="Helvetica,sans-Serif" text-decoration="underline" font-size="12.00">hub_教师_ID</text>
<polygon fill="none" stroke="black" points="8,-27 8,-50 88,-50 88,-27 8,-27"/>
<text text-anchor="start" x="13" y="-35.4" font-family="Helvetica,sans-Serif" font-size="12.00">ds</text>
<polygon fill="none" stroke="black" points="8,-4 8,-27 88,-27 88,-4 8,-4"/>
<text text-anchor="start" x="13" y="-12.4" font-family="Helvetica,sans-Serif" font-size="12.00">load_time</text>
</g>
<!-- link_授课 -->
<g id="node7" class="node"><title>link_授课</title>
<polygon fill="#d0e0d0" stroke="none" points="177,-4 177,-96 257,-96 257,-4 177,-4"/>
<polygon fill="none" stroke="black" points="177,-73 177,-96 257,-96 257,-73 177,-73"/>
<text text-anchor="start" x="190.5" y="-82.4" font-family="Helvetica,sans-Serif" font-weight="bold" font-size="12.00">link_授课</text>
<polygon fill="none" stroke="black" points="177,-50 177,-73 257,-73 257,-50 177,-50"/>
<text text-anchor="start" x="182" y="-59.4" font-family="Helvetica,sans-Serif" text-decoration="underline" font-size="12.00">link_选课_ID</text>
<polygon fill="none" stroke="black" points="177,-27 177,-50 257,-50 257,-27 177,-27"/>
<text text-anchor="start" x="182" y="-36.4" font-family="Helvetica,sans-Serif" text-decoration="underline" font-size="12.00">hub_教师_ID</text>
<polygon fill="none" stroke="black" points="177,-4 177,-27 257,-27 257,-4 177,-4"/>
<text text-anchor="start" x="182" y="-13.4" font-family="Helvetica,sans-Serif" text-decoration="underline" font-size="12.00">hub_学生_ID</text>
</g>
<!-- hub_教师&#45;&#45;link_授课 -->
<g id="edge3" class="edge"><title>hub_教师&#45;&#45;link_授课</title>
<path fill="none" stroke="#7f7f7f" stroke-dasharray="5,2" d="M96.4088,-50C119.07,-50 146.123,-50 168.762,-50"/>
<text text-anchor="start" x="161.762" y="-38.8" font-family="Times New Roman,serif" font-size="14.00">1</text>
<text text-anchor="start" x="96.4088" y="-38.8" font-family="Times New Roman,serif" font-size="14.00">1</text>
</g>
<!-- link_授课&#45;&#45;hub_课程 -->
<g id="edge6" class="edge"><title>link_授课&#45;&#45;hub_课程</title>
<path fill="none" stroke="#7f7f7f" stroke-dasharray="5,2" d="M265.409,-61.0715C288.07,-66.3637 315.123,-72.6814 337.762,-77.9683"/>
<text text-anchor="start" x="330.762" y="-66.7683" font-family="Times New Roman,serif" font-size="14.00">1</text>
<text text-anchor="start" x="265.409" y="-49.8715" font-family="Times New Roman,serif" font-size="14.00">1</text>
</g>
</g>
</svg>
