<?xml version="1.0" encoding="UTF-8" standalone="no"?>
<!DOCTYPE svg PUBLIC "-//W3C//DTD SVG 1.1//EN"
 "http://www.w3.org/Graphics/SVG/1.1/DTD/svg11.dtd">
<!-- Generated by graphviz version 2.38.0 (20140413.2041)
 -->
<!-- Title: %3 Pages: 1 -->
<svg width="470pt" height="392pt"
 viewBox="0.00 0.00 470.00 392.00" xmlns="http://www.w3.org/2000/svg" xmlns:xlink="http://www.w3.org/1999/xlink">
<g id="graph0" class="graph" transform="scale(1 1) rotate(0) translate(4 388)">
<title>%3</title>
<polygon fill="white" stroke="none" points="-4,4 -4,-388 466,-388 466,4 -4,4"/>
<text text-anchor="start" x="8" y="-369.6" font-family="Times New Roman,serif" font-size="13.00">1</text>
<!-- dim_商品 -->
<g id="node1" class="node"><title>dim_商品</title>
<polygon fill="#d0e0d0" stroke="none" points="8,-146 8,-215 109,-215 109,-146 8,-146"/>
<polygon fill="none" stroke="black" points="8.5,-191.5 8.5,-214.5 109.5,-214.5 109.5,-191.5 8.5,-191.5"/>
<text text-anchor="start" x="32" y="-200.9" font-family="Helvetica,sans-Serif" font-weight="bold" font-size="12.00">dim_商品</text>
<polygon fill="none" stroke="black" points="8.5,-168.5 8.5,-191.5 109.5,-191.5 109.5,-168.5 8.5,-168.5"/>
<text text-anchor="start" x="13.5" y="-177.9" font-family="Helvetica,sans-Serif" text-decoration="underline" font-size="12.00">id</text>
<text text-anchor="start" x="23.5" y="-177.9" font-family="Helvetica,sans-Serif" font-size="12.00"> [商品ID]</text>
<polygon fill="none" stroke="black" points="8.5,-145.5 8.5,-168.5 109.5,-168.5 109.5,-145.5 8.5,-145.5"/>
<text text-anchor="start" x="13.5" y="-154.9" font-family="Helvetica,sans-Serif" font-size="12.00">name</text>
<text text-anchor="start" x="43.5" y="-154.9" font-family="Helvetica,sans-Serif" font-size="12.00"> [商品名称]</text>
</g>
<!-- fact_订单 -->
<g id="node2" class="node"><title>fact_订单</title>
<polygon fill="#d0e0d0" stroke="none" points="198,-65.5 198,-295.5 264,-295.5 264,-65.5 198,-65.5"/>
<polygon fill="none" stroke="black" points="198,-272.5 198,-295.5 264,-295.5 264,-272.5 198,-272.5"/>
<text text-anchor="start" x="204" y="-281.9" font-family="Helvetica,sans-Serif" font-weight="bold" font-size="12.00">fact_订单</text>
<polygon fill="none" stroke="black" points="198,-249.5 198,-272.5 264,-272.5 264,-249.5 198,-249.5"/>
<text text-anchor="start" x="203" y="-258.9" font-family="Helvetica,sans-Serif" text-decoration="underline" font-size="12.00">id</text>
<text text-anchor="start" x="213" y="-258.9" font-family="Helvetica,sans-Serif" font-size="12.00"> [订单ID]</text>
<polygon fill="none" stroke="black" points="198,-226.5 198,-249.5 264,-249.5 264,-226.5 198,-226.5"/>
<text text-anchor="start" x="203" y="-235.9" font-family="Helvetica,sans-Serif" text-decoration="underline" font-size="12.00">商品ID</text>
<polygon fill="none" stroke="black" points="198,-203.5 198,-226.5 264,-226.5 264,-203.5 198,-203.5"/>
<text text-anchor="start" x="203" y="-212.9" font-family="Helvetica,sans-Serif" text-decoration="underline" font-size="12.00">商家ID</text>
<polygon fill="none" stroke="black" points="198,-180.5 198,-203.5 264,-203.5 264,-180.5 198,-180.5"/>
<text text-anchor="start" x="203" y="-189.9" font-family="Helvetica,sans-Serif" text-decoration="underline" font-size="12.00">区域ID</text>
<polygon fill="none" stroke="black" points="198,-157.5 198,-180.5 264,-180.5 264,-157.5 198,-157.5"/>
<text text-anchor="start" x="203" y="-166.9" font-family="Helvetica,sans-Serif" text-decoration="underline" font-size="12.00">用户ID</text>
<polygon fill="none" stroke="black" points="198,-134.5 198,-157.5 264,-157.5 264,-134.5 198,-134.5"/>
<text text-anchor="start" x="203" y="-143.9" font-family="Helvetica,sans-Serif" text-decoration="underline" font-size="12.00">时间ID</text>
<polygon fill="none" stroke="black" points="198,-111.5 198,-134.5 264,-134.5 264,-111.5 198,-111.5"/>
<text text-anchor="start" x="203" y="-119.9" font-family="Helvetica,sans-Serif" font-size="12.00">总件数</text>
<polygon fill="none" stroke="black" points="198,-88.5 198,-111.5 264,-111.5 264,-88.5 198,-88.5"/>
<text text-anchor="start" x="203" y="-96.9" font-family="Helvetica,sans-Serif" font-size="12.00">总价</text>
<polygon fill="none" stroke="black" points="198,-65.5 198,-88.5 264,-88.5 264,-65.5 198,-65.5"/>
<text text-anchor="start" x="203" y="-73.9" font-family="Helvetica,sans-Serif" font-size="12.00">总减免</text>
</g>
<!-- dim_商品&#45;&#45;fact_订单 -->
<g id="edge1" class="edge"><title>dim_商品&#45;&#45;fact_订单</title>
<path fill="none" stroke="#7f7f7f" stroke-dasharray="5,2" d="M117.224,-180.5C141.086,-180.5 168.171,-180.5 189.817,-180.5"/>
<text text-anchor="start" x="182.817" y="-169.3" font-family="Times New Roman,serif" font-size="14.00">1</text>
<text text-anchor="start" x="117.224" y="-169.3" font-family="Times New Roman,serif" font-size="14.00">1</text>
</g>
<!-- dim_商家 -->
<g id="node3" class="node"><title>dim_商家</title>
<polygon fill="#d0e0d0" stroke="none" points="353,-289 353,-358 454,-358 454,-289 353,-289"/>
<polygon fill="none" stroke="black" points="353.5,-334.5 353.5,-357.5 454.5,-357.5 454.5,-334.5 353.5,-334.5"/>
<text text-anchor="start" x="377" y="-343.9" font-family="Helvetica,sans-Serif" font-weight="bold" font-size="12.00">dim_商家</text>
<polygon fill="none" stroke="black" points="353.5,-311.5 353.5,-334.5 454.5,-334.5 454.5,-311.5 353.5,-311.5"/>
<text text-anchor="start" x="358.5" y="-320.9" font-family="Helvetica,sans-Serif" text-decoration="underline" font-size="12.00">id</text>
<text text-anchor="start" x="368.5" y="-320.9" font-family="Helvetica,sans-Serif" font-size="12.00"> [商家ID]</text>
<polygon fill="none" stroke="black" points="353.5,-288.5 353.5,-311.5 454.5,-311.5 454.5,-288.5 353.5,-288.5"/>
<text text-anchor="start" x="358.5" y="-297.9" font-family="Helvetica,sans-Serif" font-size="12.00">name</text>
<text text-anchor="start" x="388.5" y="-297.9" font-family="Helvetica,sans-Serif" font-size="12.00"> [商品名称]</text>
</g>
<!-- fact_订单&#45;&#45;dim_商家 -->
<g id="edge2" class="edge"><title>fact_订单&#45;&#45;dim_商家</title>
<path fill="none" stroke="#7f7f7f" stroke-dasharray="5,2" d="M272.113,-214.898C293.64,-233.277 320.676,-256.23 345,-276.5 348.269,-279.224 351.65,-282.026 355.061,-284.842"/>
<text text-anchor="start" x="330.061" y="-273.642" font-family="Times New Roman,serif" font-size="14.00">0..N</text>
<text text-anchor="start" x="272.113" y="-203.698" font-family="Times New Roman,serif" font-size="14.00">1</text>
</g>
<!-- dim_区域 -->
<g id="node4" class="node"><title>dim_区域</title>
<polygon fill="#d0e0d0" stroke="none" points="353,-194 353,-263 454,-263 454,-194 353,-194"/>
<polygon fill="none" stroke="black" points="353.5,-239.5 353.5,-262.5 454.5,-262.5 454.5,-239.5 353.5,-239.5"/>
<text text-anchor="start" x="377" y="-248.9" font-family="Helvetica,sans-Serif" font-weight="bold" font-size="12.00">dim_区域</text>
<polygon fill="none" stroke="black" points="353.5,-216.5 353.5,-239.5 454.5,-239.5 454.5,-216.5 353.5,-216.5"/>
<text text-anchor="start" x="358.5" y="-225.9" font-family="Helvetica,sans-Serif" text-decoration="underline" font-size="12.00">id</text>
<text text-anchor="start" x="368.5" y="-225.9" font-family="Helvetica,sans-Serif" font-size="12.00"> [区域ID]</text>
<polygon fill="none" stroke="black" points="353.5,-193.5 353.5,-216.5 454.5,-216.5 454.5,-193.5 353.5,-193.5"/>
<text text-anchor="start" x="358.5" y="-202.9" font-family="Helvetica,sans-Serif" font-size="12.00">name</text>
<text text-anchor="start" x="388.5" y="-202.9" font-family="Helvetica,sans-Serif" font-size="12.00"> [区域名称]</text>
</g>
<!-- fact_订单&#45;&#45;dim_区域 -->
<g id="edge3" class="edge"><title>fact_订单&#45;&#45;dim_区域</title>
<path fill="none" stroke="#7f7f7f" stroke-dasharray="5,2" d="M272.406,-191.875C294.071,-197.974 321.137,-205.594 344.962,-212.302"/>
<text text-anchor="start" x="319.962" y="-201.102" font-family="Times New Roman,serif" font-size="14.00">0..N</text>
<text text-anchor="start" x="272.406" y="-180.675" font-family="Times New Roman,serif" font-size="14.00">1</text>
</g>
<!-- dim_用户 -->
<g id="node5" class="node"><title>dim_用户</title>
<polygon fill="#d0e0d0" stroke="none" points="353,-99 353,-168 454,-168 454,-99 353,-99"/>
<polygon fill="none" stroke="black" points="353.5,-144.5 353.5,-167.5 454.5,-167.5 454.5,-144.5 353.5,-144.5"/>
<text text-anchor="start" x="377" y="-153.9" font-family="Helvetica,sans-Serif" font-weight="bold" font-size="12.00">dim_用户</text>
<polygon fill="none" stroke="black" points="353.5,-121.5 353.5,-144.5 454.5,-144.5 454.5,-121.5 353.5,-121.5"/>
<text text-anchor="start" x="358.5" y="-130.9" font-family="Helvetica,sans-Serif" text-decoration="underline" font-size="12.00">id</text>
<text text-anchor="start" x="368.5" y="-130.9" font-family="Helvetica,sans-Serif" font-size="12.00"> [用户ID]</text>
<polygon fill="none" stroke="black" points="353.5,-98.5 353.5,-121.5 454.5,-121.5 454.5,-98.5 353.5,-98.5"/>
<text text-anchor="start" x="358.5" y="-107.9" font-family="Helvetica,sans-Serif" font-size="12.00">name</text>
<text text-anchor="start" x="388.5" y="-107.9" font-family="Helvetica,sans-Serif" font-size="12.00"> [用户名称]</text>
</g>
<!-- fact_订单&#45;&#45;dim_用户 -->
<g id="edge4" class="edge"><title>fact_订单&#45;&#45;dim_用户</title>
<path fill="none" stroke="#7f7f7f" stroke-dasharray="5,2" d="M272.406,-169.362C294.071,-163.39 321.137,-155.929 344.962,-149.361"/>
<text text-anchor="start" x="319.962" y="-138.161" font-family="Times New Roman,serif" font-size="14.00">0..N</text>
<text text-anchor="start" x="272.406" y="-158.162" font-family="Times New Roman,serif" font-size="14.00">1</text>
</g>
<!-- dim_时间 -->
<g id="node6" class="node"><title>dim_时间</title>
<polygon fill="#d0e0d0" stroke="none" points="366,-4 366,-73 441,-73 441,-4 366,-4"/>
<polygon fill="none" stroke="black" points="366.5,-49.5 366.5,-72.5 441.5,-72.5 441.5,-49.5 366.5,-49.5"/>
<text text-anchor="start" x="377" y="-58.9" font-family="Helvetica,sans-Serif" font-weight="bold" font-size="12.00">dim_时间</text>
<polygon fill="none" stroke="black" points="366.5,-26.5 366.5,-49.5 441.5,-49.5 441.5,-26.5 366.5,-26.5"/>
<text text-anchor="start" x="371.5" y="-35.9" font-family="Helvetica,sans-Serif" text-decoration="underline" font-size="12.00">id</text>
<text text-anchor="start" x="381.5" y="-35.9" font-family="Helvetica,sans-Serif" font-size="12.00"> [时间ID]</text>
<polygon fill="none" stroke="black" points="366.5,-3.5 366.5,-26.5 441.5,-26.5 441.5,-3.5 366.5,-3.5"/>
<text text-anchor="start" x="371.5" y="-12.9" font-family="Helvetica,sans-Serif" font-size="12.00">name</text>
<text text-anchor="start" x="401.5" y="-12.9" font-family="Helvetica,sans-Serif" font-size="12.00"> [名称]</text>
</g>
<!-- fact_订单&#45;&#45;dim_时间 -->
<g id="edge5" class="edge"><title>fact_订单&#45;&#45;dim_时间</title>
<path fill="none" stroke="#7f7f7f" stroke-dasharray="5,2" d="M272.406,-146.848C298.108,-125.442 331.412,-97.7049 357.889,-75.6538"/>
<text text-anchor="start" x="332.889" y="-64.4538" font-family="Times New Roman,serif" font-size="14.00">0..N</text>
<text text-anchor="start" x="272.406" y="-135.648" font-family="Times New Roman,serif" font-size="14.00">1</text>
</g>
</g>
</svg>
