<?xml version="1.0" encoding="UTF-8" standalone="no"?>
<!DOCTYPE svg PUBLIC "-//W3C//DTD SVG 1.1//EN"
 "http://www.w3.org/Graphics/SVG/1.1/DTD/svg11.dtd">
<!-- Generated by graphviz version 2.38.0 (20140413.2041)
 -->
<!-- Title: %3 Pages: 1 -->
<svg width="1411pt" height="642pt"
 viewBox="0.00 0.00 1411.00 642.00" xmlns="http://www.w3.org/2000/svg" xmlns:xlink="http://www.w3.org/1999/xlink">
<g id="graph0" class="graph" transform="scale(1 1) rotate(0) translate(4 638)">
<title>%3</title>
<polygon fill="white" stroke="none" points="-4,4 -4,-638 1407,-638 1407,4 -4,4"/>
<text text-anchor="start" x="8" y="-614" font-family="Arial" font-size="20.00">中文编码nfldb Entity&#45;Relationship diagram (condensed)</text>
<!-- player -->
<g id="node1" class="node"><title>player</title>
<polygon fill="#d0e0d0" stroke="none" points="647,-418.5 647,-571.5 861,-571.5 861,-418.5 647,-418.5"/>
<polygon fill="none" stroke="black" points="647,-543 647,-571 861,-571 861,-543 647,-543"/>
<text text-anchor="start" x="731" y="-554.2" font-family="Helvetica,sans-Serif" font-weight="bold" font-size="16.00">player</text>
<polygon fill="none" stroke="black" points="647,-518 647,-543 861,-543 861,-518 647,-518"/>
<text text-anchor="start" x="652" y="-527.8" font-family="Helvetica,sans-Serif" text-decoration="underline" font-size="14.00">player_id</text>
<text text-anchor="start" x="710" y="-527.8" font-family="Helvetica,sans-Serif" font-size="14.00"> [球员idvarchar, not null]</text>
<polygon fill="none" stroke="black" points="647,-493 647,-518 861,-518 861,-493 647,-493"/>
<text text-anchor="start" x="652" y="-502.8" font-family="Helvetica,sans-Serif" font-size="14.00">full_name</text>
<text text-anchor="start" x="714" y="-502.8" font-family="Helvetica,sans-Serif" font-size="14.00"> [varchar, null]</text>
<polygon fill="none" stroke="black" points="647,-468 647,-493 861,-493 861,-468 647,-468"/>
<text text-anchor="start" x="652" y="-477.8" font-family="Helvetica,sans-Serif" font-size="14.00">team</text>
<text text-anchor="start" x="684" y="-477.8" font-family="Helvetica,sans-Serif" font-size="14.00"> [varchar, not null]</text>
<polygon fill="none" stroke="black" points="647,-443 647,-468 861,-468 861,-443 647,-443"/>
<text text-anchor="start" x="652" y="-452.8" font-family="Helvetica,sans-Serif" font-size="14.00">position</text>
<text text-anchor="start" x="702" y="-452.8" font-family="Helvetica,sans-Serif" font-size="14.00"> [player_pos, not null]</text>
<polygon fill="none" stroke="black" points="647,-418 647,-443 861,-443 861,-418 647,-418"/>
<text text-anchor="start" x="652" y="-427.8" font-family="Helvetica,sans-Serif" font-size="14.00">status</text>
<text text-anchor="start" x="690" y="-427.8" font-family="Helvetica,sans-Serif" font-size="14.00"> [player_status, not null]</text>
</g>
<!-- team -->
<g id="node2" class="node"><title>team</title>
<polygon fill="#d0e0d0" stroke="none" points="1224,-210.5 1224,-313.5 1395,-313.5 1395,-210.5 1224,-210.5"/>
<polygon fill="none" stroke="black" points="1224.5,-285 1224.5,-313 1395.5,-313 1395.5,-285 1224.5,-285"/>
<text text-anchor="start" x="1291" y="-296.2" font-family="Helvetica,sans-Serif" font-weight="bold" font-size="16.00">team</text>
<polygon fill="none" stroke="black" points="1224.5,-260 1224.5,-285 1395.5,-285 1395.5,-260 1224.5,-260"/>
<text text-anchor="start" x="1229.5" y="-269.8" font-family="Helvetica,sans-Serif" text-decoration="underline" font-size="14.00">team_id</text>
<text text-anchor="start" x="1281.5" y="-269.8" font-family="Helvetica,sans-Serif" font-size="14.00"> [varchar, not null]</text>
<polygon fill="none" stroke="black" points="1224.5,-235 1224.5,-260 1395.5,-260 1395.5,-235 1224.5,-235"/>
<text text-anchor="start" x="1229.5" y="-244.8" font-family="Helvetica,sans-Serif" font-size="14.00">city</text>
<text text-anchor="start" x="1251.5" y="-244.8" font-family="Helvetica,sans-Serif" font-size="14.00"> [varchar, not null]</text>
<polygon fill="none" stroke="black" points="1224.5,-210 1224.5,-235 1395.5,-235 1395.5,-210 1224.5,-210"/>
<text text-anchor="start" x="1229.5" y="-219.8" font-family="Helvetica,sans-Serif" font-size="14.00">name</text>
<text text-anchor="start" x="1265.5" y="-219.8" font-family="Helvetica,sans-Serif" font-size="14.00"> [varchar, not null]</text>
</g>
<!-- player&#45;&#45;team -->
<g id="edge1" class="edge"><title>player&#45;&#45;team</title>
<path fill="none" stroke="#7f7f7f" stroke-dasharray="5,2" d="M869.056,-480.337C881.504,-479.505 894.005,-479 906,-479 906,-479 906,-479 1179,-479 1254.13,-479 1286.69,-381.895 1300.02,-317.601"/>
<text text-anchor="start" x="1300.02" y="-321.401" font-family="Times New Roman,serif" font-size="14.00">1</text>
<text text-anchor="start" x="869.056" y="-469.137" font-family="Times New Roman,serif" font-size="14.00">0..N</text>
</g>
<!-- play_player -->
<g id="node3" class="node"><title>play_player</title>
<polygon fill="#ececfc" stroke="none" points="952,-271.5 952,-424.5 1133,-424.5 1133,-271.5 952,-271.5"/>
<polygon fill="none" stroke="black" points="952.5,-396 952.5,-424 1133.5,-424 1133.5,-396 952.5,-396"/>
<text text-anchor="start" x="1000" y="-407.2" font-family="Helvetica,sans-Serif" font-weight="bold" font-size="16.00">play_player</text>
<polygon fill="none" stroke="black" points="952.5,-371 952.5,-396 1133.5,-396 1133.5,-371 952.5,-371"/>
<text text-anchor="start" x="957.5" y="-380.8" font-family="Helvetica,sans-Serif" font-style="italic" text-decoration="underline" font-size="14.00">gsis_id</text>
<text text-anchor="start" x="1005.5" y="-380.8" font-family="Helvetica,sans-Serif" font-size="14.00"> [gameid, not null]</text>
<polygon fill="none" stroke="black" points="952.5,-346 952.5,-371 1133.5,-371 1133.5,-346 952.5,-346"/>
<text text-anchor="start" x="957.5" y="-355.8" font-family="Helvetica,sans-Serif" font-style="italic" text-decoration="underline" font-size="14.00">drive_id</text>
<text text-anchor="start" x="1010.5" y="-355.8" font-family="Helvetica,sans-Serif" font-size="14.00"> [usmallint, not null]</text>
<polygon fill="none" stroke="black" points="952.5,-321 952.5,-346 1133.5,-346 1133.5,-321 952.5,-321"/>
<text text-anchor="start" x="957.5" y="-330.8" font-family="Helvetica,sans-Serif" font-style="italic" text-decoration="underline" font-size="14.00">play_id</text>
<text text-anchor="start" x="1006.5" y="-330.8" font-family="Helvetica,sans-Serif" font-size="14.00"> [usmallint, not null]</text>
<polygon fill="none" stroke="black" points="952.5,-296 952.5,-321 1133.5,-321 1133.5,-296 952.5,-296"/>
<text text-anchor="start" x="957.5" y="-305.8" font-family="Helvetica,sans-Serif" font-style="italic" text-decoration="underline" font-size="14.00">player_id</text>
<text text-anchor="start" x="1018.5" y="-305.8" font-family="Helvetica,sans-Serif" font-size="14.00"> [varchar, not null]</text>
<polygon fill="none" stroke="black" points="952.5,-271 952.5,-296 1133.5,-296 1133.5,-271 952.5,-271"/>
<text text-anchor="start" x="957.5" y="-280.8" font-family="Helvetica,sans-Serif" font-size="14.00">team</text>
<text text-anchor="start" x="989.5" y="-280.8" font-family="Helvetica,sans-Serif" font-size="14.00"> [varchar, not null]</text>
</g>
<!-- player&#45;&#45;play_player -->
<g id="edge2" class="edge"><title>player&#45;&#45;play_player</title>
<path fill="none" stroke="#7f7f7f" stroke-dasharray="5,2" d="M869.056,-436.479C893.867,-423.749 919.899,-410.392 944,-398.026"/>
<text text-anchor="start" x="919" y="-386.826" font-family="Times New Roman,serif" font-size="14.00">0..N</text>
<text text-anchor="start" x="869.056" y="-425.279" font-family="Times New Roman,serif" font-size="14.00">1</text>
</g>
<!-- play_player&#45;&#45;team -->
<g id="edge13" class="edge"><title>play_player&#45;&#45;team</title>
<path fill="none" stroke="#7f7f7f" stroke-dasharray="5,2" d="M1141.05,-316.343C1165.4,-308.441 1191.44,-299.988 1215.57,-292.16"/>
<text text-anchor="start" x="1208.57" y="-280.96" font-family="Times New Roman,serif" font-size="14.00">1</text>
<text text-anchor="start" x="1141.05" y="-305.143" font-family="Times New Roman,serif" font-size="14.00">0..N</text>
</g>
<!-- game -->
<g id="node4" class="node"><title>game</title>
<polygon fill="#ececfc" stroke="none" points="8,-63 8,-341 257,-341 257,-63 8,-63"/>
<polygon fill="none" stroke="black" points="8.5,-313 8.5,-341 257.5,-341 257.5,-313 8.5,-313"/>
<text text-anchor="start" x="111.5" y="-324.2" font-family="Helvetica,sans-Serif" font-weight="bold" font-size="16.00">game</text>
<polygon fill="none" stroke="black" points="8.5,-288 8.5,-313 257.5,-313 257.5,-288 8.5,-288"/>
<text text-anchor="start" x="13.5" y="-297.8" font-family="Helvetica,sans-Serif" text-decoration="underline" font-size="14.00">gsis_id</text>
<text text-anchor="start" x="59.5" y="-297.8" font-family="Helvetica,sans-Serif" font-size="14.00"> [gameid, not null]</text>
<polygon fill="none" stroke="black" points="8.5,-263 8.5,-288 257.5,-288 257.5,-263 8.5,-263"/>
<text text-anchor="start" x="13.5" y="-272.8" font-family="Helvetica,sans-Serif" font-size="14.00">start_time</text>
<text text-anchor="start" x="76.5" y="-272.8" font-family="Helvetica,sans-Serif" font-size="14.00"> [utctime, not null]</text>
<polygon fill="none" stroke="black" points="8.5,-238 8.5,-263 257.5,-263 257.5,-238 8.5,-238"/>
<text text-anchor="start" x="13.5" y="-247.8" font-family="Helvetica,sans-Serif" font-size="14.00">week</text>
<text text-anchor="start" x="47.5" y="-247.8" font-family="Helvetica,sans-Serif" font-size="14.00"> [usmallint, not null]</text>
<polygon fill="none" stroke="black" points="8.5,-213 8.5,-238 257.5,-238 257.5,-213 8.5,-213"/>
<text text-anchor="start" x="13.5" y="-222.8" font-family="Helvetica,sans-Serif" font-size="14.00">season_year</text>
<text text-anchor="start" x="95.5" y="-222.8" font-family="Helvetica,sans-Serif" font-size="14.00"> [usmallint, not null]</text>
<polygon fill="none" stroke="black" points="8.5,-188 8.5,-213 257.5,-213 257.5,-188 8.5,-188"/>
<text text-anchor="start" x="13.5" y="-197.8" font-family="Helvetica,sans-Serif" font-size="14.00">season_type</text>
<text text-anchor="start" x="95.5" y="-197.8" font-family="Helvetica,sans-Serif" font-size="14.00"> [season_phase, not null]</text>
<polygon fill="none" stroke="black" points="8.5,-163 8.5,-188 257.5,-188 257.5,-163 8.5,-163"/>
<text text-anchor="start" x="13.5" y="-172.8" font-family="Helvetica,sans-Serif" font-size="14.00">finished</text>
<text text-anchor="start" x="63.5" y="-172.8" font-family="Helvetica,sans-Serif" font-size="14.00"> [boolean, not null]</text>
<polygon fill="none" stroke="black" points="8.5,-138 8.5,-163 257.5,-163 257.5,-138 8.5,-138"/>
<text text-anchor="start" x="13.5" y="-147.8" font-family="Helvetica,sans-Serif" font-size="14.00">home_team</text>
<text text-anchor="start" x="89.5" y="-147.8" font-family="Helvetica,sans-Serif" font-size="14.00"> [varchar, not null]</text>
<polygon fill="none" stroke="black" points="8.5,-113 8.5,-138 257.5,-138 257.5,-113 8.5,-113"/>
<text text-anchor="start" x="13.5" y="-122.8" font-family="Helvetica,sans-Serif" font-size="14.00">home_score</text>
<text text-anchor="start" x="94.5" y="-122.8" font-family="Helvetica,sans-Serif" font-size="14.00"> [usmallint, not null]</text>
<polygon fill="none" stroke="black" points="8.5,-88 8.5,-113 257.5,-113 257.5,-88 8.5,-88"/>
<text text-anchor="start" x="13.5" y="-97.8" font-family="Helvetica,sans-Serif" font-size="14.00">away_team</text>
<text text-anchor="start" x="85.5" y="-97.8" font-family="Helvetica,sans-Serif" font-size="14.00"> [varchar, not null]</text>
<polygon fill="none" stroke="black" points="8.5,-63 8.5,-88 257.5,-88 257.5,-63 8.5,-63"/>
<text text-anchor="start" x="13.5" y="-72.8" font-family="Helvetica,sans-Serif" font-size="14.00">away_score</text>
<text text-anchor="start" x="89.5" y="-72.8" font-family="Helvetica,sans-Serif" font-size="14.00"> [usmallint, not null]</text>
</g>
<!-- game&#45;&#45;team -->
<g id="edge3" class="edge"><title>game&#45;&#45;team</title>
<path fill="none" stroke="#7f7f7f" stroke-dasharray="5,2" d="M262.142,-58.9058C274.738,-53.9037 288.055,-51 302,-51 302,-51 302,-51 1179,-51 1251.96,-51 1285.1,-143.773 1299.15,-206.286"/>
<text text-anchor="start" x="734.5" y="-54.8" font-family="Times New Roman,serif" font-size="14.00"> home </text>
<text text-anchor="start" x="1292.15" y="-195.086" font-family="Times New Roman,serif" font-size="14.00">1</text>
<text text-anchor="start" x="237.142" y="-47.7058" font-family="Times New Roman,serif" font-size="14.00">0..N</text>
</g>
<!-- game&#45;&#45;team -->
<g id="edge4" class="edge"><title>game&#45;&#45;team</title>
<path fill="none" stroke="#7f7f7f" stroke-dasharray="5,2" d="M201.048,-58.9698C226.771,-25.8056 260.213,-0 302,-0 302,-0 302,-0 1179,-0 1270.33,-0 1297.25,-129.529 1305.18,-206.437"/>
<text text-anchor="start" x="735.5" y="-3.8" font-family="Times New Roman,serif" font-size="14.00"> away </text>
<text text-anchor="start" x="1305.18" y="-195.237" font-family="Times New Roman,serif" font-size="14.00">1</text>
<text text-anchor="start" x="176.048" y="-47.7698" font-family="Times New Roman,serif" font-size="14.00">0..N</text>
</g>
<!-- game&#45;&#45;play_player -->
<g id="edge7" class="edge"><title>game&#45;&#45;play_player</title>
<path fill="none" stroke="#7f7f7f" stroke-dasharray="5,2" d="M265.006,-280.057C277.183,-283.171 289.608,-285 302,-285 302,-285 302,-285 583,-285 614.652,-285 609.339,-317.951 639,-329 737.99,-365.873 860.238,-365.858 943.868,-359.642"/>
<text text-anchor="start" x="918.868" y="-348.442" font-family="Times New Roman,serif" font-size="14.00">0..N</text>
<text text-anchor="start" x="265.006" y="-268.857" font-family="Times New Roman,serif" font-size="14.00">1</text>
</g>
<!-- drive -->
<g id="node5" class="node"><title>drive</title>
<polygon fill="#ececfc" stroke="none" points="348,-317 348,-545 556,-545 556,-317 348,-317"/>
<polygon fill="none" stroke="black" points="348,-517 348,-545 556,-545 556,-517 348,-517"/>
<text text-anchor="start" x="432.5" y="-528.2" font-family="Helvetica,sans-Serif" font-weight="bold" font-size="16.00">drive</text>
<polygon fill="none" stroke="black" points="348,-492 348,-517 556,-517 556,-492 348,-492"/>
<text text-anchor="start" x="353" y="-501.8" font-family="Helvetica,sans-Serif" font-style="italic" text-decoration="underline" font-size="14.00">gsis_id</text>
<text text-anchor="start" x="401" y="-501.8" font-family="Helvetica,sans-Serif" font-size="14.00"> [gameid, not null]</text>
<polygon fill="none" stroke="black" points="348,-467 348,-492 556,-492 556,-467 348,-467"/>
<text text-anchor="start" x="353" y="-476.8" font-family="Helvetica,sans-Serif" text-decoration="underline" font-size="14.00">drive_id</text>
<text text-anchor="start" x="404" y="-476.8" font-family="Helvetica,sans-Serif" font-size="14.00"> [usmallint, not null]</text>
<polygon fill="none" stroke="black" points="348,-442 348,-467 556,-467 556,-442 348,-442"/>
<text text-anchor="start" x="353" y="-451.8" font-family="Helvetica,sans-Serif" font-size="14.00">start_field</text>
<text text-anchor="start" x="416" y="-451.8" font-family="Helvetica,sans-Serif" font-size="14.00"> [field_pos, null]</text>
<polygon fill="none" stroke="black" points="348,-417 348,-442 556,-442 556,-417 348,-417"/>
<text text-anchor="start" x="353" y="-426.8" font-family="Helvetica,sans-Serif" font-size="14.00">start_time</text>
<text text-anchor="start" x="416" y="-426.8" font-family="Helvetica,sans-Serif" font-size="14.00"> [game_time, not null]</text>
<polygon fill="none" stroke="black" points="348,-392 348,-417 556,-417 556,-392 348,-392"/>
<text text-anchor="start" x="353" y="-401.8" font-family="Helvetica,sans-Serif" font-size="14.00">end_field</text>
<text text-anchor="start" x="413" y="-401.8" font-family="Helvetica,sans-Serif" font-size="14.00"> [field_pos, null]</text>
<polygon fill="none" stroke="black" points="348,-367 348,-392 556,-392 556,-367 348,-367"/>
<text text-anchor="start" x="353" y="-376.8" font-family="Helvetica,sans-Serif" font-size="14.00">end_time</text>
<text text-anchor="start" x="413" y="-376.8" font-family="Helvetica,sans-Serif" font-size="14.00"> [game_time, not null]</text>
<polygon fill="none" stroke="black" points="348,-342 348,-367 556,-367 556,-342 348,-342"/>
<text text-anchor="start" x="353" y="-351.8" font-family="Helvetica,sans-Serif" font-size="14.00">pos_team</text>
<text text-anchor="start" x="417" y="-351.8" font-family="Helvetica,sans-Serif" font-size="14.00"> [varchar, not null]</text>
<polygon fill="none" stroke="black" points="348,-317 348,-342 556,-342 556,-317 348,-317"/>
<text text-anchor="start" x="353" y="-326.8" font-family="Helvetica,sans-Serif" font-size="14.00">pos_time</text>
<text text-anchor="start" x="413" y="-326.8" font-family="Helvetica,sans-Serif" font-size="14.00"> [pos_period, null]</text>
</g>
<!-- game&#45;&#45;drive -->
<g id="edge5" class="edge"><title>game&#45;&#45;drive</title>
<path fill="none" stroke="#7f7f7f" stroke-dasharray="5,2" d="M265.39,-297.127C290.095,-314.946 315.693,-333.409 339.698,-350.722"/>
<text text-anchor="start" x="314.698" y="-339.522" font-family="Times New Roman,serif" font-size="14.00">0..N</text>
<text text-anchor="start" x="265.39" y="-285.927" font-family="Times New Roman,serif" font-size="14.00">1</text>
</g>
<!-- play -->
<g id="node6" class="node"><title>play</title>
<polygon fill="#ececfc" stroke="none" points="662.5,-88 662.5,-316 845.5,-316 845.5,-88 662.5,-88"/>
<polygon fill="none" stroke="black" points="663,-288 663,-316 846,-316 846,-288 663,-288"/>
<text text-anchor="start" x="739" y="-299.2" font-family="Helvetica,sans-Serif" font-weight="bold" font-size="16.00">play</text>
<polygon fill="none" stroke="black" points="663,-263 663,-288 846,-288 846,-263 663,-263"/>
<text text-anchor="start" x="668" y="-272.8" font-family="Helvetica,sans-Serif" font-style="italic" text-decoration="underline" font-size="14.00">gsis_id</text>
<text text-anchor="start" x="716" y="-272.8" font-family="Helvetica,sans-Serif" font-size="14.00"> [gameid, not null]</text>
<polygon fill="none" stroke="black" points="663,-238 663,-263 846,-263 846,-238 663,-238"/>
<text text-anchor="start" x="668" y="-247.8" font-family="Helvetica,sans-Serif" font-style="italic" text-decoration="underline" font-size="14.00">drive_id</text>
<text text-anchor="start" x="721" y="-247.8" font-family="Helvetica,sans-Serif" font-size="14.00"> [usmallint, not null]</text>
<polygon fill="none" stroke="black" points="663,-213 663,-238 846,-238 846,-213 663,-213"/>
<text text-anchor="start" x="668" y="-222.8" font-family="Helvetica,sans-Serif" text-decoration="underline" font-size="14.00">play_id</text>
<text text-anchor="start" x="714" y="-222.8" font-family="Helvetica,sans-Serif" font-size="14.00"> [usmallint, not null]</text>
<polygon fill="none" stroke="black" points="663,-188 663,-213 846,-213 846,-188 663,-188"/>
<text text-anchor="start" x="668" y="-197.8" font-family="Helvetica,sans-Serif" font-size="14.00">time</text>
<text text-anchor="start" x="696" y="-197.8" font-family="Helvetica,sans-Serif" font-size="14.00"> [game_time, not null]</text>
<polygon fill="none" stroke="black" points="663,-163 663,-188 846,-188 846,-163 663,-163"/>
<text text-anchor="start" x="668" y="-172.8" font-family="Helvetica,sans-Serif" font-size="14.00">pos_team</text>
<text text-anchor="start" x="732" y="-172.8" font-family="Helvetica,sans-Serif" font-size="14.00"> [varchar, not null]</text>
<polygon fill="none" stroke="black" points="663,-138 663,-163 846,-163 846,-138 663,-138"/>
<text text-anchor="start" x="668" y="-147.8" font-family="Helvetica,sans-Serif" font-size="14.00">yardline</text>
<text text-anchor="start" x="717" y="-147.8" font-family="Helvetica,sans-Serif" font-size="14.00"> [field_pos, null]</text>
<polygon fill="none" stroke="black" points="663,-113 663,-138 846,-138 846,-113 663,-113"/>
<text text-anchor="start" x="668" y="-122.8" font-family="Helvetica,sans-Serif" font-size="14.00">down</text>
<text text-anchor="start" x="702" y="-122.8" font-family="Helvetica,sans-Serif" font-size="14.00"> [smallint, null]</text>
<polygon fill="none" stroke="black" points="663,-88 663,-113 846,-113 846,-88 663,-88"/>
<text text-anchor="start" x="668" y="-97.8" font-family="Helvetica,sans-Serif" font-size="14.00">yards_to_go</text>
<text text-anchor="start" x="748" y="-97.8" font-family="Helvetica,sans-Serif" font-size="14.00"> [smallint, null]</text>
</g>
<!-- game&#45;&#45;play -->
<g id="edge6" class="edge"><title>game&#45;&#45;play</title>
<path fill="none" stroke="#7f7f7f" stroke-dasharray="5,2" d="M265.039,-202C277.532,-202 290.006,-202 302,-202 302,-202 302,-202 602,-202 618.909,-202 636.883,-202 654.312,-202"/>
<text text-anchor="start" x="629.312" y="-190.8" font-family="Times New Roman,serif" font-size="14.00">0..N</text>
<text text-anchor="start" x="265.039" y="-190.8" font-family="Times New Roman,serif" font-size="14.00">1</text>
</g>
<!-- drive&#45;&#45;team -->
<g id="edge8" class="edge"><title>drive&#45;&#45;team</title>
<path fill="none" stroke="#7f7f7f" stroke-dasharray="5,2" d="M509.705,-549.262C532.757,-579.672 563.055,-604 601,-604 601,-604 601,-604 1179,-604 1239.47,-604 1281.66,-414.619 1299.28,-317.709"/>
<text text-anchor="start" x="1292.28" y="-321.509" font-family="Times New Roman,serif" font-size="14.00">1</text>
<text text-anchor="start" x="484.705" y="-553.062" font-family="Times New Roman,serif" font-size="14.00">0..N</text>
</g>
<!-- drive&#45;&#45;play_player -->
<g id="edge10" class="edge"><title>drive&#45;&#45;play_player</title>
<path fill="none" stroke="#7f7f7f" stroke-dasharray="5,2" d="M564.259,-389.683C576.505,-387.39 588.915,-386 601,-386 601,-386 601,-386 907,-386 919.132,-386 931.656,-384.55 943.956,-382.217"/>
<text text-anchor="start" x="918.956" y="-371.017" font-family="Times New Roman,serif" font-size="14.00">0..N</text>
<text text-anchor="start" x="564.259" y="-378.483" font-family="Times New Roman,serif" font-size="14.00">1</text>
</g>
<!-- drive&#45;&#45;play -->
<g id="edge9" class="edge"><title>drive&#45;&#45;play</title>
<path fill="none" stroke="#7f7f7f" stroke-dasharray="5,2" d="M564.283,-346.054C593.798,-323.524 625.46,-299.356 654.257,-277.374"/>
<text text-anchor="start" x="629.257" y="-266.174" font-family="Times New Roman,serif" font-size="14.00">0..N</text>
<text text-anchor="start" x="564.283" y="-334.854" font-family="Times New Roman,serif" font-size="14.00">1</text>
</g>
<!-- play&#45;&#45;team -->
<g id="edge11" class="edge"><title>play&#45;&#45;team</title>
<path fill="none" stroke="#7f7f7f" stroke-dasharray="5,2" d="M853.87,-218.031C871.197,-219.813 889.09,-221 906,-221 906,-221 906,-221 1179,-221 1191.15,-221 1203.64,-222.659 1215.86,-225.31"/>
<text text-anchor="start" x="1208.86" y="-214.11" font-family="Times New Roman,serif" font-size="14.00">1</text>
<text text-anchor="start" x="853.87" y="-206.831" font-family="Times New Roman,serif" font-size="14.00">0..N</text>
</g>
<!-- play&#45;&#45;play_player -->
<g id="edge12" class="edge"><title>play&#45;&#45;play_player</title>
<path fill="none" stroke="#7f7f7f" stroke-dasharray="5,2" d="M853.597,-252.245C882.733,-267.092 914.606,-283.335 943.692,-298.157"/>
<text text-anchor="start" x="918.692" y="-286.957" font-family="Times New Roman,serif" font-size="14.00">0..N</text>
<text text-anchor="start" x="853.597" y="-241.045" font-family="Times New Roman,serif" font-size="14.00">1</text>
</g>
<!-- meta -->
<g id="node7" class="node"><title>meta</title>
<polygon fill="#fcecec" stroke="none" points="19.5,-367 19.5,-495 245.5,-495 245.5,-367 19.5,-367"/>
<polygon fill="none" stroke="black" points="19.5,-467 19.5,-495 245.5,-495 245.5,-467 19.5,-467"/>
<text text-anchor="start" x="113.5" y="-478.2" font-family="Helvetica,sans-Serif" font-weight="bold" font-size="16.00">meta</text>
<polygon fill="none" stroke="black" points="19.5,-442 19.5,-467 245.5,-467 245.5,-442 19.5,-442"/>
<text text-anchor="start" x="24.5" y="-451.8" font-family="Helvetica,sans-Serif" font-size="14.00">version</text>
<text text-anchor="start" x="70.5" y="-451.8" font-family="Helvetica,sans-Serif" font-size="14.00"> [smallint, null]</text>
<polygon fill="none" stroke="black" points="19.5,-417 19.5,-442 245.5,-442 245.5,-417 19.5,-417"/>
<text text-anchor="start" x="24.5" y="-426.8" font-family="Helvetica,sans-Serif" font-size="14.00">season_type</text>
<text text-anchor="start" x="106.5" y="-426.8" font-family="Helvetica,sans-Serif" font-size="14.00"> [season_phase, null]</text>
<polygon fill="none" stroke="black" points="19.5,-392 19.5,-417 245.5,-417 245.5,-392 19.5,-392"/>
<text text-anchor="start" x="24.5" y="-401.8" font-family="Helvetica,sans-Serif" font-size="14.00">season_year</text>
<text text-anchor="start" x="106.5" y="-401.8" font-family="Helvetica,sans-Serif" font-size="14.00"> [usmallint, null]</text>
<polygon fill="none" stroke="black" points="19.5,-367 19.5,-392 245.5,-392 245.5,-367 19.5,-367"/>
<text text-anchor="start" x="24.5" y="-376.8" font-family="Helvetica,sans-Serif" font-size="14.00">week</text>
<text text-anchor="start" x="58.5" y="-376.8" font-family="Helvetica,sans-Serif" font-size="14.00"> [usmallint, null]</text>
</g>
</g>
</svg>
