<?xml version="1.0" encoding="UTF-8" standalone="no"?>
<!DOCTYPE svg PUBLIC "-//W3C//DTD SVG 1.1//EN"
 "http://www.w3.org/Graphics/SVG/1.1/DTD/svg11.dtd">
<!-- Generated by graphviz version 2.38.0 (20140413.2041)
 -->
<!-- Title: %3 Pages: 1 -->
<svg width="417pt" height="314pt"
 viewBox="0.00 0.00 417.00 314.00" xmlns="http://www.w3.org/2000/svg" xmlns:xlink="http://www.w3.org/1999/xlink">
<g id="graph0" class="graph" transform="scale(1 1) rotate(0) translate(4 310)">
<title>%3</title>
<polygon fill="white" stroke="none" points="-4,4 -4,-310 413,-310 413,4 -4,4"/>
<!-- F_V_SV_IMSI_H -->
<g id="node1" class="node"><title>F_V_SV_IMSI_H</title>
<polygon fill="#d0e0d0" stroke="none" points="88,-276.5 88,-299.5 191,-299.5 191,-276.5 88,-276.5"/>
<polygon fill="none" stroke="black" points="88.5,-276 88.5,-299 191.5,-299 191.5,-276 88.5,-276"/>
<text text-anchor="start" x="93.5" y="-285.4" font-family="Helvetica,sans-Serif" font-weight="bold" font-size="12.00">F_V_SV_IMSI_H</text>
</g>
<!-- ALL -->
<g id="node2" class="node"><title>ALL</title>
<polygon fill="#d0e0d0" stroke="none" points="360,-139 360,-167 401,-167 401,-139 360,-139"/>
<polygon fill="none" stroke="black" points="360.5,-139 360.5,-167 401.5,-167 401.5,-139 360.5,-139"/>
<text text-anchor="start" x="365.5" y="-150.2" font-family="Helvetica,sans-Serif" font-weight="bold" font-size="16.00">ALL</text>
</g>
<!-- F_V_SV_IMSI_H&#45;&#45;ALL -->
<g id="edge1" class="edge"><title>F_V_SV_IMSI_H&#45;&#45;ALL</title>
<path fill="none" stroke="#7f7f7f" stroke-dasharray="5,2" d="M199.213,-284.719C224.978,-281.276 254.799,-274.44 279,-261 318.632,-238.99 351.504,-195.787 368.018,-171.219"/>
<text text-anchor="start" x="337.018" y="-175.019" font-family="Times New Roman,serif" font-size="14.00">{0,1}</text>
<text text-anchor="start" x="199.213" y="-273.519" font-family="Times New Roman,serif" font-size="14.00">0..N</text>
</g>
<!-- F_VOLTE_SIP_Mw_CITY_AREA_VD_IMSI_H -->
<g id="node3" class="node"><title>F_VOLTE_SIP_Mw_CITY_AREA_VD_IMSI_H</title>
<polygon fill="#d0e0d0" stroke="none" points="8,-222.5 8,-245.5 271,-245.5 271,-222.5 8,-222.5"/>
<polygon fill="none" stroke="black" points="8.5,-222 8.5,-245 271.5,-245 271.5,-222 8.5,-222"/>
<text text-anchor="start" x="13.5" y="-231.4" font-family="Helvetica,sans-Serif" font-weight="bold" font-size="12.00">F_VOLTE_SIP_Mw_CITY_AREA_VD_IMSI_H</text>
</g>
<!-- F_VOLTE_SIP_Mw_CITY_AREA_VD_IMSI_H&#45;&#45;ALL -->
<g id="edge2" class="edge"><title>F_VOLTE_SIP_Mw_CITY_AREA_VD_IMSI_H&#45;&#45;ALL</title>
<path fill="none" stroke="#7f7f7f" stroke-dasharray="5,2" d="M249.463,-215.999C259.558,-213.363 269.54,-210.376 279,-207 304.93,-197.746 332.331,-182.621 351.96,-170.729"/>
<text text-anchor="start" x="344.96" y="-159.529" font-family="Times New Roman,serif" font-size="14.00">1</text>
<text text-anchor="start" x="242.463" y="-204.799" font-family="Times New Roman,serif" font-size="14.00">1</text>
</g>
<!-- F_V_BXDR_DROP_IMSI_H -->
<g id="node4" class="node"><title>F_V_BXDR_DROP_IMSI_H</title>
<polygon fill="#d0e0d0" stroke="none" points="57.5,-168.5 57.5,-191.5 221.5,-191.5 221.5,-168.5 57.5,-168.5"/>
<polygon fill="none" stroke="black" points="57.5,-168 57.5,-191 221.5,-191 221.5,-168 57.5,-168"/>
<text text-anchor="start" x="62.5" y="-177.4" font-family="Helvetica,sans-Serif" font-weight="bold" font-size="12.00">F_V_BXDR_DROP_IMSI_H</text>
</g>
<!-- F_V_BXDR_DROP_IMSI_H&#45;&#45;ALL -->
<g id="edge3" class="edge"><title>F_V_BXDR_DROP_IMSI_H&#45;&#45;ALL</title>
<path fill="none" stroke="#7f7f7f" stroke-dasharray="5,2" d="M229.835,-169.908C273.191,-165.01 322.215,-159.472 351.982,-156.109"/>
<text text-anchor="start" x="344.982" y="-144.909" font-family="Times New Roman,serif" font-size="14.00">1</text>
<text text-anchor="start" x="229.835" y="-158.708" font-family="Times New Roman,serif" font-size="14.00">1</text>
</g>
<!-- F_V_BXDR_VTV_CITY_AREA_VD_IMSI_H -->
<g id="node5" class="node"><title>F_V_BXDR_VTV_CITY_AREA_VD_IMSI_H</title>
<polygon fill="#d0e0d0" stroke="none" points="14,-114.5 14,-137.5 265,-137.5 265,-114.5 14,-114.5"/>
<polygon fill="none" stroke="black" points="14.5,-114 14.5,-137 265.5,-137 265.5,-114 14.5,-114"/>
<text text-anchor="start" x="19.5" y="-123.4" font-family="Helvetica,sans-Serif" font-weight="bold" font-size="12.00">F_V_BXDR_VTV_CITY_AREA_VD_IMSI_H</text>
</g>
<!-- F_V_BXDR_VTV_CITY_AREA_VD_IMSI_H&#45;&#45;ALL -->
<g id="edge4" class="edge"><title>F_V_BXDR_VTV_CITY_AREA_VD_IMSI_H&#45;&#45;ALL</title>
<path fill="none" stroke="#7f7f7f" stroke-dasharray="5,2" d="M273.279,-141C303.148,-144.375 331.897,-147.622 351.936,-149.886"/>
<text text-anchor="start" x="344.936" y="-138.686" font-family="Times New Roman,serif" font-size="14.00">1</text>
<text text-anchor="start" x="273.279" y="-129.8" font-family="Times New Roman,serif" font-size="14.00">1</text>
</g>
<!-- F_V_BXDR_IMSI_H -->
<g id="node6" class="node"><title>F_V_BXDR_IMSI_H</title>
<polygon fill="#d0e0d0" stroke="none" points="78.5,-60.5 78.5,-83.5 200.5,-83.5 200.5,-60.5 78.5,-60.5"/>
<polygon fill="none" stroke="black" points="78.5,-60 78.5,-83 200.5,-83 200.5,-60 78.5,-60"/>
<text text-anchor="start" x="83.5" y="-69.4" font-family="Helvetica,sans-Serif" font-weight="bold" font-size="12.00">F_V_BXDR_IMSI_H</text>
</g>
<!-- F_V_BXDR_IMSI_H&#45;&#45;ALL -->
<g id="edge5" class="edge"><title>F_V_BXDR_IMSI_H&#45;&#45;ALL</title>
<path fill="none" stroke="#7f7f7f" stroke-dasharray="5,2" d="M208.515,-81.0652C231.315,-85.2021 256.62,-91.0129 279,-99 304.93,-108.254 332.331,-123.379 351.96,-135.271"/>
<text text-anchor="start" x="351.96" y="-124.071" font-family="Times New Roman,serif" font-size="14.00">1</text>
<text text-anchor="start" x="208.515" y="-69.8652" font-family="Times New Roman,serif" font-size="14.00">1</text>
</g>
<!-- F_V_BXDR_SRVCC_IMSI_H -->
<g id="node7" class="node"><title>F_V_BXDR_SRVCC_IMSI_H</title>
<polygon fill="#d0e0d0" stroke="none" points="53.5,-6.5 53.5,-29.5 225.5,-29.5 225.5,-6.5 53.5,-6.5"/>
<polygon fill="none" stroke="black" points="53.5,-6 53.5,-29 225.5,-29 225.5,-6 53.5,-6"/>
<text text-anchor="start" x="58.5" y="-15.4" font-family="Helvetica,sans-Serif" font-weight="bold" font-size="12.00">F_V_BXDR_SRVCC_IMSI_H</text>
</g>
<!-- F_V_BXDR_SRVCC_IMSI_H&#45;&#45;ALL -->
<g id="edge6" class="edge"><title>F_V_BXDR_SRVCC_IMSI_H&#45;&#45;ALL</title>
<path fill="none" stroke="#7f7f7f" stroke-dasharray="5,2" d="M233.5,-27.7515C249.299,-31.7233 265.079,-37.269 279,-45 318.632,-67.0099 351.504,-110.213 368.018,-134.781"/>
<text text-anchor="start" x="361.018" y="-123.581" font-family="Times New Roman,serif" font-size="14.00">1</text>
<text text-anchor="start" x="233.5" y="-16.5515" font-family="Times New Roman,serif" font-size="14.00">1</text>
</g>
</g>
</svg>
