<?xml version="1.0" encoding="UTF-8" standalone="no"?>
<!DOCTYPE svg PUBLIC "-//W3C//DTD SVG 1.1//EN"
 "http://www.w3.org/Graphics/SVG/1.1/DTD/svg11.dtd">
<!-- Generated by graphviz version 2.38.0 (20140413.2041)
 -->
<!-- Title: g Pages: 1 -->
<svg width="338pt" height="260pt"
 viewBox="0.00 0.00 337.80 260.00" xmlns="http://www.w3.org/2000/svg" xmlns:xlink="http://www.w3.org/1999/xlink">
<g id="graph0" class="graph" transform="scale(1 1) rotate(0) translate(4 256)">
<title>g</title>
<polygon fill="white" stroke="none" points="-4,4 -4,-256 333.8,-256 333.8,4 -4,4"/>
<!-- l1 -->
<!-- l2 -->
<!-- l1&#45;&gt;l2 -->
<g id="edge4" class="edge"><title>l1&#45;&gt;l2</title>
<path fill="none" stroke="black" d="M1.8,-232.01C1.8,-225.821 1.8,-192.121 1.8,-174.208"/>
<polygon fill="black" stroke="black" points="5.3001,-174.054 1.8,-164.054 -1.6999,-174.054 5.3001,-174.054"/>
</g>
<!-- A -->
<g id="node2" class="node"><title>A</title>
<ellipse fill="none" stroke="black" cx="103.8" cy="-234" rx="27" ry="18"/>
<text text-anchor="middle" x="103.8" y="-230.3" font-family="Times New Roman,serif" font-size="14.00">A</text>
</g>
<!-- B -->
<g id="node4" class="node"><title>B</title>
<ellipse fill="none" stroke="black" cx="48.8" cy="-162" rx="27" ry="18"/>
<text text-anchor="middle" x="48.8" y="-158.3" font-family="Times New Roman,serif" font-size="14.00">B</text>
</g>
<!-- A&#45;&gt;B -->
<g id="edge1" class="edge"><title>A&#45;&gt;B</title>
<path fill="none" stroke="black" d="M91.8658,-217.811C84.5864,-208.546 75.1374,-196.52 66.9456,-186.094"/>
<polygon fill="black" stroke="black" points="69.6413,-183.86 60.7109,-178.159 64.137,-188.185 69.6413,-183.86"/>
</g>
<!-- C -->
<g id="node6" class="node"><title>C</title>
<ellipse fill="none" stroke="black" cx="103.8" cy="-90" rx="27" ry="18"/>
<text text-anchor="middle" x="103.8" y="-86.3" font-family="Times New Roman,serif" font-size="14.00">C</text>
</g>
<!-- A&#45;&gt;C -->
<g id="edge2" class="edge"><title>A&#45;&gt;C</title>
<path fill="none" stroke="black" d="M103.8,-215.871C103.8,-191.67 103.8,-147.211 103.8,-118.393"/>
<polygon fill="black" stroke="black" points="107.3,-118.189 103.8,-108.189 100.3,-118.189 107.3,-118.189"/>
</g>
<!-- D -->
<g id="node8" class="node"><title>D</title>
<ellipse fill="none" stroke="black" cx="158.8" cy="-18" rx="27" ry="18"/>
<text text-anchor="middle" x="158.8" y="-14.3" font-family="Times New Roman,serif" font-size="14.00">D</text>
</g>
<!-- A&#45;&gt;D -->
<g id="edge3" class="edge"><title>A&#45;&gt;D</title>
<path fill="none" stroke="black" d="M109.07,-216.119C116.445,-192.195 130.035,-146.995 139.8,-108 144.949,-87.4388 149.919,-63.9859 153.484,-46.3189"/>
<polygon fill="black" stroke="black" points="156.99,-46.635 155.511,-36.1438 150.125,-45.2673 156.99,-46.635"/>
</g>
<!-- l3 -->
<!-- l2&#45;&gt;l3 -->
<g id="edge5" class="edge"><title>l2&#45;&gt;l3</title>
<path fill="none" stroke="black" d="M1.8,-160.01C1.8,-153.821 1.8,-120.121 1.8,-102.208"/>
<polygon fill="black" stroke="black" points="5.3001,-102.054 1.8,-92.0542 -1.6999,-102.054 5.3001,-102.054"/>
</g>
<!-- l4 -->
<!-- l3&#45;&gt;l4 -->
<g id="edge6" class="edge"><title>l3&#45;&gt;l4</title>
<path fill="none" stroke="black" d="M1.8,-88.0105C1.8,-81.8215 1.8,-48.1206 1.8,-30.2078"/>
<polygon fill="black" stroke="black" points="5.3001,-30.0542 1.8,-20.0542 -1.6999,-30.0542 5.3001,-30.0542"/>
</g>
<!-- E -->
<g id="node9" class="node"><title>E</title>
<ellipse fill="none" stroke="black" cx="230.8" cy="-18" rx="27" ry="18"/>
<text text-anchor="middle" x="230.8" y="-14.3" font-family="Times New Roman,serif" font-size="14.00">E</text>
</g>
<!-- F -->
<g id="node10" class="node"><title>F</title>
<ellipse fill="none" stroke="black" cx="302.8" cy="-18" rx="27" ry="18"/>
<text text-anchor="middle" x="302.8" y="-14.3" font-family="Times New Roman,serif" font-size="14.00">F</text>
</g>
</g>
</svg>
