<?xml version="1.0" encoding="UTF-8" standalone="no"?>
<!DOCTYPE svg PUBLIC "-//W3C//DTD SVG 1.1//EN"
 "http://www.w3.org/Graphics/SVG/1.1/DTD/svg11.dtd">
<!-- Generated by graphviz version 2.38.0 (20140413.2041)
 -->
<!-- Title: %3 Pages: 1 -->
<svg width="199pt" height="172pt"
 viewBox="0.00 0.00 199.00 172.00" xmlns="http://www.w3.org/2000/svg" xmlns:xlink="http://www.w3.org/1999/xlink">
<g id="graph0" class="graph" transform="scale(1 1) rotate(0) translate(4 168)">
<title>%3</title>
<polygon fill="white" stroke="none" points="-4,4 -4,-168 195,-168 195,4 -4,4"/>
<g id="clust2" class="cluster"><title>clusterY</title>
<polygon fill="none" stroke="black" points="8,-8 8,-102 183,-102 183,-8 8,-8"/>
</g>
<g id="clust1" class="cluster"><title>clusterX</title>
<polygon fill="none" stroke="black" points="8,-110 8,-156 118,-156 118,-110 8,-110"/>
</g>
<!-- E -->
<g id="node1" class="node"><title>E</title>
<polygon fill="none" stroke="black" points="81,-64.5 81,-93.5 110,-93.5 110,-64.5 81,-64.5"/>
<text text-anchor="middle" x="95.5" y="-75.3" font-family="Times New Roman,serif" font-size="14.00">E</text>
</g>
<!-- F -->
<g id="node6" class="node"><title>F</title>
<polygon fill="none" stroke="black" points="146,-64.5 146,-93.5 175,-93.5 175,-64.5 146,-64.5"/>
<text text-anchor="middle" x="160.5" y="-75.3" font-family="Times New Roman,serif" font-size="14.00">F</text>
</g>
<!-- E&#45;&gt;F -->
<g id="edge4" class="edge"><title>E&#45;&gt;F</title>
<path fill="none" stroke="black" d="M110.17,-79C120.737,-79 135.296,-79 145.857,-79"/>
</g>
<!-- A -->
<g id="node2" class="node"><title>A</title>
<polygon fill="none" stroke="black" points="16,-118.5 16,-147.5 45,-147.5 45,-118.5 16,-118.5"/>
<text text-anchor="middle" x="30.5" y="-129.3" font-family="Times New Roman,serif" font-size="14.00">A</text>
</g>
<!-- B -->
<g id="node3" class="node"><title>B</title>
<polygon fill="none" stroke="black" points="81,-118.5 81,-147.5 110,-147.5 110,-118.5 81,-118.5"/>
<text text-anchor="middle" x="95.5" y="-129.3" font-family="Times New Roman,serif" font-size="14.00">B</text>
</g>
<!-- A&#45;&gt;B -->
<g id="edge1" class="edge"><title>A&#45;&gt;B</title>
<path fill="none" stroke="black" d="M45.1701,-133C55.7373,-133 70.2961,-133 80.8566,-133"/>
</g>
<!-- D -->
<g id="node5" class="node"><title>D</title>
<polygon fill="none" stroke="black" points="16,-64.5 16,-93.5 45,-93.5 45,-64.5 16,-64.5"/>
<text text-anchor="middle" x="30.5" y="-75.3" font-family="Times New Roman,serif" font-size="14.00">D</text>
</g>
<!-- A&#45;&gt;D -->
<g id="edge7" class="edge"><title>A&#45;&gt;D</title>
<path fill="none" stroke="black" d="M30.5,-118.287C30.5,-110.113 30.5,-101.939 30.5,-93.7656"/>
</g>
<!-- C -->
<g id="node4" class="node"><title>C</title>
<polygon fill="none" stroke="black" points="146,-118.5 146,-147.5 175,-147.5 175,-118.5 146,-118.5"/>
<text text-anchor="middle" x="160.5" y="-129.3" font-family="Times New Roman,serif" font-size="14.00">C</text>
</g>
<!-- B&#45;&gt;C -->
<g id="edge2" class="edge"><title>B&#45;&gt;C</title>
<path fill="none" stroke="black" d="M110.17,-133C120.737,-133 135.296,-133 145.857,-133"/>
</g>
<!-- D&#45;&gt;E -->
<g id="edge3" class="edge"><title>D&#45;&gt;E</title>
<path fill="none" stroke="black" d="M45.1701,-79C55.7373,-79 70.2961,-79 80.8566,-79"/>
</g>
<!-- G -->
<g id="node7" class="node"><title>G</title>
<polygon fill="none" stroke="black" points="16,-16.5 16,-45.5 45,-45.5 45,-16.5 16,-16.5"/>
<text text-anchor="middle" x="30.5" y="-27.3" font-family="Times New Roman,serif" font-size="14.00">G</text>
</g>
<!-- D&#45;&gt;G -->
<g id="edge8" class="edge"><title>D&#45;&gt;G</title>
<path fill="none" stroke="black" d="M30.5,-64.3984C30.5,-58.1406 30.5,-51.8828 30.5,-45.625"/>
</g>
<!-- H -->
<g id="node8" class="node"><title>H</title>
<polygon fill="none" stroke="black" points="81,-16.5 81,-45.5 110,-45.5 110,-16.5 81,-16.5"/>
<text text-anchor="middle" x="95.5" y="-27.3" font-family="Times New Roman,serif" font-size="14.00">H</text>
</g>
<!-- G&#45;&gt;H -->
<g id="edge5" class="edge"><title>G&#45;&gt;H</title>
<path fill="none" stroke="black" d="M45.1701,-31C55.7373,-31 70.2961,-31 80.8566,-31"/>
</g>
<!-- I -->
<g id="node9" class="node"><title>I</title>
<polygon fill="none" stroke="black" points="146,-16.5 146,-45.5 175,-45.5 175,-16.5 146,-16.5"/>
<text text-anchor="middle" x="160.5" y="-27.3" font-family="Times New Roman,serif" font-size="14.00">I</text>
</g>
<!-- H&#45;&gt;I -->
<g id="edge6" class="edge"><title>H&#45;&gt;I</title>
<path fill="none" stroke="black" d="M110.17,-31C120.737,-31 135.296,-31 145.857,-31"/>
</g>
</g>
</svg>
