<?xml version="1.0" encoding="UTF-8" standalone="no"?>
<!DOCTYPE svg PUBLIC "-//W3C//DTD SVG 1.1//EN"
 "http://www.w3.org/Graphics/SVG/1.1/DTD/svg11.dtd">
<!-- Generated by graphviz version 2.38.0 (20140413.2041)
 -->
<!-- Title: G Pages: 1 -->
<svg width="2630pt" height="685pt"
 viewBox="0.00 0.00 2630.10 684.50" xmlns="http://www.w3.org/2000/svg" xmlns:xlink="http://www.w3.org/1999/xlink">
<g id="graph0" class="graph" transform="scale(1 1) rotate(0) translate(4 680.5)">
<title>G</title>
<polygon fill="white" stroke="none" points="-4,4 -4,-680.5 2626.1,-680.5 2626.1,4 -4,4"/>
<g id="clust1" class="cluster"><title>clusterset2</title>
<polygon fill="none" stroke="blue" points="637.5,-8 637.5,-578.4 1140.5,-578.4 1140.5,-8 637.5,-8"/>
<text text-anchor="middle" x="889" y="-563.2" font-family="Times New Roman,serif" font-size="14.00">rtracker</text>
</g>
<g id="clust25" class="cluster"><title>clusterset3</title>
<polygon fill="none" stroke="green" points="165.5,-212.2 165.5,-668.5 629.5,-668.5 629.5,-212.2 165.5,-212.2"/>
<text text-anchor="middle" x="397.5" y="-653.3" font-family="Times New Roman,serif" font-size="14.00">bgl</text>
</g>
<!-- ssc -->
<g id="node1" class="node"><title>ssc</title>
<polygon fill="none" stroke="black" points="150.5,-648.4 6.5,-648.4 6.5,-619.4 150.5,-619.4 150.5,-648.4"/>
<text text-anchor="middle" x="78.5" y="-630.2" font-family="Arial" font-size="14.00">StreamingContext</text>
</g>
<!-- slb -->
<g id="node18" class="node"><title>slb</title>
<polygon fill="none" stroke="black" points="157,-547.4 0,-547.4 0,-518.4 157,-518.4 157,-547.4"/>
<text text-anchor="middle" x="78.5" y="-529.2" font-family="Arial" font-size="14.00">StreamingListenerBus</text>
</g>
<!-- ssc&#45;&gt;slb -->
<g id="edge1" class="edge"><title>ssc&#45;&gt;slb</title>
<path fill="none" stroke="black" d="M78.5,-618.997C78.5,-618.997 78.5,-557.536 78.5,-557.536"/>
<polygon fill="black" stroke="black" points="82.0001,-557.536 78.5,-547.536 75.0001,-557.536 82.0001,-557.536"/>
</g>
<!-- rt -->
<g id="node2" class="node"><title>rt</title>
<polygon fill="none" stroke="black" points="1046.5,-387.4 902.5,-387.4 902.5,-358.4 1046.5,-358.4 1046.5,-387.4"/>
<text text-anchor="middle" x="974.5" y="-369.2" font-family="Arial" font-size="14.00">RecurringTimer</text>
</g>
<!-- m7 -->
<g id="node42" class="node"><title>m7</title>
<ellipse fill="darkorange" stroke="black" cx="993.5" cy="-303.8" rx="3.6" ry="3.6"/>
</g>
<!-- rt&#45;&gt;m7 -->
<g id="edge15" class="edge"><title>rt&#45;&gt;m7</title>
<path fill="none" stroke="black" d="M993.5,-348.246C993.5,-348.246 993.5,-307.626 993.5,-307.626"/>
<polygon fill="black" stroke="black" points="990,-348.246 993.5,-358.246 997,-348.246 990,-348.246"/>
<text text-anchor="middle" x="1064" y="-331.736" font-family="Times New Roman,serif" font-size="14.00">RecurringTimer#start#59</text>
</g>
<!-- m8 -->
<g id="node51" class="node"><title>m8</title>
<ellipse fill="darkorange" stroke="black" cx="1085.5" cy="-372.9" rx="3.6" ry="3.6"/>
</g>
<!-- rt&#45;&gt;m8 -->
<g id="edge16" class="edge"><title>rt&#45;&gt;m8</title>
<path fill="none" stroke="black" d="M1046.68,-372C1061.92,-372 1075.3,-372 1081.63,-372"/>
<text text-anchor="middle" x="1091.15" y="-360.8" font-family="Times New Roman,serif" font-size="14.00">loop#103</text>
</g>
<!-- bg -->
<g id="node3" class="node"><title>bg</title>
<polygon fill="none" stroke="black" points="1095.5,-249.2 951.5,-249.2 951.5,-220.2 1095.5,-220.2 1095.5,-249.2"/>
<text text-anchor="middle" x="1023.5" y="-231" font-family="Arial" font-size="14.00">BlockGenerator</text>
</g>
<!-- p11 -->
<g id="node36" class="node"><title>p11</title>
</g>
<!-- bg&#45;&gt;p11 -->
<g id="edge18" class="edge"><title>bg&#45;&gt;p11</title>
<path fill="none" stroke="black" d="M1105.54,-234C1105.54,-234 1131.45,-234 1131.45,-234"/>
<polygon fill="black" stroke="black" points="1105.54,-230.5 1095.54,-234 1105.54,-237.5 1105.54,-230.5"/>
</g>
<!-- m12 -->
<g id="node45" class="node"><title>m12</title>
<ellipse fill="darkorange" stroke="black" cx="1042.5" cy="-74.7" rx="3.6" ry="3.6"/>
</g>
<!-- bg&#45;&gt;m12 -->
<g id="edge20" class="edge"><title>bg&#45;&gt;m12</title>
<path fill="none" stroke="black" d="M1042.5,-219.934C1042.5,-219.934 1042.5,-88.5168 1042.5,-88.5168"/>
<polygon fill="black" stroke="black" points="1046,-88.5168 1042.5,-78.5168 1039,-88.5169 1046,-88.5168"/>
<text text-anchor="start" x="951.5" y="-151" font-family="Times New Roman,serif" font-size="14.00" fill="red">blockPushingThread.start()#120</text>
</g>
<!-- bm -->
<g id="node4" class="node"><title>bm</title>
<polygon fill="none" stroke="black" points="572.5,-547.4 428.5,-547.4 428.5,-518.4 572.5,-518.4 572.5,-547.4"/>
<text text-anchor="middle" x="500.5" y="-529.2" font-family="Arial" font-size="14.00">BlockManager</text>
</g>
<!-- walbbh -->
<g id="node24" class="node"><title>walbbh</title>
<polygon fill="none" stroke="black" points="621.5,-467.4 379.5,-467.4 379.5,-438.4 621.5,-438.4 621.5,-467.4"/>
<text text-anchor="middle" x="500.5" y="-449.2" font-family="Arial" font-size="14.00">WriteAheadLogBasedBlockHandler</text>
</g>
<!-- bm&#45;&gt;walbbh -->
<g id="edge31" class="edge"><title>bm&#45;&gt;walbbh</title>
<path fill="none" stroke="black" d="M500.5,-508.227C500.5,-508.227 500.5,-467.48 500.5,-467.48"/>
<polygon fill="black" stroke="black" points="497,-508.227 500.5,-518.227 504,-508.227 497,-508.227"/>
<text text-anchor="start" x="413.5" y="-491.653" font-family="Times New Roman,serif" font-size="14.00" fill="red">putBytes()#192</text>
</g>
<!-- ms -->
<g id="node5" class="node"><title>ms</title>
<polygon fill="none" stroke="black" points="781.5,-648.4 637.5,-648.4 637.5,-619.4 781.5,-619.4 781.5,-648.4"/>
<text text-anchor="middle" x="709.5" y="-630.2" font-family="Arial" font-size="14.00">MemoryStore</text>
</g>
<!-- bmm -->
<g id="node6" class="node"><title>bmm</title>
<polygon fill="none" stroke="black" points="949,-648.4 800,-648.4 800,-619.4 949,-619.4 949,-648.4"/>
<text text-anchor="middle" x="874.5" y="-630.2" font-family="Arial" font-size="14.00">BlockManagerMaster</text>
</g>
<!-- rbt -->
<g id="node7" class="node"><title>rbt</title>
<polygon fill="none" stroke="black" points="1128,-648.4 967,-648.4 967,-619.4 1128,-619.4 1128,-648.4"/>
<text text-anchor="middle" x="1047.5" y="-630.2" font-family="Arial" font-size="14.00">ReceivedBlockTracker</text>
</g>
<!-- tr -->
<g id="node8" class="node"><title>tr</title>
<polygon fill="none" stroke="black" points="1020.5,-89.2 876.5,-89.2 876.5,-60.2 1020.5,-60.2 1020.5,-89.2"/>
<text text-anchor="middle" x="948.5" y="-71" font-family="Arial" font-size="14.00">TestReceiver</text>
</g>
<!-- r -->
<g id="node9" class="node"><title>r</title>
<polygon fill="none" stroke="black" points="898.5,-169.2 754.5,-169.2 754.5,-140.2 898.5,-140.2 898.5,-169.2"/>
<text text-anchor="middle" x="826.5" y="-151" font-family="Arial" font-size="14.00">Receiver</text>
</g>
<!-- r&#45;&gt;tr -->
<g id="edge11" class="edge"><title>r&#45;&gt;tr</title>
<path fill="none" stroke="black" d="M887.5,-130.027C887.5,-130.027 887.5,-89.2802 887.5,-89.2802"/>
<polygon fill="black" stroke="black" points="884,-130.027 887.5,-140.027 891,-130.027 884,-130.027"/>
<text text-anchor="middle" x="885.5" y="-111" font-family="Times New Roman,serif" font-size="14.00">store#118</text>
</g>
<!-- jg -->
<g id="node10" class="node"><title>jg</title>
<polygon fill="none" stroke="black" points="1290.5,-648.4 1146.5,-648.4 1146.5,-619.4 1290.5,-619.4 1290.5,-648.4"/>
<text text-anchor="middle" x="1218.5" y="-630.2" font-family="Arial" font-size="14.00">JobGenerator</text>
</g>
<!-- dg -->
<g id="node11" class="node"><title>dg</title>
<polygon fill="none" stroke="black" points="1452.5,-648.4 1308.5,-648.4 1308.5,-619.4 1452.5,-619.4 1452.5,-648.4"/>
<text text-anchor="middle" x="1380.5" y="-630.2" font-family="Arial" font-size="14.00">DStreamGraph</text>
</g>
<!-- js -->
<g id="node12" class="node"><title>js</title>
<polygon fill="none" stroke="black" points="1614.5,-648.4 1470.5,-648.4 1470.5,-619.4 1614.5,-619.4 1614.5,-648.4"/>
<text text-anchor="middle" x="1542.5" y="-630.2" font-family="Arial" font-size="14.00">JobScheduler</text>
</g>
<!-- rsi -->
<g id="node13" class="node"><title>rsi</title>
<polygon fill="none" stroke="black" points="858.5,-249.2 688.5,-249.2 688.5,-220.2 858.5,-220.2 858.5,-249.2"/>
<text text-anchor="middle" x="773.5" y="-231" font-family="Arial" font-size="14.00">ReceiverSupervisorImpl</text>
</g>
<!-- rsi&#45;&gt;bg -->
<g id="edge13" class="edge"><title>rsi&#45;&gt;bg</title>
<path fill="none" stroke="black" d="M858.837,-234C858.837,-234 941.445,-234 941.445,-234"/>
<polygon fill="black" stroke="black" points="941.445,-237.5 951.445,-234 941.445,-230.5 941.445,-237.5"/>
<text text-anchor="middle" x="900.141" y="-222.8" font-family="Times New Roman,serif" font-size="14.00">addData#161</text>
</g>
<!-- rsi&#45;&gt;r -->
<g id="edge12" class="edge"><title>rsi&#45;&gt;r</title>
<path fill="none" stroke="black" d="M806.5,-210.027C806.5,-210.027 806.5,-169.28 806.5,-169.28"/>
<polygon fill="black" stroke="black" points="803,-210.027 806.5,-220.027 810,-210.027 803,-210.027"/>
<text text-anchor="middle" x="853" y="-191" font-family="Times New Roman,serif" font-size="14.00">pushSingle#119</text>
</g>
<!-- rs -->
<g id="node14" class="node"><title>rs</title>
<polygon fill="none" stroke="black" points="789.5,-89.2 645.5,-89.2 645.5,-60.2 789.5,-60.2 789.5,-89.2"/>
<text text-anchor="middle" x="717.5" y="-71" font-family="Arial" font-size="14.00">ReceiverSupervisor</text>
</g>
<!-- rs&#45;&gt;tr -->
<g id="edge10" class="edge"><title>rs&#45;&gt;tr</title>
<path fill="none" stroke="black" d="M789.64,-74C789.64,-74 866.113,-74 866.113,-74"/>
<polygon fill="black" stroke="black" points="866.113,-77.5001 876.113,-74 866.113,-70.5001 866.113,-77.5001"/>
<text text-anchor="middle" x="827.876" y="-62.8" font-family="Times New Roman,serif" font-size="14.00">onStart#880</text>
</g>
<!-- s0 -->
<g id="node15" class="node"><title>s0</title>
<polygon fill="none" stroke="black" points="1776.5,-648.4 1632.5,-648.4 1632.5,-619.4 1776.5,-619.4 1776.5,-648.4"/>
<text text-anchor="middle" x="1704.5" y="-630.2" font-family="Arial" font-size="14.00">Stream 0</text>
</g>
<!-- rtracker -->
<g id="node16" class="node"><title>rtracker</title>
<polygon fill="none" stroke="black" points="790.5,-547.4 646.5,-547.4 646.5,-518.4 790.5,-518.4 790.5,-547.4"/>
<text text-anchor="middle" x="718.5" y="-529.2" font-family="Arial" font-size="14.00">ReceiverTracker</text>
</g>
<!-- m1 -->
<g id="node37" class="node"><title>m1</title>
<ellipse fill="darkorange" stroke="black" cx="735.5" cy="-452.9" rx="3.6" ry="3.6"/>
</g>
<!-- rtracker&#45;&gt;m1 -->
<g id="edge2" class="edge"><title>rtracker&#45;&gt;m1</title>
<path fill="none" stroke="black" d="M735.5,-518.227C735.5,-518.227 735.5,-466.635 735.5,-466.635"/>
<polygon fill="black" stroke="black" points="739,-466.635 735.5,-456.635 732,-466.635 739,-466.635"/>
<text text-anchor="middle" x="792" y="-489.2" font-family="Times New Roman,serif" font-size="14.00">launchReceivers#160</text>
</g>
<!-- rdd -->
<g id="node17" class="node"><title>rdd</title>
<polygon fill="none" stroke="black" points="1938.5,-648.4 1794.5,-648.4 1794.5,-619.4 1938.5,-619.4 1938.5,-648.4"/>
<text text-anchor="middle" x="1866.5" y="-630.2" font-family="Arial" font-size="14.00">RDD</text>
</g>
<!-- elj -->
<g id="node19" class="node"><title>elj</title>
<polygon fill="none" stroke="black" points="2174.5,-648.4 1956.5,-648.4 1956.5,-619.4 2174.5,-619.4 2174.5,-648.4"/>
<text text-anchor="middle" x="2065.5" y="-630.2" font-family="Arial" font-size="14.00">EventLoop[JobSchedulerEvent]</text>
</g>
<!-- eam -->
<g id="node20" class="node"><title>eam</title>
<polygon fill="none" stroke="black" points="2382,-648.4 2193,-648.4 2193,-619.4 2382,-619.4 2382,-648.4"/>
<text text-anchor="middle" x="2287.5" y="-630.2" font-family="Arial" font-size="14.00">ExecutorAllocationManager</text>
</g>
<!-- bgl -->
<g id="node21" class="node"><title>bgl</title>
<polygon fill="none" stroke="black" points="621,-249.2 454,-249.2 454,-220.2 621,-220.2 621,-249.2"/>
<text text-anchor="middle" x="537.5" y="-231" font-family="Arial" font-size="14.00">BlockGeneratorListener</text>
</g>
<!-- m14 -->
<g id="node47" class="node"><title>m14</title>
<ellipse fill="darkorange" stroke="black" cx="717.5" cy="-19.6" rx="3.6" ry="3.6"/>
</g>
<!-- bgl&#45;&gt;m14 -->
<g id="edge23" class="edge"><title>bgl&#45;&gt;m14</title>
<path fill="none" stroke="black" d="M537.5,-219.874C537.5,-171.141 537.5,-19 537.5,-19 537.5,-19 703.74,-19 703.74,-19"/>
<polygon fill="black" stroke="black" points="703.74,-22.5001 713.74,-19 703.74,-15.5001 703.74,-22.5001"/>
<text text-anchor="middle" x="410" y="-40.1168" font-family="Times New Roman,serif" font-size="14.00">ReceiverSupervisorImpl#onPushBlock()#109</text>
</g>
<!-- rer -->
<g id="node22" class="node"><title>rer</title>
<polygon fill="none" stroke="black" points="360.5,-387.4 216.5,-387.4 216.5,-358.4 360.5,-358.4 360.5,-387.4"/>
<text text-anchor="middle" x="288.5" y="-369.2" font-family="Arial" font-size="14.00">RpcEndpointRef</text>
</g>
<!-- m16 -->
<g id="node49" class="node"><title>m16</title>
<ellipse fill="darkorange" stroke="black" cx="495.5" cy="-303.8" rx="3.6" ry="3.6"/>
</g>
<!-- rer&#45;&gt;m16 -->
<g id="edge28" class="edge"><title>rer&#45;&gt;m16</title>
<path fill="none" stroke="black" d="M288.5,-348.076C288.5,-348.076 288.5,-303 288.5,-303 288.5,-303 464.42,-303 491.907,-303"/>
<polygon fill="black" stroke="black" points="285,-348.076 288.5,-358.076 292,-348.076 285,-348.076"/>
<text text-anchor="middle" x="389" y="-329.2" font-family="Times New Roman,serif" font-size="14.00">trackerEndpoint.askSync</text>
</g>
<!-- rbh -->
<g id="node23" class="node"><title>rbh</title>
<polygon fill="none" stroke="black" points="577,-387.4 416,-387.4 416,-358.4 577,-358.4 577,-387.4"/>
<text text-anchor="middle" x="496.5" y="-369.2" font-family="Arial" font-size="14.00">ReceivedBlockHandler</text>
</g>
<!-- rbh&#45;&gt;m16 -->
<g id="edge27" class="edge"><title>rbh&#45;&gt;m16</title>
<path fill="none" stroke="black" d="M495.5,-348.246C495.5,-348.246 495.5,-307.626 495.5,-307.626"/>
<polygon fill="black" stroke="black" points="492,-348.246 495.5,-358.246 499,-348.246 492,-348.246"/>
<text text-anchor="middle" x="446.5" y="-347.046" font-family="Times New Roman,serif" font-size="14.00">storeBlock()#158</text>
</g>
<!-- walbbh&#45;&gt;rbh -->
<g id="edge29" class="edge"><title>walbbh&#45;&gt;rbh</title>
<path fill="none" stroke="black" d="M496.5,-428.227C496.5,-428.227 496.5,-387.48 496.5,-387.48"/>
<polygon fill="black" stroke="black" points="493,-428.227 496.5,-438.227 500,-428.227 493,-428.227"/>
<text text-anchor="middle" x="447.5" y="-427.027" font-family="Times New Roman,serif" font-size="14.00">storeBlock()#171</text>
</g>
<!-- wal -->
<g id="node25" class="node"><title>wal</title>
<polygon fill="none" stroke="black" points="343.5,-467.4 199.5,-467.4 199.5,-438.4 343.5,-438.4 343.5,-467.4"/>
<text text-anchor="middle" x="271.5" y="-449.2" font-family="Arial" font-size="14.00">WriteAheadLog</text>
</g>
<!-- wal&#45;&gt;walbbh -->
<g id="edge30" class="edge"><title>wal&#45;&gt;walbbh</title>
<path fill="none" stroke="black" d="M353.643,-452C353.643,-452 379.268,-452 379.268,-452"/>
<polygon fill="black" stroke="black" points="353.643,-448.5 343.643,-452 353.643,-455.5 353.643,-448.5"/>
<text text-anchor="start" x="318.455" y="-440.8" font-family="Times New Roman,serif" font-size="14.00" fill="red">write()#205</text>
</g>
<!-- p1 -->
<g id="node26" class="node"><title>p1</title>
</g>
<!-- p2 -->
<g id="node27" class="node"><title>p2</title>
</g>
<!-- p3 -->
<g id="node28" class="node"><title>p3</title>
</g>
<!-- p4 -->
<g id="node29" class="node"><title>p4</title>
</g>
<!-- p5 -->
<g id="node30" class="node"><title>p5</title>
</g>
<!-- p6 -->
<g id="node31" class="node"><title>p6</title>
</g>
<!-- p7 -->
<g id="node32" class="node"><title>p7</title>
</g>
<!-- p8 -->
<g id="node33" class="node"><title>p8</title>
</g>
<!-- p9 -->
<g id="node34" class="node"><title>p9</title>
</g>
<!-- p10 -->
<g id="node35" class="node"><title>p10</title>
</g>
<!-- m2 -->
<g id="node38" class="node"><title>m2</title>
<ellipse fill="darkorange" stroke="black" cx="743.5" cy="-372.9" rx="3.6" ry="3.6"/>
</g>
<!-- m1&#45;&gt;m2 -->
<g id="edge3" class="edge"><title>m1&#45;&gt;m2</title>
<path fill="none" stroke="black" d="M735.5,-448.998C735.5,-432.838 735.5,-372 735.5,-372 735.5,-372 735.937,-372 735.937,-372"/>
<polygon fill="black" stroke="black" points="729.875,-375.5 739.875,-372 729.874,-368.5 729.875,-375.5"/>
<text text-anchor="middle" x="878" y="-409.2" font-family="Times New Roman,serif" font-size="14.00">endpoint.send(StartAllReceivers(receivers))#453</text>
</g>
<!-- m3 -->
<g id="node39" class="node"><title>m3</title>
<ellipse fill="darkorange" stroke="black" cx="743.5" cy="-303.8" rx="3.6" ry="3.6"/>
</g>
<!-- m2&#45;&gt;m3 -->
<g id="edge4" class="edge"><title>m2&#45;&gt;m3</title>
<path fill="none" stroke="black" d="M743.5,-369.185C743.5,-369.185 743.5,-317.533 743.5,-317.533"/>
<polygon fill="black" stroke="black" points="747,-317.533 743.5,-307.533 740,-317.534 747,-317.533"/>
<text text-anchor="middle" x="851" y="-329.2" font-family="Times New Roman,serif" font-size="14.00">startReceiver(receiver, executors)#484</text>
</g>
<!-- m3&#45;&gt;rsi -->
<g id="edge5" class="edge"><title>m3&#45;&gt;rsi</title>
<path fill="none" stroke="black" d="M743.5,-300.085C743.5,-300.085 743.5,-259.228 743.5,-259.228"/>
<polygon fill="black" stroke="black" points="747,-259.228 743.5,-249.228 740,-259.228 747,-259.228"/>
<text text-anchor="middle" x="829" y="-271" font-family="Times New Roman,serif" font-size="14.00">supervisor.start#607</text>
</g>
<!-- m4 -->
<g id="node40" class="node"><title>m4</title>
<ellipse fill="darkorange" stroke="black" cx="649.5" cy="-234.7" rx="3.6" ry="3.6"/>
</g>
<!-- m4&#45;&gt;bg -->
<g id="edge7" class="edge"><title>m4&#45;&gt;bg</title>
<path fill="none" stroke="black" d="M650.7,-231.23C650.7,-221.388 650.7,-194 650.7,-194 650.7,-194 986,-194 986,-194 986,-194 986,-210.006 986,-210.006"/>
<polygon fill="black" stroke="black" points="982.5,-210.006 986,-220.006 989.5,-210.006 982.5,-210.006"/>
<text text-anchor="middle" x="733.738" y="-197.8" font-family="Times New Roman,serif" font-size="14.00">BlockGenerator#start#174</text>
</g>
<!-- m4&#45;&gt;rsi -->
<g id="edge6" class="edge"><title>m4&#45;&gt;rsi</title>
<path fill="none" stroke="black" d="M663.077,-234C663.077,-234 688.482,-234 688.482,-234"/>
<polygon fill="black" stroke="black" points="663.077,-230.5 653.077,-234 663.077,-237.5 663.077,-230.5"/>
<text text-anchor="middle" x="653.077" y="-222.8" font-family="Times New Roman,serif" font-size="14.00">onStart#173</text>
</g>
<!-- m5 -->
<g id="node41" class="node"><title>m5</title>
<ellipse fill="darkorange" stroke="black" cx="675.5" cy="-154.7" rx="3.6" ry="3.6"/>
</g>
<!-- m4&#45;&gt;m5 -->
<g id="edge8" class="edge"><title>m4&#45;&gt;m5</title>
<path fill="none" stroke="black" d="M648.3,-231.232C648.3,-215.786 648.3,-154 648.3,-154 648.3,-154 664.244,-154 671.718,-154"/>
</g>
<!-- m5&#45;&gt;rs -->
<g id="edge9" class="edge"><title>m5&#45;&gt;rs</title>
<path fill="none" stroke="black" d="M675.5,-150.841C675.5,-150.841 675.5,-99.4635 675.5,-99.4635"/>
<polygon fill="black" stroke="black" points="679,-99.4635 675.5,-89.4635 672,-99.4636 679,-99.4635"/>
<text text-anchor="middle" x="625" y="-139.641" font-family="Times New Roman,serif" font-size="14.00">startReceiver#144</text>
</g>
<!-- m7&#45;&gt;bg -->
<g id="edge14" class="edge"><title>m7&#45;&gt;bg</title>
<path fill="none" stroke="black" d="M993.5,-300.085C993.5,-290.666 993.5,-265.45 993.5,-249.228"/>
<text text-anchor="start" x="993.5" y="-278.456" font-family="Times New Roman,serif" font-size="14.00" fill="red">blockIntervalTimer.start()#119</text>
</g>
<!-- m10 -->
<g id="node43" class="node"><title>m10</title>
<ellipse fill="darkorange" stroke="black" cx="2593.5" cy="-633.9" rx="3.6" ry="3.6"/>
</g>
<!-- m11 -->
<g id="node44" class="node"><title>m11</title>
<ellipse fill="darkorange" stroke="black" cx="2618.5" cy="-633.9" rx="3.6" ry="3.6"/>
</g>
<!-- m13 -->
<g id="node46" class="node"><title>m13</title>
<ellipse fill="darkorange" stroke="black" cx="873.5" cy="-19.6" rx="3.6" ry="3.6"/>
</g>
<!-- m12&#45;&gt;m13 -->
<g id="edge21" class="edge"><title>m12&#45;&gt;m13</title>
<path fill="none" stroke="black" d="M1042.5,-71.0454C1042.5,-58.6536 1042.5,-19 1042.5,-19 1042.5,-19 887.347,-19 887.347,-19"/>
<polygon fill="black" stroke="black" points="887.347,-15.5001 877.347,-19 887.347,-22.5001 887.347,-15.5001"/>
<text text-anchor="middle" x="950.847" y="-22.8" font-family="Times New Roman,serif" font-size="14.00">keepPushingBlocks()#258</text>
</g>
<!-- m14&#45;&gt;m13 -->
<g id="edge22" class="edge"><title>m14&#45;&gt;m13</title>
<path fill="none" stroke="black" d="M721.051,-19C721.051,-19 859.747,-19 859.747,-19"/>
<polygon fill="black" stroke="black" points="859.748,-22.5001 869.747,-19 859.747,-15.5001 859.748,-22.5001"/>
<text text-anchor="middle" x="814.649" y="-7.8" font-family="Times New Roman,serif" font-size="14.00">pushBlock()#296</text>
</g>
<!-- m15 -->
<g id="node48" class="node"><title>m15</title>
<ellipse fill="darkorange" stroke="black" cx="538.5" cy="-303.8" rx="3.6" ry="3.6"/>
</g>
<!-- m15&#45;&gt;rsi -->
<g id="edge25" class="edge"><title>m15&#45;&gt;rsi</title>
<path fill="none" stroke="black" d="M542.086,-303C566.743,-303 710.2,-303 710.2,-303 710.2,-303 710.2,-269.608 710.2,-249.52"/>
<text text-anchor="middle" x="622.086" y="-306.8" font-family="Times New Roman,serif" font-size="14.00">pushAndReportBlock()#151</text>
</g>
<!-- m15&#45;&gt;bgl -->
<g id="edge24" class="edge"><title>m15&#45;&gt;bgl</title>
<path fill="none" stroke="black" d="M538.5,-290.085C538.5,-290.085 538.5,-249.228 538.5,-249.228"/>
<polygon fill="black" stroke="black" points="535,-290.085 538.5,-300.085 542,-290.085 535,-290.085"/>
</g>
<!-- m16&#45;&gt;m15 -->
<g id="edge26" class="edge"><title>m16&#45;&gt;m15</title>
<path fill="none" stroke="black" d="M509.166,-303C509.166,-303 534.843,-303 534.843,-303"/>
<polygon fill="black" stroke="black" points="509.166,-299.5 499.166,-303 509.166,-306.5 509.166,-299.5"/>
</g>
<!-- m17 -->
<g id="node50" class="node"><title>m17</title>
<ellipse fill="darkorange" stroke="black" cx="177.5" cy="-452.9" rx="3.6" ry="3.6"/>
</g>
<!-- m17&#45;&gt;rer -->
<g id="edge32" class="edge"><title>m17&#45;&gt;rer</title>
<path fill="none" stroke="black" d="M177.5,-448.998C177.5,-432.838 177.5,-372 177.5,-372 177.5,-372 195.122,-372 216.322,-372"/>
</g>
<!-- m9 -->
<g id="node52" class="node"><title>m9</title>
<ellipse fill="darkorange" stroke="black" cx="1128.5" cy="-372.9" rx="3.6" ry="3.6"/>
</g>
<!-- m8&#45;&gt;m9 -->
<g id="edge17" class="edge"><title>m8&#45;&gt;m9</title>
<path fill="none" stroke="black" d="M1089.17,-372C1097.29,-372 1116.73,-372 1124.84,-372"/>
<text text-anchor="middle" x="1219.34" y="-360.8" font-family="Times New Roman,serif" font-size="14.00">triggerActionForNextInterval#103</text>
</g>
<!-- m9&#45;&gt;p11 -->
<g id="edge19" class="edge"><title>m9&#45;&gt;p11</title>
<path fill="none" stroke="black" d="M1131.3,-370.501C1131.3,-353.01 1131.3,-245.493 1131.3,-235.452"/>
<text text-anchor="middle" x="1250.8" y="-239.252" font-family="Times New Roman,serif" font-size="14.00">BlockGenerator#updateCurrentBuffer#233</text>
</g>
<!-- m18 -->
<g id="node53" class="node"><title>m18</title>
<ellipse fill="darkorange" stroke="black" cx="349.5" cy="-532.9" rx="3.6" ry="3.6"/>
</g>
<!-- m18&#45;&gt;m17 -->
<g id="edge33" class="edge"><title>m18&#45;&gt;m17</title>
<path fill="none" stroke="black" d="M345.908,-532C321.208,-532 177.5,-532 177.5,-532 177.5,-532 177.5,-472.516 177.5,-456.715"/>
</g>
<!-- m19 -->
<g id="node54" class="node"><title>m19</title>
<ellipse fill="darkorange" stroke="black" cx="489.5" cy="-633.9" rx="3.6" ry="3.6"/>
</g>
<!-- m19&#45;&gt;rtracker -->
<g id="edge35" class="edge"><title>m19&#45;&gt;rtracker</title>
<path fill="none" stroke="black" d="M493.245,-633C515.509,-633 629.5,-633 629.5,-633 629.5,-633 629.5,-532 629.5,-532 629.5,-532 636.24,-532 636.24,-532"/>
<polygon fill="black" stroke="black" points="636.24,-535.5 646.24,-532 636.24,-528.5 636.24,-535.5"/>
<text text-anchor="middle" x="689" y="-590.2" font-family="Times New Roman,serif" font-size="14.00">case AddBlock(receivedBlockInfo)</text>
</g>
<!-- m19&#45;&gt;m18 -->
<g id="edge34" class="edge"><title>m19&#45;&gt;m18</title>
<path fill="none" stroke="black" d="M485.755,-633C463.491,-633 349.5,-633 349.5,-633 349.5,-633 349.5,-554.986 349.5,-536.702"/>
</g>
</g>
</svg>
