<?xml version="1.0" encoding="UTF-8" standalone="no"?>
<!DOCTYPE svg PUBLIC "-//W3C//DTD SVG 1.1//EN"
 "http://www.w3.org/Graphics/SVG/1.1/DTD/svg11.dtd">
<!-- Generated by graphviz version 2.38.0 (20140413.2041)
 -->
<!-- Title: G Pages: 1 -->
<svg width="311pt" height="154pt"
 viewBox="0.00 0.00 311.08 154.00" xmlns="http://www.w3.org/2000/svg" xmlns:xlink="http://www.w3.org/1999/xlink">
<g id="graph0" class="graph" transform="scale(1 1) rotate(0) translate(4 150)">
<title>G</title>
<polygon fill="white" stroke="none" points="-4,4 -4,-150 307.078,-150 307.078,4 -4,4"/>
<g id="clust1" class="cluster"><title>cluster3</title>
<polygon fill="none" stroke="black" points="8,-8 8,-138 295.078,-138 295.078,-8 8,-8"/>
</g>
<g id="clust3" class="cluster"><title>cluster32</title>
<polygon fill="none" stroke="black" points="16,-16 16,-130 105.539,-130 105.539,-16 16,-16"/>
</g>
<g id="clust2" class="cluster"><title>cluster31</title>
<polygon fill="none" stroke="black" points="125.539,-70 125.539,-130 287.078,-130 287.078,-70 125.539,-70"/>
</g>
<!-- 4 -->
<g id="node1" class="node"><title>4</title>
<path fill="#f5bda2" stroke="black" d="M138.206,-95C138.206,-95 164.872,-95 164.872,-95 167.206,-95 169.539,-97.3333 169.539,-99.6667 169.539,-99.6667 169.539,-104.333 169.539,-104.333 169.539,-106.667 167.206,-109 164.872,-109 164.872,-109 138.206,-109 138.206,-109 135.872,-109 133.539,-106.667 133.539,-104.333 133.539,-104.333 133.539,-99.6667 133.539,-99.6667 133.539,-97.3333 135.872,-95 138.206,-95"/>
<text text-anchor="start" x="145.539" y="-100.2" font-family="font-awesome" font-size="6.00">1:12</text>
</g>
<!-- 5 -->
<g id="node2" class="node"><title>5</title>
<ellipse fill="#f5bda2" stroke="black" cx="242.309" cy="-100" rx="36.5405" ry="21.8409"/>
<g id="a_32e"><a xlink:href=" " xlink:title="&lt;TABLE&gt;">
<text text-anchor="start" x="228.309" y="-95.8" font-family="font-awesome" font-size="14.00">1:13</text>
</a>
</g>
</g>
<!-- 4&#45;&gt;5 -->
<g id="edge1" class="edge"><title>4&#45;&gt;5</title>
<path fill="none" stroke="#717070" d="M169.655,-101.614C178.401,-101.417 189.453,-101.168 200.242,-100.925"/>
<polygon fill="#717070" stroke="#717070" points="200.547,-102.669 205.507,-100.807 200.468,-99.1698 200.547,-102.669"/>
</g>
<!-- 8 -->
<g id="node3" class="node"><title>8</title>
<polygon fill="#f5bda2" stroke="black" points="87.7696,-122 33.7696,-122 33.7696,-86 87.7696,-86 87.7696,-122"/>
<text text-anchor="start" x="46.7696" y="-99.8" font-family="font-awesome" font-size="14.00">1:19</text>
</g>
<!-- 8&#45;&gt;4 -->
<g id="edge2" class="edge"><title>8&#45;&gt;4</title>
<path fill="none" stroke="#717070" d="M87.9232,-103.411C100.811,-103.12 116.181,-102.774 128.468,-102.497"/>
<polygon fill="#717070" stroke="#717070" points="128.569,-104.246 133.528,-102.383 128.49,-100.746 128.569,-104.246"/>
</g>
<!-- 6 -->
<g id="node4" class="node"><title>6</title>
<ellipse fill="#f5bda2" stroke="black" cx="60.7696" cy="-46" rx="36.5405" ry="21.8409"/>
<g id="a_32e"><a xlink:href=" " xlink:title="&lt;TABLE&gt;">
<text text-anchor="start" x="46.7696" y="-41.8" font-family="font-awesome" font-size="14.00">1:13</text>
</a>
</g>
</g>
</g>
</svg>
