<?xml version="1.0" encoding="UTF-8" standalone="no"?>
<!DOCTYPE svg PUBLIC "-//W3C//DTD SVG 1.1//EN"
 "http://www.w3.org/Graphics/SVG/1.1/DTD/svg11.dtd">
<!-- Generated by graphviz version 2.38.0 (20140413.2041)
 -->
<!-- Title: CentralPmr Pages: 1 -->
<svg width="538pt" height="409pt"
 viewBox="0.00 0.00 537.50 409.00" xmlns="http://www.w3.org/2000/svg" xmlns:xlink="http://www.w3.org/1999/xlink">
<g id="graph0" class="graph" transform="scale(1 1) rotate(0) translate(4 405)">
<title>CentralPmr</title>
<polygon fill="white" stroke="none" points="-4,4 -4,-405 533.5,-405 533.5,4 -4,4"/>
<!-- sg -->
<g id="node1" class="node"><title>sg</title>
<polygon fill="none" stroke="black" points="362,-314 216,-314 216,-276 362,-276 362,-314"/>
<text text-anchor="middle" x="289" y="-298.8" font-family="Times New Roman,serif" font-size="14.00">TTD storage group for</text>
<text text-anchor="middle" x="289" y="-283.8" font-family="Times New Roman,serif" font-size="14.00">the logged values</text>
</g>
<!-- sv_ -->
<g id="node5" class="node"><title>sv_</title>
<ellipse fill="black" stroke="black" cx="196" cy="-224.5" rx="0.36" ry="0.36"/>
</g>
<!-- sg&#45;&gt;sv_ -->
<g id="edge1" class="edge"><title>sg&#45;&gt;sv_</title>
<path fill="none" stroke="black" stroke-width="4" d="M226.5,-275.973C226.5,-254.942 226.5,-224 226.5,-224 226.5,-224 197.876,-224 196.087,-224"/>
</g>
<!-- vc -->
<g id="node2" class="node"><title>vc</title>
<polygon fill="none" stroke="black" points="341,-76 237,-76 237,-40 341,-40 341,-76"/>
<text text-anchor="middle" x="289" y="-54.3" font-family="Times New Roman,serif" font-size="14.00">Value catalogue</text>
</g>
<!-- vc&#45;&gt;sg -->
<g id="edge5" class="edge"><title>vc&#45;&gt;sg</title>
<path fill="none" stroke="black" d="M289,-76.2035C289,-76.2035 289,-265.747 289,-265.747"/>
<polygon fill="black" stroke="black" points="285.5,-265.747 289,-275.747 292.5,-265.747 285.5,-265.747"/>
</g>
<!-- tc1 -->
<g id="node3" class="node"><title>tc1</title>
<polygon fill="none" stroke="black" points="353,-401 225,-401 225,-365 353,-365 353,-401"/>
<text text-anchor="middle" x="289" y="-379.3" font-family="Times New Roman,serif" font-size="14.00">Time catalogoue (1)</text>
</g>
<!-- tc1&#45;&gt;sg -->
<g id="edge6" class="edge"><title>tc1&#45;&gt;sg</title>
<path fill="none" stroke="black" d="M289,-364.766C289,-364.766 289,-324.124 289,-324.124"/>
<polygon fill="black" stroke="black" points="292.5,-324.123 289,-314.124 285.5,-324.124 292.5,-324.123"/>
</g>
<!-- tc2 -->
<g id="node4" class="node"><title>tc2</title>
<polygon fill="none" stroke="black" points="128,-76 0,-76 0,-40 128,-40 128,-76"/>
<text text-anchor="middle" x="64" y="-54.3" font-family="Times New Roman,serif" font-size="14.00">Time catalogoue (2)</text>
</g>
<!-- sv -->
<g id="node6" class="node"><title>sv</title>
<polygon fill="none" stroke="black" points="167,-188 113,-188 113,-152 167,-152 167,-188"/>
</g>
<!-- sv_&#45;&gt;sv -->
<g id="edge2" class="edge"><title>sv_&#45;&gt;sv</title>
<path fill="none" stroke="black" stroke-width="4" d="M196,-223.888C196,-217.9 196,-170 196,-170 196,-170 177.016,-170 177.016,-170"/>
<polygon fill="black" stroke="black" stroke-width="4" points="177.016,-166.5 167.016,-170 177.016,-173.5 177.016,-166.5"/>
</g>
<!-- sv&#45;&gt;tc2 -->
<g id="edge3" class="edge"><title>sv&#45;&gt;tc2</title>
<path fill="none" stroke="black" stroke-width="4" d="M120.5,-151.505C120.5,-151.505 120.5,-86.1504 120.5,-86.1504"/>
<polygon fill="black" stroke="black" stroke-width="4" points="124,-86.1503 120.5,-76.1504 117,-86.1504 124,-86.1503"/>
</g>
<!-- sgf -->
<g id="node10" class="node"><title>sgf</title>
<polygon fill="none" stroke="black" points="146,-0.5 146,-115.5 200,-115.5 200,-0.5 146,-0.5"/>
<text text-anchor="middle" x="160.5" y="-100.3" font-family="Times New Roman,serif" font-size="14.00">1</text>
<polyline fill="none" stroke="black" points="146,-92.5 175,-92.5 "/>
<text text-anchor="middle" x="160.5" y="-77.3" font-family="Times New Roman,serif" font-size="14.00">2</text>
<polyline fill="none" stroke="black" points="146,-69.5 175,-69.5 "/>
<text text-anchor="middle" x="160.5" y="-54.3" font-family="Times New Roman,serif" font-size="14.00">3</text>
<polyline fill="none" stroke="black" points="146,-46.5 175,-46.5 "/>
<text text-anchor="middle" x="160.5" y="-31.3" font-family="Times New Roman,serif" font-size="14.00">4</text>
<polyline fill="none" stroke="black" points="146,-23.5 175,-23.5 "/>
<text text-anchor="middle" x="160.5" y="-8.3" font-family="Times New Roman,serif" font-size="14.00">..</text>
<polyline fill="none" stroke="black" points="175,-0.5 175,-115.5 "/>
<text text-anchor="middle" x="187.5" y="-100.3" font-family="Times New Roman,serif" font-size="14.00"> </text>
<polyline fill="none" stroke="black" points="175,-92.5 200,-92.5 "/>
<text text-anchor="middle" x="187.5" y="-77.3" font-family="Times New Roman,serif" font-size="14.00"> </text>
<polyline fill="none" stroke="black" points="175,-69.5 200,-69.5 "/>
<text text-anchor="middle" x="187.5" y="-54.3" font-family="Times New Roman,serif" font-size="14.00"> </text>
<polyline fill="none" stroke="black" points="175,-46.5 200,-46.5 "/>
<text text-anchor="middle" x="187.5" y="-31.3" font-family="Times New Roman,serif" font-size="14.00"> </text>
<polyline fill="none" stroke="black" points="175,-23.5 200,-23.5 "/>
<text text-anchor="middle" x="187.5" y="-8.3" font-family="Times New Roman,serif" font-size="14.00"> </text>
</g>
<!-- sv&#45;&gt;sgf -->
<g id="edge4" class="edge"><title>sv&#45;&gt;sgf:f0</title>
<path fill="none" stroke="black" stroke-width="4" d="M156.5,-151.965C156.5,-151.965 156.5,-125.572 156.5,-125.572"/>
<polygon fill="black" stroke="black" stroke-width="4" points="160,-125.572 156.5,-115.572 153,-125.572 160,-125.572"/>
</g>
<!-- ie -->
<g id="node7" class="node"><title>ie</title>
<text text-anchor="middle" x="420" y="-379.3" font-family="Times New Roman,serif" font-size="14.00">Initiating event</text>
</g>
<!-- c1 -->
<g id="node8" class="node"><title>c1</title>
<text text-anchor="middle" x="102" y="-313.8" font-family="Times New Roman,serif" font-size="14.00">The set of values, defined</text>
<text text-anchor="middle" x="102" y="-298.8" font-family="Times New Roman,serif" font-size="14.00">by the value catalogue, which</text>
<text text-anchor="middle" x="102" y="-283.8" font-family="Times New Roman,serif" font-size="14.00">are freezed out of the TTD</text>
<text text-anchor="middle" x="102" y="-268.8" font-family="Times New Roman,serif" font-size="14.00">storage group of the actual log.</text>
</g>
<!-- c1&#45;&gt;sv -->
<g id="edge7" class="edge"><title>c1&#45;&gt;sv</title>
<path fill="none" stroke="black" stroke-dasharray="5,2" d="M140,-260.843C140,-260.843 140,-198.276 140,-198.276"/>
<polygon fill="black" stroke="black" points="140,-188.276 144.5,-198.276 140,-193.276 140,-198.276 140,-198.276 140,-198.276 140,-193.276 135.5,-198.276 140,-188.276 140,-188.276"/>
</g>
<!-- c2 -->
<g id="node9" class="node"><title>c2</title>
<text text-anchor="middle" x="455" y="-313.8" font-family="Times New Roman,serif" font-size="14.00">Time catalogue defining</text>
<text text-anchor="middle" x="455" y="-298.8" font-family="Times New Roman,serif" font-size="14.00">at what time around the</text>
<text text-anchor="middle" x="455" y="-283.8" font-family="Times New Roman,serif" font-size="14.00">initiating event values</text>
<text text-anchor="middle" x="455" y="-268.8" font-family="Times New Roman,serif" font-size="14.00">should be collected.</text>
</g>
<!-- rc2 -->
<g id="node11" class="node"><title>rc2</title>
<polygon fill="none" stroke="black" points="413,-76 359,-76 359,-40 413,-40 413,-76"/>
<text text-anchor="middle" x="386" y="-54.3" font-family="Times New Roman,serif" font-size="14.00">rc2</text>
</g>
</g>
</svg>
