<?xml version="1.0" encoding="UTF-8" standalone="no"?>
<!DOCTYPE svg PUBLIC "-//W3C//DTD SVG 1.1//EN"
 "http://www.w3.org/Graphics/SVG/1.1/DTD/svg11.dtd">
<!-- Generated by graphviz version 2.38.0 (20140413.2041)
 -->
<!-- Title: G Pages: 1 -->
<svg width="320pt" height="249pt"
 viewBox="0.00 0.00 320.00 249.00" xmlns="http://www.w3.org/2000/svg" xmlns:xlink="http://www.w3.org/1999/xlink">
<g id="graph0" class="graph" transform="scale(1 1) rotate(0) translate(4 245)">
<title>G</title>
<polygon fill="white" stroke="none" points="-4,4 -4,-245 316,-245 316,4 -4,4"/>
<g id="clust1" class="cluster"><title>cluster_0</title>
<polygon fill="none" stroke="blue" points="52,-88 52,-233 126,-233 126,-88 52,-88"/>
<text text-anchor="middle" x="89" y="-221" font-family="Verdana" font-size="10.00">Container A</text>
</g>
<g id="clust2" class="cluster"><title>cluster_1</title>
<polygon fill="none" stroke="blue" points="8,-8 8,-80 150,-80 150,-8 8,-8"/>
<text text-anchor="middle" x="79" y="-68" font-family="Verdana" font-size="10.00">Container B</text>
</g>
<g id="clust3" class="cluster"><title>cluster_2</title>
<polygon fill="none" stroke="blue" points="162,-88 162,-160 304,-160 304,-88 162,-88"/>
<text text-anchor="middle" x="233" y="-148" font-family="Verdana" font-size="10.00">Container C</text>
</g>
<!-- Item 1 -->
<g id="node1" class="node"><title>Item 1</title>
<polygon fill="lightgrey" stroke="black" points="64,-169.5 64,-205.5 118,-205.5 118,-169.5 64,-169.5"/>
<text text-anchor="middle" x="91" y="-185" font-family="Verdana" font-size="10.00">Item 1</text>
</g>
<!-- Item 2 -->
<g id="node2" class="node"><title>Item 2</title>
<polygon fill="lightgrey" stroke="black" points="60,-96.5 60,-132.5 114,-132.5 114,-96.5 60,-96.5"/>
<text text-anchor="middle" x="87" y="-112" font-family="Verdana" font-size="10.00">Item 2</text>
</g>
<!-- Item 1&#45;&gt;Item 2 -->
<g id="edge1" class="edge"><title>Item 1&#45;&gt;Item 2</title>
<path fill="none" stroke="black" d="M89,-169.455C89,-169.455 89,-142.59 89,-142.59"/>
<polygon fill="black" stroke="black" points="92.5001,-142.59 89,-132.59 85.5001,-142.59 92.5001,-142.59"/>
</g>
<!-- Item 3 -->
<g id="node3" class="node"><title>Item 3</title>
<polygon fill="lightgrey" stroke="black" points="88,-16.5 88,-52.5 142,-52.5 142,-16.5 88,-16.5"/>
<text text-anchor="middle" x="115" y="-32" font-family="Verdana" font-size="10.00">Item 3</text>
</g>
<!-- Item 1&#45;&gt;Item 3 -->
<g id="edge3" class="edge"><title>Item 1&#45;&gt;Item 3</title>
<path fill="none" stroke="black" d="M125.696,-181C128.336,-181 130,-181 130,-181 130,-181 130,-124.655 130,-89.7555"/>
<polygon fill="black" stroke="black" points="133.5,-89.6993 130,-79.6993 126.5,-89.6993 133.5,-89.6993"/>
</g>
<!-- Item 5 -->
<g id="node5" class="node"><title>Item 5</title>
<polygon fill="lightgrey" stroke="black" points="242,-96.5 242,-132.5 296,-132.5 296,-96.5 242,-96.5"/>
<text text-anchor="middle" x="269" y="-112" font-family="Verdana" font-size="10.00">Item 5</text>
</g>
<!-- Item 1&#45;&gt;Item 5 -->
<g id="edge4" class="edge"><title>Item 1&#45;&gt;Item 5</title>
<path fill="none" stroke="black" d="M125.998,-193C177.844,-193 269,-193 269,-193 269,-193 269,-181.828 269,-170.015"/>
<polygon fill="black" stroke="black" points="272.5,-169.734 269,-159.734 265.5,-169.734 272.5,-169.734"/>
</g>
<!-- Item 2&#45;&gt;Item 3 -->
<g id="edge2" class="edge"><title>Item 2&#45;&gt;Item 3</title>
<path fill="none" stroke="black" d="M101,-96.3468C101,-96.3468 101,-62.5814 101,-62.5814"/>
<polygon fill="black" stroke="black" points="104.5,-62.5814 101,-52.5814 97.5001,-62.5814 104.5,-62.5814"/>
</g>
<!-- Item 4 -->
<g id="node4" class="node"><title>Item 4</title>
<polygon fill="lightgrey" stroke="black" points="16,-16.5 16,-52.5 70,-52.5 70,-16.5 16,-16.5"/>
<text text-anchor="middle" x="43" y="-32" font-family="Verdana" font-size="10.00">Item 4</text>
</g>
<!-- Item 6 -->
<g id="node6" class="node"><title>Item 6</title>
<polygon fill="lightgrey" stroke="black" points="170,-96.5 170,-132.5 224,-132.5 224,-96.5 170,-96.5"/>
<text text-anchor="middle" x="197" y="-112" font-family="Verdana" font-size="10.00">Item 6</text>
</g>
</g>
</svg>
