<?xml version="1.0" encoding="UTF-8" standalone="no"?>
<!DOCTYPE svg PUBLIC "-//W3C//DTD SVG 1.1//EN"
 "http://www.w3.org/Graphics/SVG/1.1/DTD/svg11.dtd">
<!-- Generated by graphviz version 2.38.0 (20140413.2041)
 -->
<!-- Title: structs Pages: 1 -->
<svg width="248pt" height="160pt"
 viewBox="0.00 0.00 248.00 160.00" xmlns="http://www.w3.org/2000/svg" xmlns:xlink="http://www.w3.org/1999/xlink">
<g id="graph0" class="graph" transform="scale(1 1) rotate(0) translate(4 156)">
<title>structs</title>
<polygon fill="white" stroke="none" points="-4,4 -4,-156 244,-156 244,4 -4,4"/>
<!-- struct1 -->
<g id="node1" class="node"><title>struct1</title>
<polygon fill="none" stroke="black" points="107,-115.5 107,-151.5 240,-151.5 240,-115.5 107,-115.5"/>
<text text-anchor="middle" x="124" y="-129.8" font-family="Times New Roman,serif" font-size="14.00">left</text>
<polyline fill="none" stroke="black" points="141,-115.5 141,-151.5 "/>
<text text-anchor="middle" x="170" y="-129.8" font-family="Times New Roman,serif" font-size="14.00">mid dle</text>
<polyline fill="none" stroke="black" points="199,-115.5 199,-151.5 "/>
<text text-anchor="middle" x="219.5" y="-129.8" font-family="Times New Roman,serif" font-size="14.00">right</text>
</g>
<!-- struct2 -->
<g id="node2" class="node"><title>struct2</title>
<path fill="none" stroke="black" d="M195.5,-0.5C195.5,-0.5 225.5,-0.5 225.5,-0.5 231.5,-0.5 237.5,-6.5 237.5,-12.5 237.5,-12.5 237.5,-66.5 237.5,-66.5 237.5,-72.5 231.5,-78.5 225.5,-78.5 225.5,-78.5 195.5,-78.5 195.5,-78.5 189.5,-78.5 183.5,-72.5 183.5,-66.5 183.5,-66.5 183.5,-12.5 183.5,-12.5 183.5,-6.5 189.5,-0.5 195.5,-0.5"/>
<text text-anchor="middle" x="210.5" y="-63.3" font-family="Times New Roman,serif" font-size="14.00">one</text>
<polyline fill="none" stroke="black" points="183.5,-55.5 237.5,-55.5 "/>
<text text-anchor="middle" x="210.5" y="-40.3" font-family="Times New Roman,serif" font-size="14.00">two</text>
</g>
<!-- struct1&#45;&gt;struct2 -->
<g id="edge1" class="edge"><title>struct1:f1&#45;&gt;struct2:f0</title>
<path fill="none" stroke="black" d="M169.5,-115C169.5,-94.9182 197.617,-100.039 207.283,-88.6201"/>
<polygon fill="black" stroke="black" points="210.648,-89.5938 210.5,-79 204.009,-87.3737 210.648,-89.5938"/>
</g>
<!-- struct3 -->
<g id="node3" class="node"><title>struct3</title>
<polygon fill="none" stroke="black" points="0,-5 0,-74 165,-74 165,-5 0,-5"/>
<text text-anchor="middle" x="24.5" y="-43.3" font-family="Times New Roman,serif" font-size="14.00">hello</text>
<text text-anchor="middle" x="24.5" y="-28.3" font-family="Times New Roman,serif" font-size="14.00">world</text>
<polyline fill="none" stroke="black" points="49,-5 49,-74 "/>
<text text-anchor="middle" x="84" y="-58.8" font-family="Times New Roman,serif" font-size="14.00">b</text>
<polyline fill="none" stroke="black" points="49,-51 119,-51 "/>
<text text-anchor="middle" x="60.5" y="-35.8" font-family="Times New Roman,serif" font-size="14.00">c</text>
<polyline fill="none" stroke="black" points="72,-28 72,-51 "/>
<text text-anchor="middle" x="84" y="-35.8" font-family="Times New Roman,serif" font-size="14.00">d</text>
<polyline fill="none" stroke="black" points="96,-28 96,-51 "/>
<text text-anchor="middle" x="107.5" y="-35.8" font-family="Times New Roman,serif" font-size="14.00">e</text>
<polyline fill="none" stroke="black" points="49,-28 119,-28 "/>
<text text-anchor="middle" x="84" y="-12.8" font-family="Times New Roman,serif" font-size="14.00">f</text>
<polyline fill="none" stroke="black" points="119,-5 119,-74 "/>
<text text-anchor="middle" x="130.5" y="-35.8" font-family="Times New Roman,serif" font-size="14.00">g</text>
<polyline fill="none" stroke="black" points="142,-5 142,-74 "/>
<text text-anchor="middle" x="153.5" y="-35.8" font-family="Times New Roman,serif" font-size="14.00">h</text>
</g>
<!-- struct1&#45;&gt;struct3 -->
<g id="edge2" class="edge"><title>struct1:f0&#45;&gt;struct3:f1</title>
<path fill="none" stroke="black" d="M123.5,-115C123.5,-104.037 120.12,-93.1455 115.302,-83.1883"/>
<polygon fill="black" stroke="black" points="118.353,-81.4731 110.527,-74.3312 112.191,-84.7946 118.353,-81.4731"/>
</g>
</g>
</svg>
