<?xml version="1.0" encoding="UTF-8" standalone="no"?>
<!DOCTYPE svg PUBLIC "-//W3C//DTD SVG 1.1//EN"
 "http://www.w3.org/Graphics/SVG/1.1/DTD/svg11.dtd">
<!-- Generated by graphviz version 2.38.0 (20140413.2041)
 -->
<!-- Title: G Pages: 1 -->
<svg width="403pt" height="432pt"
 viewBox="0.00 0.00 402.62 432.00" xmlns="http://www.w3.org/2000/svg" xmlns:xlink="http://www.w3.org/1999/xlink">
<g id="graph0" class="graph" transform="scale(0.864 0.864) rotate(0) translate(4 496)">
<title>G</title>
<polygon fill="white" stroke="none" points="-4,4 -4,-496 462,-496 462,4 -4,4"/>
<g id="clust1" class="cluster"><title>clusterA</title>
<polygon fill="none" stroke="blue" points="236,-8 236,-315 450,-315 450,-8 236,-8"/>
<text text-anchor="middle" x="343" y="-299.8" font-family="Times New Roman,serif" font-size="14.00">A</text>
</g>
<g id="clust3" class="cluster"><title>clusterB</title>
<polygon fill="none" stroke="blue" points="8,-124 8,-448 150,-448 150,-124 8,-124"/>
<text text-anchor="middle" x="79" y="-432.8" font-family="Times New Roman,serif" font-size="14.00">B</text>
</g>
<g id="clust7" class="cluster"><title>clusterC</title>
<polygon fill="none" stroke="black" points="158,-124 158,-315 228,-315 228,-124 158,-124"/>
<text text-anchor="middle" x="193" y="-299.8" font-family="Times New Roman,serif" font-size="14.00">C</text>
</g>
<!-- X2 -->
<g id="node1" class="node"><title>X2</title>
<polygon fill="none" stroke="black" points="298,-110 244,-110 244,-74 298,-74 298,-110"/>
<text text-anchor="middle" x="271" y="-89.2" font-family="Times New Roman,serif" font-size="11.00">X2</text>
</g>
<!-- 5 -->
<g id="node9" class="node"><title>5</title>
<ellipse fill="lightgrey" stroke="black" cx="271" cy="-34" rx="27" ry="18"/>
<text text-anchor="middle" x="271" y="-31.2" font-family="Times New Roman,serif" font-size="11.00">5</text>
</g>
<!-- X2&#45;&gt;5 -->
<g id="edge4" class="edge"><title>X2&#45;&gt;5</title>
<path fill="none" stroke="black" d="M271,-73.8939C271,-70.2029 271,-66.2128 271,-62.2429"/>
<polygon fill="black" stroke="black" points="274.5,-62.0013 271,-52.0014 267.5,-62.0014 274.5,-62.0013"/>
</g>
<!-- phantom3 -->
<!-- phantom5 -->
<!-- phantom3&#45;&gt;phantom5 -->
<g id="edge6" class="edge"><title>phantom3&#45;&gt;phantom5</title>
<path fill="none" stroke="black" d="M415,-189.894C415,-186.203 415,-182.213 415,-178.243"/>
<polygon fill="black" stroke="black" points="418.5,-178.001 415,-168.001 411.5,-178.001 418.5,-178.001"/>
</g>
<!-- phantom4 -->
<!-- phantom6 -->
<!-- phantom4&#45;&gt;phantom6 -->
<g id="edge8" class="edge"><title>phantom4&#45;&gt;phantom6</title>
<path fill="none" stroke="black" d="M343,-189.894C343,-186.203 343,-182.213 343,-178.243"/>
<polygon fill="black" stroke="black" points="346.5,-178.001 343,-168.001 339.5,-178.001 346.5,-178.001"/>
</g>
<!-- 1 -->
<g id="node6" class="node"><title>1</title>
<ellipse fill="lightgrey" stroke="black" cx="271" cy="-266" rx="27" ry="18"/>
<text text-anchor="middle" x="271" y="-263.2" font-family="Times New Roman,serif" font-size="11.00">1</text>
</g>
<!-- 2 -->
<g id="node7" class="node"><title>2</title>
<ellipse fill="lightgrey" stroke="black" cx="271" cy="-208" rx="27" ry="18"/>
<text text-anchor="middle" x="271" y="-205.2" font-family="Times New Roman,serif" font-size="11.00">2</text>
</g>
<!-- 1&#45;&gt;2 -->
<g id="edge1" class="edge"><title>1&#45;&gt;2</title>
<path fill="none" stroke="black" d="M271,-247.894C271,-244.203 271,-240.213 271,-236.243"/>
<polygon fill="black" stroke="black" points="274.5,-236.001 271,-226.001 267.5,-236.001 274.5,-236.001"/>
</g>
<!-- phantom2 -->
<!-- 1&#45;&gt;phantom2 -->
<!-- 3 -->
<g id="node8" class="node"><title>3</title>
<ellipse fill="lightgrey" stroke="black" cx="271" cy="-150" rx="27" ry="18"/>
<text text-anchor="middle" x="271" y="-147.2" font-family="Times New Roman,serif" font-size="11.00">3</text>
</g>
<!-- 2&#45;&gt;3 -->
<g id="edge2" class="edge"><title>2&#45;&gt;3</title>
<path fill="none" stroke="black" d="M271,-189.894C271,-186.203 271,-182.213 271,-178.243"/>
<polygon fill="black" stroke="black" points="274.5,-178.001 271,-168.001 267.5,-178.001 274.5,-178.001"/>
</g>
<!-- 3&#45;&gt;X2 -->
<g id="edge3" class="edge"><title>3&#45;&gt;X2</title>
<path fill="none" stroke="black" d="M271,-131.894C271,-128.203 271,-124.213 271,-120.243"/>
<polygon fill="black" stroke="black" points="274.5,-120.001 271,-110.001 267.5,-120.001 274.5,-120.001"/>
</g>
<!-- X4 -->
<g id="node24" class="node"><title>X4</title>
<polygon fill="none" stroke="black" points="220,-168 166,-168 166,-132 220,-132 220,-168"/>
<text text-anchor="middle" x="193" y="-147.2" font-family="Times New Roman,serif" font-size="11.00">X4</text>
</g>
<!-- 3&#45;&gt;X4 -->
<!-- 6 -->
<g id="node10" class="node"><title>6</title>
<ellipse fill="lightgrey" stroke="black" cx="415" cy="-266" rx="27" ry="18"/>
<text text-anchor="middle" x="415" y="-263.2" font-family="Times New Roman,serif" font-size="11.00">6</text>
</g>
<!-- 6&#45;&gt;phantom3 -->
<g id="edge5" class="edge"><title>6&#45;&gt;phantom3</title>
<path fill="none" stroke="black" d="M415,-247.894C415,-244.203 415,-240.213 415,-236.243"/>
<polygon fill="black" stroke="black" points="418.5,-236.001 415,-226.001 411.5,-236.001 418.5,-236.001"/>
</g>
<!-- X1 -->
<g id="node21" class="node"><title>X1</title>
<polygon fill="none" stroke="black" points="442,-492 388,-492 388,-456 442,-456 442,-492"/>
<text text-anchor="middle" x="415" y="-471.2" font-family="Times New Roman,serif" font-size="11.00">X1</text>
</g>
<!-- 6&#45;&gt;X1 -->
<g id="edge17" class="edge"><title>6&#45;&gt;X1</title>
<path fill="none" stroke="black" d="M415,-284.015C415,-319.681 415,-402.536 415,-445.72"/>
<polygon fill="black" stroke="black" points="411.5,-445.791 415,-455.791 418.5,-445.791 411.5,-445.791"/>
</g>
<!-- 7 -->
<g id="node11" class="node"><title>7</title>
<ellipse fill="lightgrey" stroke="black" cx="343" cy="-266" rx="27" ry="18"/>
<text text-anchor="middle" x="343" y="-263.2" font-family="Times New Roman,serif" font-size="11.00">7</text>
</g>
<!-- 7&#45;&gt;phantom4 -->
<g id="edge7" class="edge"><title>7&#45;&gt;phantom4</title>
<path fill="none" stroke="black" d="M343,-247.894C343,-244.203 343,-240.213 343,-236.243"/>
<polygon fill="black" stroke="black" points="346.5,-236.001 343,-226.001 339.5,-236.001 346.5,-236.001"/>
</g>
<!-- X3 -->
<g id="node23" class="node"><title>X3</title>
<polygon fill="none" stroke="black" points="220,-284 166,-284 166,-248 220,-248 220,-284"/>
<text text-anchor="middle" x="193" y="-263.2" font-family="Times New Roman,serif" font-size="11.00">X3</text>
</g>
<!-- 7&#45;&gt;X3 -->
<!-- phantom1 -->
<!-- 9 -->
<g id="node20" class="node"><title>9</title>
<ellipse fill="lightgrey" stroke="black" cx="115" cy="-266" rx="27" ry="18"/>
<text text-anchor="middle" x="115" y="-263.2" font-family="Times New Roman,serif" font-size="11.00">9</text>
</g>
<!-- phantom1&#45;&gt;9 -->
<!-- phantom1b -->
<!-- 11 -->
<g id="node14" class="node"><title>11</title>
<ellipse fill="lightgrey" stroke="black" cx="43" cy="-399" rx="27" ry="18"/>
<text text-anchor="middle" x="43" y="-396.2" font-family="Times New Roman,serif" font-size="11.00">11</text>
</g>
<!-- 12 -->
<g id="node16" class="node"><title>12</title>
<ellipse fill="lightgrey" stroke="black" cx="43" cy="-341" rx="27" ry="18"/>
<text text-anchor="middle" x="43" y="-338.2" font-family="Times New Roman,serif" font-size="11.00">12</text>
</g>
<!-- 11&#45;&gt;12 -->
<g id="edge10" class="edge"><title>11&#45;&gt;12</title>
<path fill="none" stroke="black" d="M43,-380.894C43,-377.203 43,-373.213 43,-369.243"/>
<polygon fill="black" stroke="black" points="46.5001,-369.001 43,-359.001 39.5001,-369.001 46.5001,-369.001"/>
</g>
<!-- 10 -->
<g id="node15" class="node"><title>10</title>
<ellipse fill="lightgrey" stroke="black" cx="43" cy="-474" rx="27" ry="18"/>
<text text-anchor="middle" x="43" y="-471.2" font-family="Times New Roman,serif" font-size="11.00">10</text>
</g>
<!-- 10&#45;&gt;11 -->
<g id="edge9" class="edge"><title>10&#45;&gt;11</title>
<path fill="none" stroke="black" d="M43,-455.7C43,-447.245 43,-436.869 43,-427.373"/>
<polygon fill="black" stroke="black" points="46.5001,-427.176 43,-417.176 39.5001,-427.176 46.5001,-427.176"/>
</g>
<!-- 8 -->
<g id="node17" class="node"><title>8</title>
<ellipse fill="lightgrey" stroke="black" cx="43" cy="-266" rx="27" ry="18"/>
<text text-anchor="middle" x="43" y="-263.2" font-family="Times New Roman,serif" font-size="11.00">8</text>
</g>
<!-- 12&#45;&gt;8 -->
<g id="edge11" class="edge"><title>12&#45;&gt;8</title>
<path fill="none" stroke="black" d="M43,-322.7C43,-314.245 43,-303.869 43,-294.373"/>
<polygon fill="black" stroke="black" points="46.5001,-294.176 43,-284.176 39.5001,-294.176 46.5001,-294.176"/>
</g>
<!-- 12&#45;&gt;9 -->
<g id="edge14" class="edge"><title>12&#45;&gt;9</title>
<path fill="none" stroke="black" d="M62.5613,-328.093C68.1568,-324.254 74.0699,-319.753 79,-315 86.2693,-307.991 93.1952,-299.408 98.9955,-291.448"/>
<polygon fill="black" stroke="black" points="101.933,-293.355 104.811,-283.158 96.2025,-289.335 101.933,-293.355"/>
</g>
<!-- 13 -->
<g id="node18" class="node"><title>13</title>
<ellipse fill="lightgrey" stroke="black" cx="43" cy="-208" rx="27" ry="18"/>
<text text-anchor="middle" x="43" y="-205.2" font-family="Times New Roman,serif" font-size="11.00">13</text>
</g>
<!-- 8&#45;&gt;13 -->
<g id="edge12" class="edge"><title>8&#45;&gt;13</title>
<path fill="none" stroke="black" d="M43,-247.894C43,-244.203 43,-240.213 43,-236.243"/>
<polygon fill="black" stroke="black" points="46.5001,-236.001 43,-226.001 39.5001,-236.001 46.5001,-236.001"/>
</g>
<!-- 8&#45;&gt;phantom2 -->
<!-- 8&#45;&gt;X3 -->
<g id="edge26" class="edge"><title>8&#45;&gt;X3</title>
<path fill="none" stroke="black" d="M58.1911,-291.812C63.9321,-300.001 71.0284,-308.584 79,-315 82.41,-317.745 83.7181,-318.091 88,-319 112.781,-324.259 120.219,-324.259 145,-319 159.419,-315.94 170.788,-304.317 178.835,-292.733"/>
<polygon fill="black" stroke="black" points="60.9419,-289.626 52.5162,-283.203 55.0972,-293.478 60.9419,-289.626"/>
<polygon fill="black" stroke="black" points="181.955,-294.348 184.336,-284.025 176.036,-290.61 181.955,-294.348"/>
</g>
<!-- 14 -->
<g id="node19" class="node"><title>14</title>
<ellipse fill="lightgrey" stroke="black" cx="115" cy="-150" rx="27" ry="18"/>
<text text-anchor="middle" x="115" y="-147.2" font-family="Times New Roman,serif" font-size="11.00">14</text>
</g>
<!-- 13&#45;&gt;14 -->
<g id="edge13" class="edge"><title>13&#45;&gt;14</title>
<path fill="none" stroke="black" d="M60.063,-193.729C69.0297,-186.755 80.1876,-178.076 90.1007,-170.366"/>
<polygon fill="black" stroke="black" points="92.3147,-173.078 98.0595,-164.176 88.0171,-167.553 92.3147,-173.078"/>
</g>
<!-- 14&#45;&gt;X4 -->
<g id="edge22" class="edge"><title>14&#45;&gt;X4</title>
<path fill="none" stroke="black" d="M142.117,-150C146.714,-150 151.31,-150 155.906,-150"/>
<polygon fill="black" stroke="black" points="155.969,-153.5 165.969,-150 155.968,-146.5 155.969,-153.5"/>
</g>
<!-- 9&#45;&gt;phantom1b -->
<!-- 9&#45;&gt;X3 -->
<g id="edge21" class="edge"><title>9&#45;&gt;X3</title>
<path fill="none" stroke="black" d="M142.117,-266C146.714,-266 151.31,-266 155.906,-266"/>
<polygon fill="black" stroke="black" points="155.969,-269.5 165.969,-266 155.968,-262.5 155.969,-269.5"/>
</g>
<!-- X1&#45;&gt;10 -->
<g id="edge18" class="edge"><title>X1&#45;&gt;10</title>
<path fill="none" stroke="black" d="M387.729,-474C285.312,-474 182.895,-474 80.4775,-474"/>
<polygon fill="black" stroke="black" points="80.2461,-470.5 70.2461,-474 80.2461,-477.5 80.2461,-470.5"/>
</g>
<!-- phantom2&#45;&gt;X4 -->
<!-- X3&#45;&gt;7 -->
<g id="edge27" class="edge"><title>X3&#45;&gt;7</title>
<path fill="none" stroke="black" d="M207.165,-292.733C215.212,-304.317 226.581,-315.94 241,-319 255.373,-322.05 295.553,-324.213 307,-315 314.972,-308.584 322.068,-300.001 327.809,-291.812"/>
<polygon fill="black" stroke="black" points="209.964,-290.61 201.664,-284.025 204.045,-294.348 209.964,-290.61"/>
<polygon fill="black" stroke="black" points="330.903,-293.478 333.484,-283.203 325.058,-289.626 330.903,-293.478"/>
</g>
<!-- X3&#45;&gt;8 -->
<!-- X3&#45;&gt;phantom2 -->
<!-- X4&#45;&gt;phantom6 -->
<!-- X4&#45;&gt;3 -->
<g id="edge23" class="edge"><title>X4&#45;&gt;3</title>
<path fill="none" stroke="black" d="M220.117,-150C224.714,-150 229.31,-150 233.906,-150"/>
<polygon fill="black" stroke="black" points="233.969,-153.5 243.969,-150 233.968,-146.5 233.969,-153.5"/>
</g>
<!-- X4&#45;&gt;14 -->
</g>
</svg>
