<?xml version="1.0" encoding="UTF-8" standalone="no"?>
<!DOCTYPE svg PUBLIC "-//W3C//DTD SVG 1.1//EN"
 "http://www.w3.org/Graphics/SVG/1.1/DTD/svg11.dtd">
<!-- Generated by graphviz version 2.38.0 (20140413.2041)
 -->
<!-- Title: G Pages: 1 -->
<svg width="332pt" height="245pt"
 viewBox="0.00 0.00 332.00 245.00" xmlns="http://www.w3.org/2000/svg" xmlns:xlink="http://www.w3.org/1999/xlink">
<g id="graph0" class="graph" transform="scale(1 1) rotate(0) translate(4 241)">
<title>G</title>
<polygon fill="white" stroke="none" points="-4,4 -4,-241 328,-241 328,4 -4,4"/>
<g id="clust1" class="cluster"><title>clusterCG</title>
<polygon fill="none" stroke="blue" points="172,-46 172,-229 242,-229 242,-46 172,-46"/>
<text text-anchor="middle" x="207" y="-213.8" font-family="Times New Roman,serif" font-size="14.00">C</text>
</g>
<!-- 1 -->
<g id="node1" class="node"><title>1</title>
<text text-anchor="middle" x="27" y="-14.3" font-family="Times New Roman,serif" font-size="14.00">1</text>
</g>
<!-- 2 -->
<g id="node2" class="node"><title>2</title>
<text text-anchor="middle" x="117" y="-14.3" font-family="Times New Roman,serif" font-size="14.00">2</text>
</g>
<!-- 1&#45;&gt;2 -->
<g id="edge1" class="edge"><title>1&#45;&gt;2</title>
<path fill="none" stroke="black" d="M54.4029,-18C65.6421,-18 78.7152,-18 89.919,-18"/>
</g>
<!-- 3 -->
<g id="node3" class="node"><title>3</title>
<text text-anchor="middle" x="207" y="-14.3" font-family="Times New Roman,serif" font-size="14.00">3</text>
</g>
<!-- 2&#45;&gt;3 -->
<g id="edge2" class="edge"><title>2&#45;&gt;3</title>
<path fill="none" stroke="black" d="M144.403,-18C155.642,-18 168.715,-18 179.919,-18"/>
</g>
<!-- 4 -->
<g id="node4" class="node"><title>4</title>
<text text-anchor="middle" x="297" y="-14.3" font-family="Times New Roman,serif" font-size="14.00">4</text>
</g>
<!-- 3&#45;&gt;4 -->
<g id="edge3" class="edge"><title>3&#45;&gt;4</title>
<path fill="none" stroke="black" d="M234.403,-18C245.642,-18 258.715,-18 269.919,-18"/>
</g>
<!-- ACG -->
<g id="node5" class="node"><title>ACG</title>
</g>
<!-- A2 -->
<g id="node7" class="node"><title>A2</title>
<ellipse fill="none" stroke="black" cx="207" cy="-72" rx="27" ry="18"/>
<text text-anchor="middle" x="207" y="-68.3" font-family="Times New Roman,serif" font-size="14.00">A2</text>
</g>
<!-- ACG&#45;&gt;A2 -->
<g id="edge6" class="edge"><title>ACG&#45;&gt;A2</title>
<path fill="none" stroke="black" d="M118.064,-72C119.533,-72 146.103,-72 169.654,-72"/>
<polygon fill="black" stroke="black" points="169.821,-75.5001 179.82,-72 169.82,-68.5001 169.821,-75.5001"/>
</g>
<!-- CG -->
<g id="node6" class="node"><title>CG</title>
<ellipse fill="none" stroke="black" cx="27" cy="-126" rx="27" ry="18"/>
<text text-anchor="middle" x="27" y="-122.3" font-family="Times New Roman,serif" font-size="14.00">CG</text>
</g>
<!-- CG&#45;&gt;A2 -->
<!-- A3 -->
<g id="node9" class="node"><title>A3</title>
<ellipse fill="none" stroke="black" cx="297" cy="-72" rx="27" ry="18"/>
<text text-anchor="middle" x="297" y="-68.3" font-family="Times New Roman,serif" font-size="14.00">A3</text>
</g>
<!-- A2&#45;&gt;A3 -->
<g id="edge7" class="edge"><title>A2&#45;&gt;A3</title>
<path fill="none" stroke="black" d="M234.403,-72C242.393,-72 251.311,-72 259.824,-72"/>
<polygon fill="black" stroke="black" points="259.919,-75.5001 269.919,-72 259.919,-68.5001 259.919,-75.5001"/>
</g>
<!-- B -->
<g id="node10" class="node"><title>B</title>
<ellipse fill="none" stroke="black" cx="207" cy="-126" rx="27" ry="18"/>
<text text-anchor="middle" x="207" y="-122.3" font-family="Times New Roman,serif" font-size="14.00">B</text>
</g>
<!-- A2&#45;&gt;B -->
<g id="edge8" class="edge"><title>A2&#45;&gt;B</title>
<path fill="none" stroke="black" d="M207,-90.1406C207,-92.6226 207,-95.1046 207,-97.5865"/>
<polygon fill="black" stroke="black" points="203.5,-97.7901 207,-107.79 210.5,-97.7902 203.5,-97.7901"/>
</g>
<!-- A -->
<g id="node8" class="node"><title>A</title>
<ellipse fill="none" stroke="black" cx="27" cy="-72" rx="27" ry="18"/>
<text text-anchor="middle" x="27" y="-68.3" font-family="Times New Roman,serif" font-size="14.00">A</text>
</g>
<!-- A&#45;&gt;ACG -->
<g id="edge5" class="edge"><title>A&#45;&gt;ACG</title>
<path fill="none" stroke="black" d="M54.4029,-72C79.5138,-72 113.78,-72 115.897,-72"/>
</g>
<!-- C -->
<g id="node11" class="node"><title>C</title>
<ellipse fill="none" stroke="black" cx="207" cy="-180" rx="27" ry="18"/>
<text text-anchor="middle" x="207" y="-176.3" font-family="Times New Roman,serif" font-size="14.00">C</text>
</g>
<!-- B&#45;&gt;C -->
<g id="edge9" class="edge"><title>B&#45;&gt;C</title>
<path fill="none" stroke="black" d="M207,-144.141C207,-146.623 207,-149.105 207,-151.587"/>
<polygon fill="black" stroke="black" points="203.5,-151.79 207,-161.79 210.5,-151.79 203.5,-151.79"/>
</g>
</g>
</svg>
