<?xml version="1.0" encoding="UTF-8" standalone="no"?>
<!DOCTYPE svg PUBLIC "-//W3C//DTD SVG 1.1//EN"
 "http://www.w3.org/Graphics/SVG/1.1/DTD/svg11.dtd">
<!-- Generated by graphviz version 2.38.0 (20140413.2041)
 -->
<!-- Title: G Pages: 1 -->
<svg width="3634pt" height="511pt"
 viewBox="0.00 0.00 3633.60 510.50" xmlns="http://www.w3.org/2000/svg" xmlns:xlink="http://www.w3.org/1999/xlink">
<g id="graph0" class="graph" transform="scale(1 1) rotate(0) translate(4 506.5)">
<title>G</title>
<polygon fill="white" stroke="none" points="-4,4 -4,-506.5 3629.6,-506.5 3629.6,4 -4,4"/>
<g id="clust1" class="cluster"><title>clusterset1</title>
<polygon fill="none" stroke="green" points="226,-73 226,-429.5 756,-429.5 756,-73 226,-73"/>
</g>
<g id="clust12" class="cluster"><title>clusterset2</title>
<polygon fill="none" stroke="blue" points="8,-8 8,-494.5 218,-494.5 218,-8 8,-8"/>
</g>
<!-- jg -->
<g id="node1" class="node"><title>jg</title>
<polygon fill="none" stroke="black" points="527,-240 383,-240 383,-211 527,-211 527,-240"/>
<text text-anchor="middle" x="455" y="-221.8" font-family="Arial" font-size="14.00">JobGenerator</text>
</g>
<!-- pt1 -->
<g id="node27" class="node"><title>pt1</title>
<text text-anchor="middle" x="455" y="-157.7" font-family="Arial" font-size="11.00">eventLoop.start()#95</text>
</g>
<!-- jg&#45;&gt;pt1 -->
<g id="edge1" class="edge"><title>jg&#45;&gt;pt1</title>
<path fill="none" stroke="black" d="M455,-210.75C455,-210.75 455,-180.545 455,-180.545"/>
<polygon fill="black" stroke="black" points="458.5,-180.545 455,-170.545 451.5,-180.545 458.5,-180.545"/>
<text text-anchor="middle" x="427.5" y="-199.55" font-family="Times New Roman,serif" font-size="14.00">start()#81</text>
</g>
<!-- pt6 -->
<g id="node31" class="node"><title>pt6</title>
<text text-anchor="middle" x="646" y="-222.7" font-family="Arial" font-size="11.00">triggerActionForNextInterval()#92</text>
</g>
<!-- jg&#45;&gt;pt6 -->
<g id="edge9" class="edge"><title>jg&#45;&gt;pt6</title>
<path fill="none" stroke="black" d="M537.209,-225C537.209,-225 557.932,-225 557.932,-225"/>
<polygon fill="black" stroke="black" points="537.209,-221.5 527.209,-225 537.209,-228.5 537.209,-221.5"/>
</g>
<!-- jg1 -->
<g id="node2" class="node"><title>jg1</title>
<polygon fill="none" stroke="black" points="372,-491 228,-491 228,-462 372,-462 372,-491"/>
<text text-anchor="middle" x="300" y="-472.8" font-family="Arial" font-size="14.00">JobGenerator</text>
</g>
<!-- dg -->
<g id="node3" class="node"><title>dg</title>
<polygon fill="none" stroke="black" points="534,-491 390,-491 390,-462 534,-462 534,-491"/>
<text text-anchor="middle" x="462" y="-472.8" font-family="Arial" font-size="14.00">DStreamGraph</text>
</g>
<!-- js -->
<g id="node4" class="node"><title>js</title>
<polygon fill="none" stroke="black" points="696,-491 552,-491 552,-462 696,-462 696,-491"/>
<text text-anchor="middle" x="624" y="-472.8" font-family="Arial" font-size="14.00">JobScheduler</text>
</g>
<!-- rsi -->
<g id="node5" class="node"><title>rsi</title>
<polygon fill="none" stroke="black" points="884,-491 714,-491 714,-462 884,-462 884,-491"/>
<text text-anchor="middle" x="799" y="-472.8" font-family="Arial" font-size="14.00">ReceiverSupervisorImpl</text>
</g>
<!-- rs -->
<g id="node6" class="node"><title>rs</title>
<polygon fill="none" stroke="black" points="1046,-491 902,-491 902,-462 1046,-462 1046,-491"/>
<text text-anchor="middle" x="974" y="-472.8" font-family="Arial" font-size="14.00">ReceiverSupervisor</text>
</g>
<!-- s0 -->
<g id="node7" class="node"><title>s0</title>
<polygon fill="none" stroke="black" points="1208,-491 1064,-491 1064,-462 1208,-462 1208,-491"/>
<text text-anchor="middle" x="1136" y="-472.8" font-family="Arial" font-size="14.00">Stream 0</text>
</g>
<!-- rtracker -->
<g id="node8" class="node"><title>rtracker</title>
<polygon fill="none" stroke="black" points="1370,-491 1226,-491 1226,-462 1370,-462 1370,-491"/>
<text text-anchor="middle" x="1298" y="-472.8" font-family="Arial" font-size="14.00">ReceiverTracker</text>
</g>
<!-- rdd -->
<g id="node9" class="node"><title>rdd</title>
<polygon fill="none" stroke="black" points="1532,-491 1388,-491 1388,-462 1532,-462 1532,-491"/>
<text text-anchor="middle" x="1460" y="-472.8" font-family="Arial" font-size="14.00">RDD</text>
</g>
<!-- slb -->
<g id="node10" class="node"><title>slb</title>
<polygon fill="none" stroke="black" points="1707.5,-491 1550.5,-491 1550.5,-462 1707.5,-462 1707.5,-491"/>
<text text-anchor="middle" x="1629" y="-472.8" font-family="Arial" font-size="14.00">StreamingListenerBus</text>
</g>
<!-- elj -->
<g id="node11" class="node"><title>elj</title>
<polygon fill="none" stroke="black" points="1944,-491 1726,-491 1726,-462 1944,-462 1944,-491"/>
<text text-anchor="middle" x="1835" y="-472.8" font-family="Arial" font-size="14.00">EventLoop[JobSchedulerEvent]</text>
</g>
<!-- eam -->
<g id="node12" class="node"><title>eam</title>
<polygon fill="none" stroke="black" points="2151.5,-491 1962.5,-491 1962.5,-462 2151.5,-462 2151.5,-491"/>
<text text-anchor="middle" x="2057" y="-472.8" font-family="Arial" font-size="14.00">ExecutorAllocationManager</text>
</g>
<!-- bgl -->
<g id="node13" class="node"><title>bgl</title>
<polygon fill="none" stroke="black" points="2336.5,-491 2169.5,-491 2169.5,-462 2336.5,-462 2336.5,-491"/>
<text text-anchor="middle" x="2253" y="-472.8" font-family="Arial" font-size="14.00">BlockGeneratorListener</text>
</g>
<!-- rer -->
<g id="node14" class="node"><title>rer</title>
<polygon fill="none" stroke="black" points="2499,-491 2355,-491 2355,-462 2499,-462 2499,-491"/>
<text text-anchor="middle" x="2427" y="-472.8" font-family="Arial" font-size="14.00">RpcEndpointRef</text>
</g>
<!-- rbh -->
<g id="node15" class="node"><title>rbh</title>
<polygon fill="none" stroke="black" points="2678.5,-491 2517.5,-491 2517.5,-462 2678.5,-462 2678.5,-491"/>
<text text-anchor="middle" x="2598" y="-472.8" font-family="Arial" font-size="14.00">ReceivedBlockHandler</text>
</g>
<!-- walbbh -->
<g id="node16" class="node"><title>walbbh</title>
<polygon fill="none" stroke="black" points="2939,-491 2697,-491 2697,-462 2939,-462 2939,-491"/>
<text text-anchor="middle" x="2818" y="-472.8" font-family="Arial" font-size="14.00">WriteAheadLogBasedBlockHandler</text>
</g>
<!-- wal -->
<g id="node17" class="node"><title>wal</title>
<polygon fill="none" stroke="black" points="3101,-491 2957,-491 2957,-462 3101,-462 3101,-491"/>
<text text-anchor="middle" x="3029" y="-472.8" font-family="Arial" font-size="14.00">WriteAheadLog</text>
</g>
<!-- rt -->
<g id="node18" class="node"><title>rt</title>
<polygon fill="none" stroke="black" points="3263,-491 3119,-491 3119,-462 3263,-462 3263,-491"/>
<text text-anchor="middle" x="3191" y="-472.8" font-family="Arial" font-size="14.00">RecurringTimer</text>
</g>
<!-- rt1 -->
<g id="node19" class="node"><title>rt1</title>
<polygon fill="none" stroke="black" points="748,-110 604,-110 604,-81 748,-81 748,-110"/>
<text text-anchor="middle" x="676" y="-91.8" font-family="Arial" font-size="14.00">RecurringTimer</text>
</g>
<!-- ds -->
<g id="node20" class="node"><title>ds</title>
<polygon fill="none" stroke="black" points="3425,-491 3281,-491 3281,-462 3425,-462 3425,-491"/>
<text text-anchor="middle" x="3353" y="-472.8" font-family="Arial" font-size="14.00">DStream</text>
</g>
<!-- ds1 -->
<g id="node21" class="node"><title>ds1</title>
<polygon fill="none" stroke="black" points="185,-305 41,-305 41,-276 185,-276 185,-305"/>
<text text-anchor="middle" x="113" y="-286.8" font-family="Arial" font-size="14.00">DStream</text>
</g>
<!-- pt12 -->
<g id="node35" class="node"><title>pt12</title>
<text text-anchor="middle" x="113" y="-222.7" font-family="Arial" font-size="11.00">compute#342</text>
</g>
<!-- ds1&#45;&gt;pt12 -->
<g id="edge17" class="edge"><title>ds1&#45;&gt;pt12</title>
<path fill="none" stroke="black" d="M113,-275.75C113,-275.75 113,-245.545 113,-245.545"/>
<polygon fill="black" stroke="black" points="116.5,-245.545 113,-235.545 109.5,-245.545 116.5,-245.545"/>
</g>
<!-- tds -->
<g id="node22" class="node"><title>tds</title>
<polygon fill="none" stroke="black" points="190.5,-175 35.5,-175 35.5,-146 190.5,-146 190.5,-175"/>
<text text-anchor="middle" x="113" y="-156.8" font-family="Arial" font-size="14.00">TransformedDStream</text>
</g>
<!-- pt13 -->
<g id="node36" class="node"><title>pt13</title>
<text text-anchor="middle" x="113" y="-92.7" font-family="Arial" font-size="11.00">parent.getOrCompute(time)#42</text>
</g>
<!-- tds&#45;&gt;pt13 -->
<g id="edge19" class="edge"><title>tds&#45;&gt;pt13</title>
<path fill="none" stroke="black" d="M113,-145.75C113,-145.75 113,-115.545 113,-115.545"/>
<polygon fill="black" stroke="black" points="116.5,-115.545 113,-105.545 109.5,-115.545 116.5,-115.545"/>
</g>
<!-- dkids -->
<g id="node23" class="node"><title>dkids</title>
<polygon fill="none" stroke="black" points="202,-45 24,-45 24,-16 202,-16 202,-45"/>
<text text-anchor="middle" x="113" y="-26.8" font-family="Arial" font-size="14.00">DirectKafkaInputDStream</text>
</g>
<!-- fed -->
<g id="node24" class="node"><title>fed</title>
<polygon fill="none" stroke="black" points="185,-426 41,-426 41,-397 185,-397 185,-426"/>
<text text-anchor="middle" x="113" y="-407.8" font-family="Arial" font-size="14.00">ForEachDStream</text>
</g>
<!-- pt11 -->
<g id="node34" class="node"><title>pt11</title>
<text text-anchor="middle" x="113" y="-348.2" font-family="Arial" font-size="11.00">parent.getOrCompute(time)#48</text>
</g>
<!-- fed&#45;&gt;pt11 -->
<g id="edge15" class="edge"><title>fed&#45;&gt;pt11</title>
<path fill="none" stroke="black" d="M113,-396.855C113,-396.855 113,-371.156 113,-371.156"/>
<polygon fill="black" stroke="black" points="116.5,-371.156 113,-361.156 109.5,-371.156 116.5,-371.156"/>
</g>
<!-- dg1 -->
<g id="node25" class="node"><title>dg1</title>
<polygon fill="none" stroke="black" points="378,-175 234,-175 234,-146 378,-146 378,-175"/>
<text text-anchor="middle" x="306" y="-156.8" font-family="Arial" font-size="14.00">DStreamGraph</text>
</g>
<!-- pt3 -->
<g id="node28" class="node"><title>pt3</title>
<text text-anchor="middle" x="285" y="-92.7" font-family="Arial" font-size="11.00">graph.start()#194</text>
</g>
<!-- dg1&#45;&gt;pt3 -->
<g id="edge4" class="edge"><title>dg1&#45;&gt;pt3</title>
<path fill="none" stroke="black" d="M285,-145.75C285,-145.75 285,-115.545 285,-115.545"/>
<polygon fill="black" stroke="black" points="288.5,-115.545 285,-105.545 281.5,-115.545 288.5,-115.545"/>
</g>
<!-- n1 -->
<g id="node26" class="node"><title>n1</title>
</g>
<!-- pt2 -->
<g id="node33" class="node"><title>pt2</title>
<text text-anchor="middle" x="412" y="-92.7" font-family="Arial" font-size="11.00">startFirstTime()#100</text>
</g>
<!-- pt1&#45;&gt;pt2 -->
<g id="edge2" class="edge"><title>pt1&#45;&gt;pt2</title>
<path fill="none" stroke="black" d="M433.25,-150.344C433.25,-150.344 433.25,-115.799 433.25,-115.799"/>
<polygon fill="black" stroke="black" points="436.75,-115.799 433.25,-105.799 429.75,-115.799 436.75,-115.799"/>
</g>
<!-- pt3&#45;&gt;pt2 -->
<g id="edge3" class="edge"><title>pt3&#45;&gt;pt2</title>
<path fill="none" stroke="black" d="M345.559,-95C345.559,-95 353.659,-95 353.659,-95"/>
<polygon fill="black" stroke="black" points="345.559,-91.5001 335.559,-95 345.559,-98.5001 345.559,-91.5001"/>
</g>
<!-- pt4 -->
<g id="node29" class="node"><title>pt4</title>
<text text-anchor="middle" x="537" y="-92.7" font-family="Arial" font-size="11.00">timer.start()#195</text>
</g>
<!-- pt4&#45;&gt;rt1 -->
<g id="edge6" class="edge"><title>pt4&#45;&gt;rt1</title>
<path fill="none" stroke="black" d="M586.006,-95C586.006,-95 593.801,-95 593.801,-95"/>
<polygon fill="black" stroke="black" points="593.801,-98.5001 603.801,-95 593.801,-91.5001 593.801,-98.5001"/>
</g>
<!-- pt5 -->
<g id="node30" class="node"><title>pt5</title>
<text text-anchor="middle" x="646" y="-157.7" font-family="Arial" font-size="11.00">loop()#103</text>
</g>
<!-- pt5&#45;&gt;rt1 -->
<g id="edge7" class="edge"><title>pt5&#45;&gt;rt1</title>
<path fill="none" stroke="black" d="M646,-150.344C646,-150.344 646,-120.412 646,-120.412"/>
<polygon fill="black" stroke="black" points="649.5,-120.412 646,-110.412 642.5,-120.412 649.5,-120.412"/>
</g>
<!-- pt6&#45;&gt;pt5 -->
<g id="edge8" class="edge"><title>pt6&#45;&gt;pt5</title>
<path fill="none" stroke="black" d="M646,-215.344C646,-215.344 646,-180.799 646,-180.799"/>
<polygon fill="black" stroke="black" points="649.5,-180.799 646,-170.799 642.5,-180.799 649.5,-180.799"/>
</g>
<!-- pt10 -->
<g id="node32" class="node"><title>pt10</title>
<text text-anchor="middle" x="113" y="-473.7" font-family="Arial" font-size="11.00">DStreamGraph#generateJobs()#249</text>
</g>
<!-- pt10&#45;&gt;fed -->
<g id="edge14" class="edge"><title>pt10&#45;&gt;fed</title>
<path fill="none" stroke="black" d="M113,-466.344C113,-466.344 113,-436.412 113,-436.412"/>
<polygon fill="black" stroke="black" points="116.5,-436.412 113,-426.412 109.5,-436.412 116.5,-436.412"/>
</g>
<!-- pt9 -->
<g id="node40" class="node"><title>pt9</title>
<text text-anchor="middle" x="391" y="-408.7" font-family="Arial" font-size="11.00">generateJobs()#243</text>
</g>
<!-- pt10&#45;&gt;pt9 -->
<g id="edge13" class="edge"><title>pt10&#45;&gt;pt9</title>
<path fill="none" stroke="black" d="M206,-456.266C206,-456.266 206,-411 206,-411 206,-411 279.627,-411 333.984,-411"/>
<polygon fill="black" stroke="black" points="202.5,-456.266 206,-466.266 209.5,-456.266 202.5,-456.266"/>
</g>
<!-- pt2&#45;&gt;pt4 -->
<g id="edge5" class="edge"><title>pt2&#45;&gt;pt4</title>
<path fill="none" stroke="black" d="M470.109,-95C470.109,-95 477.653,-95 477.653,-95"/>
<polygon fill="black" stroke="black" points="477.653,-98.5001 487.653,-95 477.653,-91.5001 477.653,-98.5001"/>
</g>
<!-- pt11&#45;&gt;ds1 -->
<g id="edge16" class="edge"><title>pt11&#45;&gt;ds1</title>
<path fill="none" stroke="black" d="M113,-340.737C113,-340.737 113,-315.358 113,-315.358"/>
<polygon fill="black" stroke="black" points="116.5,-315.358 113,-305.358 109.5,-315.358 116.5,-315.358"/>
</g>
<!-- pt12&#45;&gt;tds -->
<g id="edge18" class="edge"><title>pt12&#45;&gt;tds</title>
<path fill="none" stroke="black" d="M113,-215.344C113,-215.344 113,-185.412 113,-185.412"/>
<polygon fill="black" stroke="black" points="116.5,-185.412 113,-175.412 109.5,-185.412 116.5,-185.412"/>
</g>
<!-- pt13&#45;&gt;dkids -->
<g id="edge20" class="edge"><title>pt13&#45;&gt;dkids</title>
<path fill="none" stroke="black" d="M113,-85.3438C113,-85.3438 113,-55.4123 113,-55.4123"/>
<polygon fill="black" stroke="black" points="116.5,-55.4123 113,-45.4123 109.5,-55.4123 116.5,-55.4123"/>
</g>
<!-- pt14 -->
<g id="node37" class="node"><title>pt14</title>
<text text-anchor="middle" x="3519" y="-473.7" font-family="Arial" font-size="11.00">compute(time)#157</text>
</g>
<!-- pt7 -->
<g id="node38" class="node"><title>pt7</title>
<text text-anchor="middle" x="391" y="-287.7" font-family="Arial" font-size="11.00">eventLoop.post(GenerateJobs)#61</text>
</g>
<!-- pt7&#45;&gt;jg -->
<g id="edge10" class="edge"><title>pt7&#45;&gt;jg</title>
<path fill="none" stroke="black" d="M433.25,-270.344C433.25,-270.344 433.25,-240.412 433.25,-240.412"/>
<polygon fill="black" stroke="black" points="429.75,-270.344 433.25,-280.344 436.75,-270.344 429.75,-270.344"/>
</g>
<!-- pt8 -->
<g id="node39" class="node"><title>pt8</title>
<text text-anchor="middle" x="391" y="-348.2" font-family="Arial" font-size="11.00">processEvent()#180</text>
</g>
<!-- pt8&#45;&gt;pt7 -->
<g id="edge12" class="edge"><title>pt8&#45;&gt;pt7</title>
<path fill="none" stroke="black" d="M391,-330.737C391,-330.737 391,-300.611 391,-300.611"/>
<polygon fill="black" stroke="black" points="387.5,-330.737 391,-340.737 394.5,-330.737 387.5,-330.737"/>
</g>
<!-- pt9&#45;&gt;pt8 -->
<g id="edge11" class="edge"><title>pt9&#45;&gt;pt8</title>
<path fill="none" stroke="black" d="M391,-391.237C391,-391.237 391,-361.111 391,-361.111"/>
<polygon fill="black" stroke="black" points="387.5,-391.237 391,-401.237 394.5,-391.237 387.5,-391.237"/>
</g>
<!-- m1 -->
<g id="node41" class="node"><title>m1</title>
<ellipse fill="darkorange" stroke="black" cx="3597" cy="-476.5" rx="3.6" ry="3.6"/>
</g>
<!-- m2 -->
<g id="node42" class="node"><title>m2</title>
<ellipse fill="darkorange" stroke="black" cx="3622" cy="-476.5" rx="3.6" ry="3.6"/>
</g>
</g>
</svg>
