<?xml version="1.0" encoding="UTF-8" standalone="no"?>
<!DOCTYPE svg PUBLIC "-//W3C//DTD SVG 1.1//EN"
 "http://www.w3.org/Graphics/SVG/1.1/DTD/svg11.dtd">
<!-- Generated by graphviz version 2.38.0 (20140413.2041)
 -->
<!-- Title: g Pages: 1 -->
<svg width="728pt" height="237pt"
 viewBox="0.00 0.00 727.50 237.00" xmlns="http://www.w3.org/2000/svg" xmlns:xlink="http://www.w3.org/1999/xlink">
<g id="graph0" class="graph" transform="scale(1 1) rotate(0) translate(4 233)">
<title>g</title>
<polygon fill="white" stroke="none" points="-4,4 -4,-233 723.5,-233 723.5,4 -4,4"/>
<!-- n1 -->
<g id="node1" class="node"><title>n1</title>
<polygon fill="none" stroke="black" points="442,-229 276,-229 276,-186 442,-186 442,-229"/>
<text text-anchor="middle" x="359" y="-203.8" font-family="Arial" font-size="14.00">Incident Commander</text>
</g>
<!-- p1 -->
<g id="node9" class="node"><title>p1</title>
</g>
<!-- n1&#45;&gt;p1 -->
<g id="edge1" class="edge"><title>n1&#45;&gt;p1</title>
<path fill="none" stroke="black" d="M359,-185.707C359,-170.619 359,-152.662 359,-151.554"/>
</g>
<!-- n2 -->
<g id="node2" class="node"><title>n2</title>
<polygon fill="none" stroke="black" points="340,-172 174,-172 174,-129 340,-129 340,-172"/>
<text text-anchor="middle" x="257" y="-154.3" font-family="Arial" font-size="14.00">Public Information</text>
<text text-anchor="middle" x="257" y="-139.3" font-family="Arial" font-size="14.00">Officer</text>
</g>
<!-- n2&#45;&gt;p1 -->
<g id="edge4" class="edge"><title>n2&#45;&gt;p1</title>
<path fill="none" stroke="black" d="M340.273,-150.5C346.321,-150.5 352.368,-150.5 358.415,-150.5"/>
</g>
<!-- n3 -->
<g id="node3" class="node"><title>n3</title>
<polygon fill="none" stroke="black" points="626,-229 460,-229 460,-186 626,-186 626,-229"/>
<text text-anchor="middle" x="543" y="-203.8" font-family="Arial" font-size="14.00">Liaison Officer</text>
</g>
<!-- n4 -->
<g id="node4" class="node"><title>n4</title>
<polygon fill="none" stroke="black" points="544,-115 378,-115 378,-72 544,-72 544,-115"/>
<text text-anchor="middle" x="461" y="-89.8" font-family="Arial" font-size="14.00">Safety Officer</text>
</g>
<!-- n5 -->
<g id="node5" class="node"><title>n5</title>
<polygon fill="none" stroke="black" points="166,-43 0,-43 0,-0 166,-0 166,-43"/>
<text text-anchor="middle" x="83" y="-17.8" font-family="Arial" font-size="14.00">Operations Section</text>
</g>
<!-- n6 -->
<g id="node6" class="node"><title>n6</title>
<polygon fill="none" stroke="black" points="350,-43 184,-43 184,-0 350,-0 350,-43"/>
<text text-anchor="middle" x="267" y="-17.8" font-family="Arial" font-size="14.00">Planning Section</text>
</g>
<!-- n7 -->
<g id="node7" class="node"><title>n7</title>
<polygon fill="none" stroke="black" points="534,-43 368,-43 368,-0 534,-0 534,-43"/>
<text text-anchor="middle" x="451" y="-17.8" font-family="Arial" font-size="14.00">Logistics Section</text>
</g>
<!-- n8 -->
<g id="node8" class="node"><title>n8</title>
<polygon fill="none" stroke="black" points="719.5,-43 552.5,-43 552.5,-0 719.5,-0 719.5,-43"/>
<text text-anchor="middle" x="636" y="-17.8" font-family="Arial" font-size="14.00">Finance/Admin. Section</text>
</g>
<!-- p2 -->
<g id="node10" class="node"><title>p2</title>
</g>
<!-- p1&#45;&gt;p2 -->
<g id="edge2" class="edge"><title>p1&#45;&gt;p2</title>
<path fill="none" stroke="black" d="M359,-149.342C359,-146.217 359,-97.6788 359,-94.6482"/>
</g>
<!-- p2&#45;&gt;n4 -->
<g id="edge5" class="edge"><title>p2&#45;&gt;n4</title>
<path fill="none" stroke="black" d="M359.797,-93.5C365.859,-93.5 371.92,-93.5 377.982,-93.5"/>
</g>
<!-- p3 -->
<g id="node11" class="node"><title>p3</title>
</g>
<!-- p2&#45;&gt;p3 -->
<g id="edge3" class="edge"><title>p2&#45;&gt;p3</title>
<path fill="none" stroke="black" d="M359,-92.401C359,-90.4407 359,-59.9939 359,-58.0929"/>
</g>
<!-- p6 -->
<g id="node14" class="node"><title>p6</title>
</g>
<!-- p3&#45;&gt;p6 -->
<g id="edge8" class="edge"><title>p3&#45;&gt;p6</title>
<path fill="none" stroke="black" d="M359.719,-57.5C389.908,-57.5 420.097,-57.5 450.287,-57.5"/>
</g>
<!-- p4 -->
<g id="node12" class="node"><title>p4</title>
</g>
<!-- p4&#45;&gt;n5 -->
<g id="edge10" class="edge"><title>p4&#45;&gt;n5</title>
<path fill="none" stroke="black" d="M165.94,-56.975C164.87,-56.5302 149.675,-50.2142 132.577,-43.1073"/>
</g>
<!-- p5 -->
<g id="node13" class="node"><title>p5</title>
</g>
<!-- p4&#45;&gt;p5 -->
<g id="edge6" class="edge"><title>p4&#45;&gt;p5</title>
<path fill="none" stroke="black" d="M166.789,-57.5C199.932,-57.5 233.074,-57.5 266.217,-57.5"/>
</g>
<!-- p5&#45;&gt;n6 -->
<g id="edge11" class="edge"><title>p5&#45;&gt;n6</title>
<path fill="none" stroke="black" d="M267,-56.901C267,-56.0631 267,-50.0211 267,-43.2284"/>
</g>
<!-- p5&#45;&gt;p3 -->
<g id="edge7" class="edge"><title>p5&#45;&gt;p3</title>
<path fill="none" stroke="black" d="M267.719,-57.5C297.908,-57.5 328.097,-57.5 358.287,-57.5"/>
</g>
<!-- p6&#45;&gt;n7 -->
<g id="edge12" class="edge"><title>p6&#45;&gt;n7</title>
<path fill="none" stroke="black" d="M451,-56.901C451,-56.0631 451,-50.0211 451,-43.2284"/>
</g>
<!-- p7 -->
<g id="node15" class="node"><title>p7</title>
</g>
<!-- p6&#45;&gt;p7 -->
<g id="edge9" class="edge"><title>p6&#45;&gt;p7</title>
<path fill="none" stroke="black" d="M451.797,-57.5C485.268,-57.5 518.739,-57.5 552.209,-57.5"/>
</g>
<!-- p7&#45;&gt;n8 -->
<g id="edge13" class="edge"><title>p7&#45;&gt;n8</title>
<path fill="none" stroke="black" d="M553.06,-56.975C554.13,-56.5302 569.325,-50.2142 586.423,-43.1073"/>
</g>
</g>
</svg>
