<?xml version="1.0" encoding="UTF-8" standalone="no"?>
<!DOCTYPE svg PUBLIC "-//W3C//DTD SVG 1.1//EN"
 "http://www.w3.org/Graphics/SVG/1.1/DTD/svg11.dtd">
<!-- Generated by graphviz version 2.38.0 (20140413.2041)
 -->
<!-- Title: CentralPmr2 Pages: 1 -->
<svg width="162pt" height="117pt"
 viewBox="0.00 0.00 162.00 117.00" xmlns="http://www.w3.org/2000/svg" xmlns:xlink="http://www.w3.org/1999/xlink">
<g id="graph0" class="graph" transform="scale(1 1) rotate(0) translate(4 113)">
<title>CentralPmr2</title>
<polygon fill="white" stroke="none" points="-4,4 -4,-113 158,-113 158,4 -4,4"/>
<!-- n1 -->
<g id="node1" class="node"><title>n1</title>
<polygon fill="none" stroke="black" points="104,-109 50,-109 50,-73 104,-73 104,-109"/>
<text text-anchor="middle" x="77" y="-87.3" font-family="Times New Roman,serif" font-size="14.00">n1</text>
</g>
<!-- n2 -->
<g id="node2" class="node"><title>n2</title>
<polygon fill="none" stroke="black" points="54,-36 0,-36 0,-0 54,-0 54,-36"/>
<text text-anchor="middle" x="27" y="-14.3" font-family="Times New Roman,serif" font-size="14.00">n2</text>
</g>
<!-- n1&#45;&gt;n2 -->
<g id="edge1" class="edge"><title>n1&#45;&gt;n2</title>
<path fill="none" stroke="black" d="M69.3333,-72.8314C69.3333,-53.9102 69.3333,-27 69.3333,-27 69.3333,-27 64.05,-27 64.05,-27"/>
<polygon fill="black" stroke="black" points="64.0501,-23.5001 54.05,-27 64.05,-30.5001 64.0501,-23.5001"/>
<text text-anchor="middle" x="68.05" y="-30.8" font-family="Times New Roman,serif" font-size="14.00">xxxx</text>
</g>
<!-- n3 -->
<g id="node3" class="node"><title>n3</title>
<polygon fill="none" stroke="black" points="154,-36 100,-36 100,-0 154,-0 154,-36"/>
<text text-anchor="middle" x="127" y="-14.3" font-family="Times New Roman,serif" font-size="14.00">n3</text>
</g>
<!-- n2&#45;&gt;n3 -->
<g id="edge2" class="edge"><title>n2&#45;&gt;n3</title>
<path fill="none" stroke="black" d="M54.0614,-9C54.0614,-9 89.9169,-9 89.9169,-9"/>
<polygon fill="black" stroke="black" points="89.917,-12.5001 99.9169,-9 89.9169,-5.5001 89.917,-12.5001"/>
<text text-anchor="middle" x="85.9892" y="-12.8" font-family="Times New Roman,serif" font-size="14.00">yyyy</text>
</g>
<!-- n3&#45;&gt;n1 -->
<g id="edge3" class="edge"><title>n3&#45;&gt;n1</title>
<path fill="none" stroke="black" d="M99.95,-18C91.6533,-18 84.6667,-18 84.6667,-18 84.6667,-18 84.6667,-62.9551 84.6667,-62.9551"/>
<polygon fill="black" stroke="black" points="81.1668,-62.955 84.6667,-72.9551 88.1668,-62.9551 81.1668,-62.955"/>
</g>
</g>
</svg>
