<?xml version="1.0" encoding="UTF-8" standalone="no"?>
<!DOCTYPE svg PUBLIC "-//W3C//DTD SVG 1.1//EN"
 "http://www.w3.org/Graphics/SVG/1.1/DTD/svg11.dtd">
<!-- Generated by graphviz version 2.38.0 (20140413.2041)
 -->
<!-- Title: g Pages: 1 -->
<svg width="407pt" height="128pt"
 viewBox="0.00 0.00 407.00 128.00" xmlns="http://www.w3.org/2000/svg" xmlns:xlink="http://www.w3.org/1999/xlink">
<g id="graph0" class="graph" transform="scale(1 1) rotate(0) translate(4 124)">
<title>g</title>
<polygon fill="white" stroke="none" points="-4,4 -4,-124 403,-124 403,4 -4,4"/>
<!-- O -->
<g id="node1" class="node"><title>O</title>
<polygon fill="none" stroke="black" points="142.5,-73.5 142.5,-119.5 213.5,-119.5 213.5,-73.5 142.5,-73.5"/>
<text text-anchor="middle" x="178" y="-104.3" font-family="Times New Roman,serif" font-size="14.00">GitObject</text>
<polyline fill="none" stroke="black" points="142.5,-96.5 213.5,-96.5 "/>
<text text-anchor="middle" x="178" y="-81.3" font-family="Times New Roman,serif" font-size="14.00">ref (sha1)</text>
</g>
<!-- Tree -->
<g id="node2" class="node"><title>Tree</title>
<polygon fill="none" stroke="black" points="256,-36 202,-36 202,-0 256,-0 256,-36"/>
<text text-anchor="middle" x="229" y="-14.3" font-family="Times New Roman,serif" font-size="14.00">Tree</text>
</g>
<!-- O&#45;&gt;Tree -->
<g id="edge1" class="edge"><title>O&#45;&gt;Tree</title>
<path fill="none" stroke="black" d="M198.323,-65.0156C204.853,-55.22 211.857,-44.7149 217.521,-36.2187"/>
<polygon fill="black" stroke="black" points="195.386,-63.111 192.751,-73.373 201.211,-66.994 195.386,-63.111"/>
</g>
<!-- Tag -->
<g id="node3" class="node"><title>Tag</title>
<polygon fill="none" stroke="black" points="54,-36 0,-36 0,-0 54,-0 54,-36"/>
<text text-anchor="middle" x="27" y="-14.3" font-family="Times New Roman,serif" font-size="14.00">Tag</text>
</g>
<!-- O&#45;&gt;Tag -->
<g id="edge4" class="edge"><title>O&#45;&gt;Tag</title>
<path fill="none" stroke="black" d="M133.031,-72.7177C107.33,-59.697 75.9524,-43.8004 54.0257,-32.6918"/>
<polygon fill="black" stroke="black" points="131.713,-75.9734 142.215,-77.3706 134.876,-69.729 131.713,-75.9734"/>
</g>
<!-- Blob -->
<g id="node4" class="node"><title>Blob</title>
<polygon fill="none" stroke="black" points="399,-36 345,-36 345,-0 399,-0 399,-36"/>
<text text-anchor="middle" x="372" y="-14.3" font-family="Times New Roman,serif" font-size="14.00">Blob</text>
</g>
<!-- O&#45;&gt;Blob -->
<g id="edge2" class="edge"><title>O&#45;&gt;Blob</title>
<path fill="none" stroke="black" d="M223.299,-77.6372C260.95,-62.7902 313.285,-42.1532 344.776,-29.7352"/>
<polygon fill="black" stroke="black" points="221.601,-74.5443 213.583,-81.4687 224.169,-81.0563 221.601,-74.5443"/>
</g>
<!-- Commit -->
<g id="node5" class="node"><title>Commit</title>
<polygon fill="none" stroke="black" points="159,-36 97,-36 97,-0 159,-0 159,-36"/>
<text text-anchor="middle" x="128" y="-14.3" font-family="Times New Roman,serif" font-size="14.00">Commit</text>
</g>
<!-- O&#45;&gt;Commit -->
<g id="edge3" class="edge"><title>O&#45;&gt;Commit</title>
<path fill="none" stroke="black" d="M157.881,-64.7186C151.535,-55.0079 144.751,-44.6291 139.254,-36.2187"/>
<polygon fill="black" stroke="black" points="155.137,-66.9172 163.538,-73.373 160.997,-63.0875 155.137,-66.9172"/>
</g>
<!-- Tree&#45;&gt;Tree -->
<g id="edge5" class="edge"><title>Tree&#45;&gt;Tree</title>
<path fill="none" stroke="black" d="M256.241,-24.7434C266.024,-24.8884 274,-22.6406 274,-18 274,-15.1721 271.038,-13.2328 266.51,-12.182"/>
<polygon fill="black" stroke="black" points="256.241,-11.2566 266.604,-7.6723 261.221,-11.7054 266.2,-12.1541 266.2,-12.1541 266.2,-12.1541 261.221,-11.7054 265.797,-16.636 256.241,-11.2566 256.241,-11.2566"/>
<text text-anchor="middle" x="288" y="-21.8" font-family="Times New Roman,serif" font-size="14.00"> 0..*</text>
<text text-anchor="middle" x="288" y="-6.8" font-family="Times New Roman,serif" font-size="14.00">0..*1</text>
</g>
<!-- Tree&#45;&gt;Blob -->
<g id="edge6" class="edge"><title>Tree&#45;&gt;Blob</title>
<path fill="none" stroke="black" d="M256.234,-18C278.498,-18 310.204,-18 334.807,-18"/>
<polygon fill="black" stroke="black" points="344.868,-18 334.868,-22.5001 339.868,-18 334.868,-18.0001 334.868,-18.0001 334.868,-18.0001 339.868,-18 334.868,-13.5001 344.868,-18 344.868,-18"/>
<text text-anchor="middle" x="300.5" y="-39.8" font-family="Times New Roman,serif" font-size="14.00"> 0..*</text>
<text text-anchor="middle" x="300.5" y="-24.8" font-family="Times New Roman,serif" font-size="14.00">1</text>
</g>
<!-- Tag&#45;&gt;Commit -->
<g id="edge8" class="edge"><title>Tag&#45;&gt;Commit</title>
<path fill="none" stroke="black" d="M54.0661,-18C64.0736,-18 75.6587,-18 86.6461,-18"/>
<polygon fill="black" stroke="black" points="96.9264,-18 86.9264,-22.5001 91.9264,-18 86.9264,-18.0001 86.9264,-18.0001 86.9264,-18.0001 91.9264,-18 86.9263,-13.5001 96.9264,-18 96.9264,-18"/>
<text text-anchor="middle" x="75.5" y="-39.8" font-family="Times New Roman,serif" font-size="14.00"> 0..*</text>
<text text-anchor="middle" x="75.5" y="-24.8" font-family="Times New Roman,serif" font-size="14.00">1</text>
</g>
<!-- Commit&#45;&gt;Tree -->
<g id="edge7" class="edge"><title>Commit&#45;&gt;Tree</title>
<path fill="none" stroke="black" d="M159.127,-18C169.387,-18 180.903,-18 191.581,-18"/>
<polygon fill="black" stroke="black" points="201.903,-18 191.903,-22.5001 196.903,-18 191.903,-18.0001 191.903,-18.0001 191.903,-18.0001 196.903,-18 191.903,-13.5001 201.903,-18 201.903,-18"/>
<text text-anchor="middle" x="180.5" y="-39.8" font-family="Times New Roman,serif" font-size="14.00"> 1..*</text>
<text text-anchor="middle" x="180.5" y="-24.8" font-family="Times New Roman,serif" font-size="14.00">1</text>
</g>
</g>
</svg>
