<?xml version="1.0" encoding="UTF-8" standalone="no"?><svg xmlns="http://www.w3.org/2000/svg" xmlns:xlink="http://www.w3.org/1999/xlink" contentScriptType="application/ecmascript" contentStyleType="text/css" height="266px" preserveAspectRatio="none" style="width:139px;height:266px;" version="1.1" viewBox="0 0 139 266" width="139px" zoomAndPan="magnify"><defs/><g><text fill="#000000" font-family="sans-serif" font-size="12" lengthAdjust="spacingAndGlyphs" textLength="48" x="16" y="19.752">项目属性</text><text fill="#000000" font-family="sans-serif" font-size="12" lengthAdjust="spacingAndGlyphs" textLength="48" x="26" y="36.1406">配置属性</text><text fill="#000000" font-family="sans-serif" font-size="12" lengthAdjust="spacingAndGlyphs" textLength="35" x="36" y="52.5293">C/C++</text><text fill="#000000" font-family="sans-serif" font-size="12" lengthAdjust="spacingAndGlyphs" textLength="24" x="46" y="68.918">常规</text><text fill="#000000" font-family="sans-serif" font-size="12" lengthAdjust="spacingAndGlyphs" textLength="72" x="56" y="85.3066">附加包含目录</text><text fill="#000000" font-family="sans-serif" font-size="12" lengthAdjust="spacingAndGlyphs" textLength="48" x="56" y="101.6953">预处理器</text><text fill="#000000" font-family="sans-serif" font-size="12" lengthAdjust="spacingAndGlyphs" textLength="72" x="66" y="118.084">预处理器定义</text><text fill="#000000" font-family="sans-serif" font-size="12" lengthAdjust="spacingAndGlyphs" textLength="48" x="56" y="134.4727">代码生成</text><text fill="#000000" font-family="sans-serif" font-size="12" lengthAdjust="spacingAndGlyphs" textLength="36" x="66" y="150.8613">运行库</text><text fill="#000000" font-family="sans-serif" font-size="12" lengthAdjust="spacingAndGlyphs" textLength="48" x="56" y="167.25">预编译头</text><text fill="#000000" font-family="sans-serif" font-size="12" lengthAdjust="spacingAndGlyphs" textLength="48" x="66" y="183.6387">预编译头</text><text fill="#000000" font-family="sans-serif" font-size="12" lengthAdjust="spacingAndGlyphs" textLength="36" x="46" y="200.0273">链接器</text><text fill="#000000" font-family="sans-serif" font-size="12" lengthAdjust="spacingAndGlyphs" textLength="24" x="56" y="216.416">常规</text><text fill="#000000" font-family="sans-serif" font-size="12" lengthAdjust="spacingAndGlyphs" textLength="60" x="66" y="232.8047">附加库目录</text><text fill="#000000" font-family="sans-serif" font-size="12" lengthAdjust="spacingAndGlyphs" textLength="24" x="56" y="249.1934">输入</text><text fill="#000000" font-family="sans-serif" font-size="12" lengthAdjust="spacingAndGlyphs" textLength="60" x="66" y="265.582">附加依赖项</text><rect fill="none" height="2" style="stroke: #888888; stroke-width: 1.0;" width="2" x="9" y="13.1943"/><rect fill="none" height="2" style="stroke: #888888; stroke-width: 1.0;" width="2" x="19" y="29.583"/><line style="stroke: #888888; stroke-width: 1.0;" x1="10" x2="10" y1="16.1943" y2="30.583"/><line style="stroke: #888888; stroke-width: 1.0;" x1="10" x2="18" y1="30.583" y2="30.583"/><rect fill="none" height="2" style="stroke: #888888; stroke-width: 1.0;" width="2" x="29" y="45.9717"/><line style="stroke: #888888; stroke-width: 1.0;" x1="20" x2="20" y1="32.583" y2="46.9717"/><line style="stroke: #888888; stroke-width: 1.0;" x1="20" x2="28" y1="46.9717" y2="46.9717"/><rect fill="none" height="2" style="stroke: #888888; stroke-width: 1.0;" width="2" x="39" y="62.3604"/><line style="stroke: #888888; stroke-width: 1.0;" x1="30" x2="30" y1="48.9717" y2="63.3604"/><line style="stroke: #888888; stroke-width: 1.0;" x1="30" x2="38" y1="63.3604" y2="63.3604"/><line style="stroke: #888888; stroke-width: 1.0;" x1="40" x2="40" y1="65.3604" y2="79.749"/><line style="stroke: #888888; stroke-width: 1.0;" x1="40" x2="48" y1="79.749" y2="79.749"/><rect fill="none" height="2" style="stroke: #888888; stroke-width: 1.0;" width="2" x="49" y="95.1377"/><line style="stroke: #888888; stroke-width: 1.0;" x1="40" x2="40" y1="65.3604" y2="96.1377"/><line style="stroke: #888888; stroke-width: 1.0;" x1="40" x2="48" y1="96.1377" y2="96.1377"/><line style="stroke: #888888; stroke-width: 1.0;" x1="50" x2="50" y1="98.1377" y2="112.5264"/><line style="stroke: #888888; stroke-width: 1.0;" x1="50" x2="58" y1="112.5264" y2="112.5264"/><rect fill="none" height="2" style="stroke: #888888; stroke-width: 1.0;" width="2" x="49" y="127.915"/><line style="stroke: #888888; stroke-width: 1.0;" x1="40" x2="40" y1="65.3604" y2="128.915"/><line style="stroke: #888888; stroke-width: 1.0;" x1="40" x2="48" y1="128.915" y2="128.915"/><line style="stroke: #888888; stroke-width: 1.0;" x1="50" x2="50" y1="130.915" y2="145.3037"/><line style="stroke: #888888; stroke-width: 1.0;" x1="50" x2="58" y1="145.3037" y2="145.3037"/><rect fill="none" height="2" style="stroke: #888888; stroke-width: 1.0;" width="2" x="49" y="160.6924"/><line style="stroke: #888888; stroke-width: 1.0;" x1="40" x2="40" y1="65.3604" y2="161.6924"/><line style="stroke: #888888; stroke-width: 1.0;" x1="40" x2="48" y1="161.6924" y2="161.6924"/><line style="stroke: #888888; stroke-width: 1.0;" x1="50" x2="50" y1="163.6924" y2="178.0811"/><line style="stroke: #888888; stroke-width: 1.0;" x1="50" x2="58" y1="178.0811" y2="178.0811"/><rect fill="none" height="2" style="stroke: #888888; stroke-width: 1.0;" width="2" x="39" y="193.4697"/><line style="stroke: #888888; stroke-width: 1.0;" x1="30" x2="30" y1="48.9717" y2="194.4697"/><line style="stroke: #888888; stroke-width: 1.0;" x1="30" x2="38" y1="194.4697" y2="194.4697"/><rect fill="none" height="2" style="stroke: #888888; stroke-width: 1.0;" width="2" x="49" y="209.8584"/><line style="stroke: #888888; stroke-width: 1.0;" x1="40" x2="40" y1="196.4697" y2="210.8584"/><line style="stroke: #888888; stroke-width: 1.0;" x1="40" x2="48" y1="210.8584" y2="210.8584"/><line style="stroke: #888888; stroke-width: 1.0;" x1="50" x2="50" y1="212.8584" y2="227.2471"/><line style="stroke: #888888; stroke-width: 1.0;" x1="50" x2="58" y1="227.2471" y2="227.2471"/><rect fill="none" height="2" style="stroke: #888888; stroke-width: 1.0;" width="2" x="49" y="242.6357"/><line style="stroke: #888888; stroke-width: 1.0;" x1="40" x2="40" y1="196.4697" y2="243.6357"/><line style="stroke: #888888; stroke-width: 1.0;" x1="40" x2="48" y1="243.6357" y2="243.6357"/><line style="stroke: #888888; stroke-width: 1.0;" x1="50" x2="50" y1="245.6357" y2="260.0244"/><line style="stroke: #888888; stroke-width: 1.0;" x1="50" x2="58" y1="260.0244" y2="260.0244"/></g></svg>