<?xml version="1.0" encoding="UTF-8" standalone="no"?><svg xmlns="http://www.w3.org/2000/svg" xmlns:xlink="http://www.w3.org/1999/xlink" contentScriptType="application/ecmascript" contentStyleType="text/css" height="638px" preserveAspectRatio="none" style="width:1440px;height:638px;" version="1.1" viewBox="0 0 1440 638" width="1440px" zoomAndPan="magnify"><defs><filter height="300%" id="fbu3uw6" width="300%" x="-1" y="-1"><feGaussianBlur result="blurOut" stdDeviation="2.0"/><feColorMatrix in="blurOut" result="blurOut2" type="matrix" values="0 0 0 0 0 0 0 0 0 0 0 0 0 0 0 0 0 0 .4 0"/><feOffset dx="4.0" dy="4.0" in="blurOut2" result="blurOut3"/><feBlend in="SourceGraphic" in2="blurOut3" mode="normal"/></filter></defs><g><rect fill="#FFFFCC" filter="url(#fbu3uw6)" height="63.5088" style="stroke: #A80036; stroke-width: 1.0;" width="10" x="55" y="74.1201"/><rect fill="#FFFFCC" filter="url(#fbu3uw6)" height="31.7544" style="stroke: #A80036; stroke-width: 1.0;" width="10" x="55" y="514.9097"/><rect fill="#FFFFCC" filter="url(#fbu3uw6)" height="151.2632" style="stroke: #A80036; stroke-width: 1.0;" width="10" x="236" y="137.6289"/><rect fill="#FFFFCC" filter="url(#fbu3uw6)" height="111.5088" style="stroke: #A80036; stroke-width: 1.0;" width="10" x="241" y="177.3833"/><rect fill="#FFFFCC" filter="url(#fbu3uw6)" height="66.7544" style="stroke: #A80036; stroke-width: 1.0;" width="10" x="246" y="222.1377"/><rect fill="#FFFFCC" filter="url(#fbu3uw6)" height="30" style="stroke: #A80036; stroke-width: 1.0;" width="10" x="251" y="258.8921"/><rect fill="#FFFFCC" filter="url(#fbu3uw6)" height="256.0176" style="stroke: #A80036; stroke-width: 1.0;" width="10" x="649" y="258.8921"/><rect fill="#FFFFCC" filter="url(#fbu3uw6)" height="28" style="stroke: #A80036; stroke-width: 1.0;" width="10" x="654" y="328.6465"/><rect fill="#FFFFCC" filter="url(#fbu3uw6)" height="28" style="stroke: #A80036; stroke-width: 1.0;" width="10" x="654" y="403.4009"/><rect fill="#FFFFCC" filter="url(#fbu3uw6)" height="36.7544" style="stroke: #A80036; stroke-width: 1.0;" width="10" x="654" y="478.1553"/><rect fill="#FFFFCC" filter="url(#fbu3uw6)" height="31.7544" style="stroke: #A80036; stroke-width: 1.0;" width="10" x="881" y="546.6641"/><rect fill="#FFFFCC" filter="url(#fbu3uw6)" height="9.7544" style="stroke: #A80036; stroke-width: 1.0;" width="10" x="1201" y="578.4185"/><line style="stroke: #A80036; stroke-width: 1.0; stroke-dasharray: 5.0,5.0;" x1="60" x2="60" y1="41.1201" y2="597.1729"/><line style="stroke: #A80036; stroke-width: 1.0; stroke-dasharray: 5.0,5.0;" x1="241" x2="241" y1="41.1201" y2="597.1729"/><line style="stroke: #A80036; stroke-width: 1.0; stroke-dasharray: 5.0,5.0;" x1="653.5" x2="653.5" y1="41.1201" y2="597.1729"/><line style="stroke: #A80036; stroke-width: 1.0; stroke-dasharray: 5.0,5.0;" x1="885.5" x2="885.5" y1="41.1201" y2="597.1729"/><line style="stroke: #A80036; stroke-width: 1.0; stroke-dasharray: 5.0,5.0;" x1="1206" x2="1206" y1="41.1201" y2="597.1729"/><line style="stroke: #A80036; stroke-width: 1.0; stroke-dasharray: 5.0,5.0;" x1="1378" x2="1378" y1="41.1201" y2="597.1729"/><rect fill="#FEFECE" filter="url(#fbu3uw6)" height="33.1201" style="stroke: #A80036; stroke-width: 1.5;" width="100" x="8" y="3"/><text fill="#000000" font-family="sans-serif" font-size="14" lengthAdjust="spacingAndGlyphs" textLength="86" x="15" y="26.0439">JobScheduler</text><rect fill="#FEFECE" filter="url(#fbu3uw6)" height="33.1201" style="stroke: #A80036; stroke-width: 1.5;" width="100" x="8" y="596.1729"/><text fill="#000000" font-family="sans-serif" font-size="14" lengthAdjust="spacingAndGlyphs" textLength="86" x="15" y="619.2168">JobScheduler</text><rect fill="#FEFECE" filter="url(#fbu3uw6)" height="33.1201" style="stroke: #A80036; stroke-width: 1.5;" width="112" x="183" y="3"/><text fill="#000000" font-family="sans-serif" font-size="14" lengthAdjust="spacingAndGlyphs" textLength="98" x="190" y="26.0439">RecurringTimer</text><rect fill="#FEFECE" filter="url(#fbu3uw6)" height="33.1201" style="stroke: #A80036; stroke-width: 1.5;" width="112" x="183" y="596.1729"/><text fill="#000000" font-family="sans-serif" font-size="14" lengthAdjust="spacingAndGlyphs" textLength="98" x="190" y="619.2168">RecurringTimer</text><rect fill="#FEFECE" filter="url(#fbu3uw6)" height="33.1201" style="stroke: #A80036; stroke-width: 1.5;" width="101" x="601.5" y="3"/><text fill="#000000" font-family="sans-serif" font-size="14" lengthAdjust="spacingAndGlyphs" textLength="87" x="608.5" y="26.0439">JobGenerator</text><rect fill="#FEFECE" filter="url(#fbu3uw6)" height="33.1201" style="stroke: #A80036; stroke-width: 1.5;" width="101" x="601.5" y="596.1729"/><text fill="#000000" font-family="sans-serif" font-size="14" lengthAdjust="spacingAndGlyphs" textLength="87" x="608.5" y="619.2168">JobGenerator</text><rect fill="#FEFECE" filter="url(#fbu3uw6)" height="33.1201" style="stroke: #A80036; stroke-width: 1.5;" width="153" x="807.5" y="3"/><text fill="#000000" font-family="sans-serif" font-size="14" lengthAdjust="spacingAndGlyphs" textLength="139" x="814.5" y="26.0439">StreamingListenerBus</text><rect fill="#FEFECE" filter="url(#fbu3uw6)" height="33.1201" style="stroke: #A80036; stroke-width: 1.5;" width="153" x="807.5" y="596.1729"/><text fill="#000000" font-family="sans-serif" font-size="14" lengthAdjust="spacingAndGlyphs" textLength="139" x="814.5" y="619.2168">StreamingListenerBus</text><rect fill="#FEFECE" filter="url(#fbu3uw6)" height="33.1201" style="stroke: #A80036; stroke-width: 1.5;" width="208" x="1100" y="3"/><text fill="#000000" font-family="sans-serif" font-size="14" lengthAdjust="spacingAndGlyphs" textLength="194" x="1107" y="26.0439">StreamingJobProgressListener</text><rect fill="#FEFECE" filter="url(#fbu3uw6)" height="33.1201" style="stroke: #A80036; stroke-width: 1.5;" width="208" x="1100" y="596.1729"/><text fill="#000000" font-family="sans-serif" font-size="14" lengthAdjust="spacingAndGlyphs" textLength="194" x="1107" y="619.2168">StreamingJobProgressListener</text><rect fill="#FEFECE" filter="url(#fbu3uw6)" height="33.1201" style="stroke: #A80036; stroke-width: 1.5;" width="109" x="1322" y="3"/><text fill="#000000" font-family="sans-serif" font-size="14" lengthAdjust="spacingAndGlyphs" textLength="95" x="1329" y="26.0439">DStreamGraph</text><rect fill="#FEFECE" filter="url(#fbu3uw6)" height="33.1201" style="stroke: #A80036; stroke-width: 1.5;" width="109" x="1322" y="596.1729"/><text fill="#000000" font-family="sans-serif" font-size="14" lengthAdjust="spacingAndGlyphs" textLength="95" x="1329" y="619.2168">DStreamGraph</text><rect fill="#FFFFCC" filter="url(#fbu3uw6)" height="63.5088" style="stroke: #A80036; stroke-width: 1.0;" width="10" x="55" y="74.1201"/><rect fill="#FFFFCC" filter="url(#fbu3uw6)" height="31.7544" style="stroke: #A80036; stroke-width: 1.0;" width="10" x="55" y="514.9097"/><rect fill="#FFFFCC" filter="url(#fbu3uw6)" height="151.2632" style="stroke: #A80036; stroke-width: 1.0;" width="10" x="236" y="137.6289"/><rect fill="#FFFFCC" filter="url(#fbu3uw6)" height="111.5088" style="stroke: #A80036; stroke-width: 1.0;" width="10" x="241" y="177.3833"/><rect fill="#FFFFCC" filter="url(#fbu3uw6)" height="66.7544" style="stroke: #A80036; stroke-width: 1.0;" width="10" x="246" y="222.1377"/><rect fill="#FFFFCC" filter="url(#fbu3uw6)" height="30" style="stroke: #A80036; stroke-width: 1.0;" width="10" x="251" y="258.8921"/><rect fill="#FFFFCC" filter="url(#fbu3uw6)" height="256.0176" style="stroke: #A80036; stroke-width: 1.0;" width="10" x="649" y="258.8921"/><rect fill="#FFFFCC" filter="url(#fbu3uw6)" height="28" style="stroke: #A80036; stroke-width: 1.0;" width="10" x="654" y="328.6465"/><rect fill="#FFFFCC" filter="url(#fbu3uw6)" height="28" style="stroke: #A80036; stroke-width: 1.0;" width="10" x="654" y="403.4009"/><rect fill="#FFFFCC" filter="url(#fbu3uw6)" height="36.7544" style="stroke: #A80036; stroke-width: 1.0;" width="10" x="654" y="478.1553"/><rect fill="#FFFFCC" filter="url(#fbu3uw6)" height="31.7544" style="stroke: #A80036; stroke-width: 1.0;" width="10" x="881" y="546.6641"/><rect fill="#FFFFCC" filter="url(#fbu3uw6)" height="9.7544" style="stroke: #A80036; stroke-width: 1.0;" width="10" x="1201" y="578.4185"/><polygon fill="#A80036" points="642,70.1201,652,74.1201,642,78.1201,646,74.1201" style="stroke: #A80036; stroke-width: 1.0;"/><line style="stroke: #A80036; stroke-width: 1.0;" x1="65" x2="648" y1="74.1201" y2="74.1201"/><text fill="#000000" font-family="sans-serif" font-size="13" lengthAdjust="spacingAndGlyphs" textLength="110" x="72" y="70.0181">JobGenerator#start</text><polygon fill="#A80036" points="1366.5,101.8745,1376.5,105.8745,1366.5,109.8745,1370.5,105.8745" style="stroke: #A80036; stroke-width: 1.0;"/><line style="stroke: #A80036; stroke-width: 1.0;" x1="65" x2="1372.5" y1="105.8745" y2="105.8745"/><text fill="#000000" font-family="sans-serif" font-size="13" lengthAdjust="spacingAndGlyphs" textLength="119" x="72" y="101.7725">DStreamGraph#start</text><polygon fill="#A80036" points="224,133.6289,234,137.6289,224,141.6289,228,137.6289" style="stroke: #A80036; stroke-width: 1.0;"/><line style="stroke: #A80036; stroke-width: 1.0;" x1="60" x2="230" y1="137.6289" y2="137.6289"/><text fill="#000000" font-family="sans-serif" font-size="13" lengthAdjust="spacingAndGlyphs" textLength="152" x="67" y="133.5269">RecurringTimer#start(long)</text><line style="stroke: #A80036; stroke-width: 1.0;" x1="246" x2="293" y1="165.1377" y2="165.1377"/><line style="stroke: #A80036; stroke-width: 1.0;" x1="293" x2="293" y1="165.1377" y2="178.1377"/><line style="stroke: #A80036; stroke-width: 1.0;" x1="252" x2="293" y1="178.1377" y2="178.1377"/><polygon fill="#A80036" points="262,174.1377,252,178.1377,262,182.1377,258,178.1377" style="stroke: #A80036; stroke-width: 1.0;"/><text fill="#000000" font-family="sans-serif" font-size="13" lengthAdjust="spacingAndGlyphs" textLength="24" x="258" y="160.2813">loop</text><line style="stroke: #A80036; stroke-width: 1.0;" x1="251" x2="298" y1="209.8921" y2="209.8921"/><line style="stroke: #A80036; stroke-width: 1.0;" x1="298" x2="298" y1="209.8921" y2="222.8921"/><line style="stroke: #A80036; stroke-width: 1.0;" x1="257" x2="298" y1="222.8921" y2="222.8921"/><polygon fill="#A80036" points="267,218.8921,257,222.8921,267,226.8921,263,222.8921" style="stroke: #A80036; stroke-width: 1.0;"/><text fill="#000000" font-family="sans-serif" font-size="13" lengthAdjust="spacingAndGlyphs" textLength="159" x="263" y="205.0356">triggerActionForNextInterval</text><polygon fill="#A80036" points="637,254.8921,647,258.8921,637,262.8921,641,258.8921" style="stroke: #A80036; stroke-width: 1.0;"/><line style="stroke: #A80036; stroke-width: 1.0;" x1="261" x2="643" y1="258.8921" y2="258.8921"/><text fill="#000000" font-family="sans-serif" font-size="13" lengthAdjust="spacingAndGlyphs" textLength="374" x="268" y="254.79">longTime =&gt; eventLoop.post(GenerateJobs(new Time(longTime)))</text><line style="stroke: #A80036; stroke-width: 1.0;" x1="664" x2="706" y1="321.4009" y2="321.4009"/><line style="stroke: #A80036; stroke-width: 1.0;" x1="706" x2="706" y1="321.4009" y2="334.4009"/><line style="stroke: #A80036; stroke-width: 1.0;" x1="665" x2="706" y1="334.4009" y2="334.4009"/><polygon fill="#A80036" points="675,330.4009,665,334.4009,675,338.4009,671,334.4009" style="stroke: #A80036; stroke-width: 1.0;"/><text fill="#000000" font-family="sans-serif" font-size="13" lengthAdjust="spacingAndGlyphs" textLength="208" x="671" y="316.5444">JobGenerator#eventLoop#onReceive</text><line style="stroke: #A80036; stroke-width: 1.0;" x1="664" x2="706" y1="396.1553" y2="396.1553"/><line style="stroke: #A80036; stroke-width: 1.0;" x1="706" x2="706" y1="396.1553" y2="409.1553"/><line style="stroke: #A80036; stroke-width: 1.0;" x1="665" x2="706" y1="409.1553" y2="409.1553"/><polygon fill="#A80036" points="675,405.1553,665,409.1553,675,413.1553,671,409.1553" style="stroke: #A80036; stroke-width: 1.0;"/><text fill="#000000" font-family="sans-serif" font-size="13" lengthAdjust="spacingAndGlyphs" textLength="162" x="671" y="391.2988">JobGenerator#processEvent</text><line style="stroke: #A80036; stroke-width: 1.0;" x1="659" x2="706" y1="465.9097" y2="465.9097"/><line style="stroke: #A80036; stroke-width: 1.0;" x1="706" x2="706" y1="465.9097" y2="478.9097"/><line style="stroke: #A80036; stroke-width: 1.0;" x1="665" x2="706" y1="478.9097" y2="478.9097"/><polygon fill="#A80036" points="675,474.9097,665,478.9097,675,482.9097,671,478.9097" style="stroke: #A80036; stroke-width: 1.0;"/><text fill="#000000" font-family="sans-serif" font-size="13" lengthAdjust="spacingAndGlyphs" textLength="161" x="671" y="461.0532">JobGenerator#generateJobs</text><polygon fill="#A80036" points="76,510.9097,66,514.9097,76,518.9097,72,514.9097" style="stroke: #A80036; stroke-width: 1.0;"/><line style="stroke: #A80036; stroke-width: 1.0;" x1="70" x2="653" y1="514.9097" y2="514.9097"/><text fill="#000000" font-family="sans-serif" font-size="13" lengthAdjust="spacingAndGlyphs" textLength="164" x="82" y="510.8076">JobScheduler#submitJobSet</text><polygon fill="#A80036" points="869,542.6641,879,546.6641,869,550.6641,873,546.6641" style="stroke: #A80036; stroke-width: 1.0;"/><line style="stroke: #A80036; stroke-width: 1.0;" x1="60" x2="875" y1="546.6641" y2="546.6641"/><text fill="#000000" font-family="sans-serif" font-size="13" lengthAdjust="spacingAndGlyphs" textLength="480" x="67" y="542.562">StreamingListenerBus#post(StreamingListenerBatchSubmitted(jobSet.toBatchInfo))</text><polygon fill="#A80036" points="1189,574.4185,1199,578.4185,1189,582.4185,1193,578.4185" style="stroke: #A80036; stroke-width: 1.0;"/><line style="stroke: #A80036; stroke-width: 1.0;" x1="886" x2="1195" y1="578.4185" y2="578.4185"/><text fill="#000000" font-family="sans-serif" font-size="13" lengthAdjust="spacingAndGlyphs" textLength="291" x="893" y="574.3164">StreamingJobProgressListener#onBatchSubmitted</text></g></svg>