<?xml version="1.0" encoding="UTF-8" standalone="no"?>
<!DOCTYPE svg PUBLIC "-//W3C//DTD SVG 1.1//EN"
 "http://www.w3.org/Graphics/SVG/1.1/DTD/svg11.dtd">
<!-- Generated by graphviz version 2.38.0 (20140413.2041)
 -->
<!-- Title: G Pages: 1 -->
<svg width="770pt" height="378pt"
 viewBox="0.00 0.00 770.00 378.00" xmlns="http://www.w3.org/2000/svg" xmlns:xlink="http://www.w3.org/1999/xlink">
<g id="graph0" class="graph" transform="scale(1 1) rotate(0) translate(4 374)">
<title>G</title>
<polygon fill="white" stroke="none" points="-4,4 -4,-374 766,-374 766,4 -4,4"/>
<!-- RecurringTimer -->
<g id="node1" class="node"><title>RecurringTimer</title>
<polygon fill="none" stroke="black" points="104.5,-370 0.5,-370 0.5,-334 104.5,-334 104.5,-370"/>
<text text-anchor="middle" x="52.5" y="-348.3" font-family="Times New Roman,serif" font-size="14.00">RecurringTimer</text>
</g>
<!-- BlockGenerator -->
<g id="node2" class="node"><title>BlockGenerator</title>
<polygon fill="none" stroke="black" points="105,-283 0,-283 0,-247 105,-247 105,-283"/>
<text text-anchor="middle" x="52.5" y="-261.3" font-family="Times New Roman,serif" font-size="14.00">BlockGenerator</text>
</g>
<!-- RecurringTimer&#45;&gt;BlockGenerator -->
<g id="edge1" class="edge"><title>RecurringTimer&#45;&gt;BlockGenerator</title>
<path fill="none" stroke="black" d="M52.5,-333.799C52.5,-322.163 52.5,-306.548 52.5,-293.237"/>
<polygon fill="black" stroke="black" points="56.0001,-293.175 52.5,-283.175 49.0001,-293.175 56.0001,-293.175"/>
</g>
<!-- BlockManager -->
<g id="node4" class="node"><title>BlockManager</title>
<polygon fill="none" stroke="black" points="168.5,-196 70.5,-196 70.5,-160 168.5,-160 168.5,-196"/>
<text text-anchor="middle" x="119.5" y="-174.3" font-family="Times New Roman,serif" font-size="14.00">BlockManager</text>
</g>
<!-- BlockGenerator&#45;&gt;BlockManager -->
<g id="edge4" class="edge"><title>BlockGenerator&#45;&gt;BlockManager</title>
<path fill="none" stroke="black" d="M46.7158,-246.575C44.4231,-236.36 43.5566,-223.617 49.5,-214 52.7033,-208.817 56.9323,-204.376 61.7293,-200.576"/>
<polygon fill="black" stroke="black" points="63.9626,-203.289 70.2579,-194.768 60.0224,-197.504 63.9626,-203.289"/>
<text text-anchor="middle" x="109" y="-217.8" font-family="Times New Roman,serif" font-size="14.00">keepPushingBlocks()</text>
</g>
<!-- RDD -->
<g id="node3" class="node"><title>RDD</title>
<polygon fill="none" stroke="black" points="213.5,-283 159.5,-283 159.5,-247 213.5,-247 213.5,-283"/>
<text text-anchor="middle" x="186.5" y="-261.3" font-family="Times New Roman,serif" font-size="14.00">RDD</text>
</g>
<!-- RDD&#45;&gt;BlockManager -->
<g id="edge2" class="edge"><title>RDD&#45;&gt;BlockManager</title>
<path fill="none" stroke="black" d="M184.763,-246.938C183.014,-236.607 179.511,-223.614 172.5,-214 169.412,-209.765 165.643,-205.897 161.554,-202.404"/>
<polygon fill="black" stroke="black" points="163.456,-199.452 153.387,-196.153 159.201,-205.011 163.456,-199.452"/>
</g>
<!-- MemoryStore -->
<g id="node5" class="node"><title>MemoryStore</title>
<polygon fill="none" stroke="black" points="125.5,-109 31.5,-109 31.5,-73 125.5,-73 125.5,-109"/>
<text text-anchor="middle" x="78.5" y="-87.3" font-family="Times New Roman,serif" font-size="14.00">MemoryStore</text>
</g>
<!-- BlockManager&#45;&gt;MemoryStore -->
<g id="edge5" class="edge"><title>BlockManager&#45;&gt;MemoryStore</title>
<path fill="none" stroke="black" d="M70.646,-159.807C63.4149,-155.143 56.92,-149.296 52.5,-142 47.8089,-134.257 49.9059,-125.579 54.4966,-117.654"/>
<polygon fill="black" stroke="black" points="57.3864,-119.628 60.2536,-109.429 51.6517,-115.614 57.3864,-119.628"/>
<text text-anchor="middle" x="113" y="-130.8" font-family="Times New Roman,serif" font-size="14.00">putIteratorAsValues()</text>
</g>
<!-- BlockManagerMaster -->
<g id="node6" class="node"><title>BlockManagerMaster</title>
<polygon fill="none" stroke="black" points="221.5,-36 85.5,-36 85.5,-0 221.5,-0 221.5,-36"/>
<text text-anchor="middle" x="153.5" y="-14.3" font-family="Times New Roman,serif" font-size="14.00">BlockManagerMaster</text>
</g>
<!-- BlockManager&#45;&gt;BlockManagerMaster -->
<g id="edge6" class="edge"><title>BlockManager&#45;&gt;BlockManagerMaster</title>
<path fill="none" stroke="black" d="M156.861,-159.9C163.541,-155.09 169.605,-149.166 173.5,-142 189.99,-111.661 178.144,-71.3406 166.885,-45.2785"/>
<polygon fill="black" stroke="black" points="170.001,-43.6768 162.659,-36.0386 163.635,-46.5883 170.001,-43.6768"/>
<text text-anchor="middle" x="234" y="-87.3" font-family="Times New Roman,serif" font-size="14.00">updateBlockInfo()</text>
</g>
<!-- MemoryStore&#45;&gt;BlockManagerMaster -->
<g id="edge3" class="edge"><title>MemoryStore&#45;&gt;BlockManagerMaster</title>
<path fill="none" stroke="black" d="M96.6554,-72.8129C106.052,-63.9174 117.68,-52.9094 127.967,-43.1717"/>
<polygon fill="black" stroke="black" points="130.656,-45.4454 135.512,-36.0288 125.844,-40.3619 130.656,-45.4454"/>
</g>
<!-- ReceivedBlockTracker -->
<g id="node7" class="node"><title>ReceivedBlockTracker</title>
<polygon fill="none" stroke="black" points="268,-370 123,-370 123,-334 268,-334 268,-370"/>
<text text-anchor="middle" x="195.5" y="-348.3" font-family="Times New Roman,serif" font-size="14.00">ReceivedBlockTracker</text>
</g>
<!-- TestReceiver -->
<g id="node8" class="node"><title>TestReceiver</title>
<polygon fill="none" stroke="black" points="381.5,-283 291.5,-283 291.5,-247 381.5,-247 381.5,-283"/>
<text text-anchor="middle" x="336.5" y="-261.3" font-family="Times New Roman,serif" font-size="14.00">TestReceiver</text>
</g>
<!-- ReceivedBlockTracker&#45;&gt;TestReceiver -->
<g id="edge7" class="edge"><title>ReceivedBlockTracker&#45;&gt;TestReceiver</title>
<path fill="none" stroke="black" d="M224.033,-333.799C245.725,-320.722 275.751,-302.622 299.322,-288.412"/>
<polygon fill="black" stroke="black" points="301.252,-291.336 308.009,-283.175 297.638,-285.341 301.252,-291.336"/>
</g>
<!-- JobGenerator -->
<g id="node9" class="node"><title>JobGenerator</title>
<polygon fill="none" stroke="black" points="591.5,-370 499.5,-370 499.5,-334 591.5,-334 591.5,-370"/>
<text text-anchor="middle" x="545.5" y="-348.3" font-family="Times New Roman,serif" font-size="14.00">JobGenerator</text>
</g>
<!-- DStreamGraph -->
<g id="node10" class="node"><title>DStreamGraph</title>
<polygon fill="none" stroke="black" points="535,-283 434,-283 434,-247 535,-247 535,-283"/>
<text text-anchor="middle" x="484.5" y="-261.3" font-family="Times New Roman,serif" font-size="14.00">DStreamGraph</text>
</g>
<!-- JobGenerator&#45;&gt;DStreamGraph -->
<g id="edge8" class="edge"><title>JobGenerator&#45;&gt;DStreamGraph</title>
<path fill="none" stroke="black" d="M533.156,-333.799C524.474,-321.702 512.707,-305.305 502.919,-291.667"/>
<polygon fill="black" stroke="black" points="505.5,-289.259 496.826,-283.175 499.813,-293.341 505.5,-289.259"/>
</g>
<!-- JobScheduler -->
<g id="node11" class="node"><title>JobScheduler</title>
<polygon fill="none" stroke="black" points="645.5,-283 553.5,-283 553.5,-247 645.5,-247 645.5,-283"/>
<text text-anchor="middle" x="599.5" y="-261.3" font-family="Times New Roman,serif" font-size="14.00">JobScheduler</text>
</g>
<!-- JobGenerator&#45;&gt;JobScheduler -->
<g id="edge9" class="edge"><title>JobGenerator&#45;&gt;JobScheduler</title>
<path fill="none" stroke="black" d="M556.428,-333.799C564.113,-321.702 574.53,-305.305 583.194,-291.667"/>
<polygon fill="black" stroke="black" points="586.18,-293.493 588.589,-283.175 580.272,-289.739 586.18,-293.493"/>
</g>
<!-- ReceiverTracker -->
<g id="node12" class="node"><title>ReceiverTracker</title>
<polygon fill="none" stroke="black" points="762,-370 653,-370 653,-334 762,-334 762,-370"/>
<text text-anchor="middle" x="707.5" y="-348.3" font-family="Times New Roman,serif" font-size="14.00">ReceiverTracker</text>
</g>
<!-- Receiver -->
<g id="node13" class="node"><title>Receiver</title>
<polygon fill="none" stroke="black" points="740,-283 675,-283 675,-247 740,-247 740,-283"/>
<text text-anchor="middle" x="707.5" y="-261.3" font-family="Times New Roman,serif" font-size="14.00">Receiver</text>
</g>
<!-- ReceiverTracker&#45;&gt;Receiver -->
<g id="edge10" class="edge"><title>ReceiverTracker&#45;&gt;Receiver</title>
<path fill="none" stroke="black" d="M707.5,-333.799C707.5,-322.163 707.5,-306.548 707.5,-293.237"/>
<polygon fill="black" stroke="black" points="711,-293.175 707.5,-283.175 704,-293.175 711,-293.175"/>
</g>
<!-- stream0 -->
<g id="node14" class="node"><title>stream0</title>
<polygon fill="none" stroke="black" points="737.5,-196 677.5,-196 677.5,-160 737.5,-160 737.5,-196"/>
<text text-anchor="middle" x="707.5" y="-174.3" font-family="Times New Roman,serif" font-size="14.00">stream0</text>
</g>
<!-- Receiver&#45;&gt;stream0 -->
<g id="edge11" class="edge"><title>Receiver&#45;&gt;stream0</title>
<path fill="none" stroke="black" d="M707.5,-246.799C707.5,-235.163 707.5,-219.548 707.5,-206.237"/>
<polygon fill="black" stroke="black" points="711,-206.175 707.5,-196.175 704,-206.175 711,-206.175"/>
</g>
<!-- ReceiverSupervisorImpl -->
<g id="node15" class="node"><title>ReceiverSupervisorImpl</title>
<polygon fill="none" stroke="black" points="438.5,-370 286.5,-370 286.5,-334 438.5,-334 438.5,-370"/>
<text text-anchor="middle" x="362.5" y="-348.3" font-family="Times New Roman,serif" font-size="14.00">ReceiverSupervisorImpl</text>
</g>
<!-- ReceiverSupervisorImpl&#45;&gt;TestReceiver -->
<g id="edge12" class="edge"><title>ReceiverSupervisorImpl&#45;&gt;TestReceiver</title>
<path fill="none" stroke="black" d="M357.239,-333.799C353.644,-322.047 348.808,-306.238 344.711,-292.842"/>
<polygon fill="black" stroke="black" points="348.026,-291.714 341.754,-283.175 341.332,-293.762 348.026,-291.714"/>
<text text-anchor="middle" x="392.5" y="-304.8" font-family="Times New Roman,serif" font-size="14.00">startReceiver()</text>
</g>
</g>
</svg>
