<?xml version="1.0" encoding="UTF-8" standalone="no"?>
<!DOCTYPE svg PUBLIC "-//W3C//DTD SVG 1.1//EN"
 "http://www.w3.org/Graphics/SVG/1.1/DTD/svg11.dtd">
<!-- Generated by graphviz version 2.38.0 (20140413.2041)
 -->
<!-- Title: foo Pages: 1 -->
<svg width="102pt" height="222pt"
 viewBox="0.00 0.00 101.75 222.00" xmlns="http://www.w3.org/2000/svg" xmlns:xlink="http://www.w3.org/1999/xlink">
<g id="graph0" class="graph" transform="scale(1 1) rotate(0) translate(4 218)">
<title>foo</title>
<polygon fill="white" stroke="none" points="-4,4 -4,-218 97.754,-218 97.754,4 -4,4"/>
<!-- node1 -->
<g id="node1" class="node"><title>node1</title>
<path fill="none" stroke="black" d="M61.877,-214C61.877,-214 31.877,-214 31.877,-214 25.877,-214 19.877,-208 19.877,-202 19.877,-202 19.877,-190 19.877,-190 19.877,-184 25.877,-178 31.877,-178 31.877,-178 61.877,-178 61.877,-178 67.877,-178 73.877,-184 73.877,-190 73.877,-190 73.877,-202 73.877,-202 73.877,-208 67.877,-214 61.877,-214"/>
<text text-anchor="middle" x="46.877" y="-192.3" font-family="Times New Roman,serif" font-size="14.00">node1</text>
</g>
<!-- node2 -->
<g id="node2" class="node"><title>node2</title>
<path fill="yellow" stroke="black" d="M35.6783,-137.689C35.6783,-137.689 11.3214,-128.311 11.3214,-128.311 5.72203,-126.156 5.72203,-121.844 11.3214,-119.689 11.3214,-119.689 35.6783,-110.311 35.6783,-110.311 41.2777,-108.156 52.4764,-108.156 58.0758,-110.311 58.0758,-110.311 82.4326,-119.689 82.4326,-119.689 88.032,-121.844 88.032,-126.156 82.4326,-128.311 82.4326,-128.311 58.0758,-137.689 58.0758,-137.689 52.4764,-139.844 41.2777,-139.844 35.6783,-137.689"/>
<text text-anchor="middle" x="46.877" y="-120.3" font-family="Times New Roman,serif" font-size="14.00">node2</text>
</g>
<!-- node1&#45;&gt;node2 -->
<g id="edge1" class="edge"><title>node1&#45;&gt;node2</title>
<path fill="none" stroke="black" d="M46.877,-177.697C46.877,-169.983 46.877,-160.712 46.877,-152.112"/>
<polygon fill="black" stroke="black" points="50.3771,-152.104 46.877,-142.104 43.3771,-152.104 50.3771,-152.104"/>
</g>
<!-- node3 -->
<g id="node3" class="node"><title>node3</title>
<path fill="none" stroke="black" d="M31.877,-0.5C31.877,-0.5 61.877,-0.5 61.877,-0.5 67.877,-0.5 73.877,-6.5 73.877,-12.5 73.877,-12.5 73.877,-57.5 73.877,-57.5 73.877,-63.5 67.877,-69.5 61.877,-69.5 61.877,-69.5 31.877,-69.5 31.877,-69.5 25.877,-69.5 19.877,-63.5 19.877,-57.5 19.877,-57.5 19.877,-12.5 19.877,-12.5 19.877,-6.5 25.877,-0.5 31.877,-0.5"/>
<text text-anchor="middle" x="46.877" y="-54.3" font-family="Times New Roman,serif" font-size="14.00">a</text>
<polyline fill="none" stroke="black" points="19.877,-46.5 73.877,-46.5 "/>
<text text-anchor="middle" x="46.877" y="-31.3" font-family="Times New Roman,serif" font-size="14.00">ÎûÎû</text>
<polyline fill="none" stroke="black" points="19.877,-23.5 73.877,-23.5 "/>
<text text-anchor="middle" x="46.877" y="-8.3" font-family="Times New Roman,serif" font-size="14.00">c</text>
</g>
<!-- node2&#45;&gt;node3 -->
<g id="edge2" class="edge"><title>node2&#45;&gt;node3</title>
<path fill="none" stroke="black" d="M46.877,-105.812C46.877,-98.3278 46.877,-89.1798 46.877,-80.0019"/>
<polygon fill="black" stroke="black" points="50.3771,-79.7143 46.877,-69.7143 43.3771,-79.7143 50.3771,-79.7143"/>
</g>
</g>
</svg>
