<?xml version="1.0" encoding="UTF-8" standalone="no"?>
<!DOCTYPE svg PUBLIC "-//W3C//DTD SVG 1.1//EN"
 "http://www.w3.org/Graphics/SVG/1.1/DTD/svg11.dtd">
<!-- Generated by graphviz version 2.38.0 (20140413.2041)
 -->
<!-- Title: g Pages: 1 -->
<svg width="2100pt" height="252pt"
 viewBox="0.00 0.00 2100.00 252.00" xmlns="http://www.w3.org/2000/svg" xmlns:xlink="http://www.w3.org/1999/xlink">
<g id="graph0" class="graph" transform="scale(1 1) rotate(0) translate(4 248)">
<title>g</title>
<polygon fill="white" stroke="none" points="-4,4 -4,-248 2096,-248 2096,4 -4,4"/>
<g id="clust1" class="cluster"><title>cluster_1</title>
<polygon fill="none" stroke="blue" points="8,-8 8,-236 438,-236 438,-8 8,-8"/>
<text text-anchor="middle" x="223" y="-220.8" font-family="Times New Roman,serif" font-size="14.00">Thread 14</text>
</g>
<!-- rt -->
<g id="node1" class="node"><title>rt</title>
<polygon fill="none" stroke="black" points="160,-205 16,-205 16,-176 160,-176 160,-205"/>
<text text-anchor="middle" x="88" y="-186.8" font-family="Arial" font-size="14.00">RecurringTimer</text>
</g>
<!-- bg -->
<g id="node2" class="node"><title>bg</title>
<polygon fill="none" stroke="black" points="340,-205 196,-205 196,-176 340,-176 340,-205"/>
<text text-anchor="middle" x="268" y="-186.8" font-family="Arial" font-size="14.00">BlockGenerator</text>
</g>
<!-- rt&#45;&gt;bg -->
<g id="edge1" class="edge"><title>rt&#45;&gt;bg</title>
<path fill="none" stroke="black" d="M160.07,-190.5C168.656,-190.5 177.242,-190.5 185.827,-190.5"/>
<polygon fill="black" stroke="black" points="185.906,-194 195.906,-190.5 185.906,-187 185.906,-194"/>
</g>
<!-- bm -->
<g id="node3" class="node"><title>bm</title>
<polygon fill="none" stroke="black" points="160,-125 16,-125 16,-96 160,-96 160,-125"/>
<text text-anchor="middle" x="88" y="-106.8" font-family="Arial" font-size="14.00">BlockManager</text>
</g>
<!-- bg&#45;&gt;bm -->
<g id="edge2" class="edge"><title>bg&#45;&gt;bm</title>
<path fill="none" stroke="black" d="M236.646,-175.913C206.669,-162.923 161.315,-143.27 128.591,-129.089"/>
<polygon fill="black" stroke="black" points="129.863,-125.826 119.296,-125.061 127.08,-132.249 129.863,-125.826"/>
<text text-anchor="middle" x="253.5" y="-146.8" font-family="Times New Roman,serif" font-size="14.00">keepPushingBlocks()</text>
</g>
<!-- ms -->
<g id="node4" class="node"><title>ms</title>
<polygon fill="none" stroke="black" points="160,-45 16,-45 16,-16 160,-16 160,-45"/>
<text text-anchor="middle" x="88" y="-26.8" font-family="Arial" font-size="14.00">MemoryStore</text>
</g>
<!-- bm&#45;&gt;ms -->
<g id="edge3" class="edge"><title>bm&#45;&gt;ms</title>
<path fill="none" stroke="black" d="M88,-95.9134C88,-84.797 88,-68.8013 88,-55.5313"/>
<polygon fill="black" stroke="black" points="91.5001,-55.1925 88,-45.1926 84.5001,-55.1926 91.5001,-55.1925"/>
<text text-anchor="middle" x="148.5" y="-66.8" font-family="Times New Roman,serif" font-size="14.00">putIteratorAsValues()</text>
</g>
<!-- bmm -->
<g id="node5" class="node"><title>bmm</title>
<polygon fill="none" stroke="black" points="429.5,-125 280.5,-125 280.5,-96 429.5,-96 429.5,-125"/>
<text text-anchor="middle" x="355" y="-106.8" font-family="Arial" font-size="14.00">BlockManagerMaster</text>
</g>
<!-- bm&#45;&gt;bmm -->
<g id="edge4" class="edge"><title>bm&#45;&gt;bmm</title>
<path fill="none" stroke="black" d="M160.254,-110.5C194.13,-110.5 234.723,-110.5 270.061,-110.5"/>
<polygon fill="black" stroke="black" points="270.361,-114 280.361,-110.5 270.361,-107 270.361,-114"/>
<text text-anchor="middle" x="220.25" y="-117.3" font-family="Times New Roman,serif" font-size="14.00">updateBlockInfo()</text>
</g>
<!-- rbt -->
<g id="node6" class="node"><title>rbt</title>
<polygon fill="none" stroke="black" points="607.5,-205 446.5,-205 446.5,-176 607.5,-176 607.5,-205"/>
<text text-anchor="middle" x="527" y="-186.8" font-family="Arial" font-size="14.00">ReceivedBlockTracker</text>
</g>
<!-- tr -->
<g id="node7" class="node"><title>tr</title>
<polygon fill="none" stroke="black" points="770,-205 626,-205 626,-176 770,-176 770,-205"/>
<text text-anchor="middle" x="698" y="-186.8" font-family="Arial" font-size="14.00">TestReceiver</text>
</g>
<!-- r -->
<g id="node8" class="node"><title>r</title>
<polygon fill="none" stroke="black" points="932,-205 788,-205 788,-176 932,-176 932,-205"/>
<text text-anchor="middle" x="860" y="-186.8" font-family="Arial" font-size="14.00">Receiver</text>
</g>
<!-- jg -->
<g id="node9" class="node"><title>jg</title>
<polygon fill="none" stroke="black" points="1094,-205 950,-205 950,-176 1094,-176 1094,-205"/>
<text text-anchor="middle" x="1022" y="-186.8" font-family="Arial" font-size="14.00">JobGenerator</text>
</g>
<!-- dg -->
<g id="node10" class="node"><title>dg</title>
<polygon fill="none" stroke="black" points="1256,-205 1112,-205 1112,-176 1256,-176 1256,-205"/>
<text text-anchor="middle" x="1184" y="-186.8" font-family="Arial" font-size="14.00">DStreamGraph</text>
</g>
<!-- js -->
<g id="node11" class="node"><title>js</title>
<polygon fill="none" stroke="black" points="1418,-205 1274,-205 1274,-176 1418,-176 1418,-205"/>
<text text-anchor="middle" x="1346" y="-186.8" font-family="Arial" font-size="14.00">JobScheduler</text>
</g>
<!-- rsi -->
<g id="node12" class="node"><title>rsi</title>
<polygon fill="none" stroke="black" points="1606,-205 1436,-205 1436,-176 1606,-176 1606,-205"/>
<text text-anchor="middle" x="1521" y="-186.8" font-family="Arial" font-size="14.00">ReceiverSupervisorImpl</text>
</g>
<!-- s0 -->
<g id="node13" class="node"><title>s0</title>
<polygon fill="none" stroke="black" points="1768,-205 1624,-205 1624,-176 1768,-176 1768,-205"/>
<text text-anchor="middle" x="1696" y="-186.8" font-family="Arial" font-size="14.00">Stream 0</text>
</g>
<!-- rtracker -->
<g id="node14" class="node"><title>rtracker</title>
<polygon fill="none" stroke="black" points="1930,-205 1786,-205 1786,-176 1930,-176 1930,-205"/>
<text text-anchor="middle" x="1858" y="-186.8" font-family="Arial" font-size="14.00">ReceiverTracker</text>
</g>
<!-- rdd -->
<g id="node15" class="node"><title>rdd</title>
<polygon fill="none" stroke="black" points="2092,-205 1948,-205 1948,-176 2092,-176 2092,-205"/>
<text text-anchor="middle" x="2020" y="-186.8" font-family="Arial" font-size="14.00">RDD</text>
</g>
</g>
</svg>
