<?xml version="1.0" encoding="UTF-8" standalone="no"?>
<!DOCTYPE svg PUBLIC "-//W3C//DTD SVG 1.1//EN"
 "http://www.w3.org/Graphics/SVG/1.1/DTD/svg11.dtd">
<!-- Generated by graphviz version 2.38.0 (20140413.2041)
 -->
<!-- Title: g Pages: 1 -->
<svg width="1946pt" height="449pt"
 viewBox="0.00 0.00 1945.60 449.40" xmlns="http://www.w3.org/2000/svg" xmlns:xlink="http://www.w3.org/1999/xlink">
<g id="graph0" class="graph" transform="scale(1 1) rotate(0) translate(4 445.4)">
<title>g</title>
<polygon fill="white" stroke="none" points="-4,4 -4,-445.4 1941.6,-445.4 1941.6,4 -4,4"/>
<!-- ssc -->
<g id="node1" class="node"><title>ssc</title>
<polygon fill="none" stroke="black" points="154,-441.4 10,-441.4 10,-412.4 154,-412.4 154,-441.4"/>
<text text-anchor="middle" x="82" y="-423.2" font-family="Arial" font-size="14.00">StreamingContext</text>
</g>
<!-- js -->
<g id="node12" class="node"><title>js</title>
<polygon fill="none" stroke="black" points="424,-441.4 280,-441.4 280,-412.4 424,-412.4 424,-441.4"/>
<text text-anchor="middle" x="352" y="-423.2" font-family="Arial" font-size="14.00">JobScheduler</text>
</g>
<!-- ssc&#45;&gt;js -->
<g id="edge1" class="edge"><title>ssc&#45;&gt;js</title>
<path fill="none" stroke="black" d="M154,-426C154,-426 269.732,-426 269.732,-426"/>
<polygon fill="black" stroke="black" points="269.732,-429.5 279.732,-426 269.732,-422.5 269.732,-429.5"/>
<text text-anchor="middle" x="211.866" y="-414.8" font-family="Times New Roman,serif" font-size="14.00">JobScheduler#start</text>
</g>
<!-- slb -->
<g id="node18" class="node"><title>slb</title>
<polygon fill="none" stroke="black" points="188.5,-363.4 31.5,-363.4 31.5,-334.4 188.5,-334.4 188.5,-363.4"/>
<text text-anchor="middle" x="110" y="-345.2" font-family="Arial" font-size="14.00">StreamingListenerBus</text>
</g>
<!-- ssc&#45;&gt;slb -->
<g id="edge2" class="edge"><title>ssc&#45;&gt;slb</title>
<path fill="none" stroke="black" d="M92.75,-412.229C92.75,-412.229 92.75,-373.505 92.75,-373.505"/>
<polygon fill="black" stroke="black" points="96.2501,-373.505 92.75,-363.505 89.2501,-373.505 96.2501,-373.505"/>
</g>
<!-- rt -->
<g id="node2" class="node"><title>rt</title>
<polygon fill="none" stroke="black" points="764,-257.4 620,-257.4 620,-228.4 764,-228.4 764,-257.4"/>
<text text-anchor="middle" x="692" y="-239.2" font-family="Arial" font-size="14.00">RecurringTimer</text>
</g>
<!-- m7 -->
<g id="node37" class="node"><title>m7</title>
<ellipse fill="darkorange" stroke="black" cx="704" cy="-193.8" rx="3.6" ry="3.6"/>
</g>
<!-- rt&#45;&gt;m7 -->
<g id="edge26" class="edge"><title>rt&#45;&gt;m7</title>
<path fill="none" stroke="black" d="M704,-218.168C704,-218.168 704,-197.538 704,-197.538"/>
<polygon fill="black" stroke="black" points="700.5,-218.168 704,-228.168 707.5,-218.168 700.5,-218.168"/>
<text text-anchor="middle" x="759.5" y="-209.2" font-family="Times New Roman,serif" font-size="14.00">RecurringTimer#start#59</text>
</g>
<!-- m8 -->
<g id="node39" class="node"><title>m8</title>
<ellipse fill="darkorange" stroke="black" cx="828" cy="-242.9" rx="3.6" ry="3.6"/>
</g>
<!-- rt&#45;&gt;m8 -->
<g id="edge27" class="edge"><title>rt&#45;&gt;m8</title>
<path fill="none" stroke="black" d="M764.38,-242C790.262,-242 815.294,-242 824.395,-242"/>
<text text-anchor="middle" x="794.388" y="-230.8" font-family="Times New Roman,serif" font-size="14.00">loop#103</text>
</g>
<!-- bg -->
<g id="node3" class="node"><title>bg</title>
<polygon fill="none" stroke="black" points="795,-159.2 651,-159.2 651,-130.2 795,-130.2 795,-159.2"/>
<text text-anchor="middle" x="723" y="-141" font-family="Arial" font-size="14.00">BlockGenerator</text>
</g>
<!-- p11 -->
<g id="node31" class="node"><title>p11</title>
</g>
<!-- bg&#45;&gt;p11 -->
<g id="edge29" class="edge"><title>bg&#45;&gt;p11</title>
<path fill="none" stroke="black" d="M805.144,-144C805.144,-144 832.95,-144 832.95,-144"/>
<polygon fill="black" stroke="black" points="805.144,-140.5 795.144,-144 805.144,-147.5 805.144,-140.5"/>
</g>
<!-- m11 -->
<g id="node41" class="node"><title>m11</title>
<ellipse fill="darkorange" stroke="black" cx="719" cy="-91.7" rx="3.6" ry="3.6"/>
</g>
<!-- bg&#45;&gt;m11 -->
<g id="edge31" class="edge"><title>bg&#45;&gt;m11</title>
<path fill="none" stroke="black" d="M719,-129.937C719,-118.175 719,-102.548 719,-95.4691"/>
<text text-anchor="middle" x="812.5" y="-111" font-family="Times New Roman,serif" font-size="14.00">blockPushingThread.start()#120</text>
</g>
<!-- bm -->
<g id="node4" class="node"><title>bm</title>
<polygon fill="none" stroke="black" points="586,-441.4 442,-441.4 442,-412.4 586,-412.4 586,-441.4"/>
<text text-anchor="middle" x="514" y="-423.2" font-family="Arial" font-size="14.00">BlockManager</text>
</g>
<!-- ms -->
<g id="node5" class="node"><title>ms</title>
<polygon fill="none" stroke="black" points="748,-441.4 604,-441.4 604,-412.4 748,-412.4 748,-441.4"/>
<text text-anchor="middle" x="676" y="-423.2" font-family="Arial" font-size="14.00">MemoryStore</text>
</g>
<!-- bmm -->
<g id="node6" class="node"><title>bmm</title>
<polygon fill="none" stroke="black" points="915.5,-441.4 766.5,-441.4 766.5,-412.4 915.5,-412.4 915.5,-441.4"/>
<text text-anchor="middle" x="841" y="-423.2" font-family="Arial" font-size="14.00">BlockManagerMaster</text>
</g>
<!-- rbt -->
<g id="node7" class="node"><title>rbt</title>
<polygon fill="none" stroke="black" points="1094.5,-441.4 933.5,-441.4 933.5,-412.4 1094.5,-412.4 1094.5,-441.4"/>
<text text-anchor="middle" x="1014" y="-423.2" font-family="Arial" font-size="14.00">ReceivedBlockTracker</text>
</g>
<!-- tr -->
<g id="node8" class="node"><title>tr</title>
<polygon fill="none" stroke="black" points="375,-53.2 231,-53.2 231,-24.2 375,-24.2 375,-53.2"/>
<text text-anchor="middle" x="303" y="-35" font-family="Arial" font-size="14.00">TestReceiver</text>
</g>
<!-- r -->
<g id="node9" class="node"><title>r</title>
<polygon fill="none" stroke="black" points="555,-53.2 411,-53.2 411,-24.2 555,-24.2 555,-53.2"/>
<text text-anchor="middle" x="483" y="-35" font-family="Arial" font-size="14.00">Receiver</text>
</g>
<!-- tr&#45;&gt;r -->
<g id="edge22" class="edge"><title>tr&#45;&gt;r</title>
<path fill="none" stroke="black" d="M375.176,-38C375.176,-38 400.808,-38 400.808,-38"/>
<polygon fill="black" stroke="black" points="400.808,-41.5001 410.808,-38 400.808,-34.5001 400.808,-41.5001"/>
<text text-anchor="middle" x="382.808" y="-26.8" font-family="Times New Roman,serif" font-size="14.00">store#118</text>
</g>
<!-- rsi -->
<g id="node13" class="node"><title>rsi</title>
<polygon fill="none" stroke="black" points="558,-159.2 388,-159.2 388,-130.2 558,-130.2 558,-159.2"/>
<text text-anchor="middle" x="473" y="-141" font-family="Arial" font-size="14.00">ReceiverSupervisorImpl</text>
</g>
<!-- r&#45;&gt;rsi -->
<g id="edge23" class="edge"><title>r&#45;&gt;rsi</title>
<path fill="none" stroke="black" d="M483,-53.4388C483,-53.4388 483,-120.086 483,-120.086"/>
<polygon fill="black" stroke="black" points="479.5,-120.086 483,-130.086 486.5,-120.086 479.5,-120.086"/>
<text text-anchor="middle" x="518.5" y="-88" font-family="Times New Roman,serif" font-size="14.00">pushSingle#119</text>
</g>
<!-- jg -->
<g id="node10" class="node"><title>jg</title>
<polygon fill="none" stroke="black" points="401,-363.4 257,-363.4 257,-334.4 401,-334.4 401,-363.4"/>
<text text-anchor="middle" x="329" y="-345.2" font-family="Arial" font-size="14.00">JobGenerator</text>
</g>
<!-- dg -->
<g id="node11" class="node"><title>dg</title>
<polygon fill="none" stroke="black" points="1257,-441.4 1113,-441.4 1113,-412.4 1257,-412.4 1257,-441.4"/>
<text text-anchor="middle" x="1185" y="-423.2" font-family="Arial" font-size="14.00">DStreamGraph</text>
</g>
<!-- p1 -->
<g id="node21" class="node"><title>p1</title>
</g>
<!-- js&#45;&gt;p1 -->
<g id="edge3" class="edge"><title>js&#45;&gt;p1</title>
<path fill="none" stroke="black" d="M342,-412.398C342,-405.519 342,-398.267 342,-395.789"/>
</g>
<!-- rsi&#45;&gt;bg -->
<g id="edge24" class="edge"><title>rsi&#45;&gt;bg</title>
<path fill="none" stroke="black" d="M558.337,-144C558.337,-144 640.945,-144 640.945,-144"/>
<polygon fill="black" stroke="black" points="640.945,-147.5 650.945,-144 640.945,-140.5 640.945,-147.5"/>
<text text-anchor="middle" x="599.641" y="-132.8" font-family="Times New Roman,serif" font-size="14.00">addData#161</text>
</g>
<!-- rs -->
<g id="node14" class="node"><title>rs</title>
<polygon fill="none" stroke="black" points="144,-53.2 0,-53.2 0,-24.2 144,-24.2 144,-53.2"/>
<text text-anchor="middle" x="72" y="-35" font-family="Arial" font-size="14.00">ReceiverSupervisor</text>
</g>
<!-- rs&#45;&gt;tr -->
<g id="edge21" class="edge"><title>rs&#45;&gt;tr</title>
<path fill="none" stroke="black" d="M144.14,-33C144.14,-33 220.613,-33 220.613,-33"/>
<polygon fill="black" stroke="black" points="220.613,-36.5001 230.613,-33 220.613,-29.5001 220.613,-36.5001"/>
<text text-anchor="middle" x="182.376" y="-21.8" font-family="Times New Roman,serif" font-size="14.00">onStart#880</text>
</g>
<!-- s0 -->
<g id="node15" class="node"><title>s0</title>
<polygon fill="none" stroke="black" points="1419,-441.4 1275,-441.4 1275,-412.4 1419,-412.4 1419,-441.4"/>
<text text-anchor="middle" x="1347" y="-423.2" font-family="Arial" font-size="14.00">Stream 0</text>
</g>
<!-- rtracker -->
<g id="node16" class="node"><title>rtracker</title>
<polygon fill="none" stroke="black" points="563,-363.4 419,-363.4 419,-334.4 563,-334.4 563,-363.4"/>
<text text-anchor="middle" x="491" y="-345.2" font-family="Arial" font-size="14.00">ReceiverTracker</text>
</g>
<!-- m1 -->
<g id="node32" class="node"><title>m1</title>
<ellipse fill="darkorange" stroke="black" cx="473" cy="-281.9" rx="3.6" ry="3.6"/>
</g>
<!-- rtracker&#45;&gt;m1 -->
<g id="edge13" class="edge"><title>rtracker&#45;&gt;m1</title>
<path fill="none" stroke="black" d="M473,-334.362C473,-318.659 473,-294.669 473,-285.571"/>
<text text-anchor="middle" x="532.5" y="-308.2" font-family="Times New Roman,serif" font-size="14.00">launchReceivers#160</text>
</g>
<!-- rdd -->
<g id="node17" class="node"><title>rdd</title>
<polygon fill="none" stroke="black" points="1581,-441.4 1437,-441.4 1437,-412.4 1581,-412.4 1581,-441.4"/>
<text text-anchor="middle" x="1509" y="-423.2" font-family="Arial" font-size="14.00">RDD</text>
</g>
<!-- elj -->
<g id="node19" class="node"><title>elj</title>
<polygon fill="none" stroke="black" points="1817,-441.4 1599,-441.4 1599,-412.4 1817,-412.4 1817,-441.4"/>
<text text-anchor="middle" x="1708" y="-423.2" font-family="Arial" font-size="14.00">EventLoop[JobSchedulerEvent]</text>
</g>
<!-- eam -->
<g id="node20" class="node"><title>eam</title>
<polygon fill="none" stroke="black" points="786.5,-326.4 597.5,-326.4 597.5,-297.4 786.5,-297.4 786.5,-326.4"/>
<text text-anchor="middle" x="692" y="-308.2" font-family="Arial" font-size="14.00">ExecutorAllocationManager</text>
</g>
<!-- eam&#45;&gt;rt -->
<g id="edge12" class="edge"><title>eam&#45;&gt;rt</title>
<path fill="none" stroke="black" d="M692,-297.267C692,-297.267 692,-267.512 692,-267.512"/>
<polygon fill="black" stroke="black" points="695.5,-267.512 692,-257.512 688.5,-267.512 695.5,-267.512"/>
<text text-anchor="middle" x="752" y="-278.2" font-family="Times New Roman,serif" font-size="14.00">RecurringTimer#start</text>
</g>
<!-- p1&#45;&gt;jg -->
<g id="edge8" class="edge"><title>p1&#45;&gt;jg</title>
<path fill="none" stroke="black" d="M342,-394.383C342,-394.383 342,-373.835 342,-373.835"/>
<polygon fill="none" stroke="black" points="345.5,-373.835 342,-363.835 338.5,-373.835 345.5,-373.835"/>
<text text-anchor="middle" x="384.5" y="-375.2" font-family="Times New Roman,serif" font-size="14.00">jobGenerator.start()</text>
</g>
<!-- p3 -->
<g id="node23" class="node"><title>p3</title>
</g>
<!-- p1&#45;&gt;p3 -->
<g id="edge5" class="edge"><title>p1&#45;&gt;p3</title>
<path fill="none" stroke="black" d="M342.108,-394C346.549,-394 486.522,-394 490.895,-394"/>
</g>
<!-- p2 -->
<g id="node22" class="node"><title>p2</title>
</g>
<!-- p2&#45;&gt;slb -->
<g id="edge10" class="edge"><title>p2&#45;&gt;slb</title>
<path fill="none" stroke="black" d="M234,-394.373C234,-389.221 234,-348 234,-348 234,-348 198.531,-348 198.531,-348"/>
<polygon fill="none" stroke="black" points="198.531,-344.5 188.531,-348 198.531,-351.5 198.531,-344.5"/>
<text text-anchor="middle" x="212" y="-375.2" font-family="Times New Roman,serif" font-size="14.00">listenerBus.start()</text>
</g>
<!-- p2&#45;&gt;p1 -->
<g id="edge4" class="edge"><title>p2&#45;&gt;p1</title>
<path fill="none" stroke="black" d="M234.078,-394C237.298,-394 338.754,-394 341.924,-394"/>
</g>
<!-- p3&#45;&gt;rtracker -->
<g id="edge11" class="edge"><title>p3&#45;&gt;rtracker</title>
<path fill="none" stroke="black" d="M491,-394.383C491,-394.383 491,-373.835 491,-373.835"/>
<polygon fill="none" stroke="black" points="494.5,-373.835 491,-363.835 487.5,-373.835 494.5,-373.835"/>
<text text-anchor="middle" x="553" y="-375.2" font-family="Times New Roman,serif" font-size="14.00">receiverTracker.start()</text>
</g>
<!-- p4 -->
<g id="node24" class="node"><title>p4</title>
</g>
<!-- p3&#45;&gt;p4 -->
<g id="edge6" class="edge"><title>p3&#45;&gt;p4</title>
<path fill="none" stroke="black" d="M491.059,-394C493.504,-394 570.536,-394 572.942,-394"/>
</g>
<!-- p10 -->
<g id="node30" class="node"><title>p10</title>
</g>
<!-- p4&#45;&gt;p10 -->
<g id="edge7" class="edge"><title>p4&#45;&gt;p10</title>
<path fill="none" stroke="black" d="M573.043,-394C574.804,-394 629.421,-394 632.833,-394"/>
</g>
<!-- p5 -->
<g id="node25" class="node"><title>p5</title>
</g>
<!-- p6 -->
<g id="node26" class="node"><title>p6</title>
</g>
<!-- p7 -->
<g id="node27" class="node"><title>p7</title>
</g>
<!-- p8 -->
<g id="node28" class="node"><title>p8</title>
</g>
<!-- p9 -->
<g id="node29" class="node"><title>p9</title>
</g>
<!-- p10&#45;&gt;eam -->
<g id="edge9" class="edge"><title>p10&#45;&gt;eam</title>
<path fill="none" stroke="black" d="M633,-394.37C633,-394.37 633,-336.595 633,-336.595"/>
<polygon fill="none" stroke="black" points="636.5,-336.595 633,-326.595 629.5,-336.595 636.5,-336.595"/>
<text text-anchor="middle" x="782.5" y="-375.2" font-family="Times New Roman,serif" font-size="14.00">executorAllocationManager.foreach(_.start())</text>
</g>
<!-- m2 -->
<g id="node33" class="node"><title>m2</title>
<ellipse fill="darkorange" stroke="black" cx="473" cy="-242.9" rx="3.6" ry="3.6"/>
</g>
<!-- m1&#45;&gt;m2 -->
<g id="edge14" class="edge"><title>m1&#45;&gt;m2</title>
<path fill="none" stroke="black" d="M473,-278.018C473,-270.465 473,-253.892 473,-246.538"/>
<text text-anchor="middle" x="337.5" y="-266.078" font-family="Times New Roman,serif" font-size="14.00">endpoint.send(StartAllReceivers(receivers))#453</text>
</g>
<!-- m3 -->
<g id="node34" class="node"><title>m3</title>
<ellipse fill="darkorange" stroke="black" cx="473" cy="-193.8" rx="3.6" ry="3.6"/>
</g>
<!-- m2&#45;&gt;m3 -->
<g id="edge15" class="edge"><title>m2&#45;&gt;m3</title>
<path fill="none" stroke="black" d="M473,-239.047C473,-229.823 473,-206.568 473,-197.501"/>
<text text-anchor="middle" x="365.5" y="-222.074" font-family="Times New Roman,serif" font-size="14.00">startReceiver(receiver, executors)#484</text>
</g>
<!-- m3&#45;&gt;rsi -->
<g id="edge16" class="edge"><title>m3&#45;&gt;rsi</title>
<path fill="none" stroke="black" d="M473,-189.947C473,-189.947 473,-169.365 473,-169.365"/>
<polygon fill="black" stroke="black" points="476.5,-169.365 473,-159.365 469.5,-169.365 476.5,-169.365"/>
<text text-anchor="middle" x="530.5" y="-171" font-family="Times New Roman,serif" font-size="14.00">supervisor.start#607</text>
</g>
<!-- m4 -->
<g id="node35" class="node"><title>m4</title>
<ellipse fill="darkorange" stroke="black" cx="298" cy="-144.7" rx="3.6" ry="3.6"/>
</g>
<!-- m4&#45;&gt;bg -->
<g id="edge18" class="edge"><title>m4&#45;&gt;bg</title>
<path fill="none" stroke="black" d="M299.2,-141.201C299.2,-132.765 299.2,-112 299.2,-112 299.2,-112 659.2,-112 659.2,-112 659.2,-112 659.2,-119.881 659.2,-119.881"/>
<polygon fill="black" stroke="black" points="655.7,-119.881 659.2,-129.881 662.7,-119.881 655.7,-119.881"/>
<text text-anchor="middle" x="394.54" y="-115.8" font-family="Times New Roman,serif" font-size="14.00">BlockGenerator#start#174</text>
</g>
<!-- m4&#45;&gt;rsi -->
<g id="edge17" class="edge"><title>m4&#45;&gt;rsi</title>
<path fill="none" stroke="black" d="M311.655,-144C311.655,-144 387.875,-144 387.875,-144"/>
<polygon fill="black" stroke="black" points="311.655,-140.5 301.655,-144 311.655,-147.5 311.655,-140.5"/>
<text text-anchor="middle" x="349.765" y="-132.8" font-family="Times New Roman,serif" font-size="14.00">onStart#173</text>
</g>
<!-- m5 -->
<g id="node36" class="node"><title>m5</title>
<ellipse fill="darkorange" stroke="black" cx="153" cy="-91.7" rx="3.6" ry="3.6"/>
</g>
<!-- m4&#45;&gt;m5 -->
<g id="edge19" class="edge"><title>m4&#45;&gt;m5</title>
<path fill="none" stroke="black" d="M296.8,-141.177C296.8,-129.23 296.8,-91 296.8,-91 296.8,-91 178.699,-91 156.555,-91"/>
<text text-anchor="middle" x="302.266" y="-94.8" font-family="Times New Roman,serif" font-size="14.00">startReceiver#144</text>
</g>
<!-- m5&#45;&gt;rs -->
<g id="edge20" class="edge"><title>m5&#45;&gt;rs</title>
<path fill="none" stroke="black" d="M153,-87.8786C153,-76.398 153,-43 153,-43 153,-43 152.102,-43 152.102,-43"/>
<polygon fill="black" stroke="black" points="154.022,-39.5001 144.022,-43 154.022,-46.5001 154.022,-39.5001"/>
<text text-anchor="middle" x="149.5" y="-65" font-family="Times New Roman,serif" font-size="14.00">startReceiver#144</text>
</g>
<!-- m7&#45;&gt;bg -->
<g id="edge25" class="edge"><title>m7&#45;&gt;bg</title>
<path fill="none" stroke="black" d="M704,-189.947C704,-183.436 704,-169.934 704,-159.365"/>
<text text-anchor="middle" x="746.75" y="-163.456" font-family="Times New Roman,serif" font-size="14.00">blockIntervalTimer.start()#119</text>
</g>
<!-- m10 -->
<g id="node38" class="node"><title>m10</title>
<ellipse fill="darkorange" stroke="black" cx="1934" cy="-426.9" rx="3.6" ry="3.6"/>
</g>
<!-- m9 -->
<g id="node40" class="node"><title>m9</title>
<ellipse fill="darkorange" stroke="black" cx="841" cy="-193.8" rx="3.6" ry="3.6"/>
</g>
<!-- m8&#45;&gt;m9 -->
<g id="edge28" class="edge"><title>m8&#45;&gt;m9</title>
<path fill="none" stroke="black" d="M828,-238.984C828,-227.221 828,-193 828,-193 828,-193 833.599,-193 837.448,-193"/>
<text text-anchor="middle" x="947.5" y="-209.2" font-family="Times New Roman,serif" font-size="14.00">triggerActionForNextInterval#103</text>
</g>
<!-- m9&#45;&gt;p11 -->
<g id="edge30" class="edge"><title>m9&#45;&gt;p11</title>
<path fill="none" stroke="black" d="M841,-189.892C841,-178.152 841,-144 841,-144 841,-144 833.969,-144 833.09,-144"/>
<text text-anchor="middle" x="954.5" y="-171" font-family="Times New Roman,serif" font-size="14.00">BlockGenerator#updateCurrentBuffer#233</text>
</g>
<!-- m12 -->
<g id="node42" class="node"><title>m12</title>
<ellipse fill="darkorange" stroke="black" cx="671" cy="-38.7" rx="3.6" ry="3.6"/>
</g>
<!-- m11&#45;&gt;m12 -->
<g id="edge32" class="edge"><title>m11&#45;&gt;m12</title>
<path fill="none" stroke="black" d="M719,-87.838C719,-75.5251 719,-38 719,-38 719,-38 686.082,-38 674.766,-38"/>
<text text-anchor="middle" x="792.5" y="-44.6023" font-family="Times New Roman,serif" font-size="14.00">keepPushingBlocks()#258</text>
</g>
<!-- m13 -->
<g id="node43" class="node"><title>m13</title>
<ellipse fill="darkorange" stroke="black" cx="618" cy="-3.6" rx="3.6" ry="3.6"/>
</g>
<!-- m12&#45;&gt;m13 -->
<g id="edge33" class="edge"><title>m12&#45;&gt;m13</title>
<path fill="none" stroke="black" d="M671,-34.8795C671,-25.6698 671,-3 671,-3 671,-3 633.964,-3 621.812,-3"/>
<text text-anchor="middle" x="710.846" y="-6.8" font-family="Times New Roman,serif" font-size="14.00">pushBlock()#296</text>
</g>
<!-- m13&#45;&gt;rsi -->
<g id="edge34" class="edge"><title>m13&#45;&gt;rsi</title>
<path fill="none" stroke="black" d="M614.208,-3C585.193,-3 399.5,-3 399.5,-3 399.5,-3 399.5,-120.069 399.5,-120.069"/>
<polygon fill="black" stroke="black" points="396,-120.069 399.5,-130.069 403,-120.069 396,-120.069"/>
<text text-anchor="middle" x="648" y="-65" font-family="Times New Roman,serif" font-size="14.00">onPushBlock()#109</text>
</g>
</g>
</svg>
