<?xml version="1.0" encoding="UTF-8" standalone="no"?>
<!DOCTYPE svg PUBLIC "-//W3C//DTD SVG 1.1//EN"
 "http://www.w3.org/Graphics/SVG/1.1/DTD/svg11.dtd">
<!-- Generated by graphviz version 2.38.0 (20140413.2041)
 -->
<!-- Title: %3 Pages: 1 -->
<svg width="999pt" height="994pt"
 viewBox="0.00 0.00 999.00 994.00" xmlns="http://www.w3.org/2000/svg" xmlns:xlink="http://www.w3.org/1999/xlink">
<g id="graph0" class="graph" transform="scale(1 1) rotate(0) translate(4 990)">
<title>%3</title>
<polygon fill="white" stroke="none" points="-4,4 -4,-990 995,-990 995,4 -4,4"/>
<text text-anchor="start" x="8" y="-971.6" font-family="Times New Roman,serif" font-size="13.00">定界定位表关系</text>
<!-- F_V_BXDR_PROV_H -->
<g id="node1" class="node"><title>F_V_BXDR_PROV_H</title>
<polygon fill="#c4c4c4" stroke="none" points="55.5,-668.5 55.5,-691.5 187.5,-691.5 187.5,-668.5 55.5,-668.5"/>
<polygon fill="none" stroke="black" points="55.5,-668 55.5,-691 187.5,-691 187.5,-668 55.5,-668"/>
<text text-anchor="start" x="60.5" y="-677.4" font-family="Helvetica,sans-Serif" font-weight="bold" font-size="12.00">F_V_BXDR_PROV_H</text>
</g>
<!-- FAULT_LOCATING_SUM_SUMMARY -->
<g id="node2" class="node"><title>FAULT_LOCATING_SUM_SUMMARY</title>
<polygon fill="#bbffff" stroke="none" points="367,-592.5 367,-615.5 588,-615.5 588,-592.5 367,-592.5"/>
<polygon fill="none" stroke="black" points="367.5,-592 367.5,-615 588.5,-615 588.5,-592 367.5,-592"/>
<text text-anchor="start" x="372.5" y="-601.4" font-family="Helvetica,sans-Serif" font-weight="bold" font-size="12.00">FAULT_LOCATING_SUM_SUMMARY</text>
</g>
<!-- F_V_BXDR_PROV_H&#45;&#45;FAULT_LOCATING_SUM_SUMMARY -->
<g id="edge1" class="edge"><title>F_V_BXDR_PROV_H&#45;&#45;FAULT_LOCATING_SUM_SUMMARY</title>
<path fill="none" stroke="#7f7f7f" stroke-dasharray="5,2" d="M195.849,-664.253C253.06,-651.97 332.578,-634.898 392.37,-622.062"/>
<text text-anchor="start" x="385.37" y="-625.862" font-family="Times New Roman,serif" font-size="14.00">1</text>
<text text-anchor="start" x="195.849" y="-653.053" font-family="Times New Roman,serif" font-size="14.00">1</text>
</g>
<!-- FAULT_LOCATING_TERMINAL_SUMMARY -->
<g id="node3" class="node"><title>FAULT_LOCATING_TERMINAL_SUMMARY</title>
<polygon fill="#bbffff" stroke="none" points="349,-664.5 349,-687.5 606,-687.5 606,-664.5 349,-664.5"/>
<polygon fill="none" stroke="black" points="349.5,-664 349.5,-687 606.5,-687 606.5,-664 349.5,-664"/>
<text text-anchor="start" x="354.5" y="-673.4" font-family="Helvetica,sans-Serif" font-weight="bold" font-size="12.00">FAULT_LOCATING_TERMINAL_SUMMARY</text>
</g>
<!-- F_V_BXDR_PROV_H&#45;&#45;FAULT_LOCATING_TERMINAL_SUMMARY -->
<g id="edge2" class="edge"><title>F_V_BXDR_PROV_H&#45;&#45;FAULT_LOCATING_TERMINAL_SUMMARY</title>
<path fill="none" stroke="#7f7f7f" stroke-dasharray="5,2" d="M195.849,-679.171C237.669,-678.699 291.408,-678.091 340.649,-677.535"/>
<text text-anchor="start" x="333.649" y="-666.335" font-family="Times New Roman,serif" font-size="14.00">1</text>
<text text-anchor="start" x="195.849" y="-667.971" font-family="Times New Roman,serif" font-size="14.00">1</text>
</g>
<!-- FAULT_LOCATING_USER_SUMMARY -->
<g id="node4" class="node"><title>FAULT_LOCATING_USER_SUMMARY</title>
<polygon fill="#bbffff" stroke="none" points="363,-718.5 363,-741.5 592,-741.5 592,-718.5 363,-718.5"/>
<polygon fill="none" stroke="black" points="363.5,-718 363.5,-741 592.5,-741 592.5,-718 363.5,-718"/>
<text text-anchor="start" x="368.5" y="-727.4" font-family="Helvetica,sans-Serif" font-weight="bold" font-size="12.00">FAULT_LOCATING_USER_SUMMARY</text>
</g>
<!-- F_V_BXDR_PROV_H&#45;&#45;FAULT_LOCATING_USER_SUMMARY -->
<g id="edge3" class="edge"><title>F_V_BXDR_PROV_H&#45;&#45;FAULT_LOCATING_USER_SUMMARY</title>
<path fill="none" stroke="#7f7f7f" stroke-dasharray="5,2" d="M195.849,-690.36C241.719,-696.839 301.929,-705.343 354.815,-712.813"/>
<text text-anchor="start" x="347.815" y="-701.613" font-family="Times New Roman,serif" font-size="14.00">1</text>
<text text-anchor="start" x="195.849" y="-694.16" font-family="Times New Roman,serif" font-size="14.00">1</text>
</g>
<!-- VD_FAULT_LOCATING_SUM -->
<g id="node23" class="node"><title>VD_FAULT_LOCATING_SUM</title>
<polygon fill="#b4eeb4" stroke="none" points="763,-592.5 763,-615.5 940,-615.5 940,-592.5 763,-592.5"/>
<polygon fill="none" stroke="black" points="763.5,-592 763.5,-615 940.5,-615 940.5,-592 763.5,-592"/>
<text text-anchor="start" x="768.5" y="-601.4" font-family="Helvetica,sans-Serif" font-weight="bold" font-size="12.00">VD_FAULT_LOCATING_SUM</text>
</g>
<!-- FAULT_LOCATING_SUM_SUMMARY&#45;&#45;VD_FAULT_LOCATING_SUM -->
<g id="edge24" class="edge"><title>FAULT_LOCATING_SUM_SUMMARY&#45;&#45;VD_FAULT_LOCATING_SUM</title>
<path fill="none" stroke="#7f7f7f" stroke-dasharray="5,2" d="M596.203,-604C647.29,-604 706.358,-604 754.701,-604"/>
<text text-anchor="start" x="747.701" y="-592.8" font-family="Times New Roman,serif" font-size="14.00">1</text>
<text text-anchor="start" x="596.203" y="-592.8" font-family="Times New Roman,serif" font-size="14.00">1</text>
</g>
<!-- VD_FAULT_LOCATING_TERMINAL -->
<g id="node24" class="node"><title>VD_FAULT_LOCATING_TERMINAL</title>
<polygon fill="#b4eeb4" stroke="none" points="745.5,-664.5 745.5,-687.5 957.5,-687.5 957.5,-664.5 745.5,-664.5"/>
<polygon fill="none" stroke="black" points="745.5,-664 745.5,-687 957.5,-687 957.5,-664 745.5,-664"/>
<text text-anchor="start" x="750.5" y="-673.4" font-family="Helvetica,sans-Serif" font-weight="bold" font-size="12.00">VD_FAULT_LOCATING_TERMINAL</text>
</g>
<!-- FAULT_LOCATING_TERMINAL_SUMMARY&#45;&#45;VD_FAULT_LOCATING_TERMINAL -->
<g id="edge25" class="edge"><title>FAULT_LOCATING_TERMINAL_SUMMARY&#45;&#45;VD_FAULT_LOCATING_TERMINAL</title>
<path fill="none" stroke="#7f7f7f" stroke-dasharray="5,2" d="M614.116,-676C654.607,-676 698.544,-676 737.428,-676"/>
<text text-anchor="start" x="730.428" y="-664.8" font-family="Times New Roman,serif" font-size="14.00">1</text>
<text text-anchor="start" x="614.116" y="-664.8" font-family="Times New Roman,serif" font-size="14.00">1</text>
</g>
<!-- VD_FAULT_LOCATING_USER -->
<g id="node26" class="node"><title>VD_FAULT_LOCATING_USER</title>
<polygon fill="#b4eeb4" stroke="none" points="759,-718.5 759,-741.5 944,-741.5 944,-718.5 759,-718.5"/>
<polygon fill="none" stroke="black" points="759.5,-718 759.5,-741 944.5,-741 944.5,-718 759.5,-718"/>
<text text-anchor="start" x="764.5" y="-727.4" font-family="Helvetica,sans-Serif" font-weight="bold" font-size="12.00">VD_FAULT_LOCATING_USER</text>
</g>
<!-- FAULT_LOCATING_USER_SUMMARY&#45;&#45;VD_FAULT_LOCATING_USER -->
<g id="edge27" class="edge"><title>FAULT_LOCATING_USER_SUMMARY&#45;&#45;VD_FAULT_LOCATING_USER</title>
<path fill="none" stroke="#7f7f7f" stroke-dasharray="5,2" d="M600.049,-730C648.906,-730 704.533,-730 750.932,-730"/>
<text text-anchor="start" x="743.932" y="-718.8" font-family="Times New Roman,serif" font-size="14.00">1</text>
<text text-anchor="start" x="600.049" y="-718.8" font-family="Times New Roman,serif" font-size="14.00">1</text>
</g>
<!-- F_V_BXDR_DROP_PROV_H -->
<g id="node5" class="node"><title>F_V_BXDR_DROP_PROV_H</title>
<polygon fill="#c4c4c4" stroke="none" points="34.5,-527.5 34.5,-550.5 208.5,-550.5 208.5,-527.5 34.5,-527.5"/>
<polygon fill="none" stroke="black" points="34.5,-527 34.5,-550 208.5,-550 208.5,-527 34.5,-527"/>
<text text-anchor="start" x="39.5" y="-536.4" font-family="Helvetica,sans-Serif" font-weight="bold" font-size="12.00">F_V_BXDR_DROP_PROV_H</text>
</g>
<!-- F_V_BXDR_DROP_PROV_H&#45;&#45;FAULT_LOCATING_SUM_SUMMARY -->
<g id="edge4" class="edge"><title>F_V_BXDR_DROP_PROV_H&#45;&#45;FAULT_LOCATING_SUM_SUMMARY</title>
<path fill="none" stroke="#7f7f7f" stroke-dasharray="5,2" d="M216.9,-556.333C266.774,-565.491 327.926,-576.719 378.348,-585.978"/>
<text text-anchor="start" x="371.348" y="-574.778" font-family="Times New Roman,serif" font-size="14.00">1</text>
<text text-anchor="start" x="216.9" y="-545.133" font-family="Times New Roman,serif" font-size="14.00">1</text>
</g>
<!-- FAULT_LOCATING_RADIO_SUMMARY -->
<g id="node6" class="node"><title>FAULT_LOCATING_RADIO_SUMMARY</title>
<polygon fill="#bbffff" stroke="none" points="361,-478.5 361,-501.5 594,-501.5 594,-478.5 361,-478.5"/>
<polygon fill="none" stroke="black" points="361.5,-478 361.5,-501 594.5,-501 594.5,-478 361.5,-478"/>
<text text-anchor="start" x="366.5" y="-487.4" font-family="Helvetica,sans-Serif" font-weight="bold" font-size="12.00">FAULT_LOCATING_RADIO_SUMMARY</text>
</g>
<!-- F_V_BXDR_DROP_PROV_H&#45;&#45;FAULT_LOCATING_RADIO_SUMMARY -->
<g id="edge5" class="edge"><title>F_V_BXDR_DROP_PROV_H&#45;&#45;FAULT_LOCATING_RADIO_SUMMARY</title>
<path fill="none" stroke="#7f7f7f" stroke-dasharray="5,2" d="M216.9,-525.933C258.581,-520.164 308.139,-513.304 352.728,-507.132"/>
<text text-anchor="start" x="345.728" y="-495.932" font-family="Times New Roman,serif" font-size="14.00">1</text>
<text text-anchor="start" x="216.9" y="-514.733" font-family="Times New Roman,serif" font-size="14.00">1</text>
</g>
<!-- VD_FAULT_LOCATING_RADIO -->
<g id="node28" class="node"><title>VD_FAULT_LOCATING_RADIO</title>
<polygon fill="#b4eeb4" stroke="none" points="757.5,-478.5 757.5,-501.5 945.5,-501.5 945.5,-478.5 757.5,-478.5"/>
<polygon fill="none" stroke="black" points="757.5,-478 757.5,-501 945.5,-501 945.5,-478 757.5,-478"/>
<text text-anchor="start" x="762.5" y="-487.4" font-family="Helvetica,sans-Serif" font-weight="bold" font-size="12.00">VD_FAULT_LOCATING_RADIO</text>
</g>
<!-- FAULT_LOCATING_RADIO_SUMMARY&#45;&#45;VD_FAULT_LOCATING_RADIO -->
<g id="edge29" class="edge"><title>FAULT_LOCATING_RADIO_SUMMARY&#45;&#45;VD_FAULT_LOCATING_RADIO</title>
<path fill="none" stroke="#7f7f7f" stroke-dasharray="5,2" d="M602.112,-490C649.895,-490 703.89,-490 749.303,-490"/>
<text text-anchor="start" x="742.303" y="-478.8" font-family="Times New Roman,serif" font-size="14.00">1</text>
<text text-anchor="start" x="602.112" y="-478.8" font-family="Times New Roman,serif" font-size="14.00">1</text>
</g>
<!-- F_V_BXDR_SRVCC_PROV_H -->
<g id="node7" class="node"><title>F_V_BXDR_SRVCC_PROV_H</title>
<polygon fill="#c4c4c4" stroke="none" points="30.5,-592.5 30.5,-615.5 212.5,-615.5 212.5,-592.5 30.5,-592.5"/>
<polygon fill="none" stroke="black" points="30.5,-592 30.5,-615 212.5,-615 212.5,-592 30.5,-592"/>
<text text-anchor="start" x="35.5" y="-601.4" font-family="Helvetica,sans-Serif" font-weight="bold" font-size="12.00">F_V_BXDR_SRVCC_PROV_H</text>
</g>
<!-- F_V_BXDR_SRVCC_PROV_H&#45;&#45;FAULT_LOCATING_SUM_SUMMARY -->
<g id="edge6" class="edge"><title>F_V_BXDR_SRVCC_PROV_H&#45;&#45;FAULT_LOCATING_SUM_SUMMARY</title>
<path fill="none" stroke="#7f7f7f" stroke-dasharray="5,2" d="M220.639,-604C263.506,-604 314.131,-604 358.988,-604"/>
<text text-anchor="start" x="351.988" y="-592.8" font-family="Times New Roman,serif" font-size="14.00">1</text>
<text text-anchor="start" x="220.639" y="-592.8" font-family="Times New Roman,serif" font-size="14.00">1</text>
</g>
<!-- F_V_BXDR_IMSI_H -->
<g id="node8" class="node"><title>F_V_BXDR_IMSI_H</title>
<polygon fill="#c4c4c4" stroke="none" points="60.5,-772.5 60.5,-795.5 182.5,-795.5 182.5,-772.5 60.5,-772.5"/>
<polygon fill="none" stroke="black" points="60.5,-772 60.5,-795 182.5,-795 182.5,-772 60.5,-772"/>
<text text-anchor="start" x="65.5" y="-781.4" font-family="Helvetica,sans-Serif" font-weight="bold" font-size="12.00">F_V_BXDR_IMSI_H</text>
</g>
<!-- FAULT_LOCATING_USER_DETAIL_SUMMARY -->
<g id="node9" class="node"><title>FAULT_LOCATING_USER_DETAIL_SUMMARY</title>
<polygon fill="#bbffff" stroke="none" points="338,-772.5 338,-795.5 617,-795.5 617,-772.5 338,-772.5"/>
<polygon fill="none" stroke="black" points="338.5,-772 338.5,-795 617.5,-795 617.5,-772 338.5,-772"/>
<text text-anchor="start" x="343.5" y="-781.4" font-family="Helvetica,sans-Serif" font-weight="bold" font-size="12.00">FAULT_LOCATING_USER_DETAIL_SUMMARY</text>
</g>
<!-- F_V_BXDR_IMSI_H&#45;&#45;FAULT_LOCATING_USER_DETAIL_SUMMARY -->
<g id="edge7" class="edge"><title>F_V_BXDR_IMSI_H&#45;&#45;FAULT_LOCATING_USER_DETAIL_SUMMARY</title>
<path fill="none" stroke="#7f7f7f" stroke-dasharray="5,2" d="M190.755,-784C230.234,-784 281.499,-784 329.687,-784"/>
<text text-anchor="start" x="322.687" y="-772.8" font-family="Times New Roman,serif" font-size="14.00">1</text>
<text text-anchor="start" x="190.755" y="-772.8" font-family="Times New Roman,serif" font-size="14.00">1</text>
</g>
<!-- VD_FAULT_LOCATING_USER_DETAIL -->
<g id="node27" class="node"><title>VD_FAULT_LOCATING_USER_DETAIL</title>
<polygon fill="#b4eeb4" stroke="none" points="734,-772.5 734,-795.5 969,-795.5 969,-772.5 734,-772.5"/>
<polygon fill="none" stroke="black" points="734.5,-772 734.5,-795 969.5,-795 969.5,-772 734.5,-772"/>
<text text-anchor="start" x="739.5" y="-781.4" font-family="Helvetica,sans-Serif" font-weight="bold" font-size="12.00">VD_FAULT_LOCATING_USER_DETAIL</text>
</g>
<!-- FAULT_LOCATING_USER_DETAIL_SUMMARY&#45;&#45;VD_FAULT_LOCATING_USER_DETAIL -->
<g id="edge28" class="edge"><title>FAULT_LOCATING_USER_DETAIL_SUMMARY&#45;&#45;VD_FAULT_LOCATING_USER_DETAIL</title>
<path fill="none" stroke="#7f7f7f" stroke-dasharray="5,2" d="M625.257,-784C658.583,-784 693.669,-784 725.969,-784"/>
<text text-anchor="start" x="718.969" y="-772.8" font-family="Times New Roman,serif" font-size="14.00">1</text>
<text text-anchor="start" x="625.257" y="-772.8" font-family="Times New Roman,serif" font-size="14.00">1</text>
</g>
<!-- F_V_BXDR_MESSAGE_H -->
<g id="node10" class="node"><title>F_V_BXDR_MESSAGE_H</title>
<polygon fill="#c4c4c4" stroke="none" points="42.5,-155.5 42.5,-178.5 200.5,-178.5 200.5,-155.5 42.5,-155.5"/>
<polygon fill="none" stroke="black" points="42.5,-155 42.5,-178 200.5,-178 200.5,-155 42.5,-155"/>
<text text-anchor="start" x="47.5" y="-164.4" font-family="Helvetica,sans-Serif" font-weight="bold" font-size="12.00">F_V_BXDR_MESSAGE_H</text>
</g>
<!-- F_V_BXDR_MESSAGE_H&#45;&#45;FAULT_LOCATING_RADIO_SUMMARY -->
<g id="edge9" class="edge"><title>F_V_BXDR_MESSAGE_H&#45;&#45;FAULT_LOCATING_RADIO_SUMMARY</title>
<path fill="none" stroke="#7f7f7f" stroke-dasharray="5,2" d="M134.809,-185.403C175.392,-245.983 303.12,-435.843 316,-445 332.628,-456.822 352.27,-465.545 372.005,-471.98"/>
<text text-anchor="start" x="365.005" y="-460.78" font-family="Times New Roman,serif" font-size="14.00">1</text>
<text text-anchor="start" x="127.809" y="-189.203" font-family="Times New Roman,serif" font-size="14.00">1</text>
</g>
<!-- FAULT_LOCATING_TERMINAL_DETAIL_SUMMARY -->
<g id="node11" class="node"><title>FAULT_LOCATING_TERMINAL_DETAIL_SUMMARY</title>
<polygon fill="#bbffff" stroke="none" points="324,-60.5 324,-83.5 631,-83.5 631,-60.5 324,-60.5"/>
<polygon fill="none" stroke="black" points="324.5,-60 324.5,-83 631.5,-83 631.5,-60 324.5,-60"/>
<text text-anchor="start" x="329.5" y="-69.4" font-family="Helvetica,sans-Serif" font-weight="bold" font-size="12.00">FAULT_LOCATING_TERMINAL_DETAIL_SUMMARY</text>
</g>
<!-- F_V_BXDR_MESSAGE_H&#45;&#45;FAULT_LOCATING_TERMINAL_DETAIL_SUMMARY -->
<g id="edge8" class="edge"><title>F_V_BXDR_MESSAGE_H&#45;&#45;FAULT_LOCATING_TERMINAL_DETAIL_SUMMARY</title>
<path fill="none" stroke="#7f7f7f" stroke-dasharray="5,2" d="M166.792,-148.99C205.584,-133.809 263.762,-112.467 316,-99 328.723,-95.72 342.12,-92.7408 355.525,-90.0613"/>
<text text-anchor="start" x="348.525" y="-93.8613" font-family="Times New Roman,serif" font-size="14.00">1</text>
<text text-anchor="start" x="159.792" y="-137.79" font-family="Times New Roman,serif" font-size="14.00">1</text>
</g>
<!-- FAULT_LOCATING_EPC_SUMMARY -->
<g id="node12" class="node"><title>FAULT_LOCATING_EPC_SUMMARY</title>
<polygon fill="#bbffff" stroke="none" points="367.5,-114.5 367.5,-137.5 587.5,-137.5 587.5,-114.5 367.5,-114.5"/>
<polygon fill="none" stroke="black" points="367.5,-114 367.5,-137 587.5,-137 587.5,-114 367.5,-114"/>
<text text-anchor="start" x="372.5" y="-123.4" font-family="Helvetica,sans-Serif" font-weight="bold" font-size="12.00">FAULT_LOCATING_EPC_SUMMARY</text>
</g>
<!-- F_V_BXDR_MESSAGE_H&#45;&#45;FAULT_LOCATING_EPC_SUMMARY -->
<g id="edge10" class="edge"><title>F_V_BXDR_MESSAGE_H&#45;&#45;FAULT_LOCATING_EPC_SUMMARY</title>
<path fill="none" stroke="#7f7f7f" stroke-dasharray="5,2" d="M208.645,-157.023C253.977,-151.772 310.217,-145.259 359.443,-139.557"/>
<text text-anchor="start" x="352.443" y="-128.357" font-family="Times New Roman,serif" font-size="14.00">1</text>
<text text-anchor="start" x="208.645" y="-145.823" font-family="Times New Roman,serif" font-size="14.00">1</text>
</g>
<!-- FAULT_LOCATING_EPC_DETAIL_SUMMARY -->
<g id="node13" class="node"><title>FAULT_LOCATING_EPC_DETAIL_SUMMARY</title>
<polygon fill="#bbffff" stroke="none" points="342.5,-6.5 342.5,-29.5 612.5,-29.5 612.5,-6.5 342.5,-6.5"/>
<polygon fill="none" stroke="black" points="342.5,-6 342.5,-29 612.5,-29 612.5,-6 342.5,-6"/>
<text text-anchor="start" x="347.5" y="-15.4" font-family="Helvetica,sans-Serif" font-weight="bold" font-size="12.00">FAULT_LOCATING_EPC_DETAIL_SUMMARY</text>
</g>
<!-- F_V_BXDR_MESSAGE_H&#45;&#45;FAULT_LOCATING_EPC_DETAIL_SUMMARY -->
<g id="edge11" class="edge"><title>F_V_BXDR_MESSAGE_H&#45;&#45;FAULT_LOCATING_EPC_DETAIL_SUMMARY</title>
<path fill="none" stroke="#7f7f7f" stroke-dasharray="5,2" d="M144.447,-148.996C178.779,-121.842 248.287,-70.8436 316,-45 324.844,-41.6247 334.121,-38.6705 343.567,-36.0848"/>
<text text-anchor="start" x="336.567" y="-39.8848" font-family="Times New Roman,serif" font-size="14.00">1</text>
<text text-anchor="start" x="137.447" y="-137.796" font-family="Times New Roman,serif" font-size="14.00">1</text>
</g>
<!-- FAULT_LOCATING_IMS_SUMMARY -->
<g id="node14" class="node"><title>FAULT_LOCATING_IMS_SUMMARY</title>
<polygon fill="#bbffff" stroke="none" points="370,-182.5 370,-205.5 585,-205.5 585,-182.5 370,-182.5"/>
<polygon fill="none" stroke="black" points="370.5,-182 370.5,-205 585.5,-205 585.5,-182 370.5,-182"/>
<text text-anchor="start" x="375.5" y="-191.4" font-family="Helvetica,sans-Serif" font-weight="bold" font-size="12.00">FAULT_LOCATING_IMS_SUMMARY</text>
</g>
<!-- F_V_BXDR_MESSAGE_H&#45;&#45;FAULT_LOCATING_IMS_SUMMARY -->
<g id="edge12" class="edge"><title>F_V_BXDR_MESSAGE_H&#45;&#45;FAULT_LOCATING_IMS_SUMMARY</title>
<path fill="none" stroke="#7f7f7f" stroke-dasharray="5,2" d="M208.804,-168.498C231.946,-169.239 256.942,-170.346 280,-172 306.536,-173.904 335.014,-176.671 361.826,-179.604"/>
<text text-anchor="start" x="354.826" y="-168.404" font-family="Times New Roman,serif" font-size="14.00">1</text>
<text text-anchor="start" x="208.804" y="-172.298" font-family="Times New Roman,serif" font-size="14.00">1</text>
</g>
<!-- FAULT_LOCATING_IMS_DETAIL_SUMMARY -->
<g id="node15" class="node"><title>FAULT_LOCATING_IMS_DETAIL_SUMMARY</title>
<polygon fill="#bbffff" stroke="none" points="344.5,-334.5 344.5,-357.5 610.5,-357.5 610.5,-334.5 344.5,-334.5"/>
<polygon fill="none" stroke="black" points="344.5,-334 344.5,-357 610.5,-357 610.5,-334 344.5,-334"/>
<text text-anchor="start" x="349.5" y="-343.4" font-family="Helvetica,sans-Serif" font-weight="bold" font-size="12.00">FAULT_LOCATING_IMS_DETAIL_SUMMARY</text>
</g>
<!-- F_V_BXDR_MESSAGE_H&#45;&#45;FAULT_LOCATING_IMS_DETAIL_SUMMARY -->
<g id="edge13" class="edge"><title>F_V_BXDR_MESSAGE_H&#45;&#45;FAULT_LOCATING_IMS_DETAIL_SUMMARY</title>
<path fill="none" stroke="#7f7f7f" stroke-dasharray="5,2" d="M149.933,-185.175C186.758,-209.132 254.655,-251.772 316,-282 351.654,-299.569 393.397,-316.096 425.374,-327.953"/>
<text text-anchor="start" x="418.374" y="-316.753" font-family="Times New Roman,serif" font-size="14.00">1</text>
<text text-anchor="start" x="142.933" y="-188.975" font-family="Times New Roman,serif" font-size="14.00">1</text>
</g>
<!-- FAULT_LOCATING_CS_SUMMARY -->
<g id="node16" class="node"><title>FAULT_LOCATING_CS_SUMMARY</title>
<polygon fill="#bbffff" stroke="none" points="371.5,-243.5 371.5,-266.5 583.5,-266.5 583.5,-243.5 371.5,-243.5"/>
<polygon fill="none" stroke="black" points="371.5,-243 371.5,-266 583.5,-266 583.5,-243 371.5,-243"/>
<text text-anchor="start" x="376.5" y="-252.4" font-family="Helvetica,sans-Serif" font-weight="bold" font-size="12.00">FAULT_LOCATING_CS_SUMMARY</text>
</g>
<!-- F_V_BXDR_MESSAGE_H&#45;&#45;FAULT_LOCATING_CS_SUMMARY -->
<g id="edge14" class="edge"><title>F_V_BXDR_MESSAGE_H&#45;&#45;FAULT_LOCATING_CS_SUMMARY</title>
<path fill="none" stroke="#7f7f7f" stroke-dasharray="5,2" d="M183.244,-185.018C221.238,-196.022 271.286,-210.037 316,-221 338.684,-226.562 363.303,-232.049 386.291,-236.939"/>
<text text-anchor="start" x="379.291" y="-225.739" font-family="Times New Roman,serif" font-size="14.00">1</text>
<text text-anchor="start" x="176.244" y="-188.818" font-family="Times New Roman,serif" font-size="14.00">1</text>
</g>
<!-- FAULT_LOCATING_CS_DETAIL_SUMMARY -->
<g id="node17" class="node"><title>FAULT_LOCATING_CS_DETAIL_SUMMARY</title>
<polygon fill="#bbffff" stroke="none" points="346.5,-406.5 346.5,-429.5 608.5,-429.5 608.5,-406.5 346.5,-406.5"/>
<polygon fill="none" stroke="black" points="346.5,-406 346.5,-429 608.5,-429 608.5,-406 346.5,-406"/>
<text text-anchor="start" x="351.5" y="-415.4" font-family="Helvetica,sans-Serif" font-weight="bold" font-size="12.00">FAULT_LOCATING_CS_DETAIL_SUMMARY</text>
</g>
<!-- F_V_BXDR_MESSAGE_H&#45;&#45;FAULT_LOCATING_CS_DETAIL_SUMMARY -->
<g id="edge15" class="edge"><title>F_V_BXDR_MESSAGE_H&#45;&#45;FAULT_LOCATING_CS_DETAIL_SUMMARY</title>
<path fill="none" stroke="#7f7f7f" stroke-dasharray="5,2" d="M134.384,-185.258C161.538,-225.495 232.293,-322.251 316,-373 335.302,-384.702 357.742,-393.451 379.616,-399.96"/>
<text text-anchor="start" x="372.616" y="-388.76" font-family="Times New Roman,serif" font-size="14.00">1</text>
<text text-anchor="start" x="134.384" y="-189.058" font-family="Times New Roman,serif" font-size="14.00">1</text>
</g>
<!-- VD_FAULT_LOCATING_TERMINAL_DETAIL -->
<g id="node25" class="node"><title>VD_FAULT_LOCATING_TERMINAL_DETAIL</title>
<polygon fill="#b4eeb4" stroke="none" points="720,-60.5 720,-83.5 983,-83.5 983,-60.5 720,-60.5"/>
<polygon fill="none" stroke="black" points="720.5,-60 720.5,-83 983.5,-83 983.5,-60 720.5,-60"/>
<text text-anchor="start" x="725.5" y="-69.4" font-family="Helvetica,sans-Serif" font-weight="bold" font-size="12.00">VD_FAULT_LOCATING_TERMINAL_DETAIL</text>
</g>
<!-- FAULT_LOCATING_TERMINAL_DETAIL_SUMMARY&#45;&#45;VD_FAULT_LOCATING_TERMINAL_DETAIL -->
<g id="edge26" class="edge"><title>FAULT_LOCATING_TERMINAL_DETAIL_SUMMARY&#45;&#45;VD_FAULT_LOCATING_TERMINAL_DETAIL</title>
<path fill="none" stroke="#7f7f7f" stroke-dasharray="5,2" d="M639.231,-72C663.401,-72 688.151,-72 711.807,-72"/>
<text text-anchor="start" x="704.807" y="-60.8" font-family="Times New Roman,serif" font-size="14.00">1</text>
<text text-anchor="start" x="639.231" y="-60.8" font-family="Times New Roman,serif" font-size="14.00">1</text>
</g>
<!-- VD_FAULT_LOCATING_EPC -->
<g id="node30" class="node"><title>VD_FAULT_LOCATING_EPC</title>
<polygon fill="#b4eeb4" stroke="none" points="763.5,-114.5 763.5,-137.5 939.5,-137.5 939.5,-114.5 763.5,-114.5"/>
<polygon fill="none" stroke="black" points="763.5,-114 763.5,-137 939.5,-137 939.5,-114 763.5,-114"/>
<text text-anchor="start" x="768.5" y="-123.4" font-family="Helvetica,sans-Serif" font-weight="bold" font-size="12.00">VD_FAULT_LOCATING_EPC</text>
</g>
<!-- FAULT_LOCATING_EPC_SUMMARY&#45;&#45;VD_FAULT_LOCATING_EPC -->
<g id="edge31" class="edge"><title>FAULT_LOCATING_EPC_SUMMARY&#45;&#45;VD_FAULT_LOCATING_EPC</title>
<path fill="none" stroke="#7f7f7f" stroke-dasharray="5,2" d="M595.693,-126C647.125,-126 706.728,-126 755.351,-126"/>
<text text-anchor="start" x="748.351" y="-114.8" font-family="Times New Roman,serif" font-size="14.00">1</text>
<text text-anchor="start" x="595.693" y="-114.8" font-family="Times New Roman,serif" font-size="14.00">1</text>
</g>
<!-- VD_FAULT_LOCATING_EPC_DETAIL -->
<g id="node31" class="node"><title>VD_FAULT_LOCATING_EPC_DETAIL</title>
<polygon fill="#b4eeb4" stroke="none" points="738.5,-6.5 738.5,-29.5 964.5,-29.5 964.5,-6.5 738.5,-6.5"/>
<polygon fill="none" stroke="black" points="738.5,-6 738.5,-29 964.5,-29 964.5,-6 738.5,-6"/>
<text text-anchor="start" x="743.5" y="-15.4" font-family="Helvetica,sans-Serif" font-weight="bold" font-size="12.00">VD_FAULT_LOCATING_EPC_DETAIL</text>
</g>
<!-- FAULT_LOCATING_EPC_DETAIL_SUMMARY&#45;&#45;VD_FAULT_LOCATING_EPC_DETAIL -->
<g id="edge32" class="edge"><title>FAULT_LOCATING_EPC_DETAIL_SUMMARY&#45;&#45;VD_FAULT_LOCATING_EPC_DETAIL</title>
<path fill="none" stroke="#7f7f7f" stroke-dasharray="5,2" d="M620.73,-18C656.932,-18 695.479,-18 730.453,-18"/>
<text text-anchor="start" x="723.453" y="-6.8" font-family="Times New Roman,serif" font-size="14.00">1</text>
<text text-anchor="start" x="620.73" y="-6.8" font-family="Times New Roman,serif" font-size="14.00">1</text>
</g>
<!-- VD_FAULT_LOCATING_IMS -->
<g id="node32" class="node"><title>VD_FAULT_LOCATING_IMS</title>
<polygon fill="#b4eeb4" stroke="none" points="766,-182.5 766,-205.5 937,-205.5 937,-182.5 766,-182.5"/>
<polygon fill="none" stroke="black" points="766.5,-182 766.5,-205 937.5,-205 937.5,-182 766.5,-182"/>
<text text-anchor="start" x="771.5" y="-191.4" font-family="Helvetica,sans-Serif" font-weight="bold" font-size="12.00">VD_FAULT_LOCATING_IMS</text>
</g>
<!-- FAULT_LOCATING_IMS_SUMMARY&#45;&#45;VD_FAULT_LOCATING_IMS -->
<g id="edge33" class="edge"><title>FAULT_LOCATING_IMS_SUMMARY&#45;&#45;VD_FAULT_LOCATING_IMS</title>
<path fill="none" stroke="#7f7f7f" stroke-dasharray="5,2" d="M593.148,-194C645.984,-194 707.875,-194 757.72,-194"/>
<text text-anchor="start" x="750.72" y="-182.8" font-family="Times New Roman,serif" font-size="14.00">1</text>
<text text-anchor="start" x="593.148" y="-182.8" font-family="Times New Roman,serif" font-size="14.00">1</text>
</g>
<!-- VD_FAULT_LOCATING_IMS_DETAIL -->
<g id="node33" class="node"><title>VD_FAULT_LOCATING_IMS_DETAIL</title>
<polygon fill="#b4eeb4" stroke="none" points="741,-334.5 741,-357.5 962,-357.5 962,-334.5 741,-334.5"/>
<polygon fill="none" stroke="black" points="741.5,-334 741.5,-357 962.5,-357 962.5,-334 741.5,-334"/>
<text text-anchor="start" x="746.5" y="-343.4" font-family="Helvetica,sans-Serif" font-weight="bold" font-size="12.00">VD_FAULT_LOCATING_IMS_DETAIL</text>
</g>
<!-- FAULT_LOCATING_IMS_DETAIL_SUMMARY&#45;&#45;VD_FAULT_LOCATING_IMS_DETAIL -->
<g id="edge34" class="edge"><title>FAULT_LOCATING_IMS_DETAIL_SUMMARY&#45;&#45;VD_FAULT_LOCATING_IMS_DETAIL</title>
<path fill="none" stroke="#7f7f7f" stroke-dasharray="5,2" d="M618.607,-346C656.298,-346 696.67,-346 732.991,-346"/>
<text text-anchor="start" x="725.991" y="-334.8" font-family="Times New Roman,serif" font-size="14.00">1</text>
<text text-anchor="start" x="618.607" y="-334.8" font-family="Times New Roman,serif" font-size="14.00">1</text>
</g>
<!-- VD_FAULT_LOCATING_CS -->
<g id="node34" class="node"><title>VD_FAULT_LOCATING_CS</title>
<polygon fill="#b4eeb4" stroke="none" points="768,-243.5 768,-266.5 935,-266.5 935,-243.5 768,-243.5"/>
<polygon fill="none" stroke="black" points="768.5,-243 768.5,-266 935.5,-266 935.5,-243 768.5,-243"/>
<text text-anchor="start" x="773.5" y="-252.4" font-family="Helvetica,sans-Serif" font-weight="bold" font-size="12.00">VD_FAULT_LOCATING_CS</text>
</g>
<!-- FAULT_LOCATING_CS_SUMMARY&#45;&#45;VD_FAULT_LOCATING_CS -->
<g id="edge35" class="edge"><title>FAULT_LOCATING_CS_SUMMARY&#45;&#45;VD_FAULT_LOCATING_CS</title>
<path fill="none" stroke="#7f7f7f" stroke-dasharray="5,2" d="M591.627,-255C645.495,-255 709.048,-255 759.703,-255"/>
<text text-anchor="start" x="752.703" y="-243.8" font-family="Times New Roman,serif" font-size="14.00">1</text>
<text text-anchor="start" x="591.627" y="-243.8" font-family="Times New Roman,serif" font-size="14.00">1</text>
</g>
<!-- VD_FAULT_LOCATING_CS_DETAIL -->
<g id="node35" class="node"><title>VD_FAULT_LOCATING_CS_DETAIL</title>
<polygon fill="#b4eeb4" stroke="none" points="742.5,-406.5 742.5,-429.5 960.5,-429.5 960.5,-406.5 742.5,-406.5"/>
<polygon fill="none" stroke="black" points="742.5,-406 742.5,-429 960.5,-429 960.5,-406 742.5,-406"/>
<text text-anchor="start" x="747.5" y="-415.4" font-family="Helvetica,sans-Serif" font-weight="bold" font-size="12.00">VD_FAULT_LOCATING_CS_DETAIL</text>
</g>
<!-- FAULT_LOCATING_CS_DETAIL_SUMMARY&#45;&#45;VD_FAULT_LOCATING_CS_DETAIL -->
<g id="edge36" class="edge"><title>FAULT_LOCATING_CS_DETAIL_SUMMARY&#45;&#45;VD_FAULT_LOCATING_CS_DETAIL</title>
<path fill="none" stroke="#7f7f7f" stroke-dasharray="5,2" d="M616.755,-418C655.402,-418 697,-418 734.237,-418"/>
<text text-anchor="start" x="727.237" y="-406.8" font-family="Times New Roman,serif" font-size="14.00">1</text>
<text text-anchor="start" x="616.755" y="-406.8" font-family="Times New Roman,serif" font-size="14.00">1</text>
</g>
<!-- F_V_BXDR_PROV_CITY_CI_H -->
<g id="node18" class="node"><title>F_V_BXDR_PROV_CITY_CI_H</title>
<polygon fill="#c4c4c4" stroke="none" points="29,-934.5 29,-957.5 214,-957.5 214,-934.5 29,-934.5"/>
<polygon fill="none" stroke="black" points="29.5,-934 29.5,-957 214.5,-957 214.5,-934 29.5,-934"/>
<text text-anchor="start" x="34.5" y="-943.4" font-family="Helvetica,sans-Serif" font-weight="bold" font-size="12.00">F_V_BXDR_PROV_CITY_CI_H</text>
</g>
<!-- FAULT_LOCATING_RADIO_DETAIL_SUMMARY -->
<g id="node19" class="node"><title>FAULT_LOCATING_RADIO_DETAIL_SUMMARY</title>
<polygon fill="#bbffff" stroke="none" points="336,-880.5 336,-903.5 619,-903.5 619,-880.5 336,-880.5"/>
<polygon fill="none" stroke="black" points="336.5,-880 336.5,-903 619.5,-903 619.5,-880 336.5,-880"/>
<text text-anchor="start" x="341.5" y="-889.4" font-family="Helvetica,sans-Serif" font-weight="bold" font-size="12.00">FAULT_LOCATING_RADIO_DETAIL_SUMMARY</text>
</g>
<!-- F_V_BXDR_PROV_CITY_CI_H&#45;&#45;FAULT_LOCATING_RADIO_DETAIL_SUMMARY -->
<g id="edge16" class="edge"><title>F_V_BXDR_PROV_CITY_CI_H&#45;&#45;FAULT_LOCATING_RADIO_DETAIL_SUMMARY</title>
<path fill="none" stroke="#7f7f7f" stroke-dasharray="5,2" d="M222.051,-930.814C264.382,-924.357 314.076,-916.777 358.26,-910.037"/>
<text text-anchor="start" x="351.26" y="-913.837" font-family="Times New Roman,serif" font-size="14.00">1</text>
<text text-anchor="start" x="222.051" y="-919.614" font-family="Times New Roman,serif" font-size="14.00">1</text>
</g>
<!-- VD_FAULT_LOCATING_RADIO_DETAIL -->
<g id="node29" class="node"><title>VD_FAULT_LOCATING_RADIO_DETAIL</title>
<polygon fill="#b4eeb4" stroke="none" points="732,-880.5 732,-903.5 971,-903.5 971,-880.5 732,-880.5"/>
<polygon fill="none" stroke="black" points="732.5,-880 732.5,-903 971.5,-903 971.5,-880 732.5,-880"/>
<text text-anchor="start" x="737.5" y="-889.4" font-family="Helvetica,sans-Serif" font-weight="bold" font-size="12.00">VD_FAULT_LOCATING_RADIO_DETAIL</text>
</g>
<!-- FAULT_LOCATING_RADIO_DETAIL_SUMMARY&#45;&#45;VD_FAULT_LOCATING_RADIO_DETAIL -->
<g id="edge30" class="edge"><title>FAULT_LOCATING_RADIO_DETAIL_SUMMARY&#45;&#45;VD_FAULT_LOCATING_RADIO_DETAIL</title>
<path fill="none" stroke="#7f7f7f" stroke-dasharray="5,2" d="M627.128,-892C659.205,-892 692.828,-892 723.966,-892"/>
<text text-anchor="start" x="716.966" y="-880.8" font-family="Times New Roman,serif" font-size="14.00">1</text>
<text text-anchor="start" x="627.128" y="-880.8" font-family="Times New Roman,serif" font-size="14.00">1</text>
</g>
<!-- F_V_BXDR_DROP_PROV_CITY_CI_H -->
<g id="node20" class="node"><title>F_V_BXDR_DROP_PROV_CITY_CI_H</title>
<polygon fill="#c4c4c4" stroke="none" points="8,-880.5 8,-903.5 235,-903.5 235,-880.5 8,-880.5"/>
<polygon fill="none" stroke="black" points="8.5,-880 8.5,-903 235.5,-903 235.5,-880 8.5,-880"/>
<text text-anchor="start" x="13.5" y="-889.4" font-family="Helvetica,sans-Serif" font-weight="bold" font-size="12.00">F_V_BXDR_DROP_PROV_CITY_CI_H</text>
</g>
<!-- F_V_BXDR_DROP_PROV_CITY_CI_H&#45;&#45;FAULT_LOCATING_RADIO_DETAIL_SUMMARY -->
<g id="edge17" class="edge"><title>F_V_BXDR_DROP_PROV_CITY_CI_H&#45;&#45;FAULT_LOCATING_RADIO_DETAIL_SUMMARY</title>
<path fill="none" stroke="#7f7f7f" stroke-dasharray="5,2" d="M243.337,-892C270.477,-892 299.582,-892 327.712,-892"/>
<text text-anchor="start" x="320.712" y="-880.8" font-family="Times New Roman,serif" font-size="14.00">1</text>
<text text-anchor="start" x="243.337" y="-880.8" font-family="Times New Roman,serif" font-size="14.00">1</text>
</g>
<!-- F_V_BXDR_SRVC_PROV_CITY_CI_H -->
<g id="node21" class="node"><title>F_V_BXDR_SRVC_PROV_CITY_CI_H</title>
<polygon fill="#c4c4c4" stroke="none" points="8.5,-826.5 8.5,-849.5 234.5,-849.5 234.5,-826.5 8.5,-826.5"/>
<polygon fill="none" stroke="black" points="8.5,-826 8.5,-849 234.5,-849 234.5,-826 8.5,-826"/>
<text text-anchor="start" x="13.5" y="-835.4" font-family="Helvetica,sans-Serif" font-weight="bold" font-size="12.00">F_V_BXDR_SRVC_PROV_CITY_CI_H</text>
</g>
<!-- F_V_BXDR_SRVC_PROV_CITY_CI_H&#45;&#45;FAULT_LOCATING_RADIO_DETAIL_SUMMARY -->
<g id="edge18" class="edge"><title>F_V_BXDR_SRVC_PROV_CITY_CI_H&#45;&#45;FAULT_LOCATING_RADIO_DETAIL_SUMMARY</title>
<path fill="none" stroke="#7f7f7f" stroke-dasharray="5,2" d="M240.869,-856.056C278.656,-861.82 320.463,-868.198 358.243,-873.961"/>
<text text-anchor="start" x="351.243" y="-862.761" font-family="Times New Roman,serif" font-size="14.00">1</text>
<text text-anchor="start" x="233.869" y="-859.856" font-family="Times New Roman,serif" font-size="14.00">1</text>
</g>
<!-- F_V_BXDR_SRVCC_MESSAGE_H -->
<g id="node22" class="node"><title>F_V_BXDR_SRVCC_MESSAGE_H</title>
<polygon fill="#c4c4c4" stroke="none" points="17.5,-364.5 17.5,-387.5 225.5,-387.5 225.5,-364.5 17.5,-364.5"/>
<polygon fill="none" stroke="black" points="17.5,-364 17.5,-387 225.5,-387 225.5,-364 17.5,-364"/>
<text text-anchor="start" x="22.5" y="-373.4" font-family="Helvetica,sans-Serif" font-weight="bold" font-size="12.00">F_V_BXDR_SRVCC_MESSAGE_H</text>
</g>
<!-- F_V_BXDR_SRVCC_MESSAGE_H&#45;&#45;FAULT_LOCATING_RADIO_SUMMARY -->
<g id="edge19" class="edge"><title>F_V_BXDR_SRVCC_MESSAGE_H&#45;&#45;FAULT_LOCATING_RADIO_SUMMARY</title>
<path fill="none" stroke="#7f7f7f" stroke-dasharray="5,2" d="M170.296,-394.085C209.268,-408.578 265.868,-429.055 316,-445 346.06,-454.561 379.619,-464.138 408.248,-471.984"/>
<text text-anchor="start" x="401.248" y="-460.784" font-family="Times New Roman,serif" font-size="14.00">1</text>
<text text-anchor="start" x="163.296" y="-397.885" font-family="Times New Roman,serif" font-size="14.00">1</text>
</g>
<!-- F_V_BXDR_SRVCC_MESSAGE_H&#45;&#45;FAULT_LOCATING_IMS_SUMMARY -->
<g id="edge20" class="edge"><title>F_V_BXDR_SRVCC_MESSAGE_H&#45;&#45;FAULT_LOCATING_IMS_SUMMARY</title>
<path fill="none" stroke="#7f7f7f" stroke-dasharray="5,2" d="M140.4,-357.754C172.514,-326.143 243.37,-261.384 316,-228 330.363,-221.398 346.043,-216.06 361.792,-211.75"/>
<text text-anchor="start" x="354.792" y="-200.55" font-family="Times New Roman,serif" font-size="14.00">1</text>
<text text-anchor="start" x="133.4" y="-346.554" font-family="Times New Roman,serif" font-size="14.00">1</text>
</g>
<!-- F_V_BXDR_SRVCC_MESSAGE_H&#45;&#45;FAULT_LOCATING_IMS_DETAIL_SUMMARY -->
<g id="edge21" class="edge"><title>F_V_BXDR_SRVCC_MESSAGE_H&#45;&#45;FAULT_LOCATING_IMS_DETAIL_SUMMARY</title>
<path fill="none" stroke="#7f7f7f" stroke-dasharray="5,2" d="M233.537,-366.59C266.081,-363.832 302.097,-360.78 336.21,-357.889"/>
<text text-anchor="start" x="329.21" y="-346.689" font-family="Times New Roman,serif" font-size="14.00">1</text>
<text text-anchor="start" x="233.537" y="-355.39" font-family="Times New Roman,serif" font-size="14.00">1</text>
</g>
<!-- F_V_BXDR_SRVCC_MESSAGE_H&#45;&#45;FAULT_LOCATING_CS_SUMMARY -->
<g id="edge22" class="edge"><title>F_V_BXDR_SRVCC_MESSAGE_H&#45;&#45;FAULT_LOCATING_CS_SUMMARY</title>
<path fill="none" stroke="#7f7f7f" stroke-dasharray="5,2" d="M175.497,-357.885C242.426,-335.008 356.893,-295.883 423.719,-273.041"/>
<text text-anchor="start" x="416.719" y="-276.841" font-family="Times New Roman,serif" font-size="14.00">1</text>
<text text-anchor="start" x="168.497" y="-346.685" font-family="Times New Roman,serif" font-size="14.00">1</text>
</g>
<!-- F_V_BXDR_SRVCC_MESSAGE_H&#45;&#45;FAULT_LOCATING_CS_DETAIL_SUMMARY -->
<g id="edge23" class="edge"><title>F_V_BXDR_SRVCC_MESSAGE_H&#45;&#45;FAULT_LOCATING_CS_DETAIL_SUMMARY</title>
<path fill="none" stroke="#7f7f7f" stroke-dasharray="5,2" d="M233.537,-389.174C266.79,-393.119 303.669,-397.495 338.438,-401.62"/>
<text text-anchor="start" x="331.438" y="-390.42" font-family="Times New Roman,serif" font-size="14.00">1</text>
<text text-anchor="start" x="233.537" y="-377.974" font-family="Times New Roman,serif" font-size="14.00">1</text>
</g>
</g>
</svg>
