<?xml version="1.0" encoding="UTF-8" standalone="no"?>
<!DOCTYPE svg PUBLIC "-//W3C//DTD SVG 1.1//EN"
 "http://www.w3.org/Graphics/SVG/1.1/DTD/svg11.dtd">
<!-- Generated by graphviz version 2.38.0 (20140413.2041)
 -->
<!-- Title: G Pages: 1 -->
<svg width="1672pt" height="629pt"
 viewBox="0.00 0.00 1671.50 629.00" xmlns="http://www.w3.org/2000/svg" xmlns:xlink="http://www.w3.org/1999/xlink">
<g id="graph0" class="graph" transform="scale(1 1) rotate(0) translate(4 625)">
<title>G</title>
<polygon fill="white" stroke="none" points="-4,4 -4,-625 1667.5,-625 1667.5,4 -4,4"/>
<g id="clust1" class="cluster"><title>clusterset1</title>
<polygon fill="none" stroke="green" points="47.5,-206 47.5,-613 258.5,-613 258.5,-206 47.5,-206"/>
<text text-anchor="start" x="88" y="-597.8" font-family="Times New Roman,serif" font-size="14.00" fill="blue">StreamingContext 入口</text>
</g>
<g id="clust4" class="cluster"><title>clusterset2</title>
<polygon fill="none" stroke="green" points="266.5,-347 266.5,-415 1381.5,-415 1381.5,-347 266.5,-347"/>
<text text-anchor="start" x="772" y="-399.8" font-family="Times New Roman,serif" font-size="14.00" fill="cornflowerblue">JobScheduler start</text>
</g>
<g id="clust7" class="cluster"><title>clusterset3</title>
<polygon fill="none" stroke="green" points="945.5,-8 945.5,-339 1105.5,-339 1105.5,-8 945.5,-8"/>
<text text-anchor="start" x="973.5" y="-323.8" font-family="Times New Roman,serif" font-size="14.00" fill="cornflowerblue">JobGenerator start</text>
</g>
<g id="clust12" class="cluster"><title>clusterset4</title>
<polygon fill="none" stroke="green" points="1113.5,-8 1113.5,-76 1655.5,-76 1655.5,-8 1113.5,-8"/>
<text text-anchor="start" x="1326.5" y="-60.8" font-family="Times New Roman,serif" font-size="14.00" fill="cornflowerblue">RecurringTimer start</text>
</g>
<!-- n1 -->
<g id="node1" class="node"><title>n1</title>
</g>
<!-- n2 -->
<g id="node2" class="node"><title>n2</title>
</g>
<!-- n3 -->
<g id="node3" class="node"><title>n3</title>
</g>
<!-- m1 -->
<g id="node4" class="node"><title>m1</title>
<ellipse fill="black" stroke="black" cx="241.5" cy="-369.5" rx="3.6" ry="3.6"/>
</g>
<!-- m11 -->
<g id="node5" class="node"><title>m11</title>
<ellipse fill="black" stroke="black" cx="246.5" cy="-567.5" rx="3.6" ry="3.6"/>
</g>
<!-- m12 -->
<g id="node6" class="node"><title>m12</title>
<ellipse fill="black" stroke="black" cx="246.5" cy="-228.5" rx="3.6" ry="3.6"/>
</g>
<!-- m2 -->
<g id="node7" class="node"><title>m2</title>
<ellipse fill="black" stroke="black" cx="764.5" cy="-567.5" rx="3.6" ry="3.6"/>
</g>
<!-- m3 -->
<g id="node8" class="node"><title>m3</title>
<ellipse fill="black" stroke="black" cx="764.5" cy="-502.5" rx="3.6" ry="3.6"/>
</g>
<!-- m2&#45;&gt;m3 -->
<!-- m4 -->
<g id="node9" class="node"><title>m4</title>
<ellipse fill="black" stroke="black" cx="764.5" cy="-437.5" rx="3.6" ry="3.6"/>
</g>
<!-- m3&#45;&gt;m4 -->
<!-- m5 -->
<g id="node10" class="node"><title>m5</title>
<ellipse fill="black" stroke="black" cx="764.5" cy="-369.5" rx="3.6" ry="3.6"/>
</g>
<!-- m4&#45;&gt;m5 -->
<!-- m6 -->
<g id="node11" class="node"><title>m6</title>
<ellipse fill="black" stroke="black" cx="764.5" cy="-293.5" rx="3.6" ry="3.6"/>
</g>
<!-- m5&#45;&gt;m6 -->
<!-- m7 -->
<g id="node12" class="node"><title>m7</title>
<ellipse fill="black" stroke="black" cx="764.5" cy="-228.5" rx="3.6" ry="3.6"/>
</g>
<!-- m6&#45;&gt;m7 -->
<!-- m8 -->
<g id="node13" class="node"><title>m8</title>
<ellipse fill="black" stroke="black" cx="764.5" cy="-163.5" rx="3.6" ry="3.6"/>
</g>
<!-- m7&#45;&gt;m8 -->
<!-- m9 -->
<g id="node14" class="node"><title>m9</title>
<ellipse fill="black" stroke="black" cx="764.5" cy="-98.5" rx="3.6" ry="3.6"/>
</g>
<!-- m8&#45;&gt;m9 -->
<!-- m10 -->
<g id="node15" class="node"><title>m10</title>
<ellipse fill="black" stroke="black" cx="764.5" cy="-30.5" rx="3.6" ry="3.6"/>
</g>
<!-- m9&#45;&gt;m10 -->
<!-- ma1 -->
<g id="node16" class="node"><title>ma1</title>
</g>
<!-- ma2 -->
<g id="node17" class="node"><title>ma2</title>
</g>
<!-- ma3 -->
<g id="node18" class="node"><title>ma3</title>
</g>
<!-- ma4 -->
<g id="node19" class="node"><title>ma4</title>
</g>
<!-- ma5 -->
<g id="node20" class="node"><title>ma5</title>
</g>
<!-- dkwc -->
<g id="node21" class="node"><title>dkwc</title>
<polygon fill="none" stroke="black" points="225,-582 62,-582 62,-553 225,-553 225,-582"/>
<text text-anchor="middle" x="143.5" y="-563.8" font-family="Arial" font-size="14.00">DirectKafkaWordCount</text>
</g>
<!-- a1 -->
<g id="node23" class="node"><title>a1</title>
<text text-anchor="middle" x="143.5" y="-499.7" font-family="Arial" font-size="11.00">ssc.start()</text>
</g>
<!-- dkwc&#45;&gt;a1 -->
<g id="edge9" class="edge"><title>dkwc&#45;&gt;a1</title>
<path fill="none" stroke="black" d="M143.5,-552.75C143.5,-552.75 143.5,-527.191 143.5,-527.191"/>
<polygon fill="black" stroke="black" points="147,-527.191 143.5,-517.191 140,-527.191 147,-527.191"/>
</g>
<!-- ssc -->
<g id="node22" class="node"><title>ssc</title>
<polygon fill="none" stroke="black" points="215.5,-452 71.5,-452 71.5,-423 215.5,-423 215.5,-452"/>
<text text-anchor="middle" x="143.5" y="-433.8" font-family="Arial" font-size="14.00">StreamingContext</text>
</g>
<!-- a2 -->
<g id="node24" class="node"><title>a2</title>
<text text-anchor="middle" x="143.5" y="-366.7" font-family="Arial" font-size="11.00">scheduler.start()#583</text>
</g>
<!-- ssc&#45;&gt;a2 -->
<g id="edge11" class="edge"><title>ssc&#45;&gt;a2</title>
<path fill="none" stroke="black" d="M143.5,-422.745C143.5,-422.745 143.5,-394.226 143.5,-394.226"/>
<polygon fill="black" stroke="black" points="147,-394.226 143.5,-384.226 140,-394.226 147,-394.226"/>
</g>
<!-- a1&#45;&gt;ssc -->
<g id="edge10" class="edge"><title>a1&#45;&gt;ssc</title>
<path fill="none" stroke="black" d="M143.5,-487.75C143.5,-487.75 143.5,-462.191 143.5,-462.191"/>
<polygon fill="black" stroke="black" points="147,-462.191 143.5,-452.191 140,-462.191 147,-462.191"/>
</g>
<!-- a3 -->
<g id="node25" class="node"><title>a3</title>
<text text-anchor="middle" x="144.5" y="-290.7" font-family="Arial" font-size="11.00">scheduler.listenerBus.post()#586</text>
</g>
<!-- a2&#45;&gt;a3 -->
<g id="edge12" class="edge"><title>a2&#45;&gt;a3</title>
<path fill="none" stroke="black" d="M143.5,-354.846C143.5,-354.846 143.5,-318.109 143.5,-318.109"/>
<polygon fill="black" stroke="black" points="147,-318.109 143.5,-308.109 140,-318.109 147,-318.109"/>
</g>
<!-- a4 -->
<g id="node26" class="node"><title>a4</title>
<text text-anchor="middle" x="144.5" y="-225.7" font-family="Arial" font-size="11.00">uiTab.foreach(_.attach())#603</text>
</g>
<!-- a3&#45;&gt;a4 -->
<g id="edge13" class="edge"><title>a3&#45;&gt;a4</title>
<path fill="none" stroke="black" d="M144.5,-278.75C144.5,-278.75 144.5,-253.191 144.5,-253.191"/>
<polygon fill="black" stroke="black" points="148,-253.191 144.5,-243.191 141,-253.191 148,-253.191"/>
</g>
<!-- bjs -->
<g id="node27" class="node"><title>bjs</title>
<polygon fill="none" stroke="black" points="418.5,-384 274.5,-384 274.5,-355 418.5,-355 418.5,-384"/>
<text text-anchor="middle" x="346.5" y="-366.7" font-family="Arial" font-size="11.00">JobScheduler</text>
</g>
<!-- b1 -->
<g id="node28" class="node"><title>b1</title>
<text text-anchor="middle" x="508.5" y="-366.7" font-family="Arial" font-size="11.00">eventLoop.start()#78</text>
</g>
<!-- bjs&#45;&gt;b1 -->
<g id="edge14" class="edge"><title>bjs&#45;&gt;b1</title>
<path fill="none" stroke="black" d="M418.971,-369C418.971,-369 426.466,-369 426.466,-369"/>
<polygon fill="black" stroke="black" points="426.466,-372.5 436.466,-369 426.466,-365.5 426.466,-372.5"/>
</g>
<!-- b2 -->
<g id="node29" class="node"><title>b2</title>
<text text-anchor="middle" x="670.5" y="-366.7" font-family="Arial" font-size="11.00">listenerBus.start()#86</text>
</g>
<!-- b1&#45;&gt;b2 -->
<g id="edge15" class="edge"><title>b1&#45;&gt;b2</title>
<path fill="none" stroke="black" d="M580.971,-369C580.971,-369 588.466,-369 588.466,-369"/>
<polygon fill="black" stroke="black" points="588.466,-372.5 598.466,-369 588.466,-365.5 588.466,-372.5"/>
</g>
<!-- b3 -->
<g id="node30" class="node"><title>b3</title>
<text text-anchor="middle" x="860.5" y="-366.7" font-family="Arial" font-size="11.00">receiverTracker.start()#102</text>
</g>
<!-- b2&#45;&gt;b3 -->
<g id="edge16" class="edge"><title>b2&#45;&gt;b3</title>
<path fill="none" stroke="black" d="M742.602,-360C742.602,-360 775.921,-360 775.921,-360"/>
<polygon fill="black" stroke="black" points="775.921,-363.5 785.921,-360 775.921,-356.5 775.921,-363.5"/>
</g>
<!-- b3&#45;&gt;ma4 -->
<g id="edge19" class="edge"><title>b3&#45;&gt;ma4</title>
<path fill="none" stroke="black" d="M860.5,-354.846C860.5,-354.846 860.5,-307.269 860.5,-307.269"/>
<polygon fill="black" stroke="black" points="864,-307.269 860.5,-297.269 857,-307.269 864,-307.269"/>
</g>
<!-- b4 -->
<g id="node31" class="node"><title>b4</title>
<text text-anchor="middle" x="1025.5" y="-366.7" font-family="Arial" font-size="11.00">jobGenerator.start()#103</text>
</g>
<!-- b3&#45;&gt;b4 -->
<g id="edge17" class="edge"><title>b3&#45;&gt;b4</title>
<path fill="none" stroke="black" d="M935.276,-369C935.276,-369 943.474,-369 943.474,-369"/>
<polygon fill="black" stroke="black" points="943.474,-372.5 953.474,-369 943.474,-365.5 943.474,-372.5"/>
</g>
<!-- b5 -->
<g id="node32" class="node"><title>b5</title>
<text text-anchor="middle" x="1244.5" y="-366.7" font-family="Arial" font-size="11.00">executorAllocationManager.foreach(_.start())#104</text>
</g>
<!-- b4&#45;&gt;b5 -->
<g id="edge18" class="edge"><title>b4&#45;&gt;b5</title>
<path fill="none" stroke="black" d="M1097.51,-369C1097.51,-369 1105.89,-369 1105.89,-369"/>
<polygon fill="black" stroke="black" points="1105.89,-372.5 1115.89,-369 1105.89,-365.5 1105.89,-372.5"/>
</g>
<!-- jg -->
<g id="node33" class="node"><title>jg</title>
<polygon fill="none" stroke="black" points="1097.5,-308 953.5,-308 953.5,-279 1097.5,-279 1097.5,-308"/>
<text text-anchor="middle" x="1025.5" y="-290.7" font-family="Arial" font-size="11.00">JobGenerator</text>
</g>
<!-- b4&#45;&gt;jg -->
<g id="edge20" class="edge"><title>b4&#45;&gt;jg</title>
<path fill="none" stroke="black" d="M1025.5,-354.846C1025.5,-354.846 1025.5,-318.109 1025.5,-318.109"/>
<polygon fill="black" stroke="black" points="1029,-318.109 1025.5,-308.109 1022,-318.109 1029,-318.109"/>
</g>
<!-- c1 -->
<g id="node34" class="node"><title>c1</title>
<text text-anchor="middle" x="1025.5" y="-225.7" font-family="Arial" font-size="11.00">eventLoop.start()#78</text>
</g>
<!-- jg&#45;&gt;c1 -->
<g id="edge21" class="edge"><title>jg&#45;&gt;c1</title>
<path fill="none" stroke="black" d="M1025.5,-278.75C1025.5,-278.75 1025.5,-253.191 1025.5,-253.191"/>
<polygon fill="black" stroke="black" points="1029,-253.191 1025.5,-243.191 1022,-253.191 1029,-253.191"/>
</g>
<!-- c2 -->
<g id="node35" class="node"><title>c2</title>
<text text-anchor="middle" x="1025.5" y="-160.7" font-family="Arial" font-size="11.00">startFirstTime()#100</text>
</g>
<!-- c1&#45;&gt;c2 -->
<g id="edge22" class="edge"><title>c1&#45;&gt;c2</title>
<path fill="none" stroke="black" d="M1025.5,-213.75C1025.5,-213.75 1025.5,-188.191 1025.5,-188.191"/>
<polygon fill="black" stroke="black" points="1029,-188.191 1025.5,-178.191 1022,-188.191 1029,-188.191"/>
</g>
<!-- c3 -->
<g id="node36" class="node"><title>c3</title>
<text text-anchor="middle" x="1025.5" y="-95.7" font-family="Arial" font-size="11.00">graph.start()#194</text>
</g>
<!-- c2&#45;&gt;c3 -->
<g id="edge23" class="edge"><title>c2&#45;&gt;c3</title>
<path fill="none" stroke="black" d="M1025.5,-148.75C1025.5,-148.75 1025.5,-123.191 1025.5,-123.191"/>
<polygon fill="black" stroke="black" points="1029,-123.191 1025.5,-113.191 1022,-123.191 1029,-123.191"/>
</g>
<!-- c4 -->
<g id="node37" class="node"><title>c4</title>
<text text-anchor="middle" x="1025.5" y="-27.7" font-family="Arial" font-size="11.00">timer.start()#195</text>
</g>
<!-- c3&#45;&gt;c4 -->
<g id="edge24" class="edge"><title>c3&#45;&gt;c4</title>
<path fill="none" stroke="black" d="M1025.5,-83.745C1025.5,-83.745 1025.5,-55.2262 1025.5,-55.2262"/>
<polygon fill="black" stroke="black" points="1029,-55.2262 1025.5,-45.2262 1022,-55.2262 1029,-55.2262"/>
</g>
<!-- mb1 -->
<g id="node38" class="node"><title>mb1</title>
</g>
<!-- mb2 -->
<g id="node39" class="node"><title>mb2</title>
</g>
<!-- mb1&#45;&gt;mb2 -->
<!-- mb3 -->
<g id="node40" class="node"><title>mb3</title>
</g>
<!-- mb2&#45;&gt;mb3 -->
<!-- mb4 -->
<g id="node41" class="node"><title>mb4</title>
</g>
<!-- mb3&#45;&gt;mb4 -->
<!-- mb5 -->
<g id="node42" class="node"><title>mb5</title>
</g>
<!-- mb4&#45;&gt;mb5 -->
<!-- mb6 -->
<g id="node43" class="node"><title>mb6</title>
</g>
<!-- rt -->
<g id="node44" class="node"><title>rt</title>
<polygon fill="none" stroke="black" points="1265.5,-45 1121.5,-45 1121.5,-16 1265.5,-16 1265.5,-45"/>
<text text-anchor="middle" x="1193.5" y="-27.7" font-family="Arial" font-size="11.00">RecurringTimer</text>
</g>
<!-- d1 -->
<g id="node45" class="node"><title>d1</title>
<text text-anchor="middle" x="1355.5" y="-27.7" font-family="Arial" font-size="11.00">loop()#103</text>
</g>
<!-- rt&#45;&gt;d1 -->
<g id="edge29" class="edge"><title>rt&#45;&gt;d1</title>
<path fill="none" stroke="black" d="M1265.97,-30C1265.97,-30 1273.47,-30 1273.47,-30"/>
<polygon fill="black" stroke="black" points="1273.47,-33.5001 1283.47,-30 1273.47,-26.5001 1273.47,-33.5001"/>
</g>
<!-- d2 -->
<g id="node46" class="node"><title>d2</title>
<text text-anchor="middle" x="1533.5" y="-27.7" font-family="Arial" font-size="11.00">triggerActionForNextInterval()#92</text>
</g>
<!-- d1&#45;&gt;d2 -->
<g id="edge30" class="edge"><title>d1&#45;&gt;d2</title>
<path fill="none" stroke="black" d="M1427.64,-30C1427.64,-30 1435.48,-30 1435.48,-30"/>
<polygon fill="black" stroke="black" points="1435.48,-33.5001 1445.48,-30 1435.48,-26.5001 1435.48,-33.5001"/>
</g>
<!-- e1 -->
<g id="node47" class="node"><title>e1</title>
<g id="a_node47"><a xlink:title="JobGenerator#private val timer = new RecurringTimer(clock, ssc.graph.batchDuration.milliseconds,longTime =&gt; eventLoop.post(GenerateJobs(new Time(longTime))), &quot;JobGenerator&quot;) ">
<text text-anchor="middle" x="983.5" y="-564.7" font-family="Arial" font-size="11.00">callback()#61</text>
</a>
</g>
</g>
<!-- e2 -->
<g id="node48" class="node"><title>e2</title>
<g id="a_node48"><a xlink:title="JobGenerator#eventLoop#processEvent(event)">
<text text-anchor="middle" x="1145.5" y="-564.7" font-family="Arial" font-size="11.00">processEvent(event)#89</text>
</a>
</g>
</g>
<!-- e3 -->
<g id="node49" class="node"><title>e3</title>
<g id="a_node49"><a xlink:title="case GenerateJobs(time) =&gt; generateJobs(time)">
<text text-anchor="middle" x="1307.5" y="-564.7" font-family="Arial" font-size="11.00">generateJobs(time)#183</text>
</a>
</g>
</g>
<!-- e4 -->
<g id="node50" class="node"><title>e4</title>
<g id="a_node50"><a xlink:title="jobScheduler.receiverTracker.allocateBlocksToBatch(time) // allocate received blocks to batch">
<text text-anchor="middle" x="1488.5" y="-564.7" font-family="Arial" font-size="11.00">allocateBlocksToBatch(time)#248</text>
</a>
</g>
</g>
</g>
</svg>
