<?xml version="1.0" encoding="UTF-8" standalone="no"?>
<!DOCTYPE svg PUBLIC "-//W3C//DTD SVG 1.1//EN"
 "http://www.w3.org/Graphics/SVG/1.1/DTD/svg11.dtd">
<!-- Generated by graphviz version 2.38.0 (20140413.2041)
 -->
<!-- Title: G Pages: 1 -->
<svg width="1658pt" height="417pt"
 viewBox="0.00 0.00 1658.00 417.00" xmlns="http://www.w3.org/2000/svg" xmlns:xlink="http://www.w3.org/1999/xlink">
<g id="graph0" class="graph" transform="scale(1 1) rotate(0) translate(4 413)">
<title>G</title>
<polygon fill="white" stroke="none" points="-4,4 -4,-413 1654,-413 1654,4 -4,4"/>
<g id="clust1" class="cluster"><title>clusterset1</title>
<polygon fill="none" stroke="green" points="8,-8 8,-401 202,-401 202,-8 8,-8"/>
<text text-anchor="start" x="40" y="-385.8" font-family="Times New Roman,serif" font-size="14.00" fill="blue">StreamingContext 入口</text>
</g>
<g id="clust3" class="cluster"><title>clusterset11</title>
<polygon fill="none" stroke="black" points="1496,-217 1496,-387 1642,-387 1642,-217 1496,-217"/>
<text text-anchor="start" x="1504" y="-371.8" font-family="Times New Roman,serif" font-size="14.00" fill="blue">StreamingContext 入口</text>
</g>
<g id="clust4" class="cluster"><title>clusterset2</title>
<polygon fill="none" stroke="green" points="210,-333 210,-401 1320,-401 1320,-333 210,-333"/>
<text text-anchor="start" x="713" y="-385.8" font-family="Times New Roman,serif" font-size="14.00" fill="cornflowerblue">JobScheduler start</text>
</g>
<g id="clust7" class="cluster"><title>clusterset3</title>
<polygon fill="none" stroke="green" points="1328,-138 1328,-387 1488,-387 1488,-138 1328,-138"/>
<text text-anchor="start" x="1356" y="-371.8" font-family="Times New Roman,serif" font-size="14.00" fill="cornflowerblue">JobGenerator start</text>
</g>
<!-- n1 -->
<g id="node1" class="node"><title>n1</title>
</g>
<!-- n2 -->
<g id="node2" class="node"><title>n2</title>
</g>
<!-- bjs -->
<g id="node14" class="node"><title>bjs</title>
<polygon fill="none" stroke="black" points="382,-370 238,-370 238,-341 382,-341 382,-370"/>
<text text-anchor="middle" x="310" y="-351.8" font-family="Arial" font-size="14.00">JobScheduler</text>
</g>
<!-- n2&#45;&gt;bjs -->
<g id="edge9" class="edge"><title>n2&#45;&gt;bjs</title>
<path fill="none" stroke="black" d="M219.581,-355C219.581,-355 227.814,-355 227.814,-355"/>
<polygon fill="black" stroke="black" points="227.814,-358.5 237.814,-355 227.814,-351.5 227.814,-358.5"/>
</g>
<!-- n3 -->
<g id="node3" class="node"><title>n3</title>
</g>
<!-- jg -->
<g id="node20" class="node"><title>jg</title>
<polygon fill="none" stroke="black" points="1480,-305 1336,-305 1336,-276 1480,-276 1480,-305"/>
<text text-anchor="middle" x="1408" y="-286.8" font-family="Arial" font-size="14.00">JobGenerator</text>
</g>
<!-- n3&#45;&gt;jg -->
<g id="edge15" class="edge"><title>n3&#45;&gt;jg</title>
<path fill="none" stroke="black" d="M1408,-354.77C1408,-354.77 1408,-315.168 1408,-315.168"/>
<polygon fill="black" stroke="black" points="1411.5,-315.168 1408,-305.168 1404.5,-315.168 1411.5,-315.168"/>
</g>
<!-- dkwc -->
<g id="node4" class="node"><title>dkwc</title>
<polygon fill="none" stroke="black" points="183.5,-370 20.5,-370 20.5,-341 183.5,-341 183.5,-370"/>
<text text-anchor="middle" x="102" y="-351.8" font-family="Arial" font-size="14.00">DirectKafkaWordCount</text>
</g>
<!-- a1 -->
<g id="node6" class="node"><title>a1</title>
<text text-anchor="middle" x="102" y="-287.7" font-family="Arial" font-size="11.00">ssc.start()</text>
</g>
<!-- dkwc&#45;&gt;a1 -->
<g id="edge1" class="edge"><title>dkwc&#45;&gt;a1</title>
<path fill="none" stroke="black" d="M102,-340.75C102,-340.75 102,-315.191 102,-315.191"/>
<polygon fill="black" stroke="black" points="105.5,-315.191 102,-305.191 98.5001,-315.191 105.5,-315.191"/>
</g>
<!-- ssc -->
<g id="node5" class="node"><title>ssc</title>
<polygon fill="none" stroke="black" points="174,-240 30,-240 30,-211 174,-211 174,-240"/>
<text text-anchor="middle" x="102" y="-221.8" font-family="Arial" font-size="14.00">StreamingContext</text>
</g>
<!-- a2 -->
<g id="node7" class="node"><title>a2</title>
<text text-anchor="middle" x="102" y="-157.7" font-family="Arial" font-size="11.00">scheduler.start()#583</text>
</g>
<!-- ssc&#45;&gt;a2 -->
<g id="edge3" class="edge"><title>ssc&#45;&gt;a2</title>
<path fill="none" stroke="black" d="M102,-210.75C102,-210.75 102,-185.191 102,-185.191"/>
<polygon fill="black" stroke="black" points="105.5,-185.191 102,-175.191 98.5001,-185.191 105.5,-185.191"/>
</g>
<!-- a1&#45;&gt;ssc -->
<g id="edge2" class="edge"><title>a1&#45;&gt;ssc</title>
<path fill="none" stroke="black" d="M102,-275.75C102,-275.75 102,-250.191 102,-250.191"/>
<polygon fill="black" stroke="black" points="105.5,-250.191 102,-240.191 98.5001,-250.191 105.5,-250.191"/>
</g>
<!-- a2&#45;&gt;n1 -->
<g id="edge5" class="edge"><title>a2&#45;&gt;n1</title>
<path fill="none" stroke="black" d="M174.145,-160C183.119,-160 189.957,-160 192.206,-160"/>
</g>
<!-- a3 -->
<g id="node8" class="node"><title>a3</title>
<text text-anchor="middle" x="105" y="-92.7" font-family="Arial" font-size="11.00">scheduler.listenerBus.post()#586</text>
</g>
<!-- a2&#45;&gt;a3 -->
<g id="edge4" class="edge"><title>a2&#45;&gt;a3</title>
<path fill="none" stroke="black" d="M102,-145.75C102,-145.75 102,-120.191 102,-120.191"/>
<polygon fill="black" stroke="black" points="105.5,-120.191 102,-110.191 98.5001,-120.191 105.5,-120.191"/>
</g>
<!-- a4 -->
<g id="node9" class="node"><title>a4</title>
<text text-anchor="middle" x="105" y="-27.7" font-family="Arial" font-size="11.00">uiTab.foreach(_.attach())#603</text>
</g>
<!-- a3&#45;&gt;a4 -->
<g id="edge6" class="edge"><title>a3&#45;&gt;a4</title>
<path fill="none" stroke="black" d="M105,-80.7505C105,-80.7505 105,-55.1911 105,-55.1911"/>
<polygon fill="black" stroke="black" points="108.5,-55.1911 105,-45.1911 101.5,-55.1912 108.5,-55.1911"/>
</g>
<!-- phantom1 -->
<g id="node10" class="node"><title>phantom1</title>
</g>
<!-- phantom2 -->
<g id="node11" class="node"><title>phantom2</title>
</g>
<!-- phantom1&#45;&gt;phantom2 -->
<g id="edge7" class="edge"><title>phantom1&#45;&gt;phantom2</title>
<path fill="none" stroke="black" d="M1605,-354.77C1605,-354.77 1605,-301.143 1605,-301.143"/>
<polygon fill="black" stroke="black" points="1608.5,-301.143 1605,-291.143 1601.5,-301.143 1608.5,-301.143"/>
</g>
<!-- phantom3 -->
<g id="node12" class="node"><title>phantom3</title>
</g>
<!-- phantom2&#45;&gt;phantom3 -->
<g id="edge8" class="edge"><title>phantom2&#45;&gt;phantom3</title>
<path fill="none" stroke="black" d="M1605,-289.77C1605,-289.77 1605,-236.143 1605,-236.143"/>
<polygon fill="black" stroke="black" points="1608.5,-236.143 1605,-226.143 1601.5,-236.143 1608.5,-236.143"/>
</g>
<!-- phantom4 -->
<g id="node13" class="node"><title>phantom4</title>
</g>
<!-- b1 -->
<g id="node15" class="node"><title>b1</title>
<text text-anchor="middle" x="472" y="-352.7" font-family="Arial" font-size="11.00">eventLoop.start()#78</text>
</g>
<!-- bjs&#45;&gt;b1 -->
<g id="edge10" class="edge"><title>bjs&#45;&gt;b1</title>
<path fill="none" stroke="black" d="M382.471,-355C382.471,-355 389.966,-355 389.966,-355"/>
<polygon fill="black" stroke="black" points="389.966,-358.5 399.966,-355 389.966,-351.5 389.966,-358.5"/>
</g>
<!-- b2 -->
<g id="node16" class="node"><title>b2</title>
<text text-anchor="middle" x="634" y="-352.7" font-family="Arial" font-size="11.00">listenerBus.start()#86</text>
</g>
<!-- b1&#45;&gt;b2 -->
<g id="edge11" class="edge"><title>b1&#45;&gt;b2</title>
<path fill="none" stroke="black" d="M544.471,-355C544.471,-355 551.966,-355 551.966,-355"/>
<polygon fill="black" stroke="black" points="551.966,-358.5 561.966,-355 551.966,-351.5 551.966,-358.5"/>
</g>
<!-- b3 -->
<g id="node17" class="node"><title>b3</title>
<text text-anchor="middle" x="799" y="-352.7" font-family="Arial" font-size="11.00">receiverTracker.start()#102</text>
</g>
<!-- b2&#45;&gt;b3 -->
<g id="edge12" class="edge"><title>b2&#45;&gt;b3</title>
<path fill="none" stroke="black" d="M706.371,-355C706.371,-355 714.383,-355 714.383,-355"/>
<polygon fill="black" stroke="black" points="714.383,-358.5 724.383,-355 714.383,-351.5 714.383,-358.5"/>
</g>
<!-- b4 -->
<g id="node18" class="node"><title>b4</title>
<text text-anchor="middle" x="964" y="-352.7" font-family="Arial" font-size="11.00">jobGenerator.start()#103</text>
</g>
<!-- b3&#45;&gt;b4 -->
<g id="edge13" class="edge"><title>b3&#45;&gt;b4</title>
<path fill="none" stroke="black" d="M873.776,-355C873.776,-355 881.974,-355 881.974,-355"/>
<polygon fill="black" stroke="black" points="881.974,-358.5 891.974,-355 881.974,-351.5 881.974,-358.5"/>
</g>
<!-- b5 -->
<g id="node19" class="node"><title>b5</title>
<text text-anchor="middle" x="1183" y="-352.7" font-family="Arial" font-size="11.00">executorAllocationManager.foreach(_.start())#104</text>
</g>
<!-- b4&#45;&gt;b5 -->
<g id="edge14" class="edge"><title>b4&#45;&gt;b5</title>
<path fill="none" stroke="black" d="M1036.01,-355C1036.01,-355 1044.39,-355 1044.39,-355"/>
<polygon fill="black" stroke="black" points="1044.39,-358.5 1054.39,-355 1044.39,-351.5 1044.39,-358.5"/>
</g>
<!-- c1 -->
<g id="node21" class="node"><title>c1</title>
<text text-anchor="middle" x="1408" y="-222.7" font-family="Arial" font-size="11.00">eventLoop.start()#78</text>
</g>
<!-- jg&#45;&gt;c1 -->
<g id="edge16" class="edge"><title>jg&#45;&gt;c1</title>
<path fill="none" stroke="black" d="M1408,-275.75C1408,-275.75 1408,-250.191 1408,-250.191"/>
<polygon fill="black" stroke="black" points="1411.5,-250.191 1408,-240.191 1404.5,-250.191 1411.5,-250.191"/>
</g>
<!-- c2 -->
<g id="node22" class="node"><title>c2</title>
<text text-anchor="middle" x="1408" y="-157.7" font-family="Arial" font-size="11.00">startFirstTime()#100</text>
</g>
<!-- c1&#45;&gt;c2 -->
<g id="edge17" class="edge"><title>c1&#45;&gt;c2</title>
<path fill="none" stroke="black" d="M1408,-210.75C1408,-210.75 1408,-185.191 1408,-185.191"/>
<polygon fill="black" stroke="black" points="1411.5,-185.191 1408,-175.191 1404.5,-185.191 1411.5,-185.191"/>
</g>
</g>
</svg>
