<?xml version="1.0" encoding="UTF-8" standalone="no"?>
<!DOCTYPE svg PUBLIC "-//W3C//DTD SVG 1.1//EN"
 "http://www.w3.org/Graphics/SVG/1.1/DTD/svg11.dtd">
<!-- Generated by graphviz version 2.38.0 (20140413.2041)
 -->
<!-- Title: G Pages: 1 -->
<svg width="2360pt" height="674pt"
 viewBox="0.00 0.00 2360.00 674.00" xmlns="http://www.w3.org/2000/svg" xmlns:xlink="http://www.w3.org/1999/xlink">
<g id="graph0" class="graph" transform="scale(1 1) rotate(0) translate(4 670)">
<title>G</title>
<polygon fill="white" stroke="none" points="-4,4 -4,-670 2356,-670 2356,4 -4,4"/>
<g id="clust2" class="cluster"><title>clusterset2</title>
<polygon fill="none" stroke="green" points="210,-392 210,-460 1300,-460 1300,-392 210,-392"/>
<text text-anchor="start" x="703" y="-444.8" font-family="Times New Roman,serif" font-size="14.00" fill="cornflowerblue">JobScheduler start</text>
</g>
<g id="clust1" class="cluster"><title>clusterset1</title>
<polygon fill="none" stroke="green" points="8,-217 8,-658 202,-658 202,-217 8,-217"/>
<text text-anchor="start" x="40" y="-642.8" font-family="Times New Roman,serif" font-size="14.00" fill="blue">StreamingContext 入口</text>
</g>
<g id="clust5" class="cluster"><title>clusterset3</title>
<polygon fill="none" stroke="green" points="864,-8 864,-384 1024,-384 1024,-8 864,-8"/>
<text text-anchor="start" x="892" y="-368.8" font-family="Times New Roman,serif" font-size="14.00" fill="cornflowerblue">JobGenerator start</text>
</g>
<g id="clust6" class="cluster"><title>clusterset5</title>
<polygon fill="none" stroke="green" points="1032,-8 1032,-76 1710,-76 1710,-8 1032,-8"/>
<text text-anchor="start" x="1313" y="-60.8" font-family="Times New Roman,serif" font-size="14.00" fill="cornflowerblue">RecurringTimer start</text>
</g>
<g id="clust9" class="cluster"><title>clusterset7</title>
<polygon fill="none" stroke="blue" points="1032,-133 1032,-316 2172,-316 2172,-133 1032,-133"/>
<text text-anchor="start" x="1547.5" y="-300.8" font-family="Times New Roman,serif" font-size="14.00" fill="cornflowerblue">DGraph 生成2 jobs</text>
</g>
<g id="clust10" class="cluster"><title>clusterset4</title>
<polygon fill="none" stroke="blue" points="1040,-141 1040,-209 1724,-209 1724,-141 1040,-141"/>
<text text-anchor="start" x="1357.5" y="-193.8" font-family="Times New Roman,serif" font-size="14.00" fill="cornflowerblue">Callback</text>
</g>
<g id="clust12" class="cluster"><title>clusterset6</title>
<polygon fill="none" stroke="blue" points="1194,-217 1194,-285 2164,-285 2164,-217 1194,-217"/>
<text text-anchor="start" x="1627.5" y="-269.8" font-family="Times New Roman,serif" font-size="14.00" fill="cornflowerblue">DGraph 生成 jobs</text>
</g>
<g id="clust17" class="cluster"><title>clusterset8</title>
<polygon fill="none" stroke="red" points="2180,-8 2180,-209 2344,-209 2344,-8 2180,-8"/>
<text text-anchor="start" x="2195.5" y="-193.8" font-family="Times New Roman,serif" font-size="14.00" fill="cornflowerblue">JobScheduler 提交 jobs</text>
</g>
<!-- dkwc -->
<g id="node1" class="node"><title>dkwc</title>
<polygon fill="none" stroke="black" points="186.5,-627 23.5,-627 23.5,-598 186.5,-598 186.5,-627"/>
<text text-anchor="middle" x="105" y="-608.8" font-family="Arial" font-size="14.00">DirectKafkaWordCount</text>
</g>
<!-- a1 -->
<g id="node3" class="node"><title>a1</title>
<text text-anchor="middle" x="105" y="-544.7" font-family="Arial" font-size="11.00">ssc.start()</text>
</g>
<!-- dkwc&#45;&gt;a1 -->
<g id="edge1" class="edge"><title>dkwc&#45;&gt;a1</title>
<path fill="none" stroke="black" d="M105,-597.83C105,-590.4 105,-580.996 105,-572.397"/>
<polygon fill="black" stroke="black" points="108.5,-572.143 105,-562.143 101.5,-572.143 108.5,-572.143"/>
</g>
<!-- ssc -->
<g id="node2" class="node"><title>ssc</title>
<polygon fill="none" stroke="black" points="177,-497 33,-497 33,-468 177,-468 177,-497"/>
<text text-anchor="middle" x="105" y="-478.8" font-family="Arial" font-size="14.00">StreamingContext</text>
</g>
<!-- a2 -->
<g id="node4" class="node"><title>a2</title>
<text text-anchor="middle" x="105" y="-411.7" font-family="Arial" font-size="11.00">scheduler.start()#583</text>
</g>
<!-- ssc&#45;&gt;a2 -->
<g id="edge3" class="edge"><title>ssc&#45;&gt;a2</title>
<path fill="none" stroke="black" d="M105,-467.825C105,-459.595 105,-448.889 105,-439.307"/>
<polygon fill="black" stroke="black" points="108.5,-439.158 105,-429.158 101.5,-439.158 108.5,-439.158"/>
</g>
<!-- a1&#45;&gt;ssc -->
<g id="edge2" class="edge"><title>a1&#45;&gt;ssc</title>
<path fill="none" stroke="black" d="M105,-532.83C105,-525.4 105,-515.996 105,-507.397"/>
<polygon fill="black" stroke="black" points="108.5,-507.143 105,-497.143 101.5,-507.143 108.5,-507.143"/>
</g>
<!-- a3 -->
<g id="node5" class="node"><title>a3</title>
<text text-anchor="middle" x="105" y="-335.7" font-family="Arial" font-size="11.00">scheduler.listenerBus.post()#586</text>
</g>
<!-- a2&#45;&gt;a3 -->
<g id="edge4" class="edge"><title>a2&#45;&gt;a3</title>
<path fill="none" stroke="black" d="M105,-399.927C105,-389.769 105,-375.607 105,-363.547"/>
<polygon fill="black" stroke="black" points="108.5,-363.237 105,-353.237 101.5,-363.237 108.5,-363.237"/>
</g>
<!-- bjs -->
<g id="node7" class="node"><title>bjs</title>
<polygon fill="none" stroke="black" points="362,-429 218,-429 218,-400 362,-400 362,-429"/>
<text text-anchor="middle" x="290" y="-411.7" font-family="Arial" font-size="11.00">JobScheduler</text>
</g>
<!-- a2&#45;&gt;bjs -->
<g id="edge11" class="edge"><title>a2&#45;&gt;bjs</title>
<path fill="none" stroke="black" d="M177.266,-414.5C187.394,-414.5 197.523,-414.5 207.651,-414.5"/>
<polygon fill="black" stroke="black" points="207.78,-418 217.78,-414.5 207.78,-411 207.78,-418"/>
</g>
<!-- a4 -->
<g id="node6" class="node"><title>a4</title>
<text text-anchor="middle" x="105" y="-236.7" font-family="Arial" font-size="11.00">uiTab.foreach(_.attach())#603</text>
</g>
<!-- a3&#45;&gt;a4 -->
<g id="edge5" class="edge"><title>a3&#45;&gt;a4</title>
<path fill="none" stroke="black" d="M105,-323.602C105,-308.1 105,-282.757 105,-264.127"/>
<polygon fill="black" stroke="black" points="108.5,-264.059 105,-254.059 101.5,-264.059 108.5,-264.059"/>
</g>
<!-- b1 -->
<g id="node8" class="node"><title>b1</title>
<text text-anchor="middle" x="452" y="-411.7" font-family="Arial" font-size="11.00">eventLoop.start()#78</text>
</g>
<!-- bjs&#45;&gt;b1 -->
<g id="edge6" class="edge"><title>bjs&#45;&gt;b1</title>
<path fill="none" stroke="black" d="M362.141,-414.5C364.609,-414.5 367.077,-414.5 369.545,-414.5"/>
<polygon fill="black" stroke="black" points="369.691,-418 379.691,-414.5 369.691,-411 369.691,-418"/>
</g>
<!-- b2 -->
<g id="node9" class="node"><title>b2</title>
<text text-anchor="middle" x="614" y="-411.7" font-family="Arial" font-size="11.00">listenerBus.start()#86</text>
</g>
<!-- b1&#45;&gt;b2 -->
<g id="edge7" class="edge"><title>b1&#45;&gt;b2</title>
<path fill="none" stroke="black" d="M524.141,-414.5C526.609,-414.5 529.077,-414.5 531.545,-414.5"/>
<polygon fill="black" stroke="black" points="531.691,-418 541.691,-414.5 531.691,-411 531.691,-418"/>
</g>
<!-- b3 -->
<g id="node10" class="node"><title>b3</title>
<text text-anchor="middle" x="779" y="-411.7" font-family="Arial" font-size="11.00">receiverTracker.start()#102</text>
</g>
<!-- b2&#45;&gt;b3 -->
<g id="edge8" class="edge"><title>b2&#45;&gt;b3</title>
<path fill="none" stroke="black" d="M686.188,-414.5C688.831,-414.5 691.475,-414.5 694.118,-414.5"/>
<polygon fill="black" stroke="black" points="694.315,-418 704.315,-414.5 694.315,-411 694.315,-418"/>
</g>
<!-- b4 -->
<g id="node11" class="node"><title>b4</title>
<text text-anchor="middle" x="944" y="-411.7" font-family="Arial" font-size="11.00">jobGenerator.start()#103</text>
</g>
<!-- b3&#45;&gt;b4 -->
<g id="edge9" class="edge"><title>b3&#45;&gt;b4</title>
<path fill="none" stroke="black" d="M853.766,-414.5C856.387,-414.5 859.009,-414.5 861.63,-414.5"/>
<polygon fill="black" stroke="black" points="861.742,-418 871.742,-414.5 861.742,-411 861.742,-418"/>
</g>
<!-- b5 -->
<g id="node12" class="node"><title>b5</title>
<text text-anchor="middle" x="1163" y="-411.7" font-family="Arial" font-size="11.00">executorAllocationManager.foreach(_.start())#104</text>
</g>
<!-- b4&#45;&gt;b5 -->
<g id="edge10" class="edge"><title>b4&#45;&gt;b5</title>
<path fill="none" stroke="black" d="M1016.29,-414.5C1018.92,-414.5 1021.55,-414.5 1024.19,-414.5"/>
<polygon fill="black" stroke="black" points="1024.34,-418 1034.34,-414.5 1024.34,-411 1024.34,-418"/>
</g>
<!-- jg -->
<g id="node13" class="node"><title>jg</title>
<polygon fill="none" stroke="black" points="1016,-353 872,-353 872,-324 1016,-324 1016,-353"/>
<text text-anchor="middle" x="944" y="-335.7" font-family="Arial" font-size="11.00">JobGenerator</text>
</g>
<!-- b4&#45;&gt;jg -->
<g id="edge12" class="edge"><title>b4&#45;&gt;jg</title>
<path fill="none" stroke="black" d="M944,-399.927C944,-389.769 944,-375.607 944,-363.547"/>
<polygon fill="black" stroke="black" points="947.5,-363.237 944,-353.237 940.5,-363.237 947.5,-363.237"/>
</g>
<!-- c1 -->
<g id="node14" class="node"><title>c1</title>
<text text-anchor="middle" x="944" y="-236.7" font-family="Arial" font-size="11.00">eventLoop.start()#78</text>
</g>
<!-- jg&#45;&gt;c1 -->
<g id="edge13" class="edge"><title>jg&#45;&gt;c1</title>
<path fill="none" stroke="black" d="M944,-323.602C944,-308.1 944,-282.757 944,-264.127"/>
<polygon fill="black" stroke="black" points="947.5,-264.059 944,-254.059 940.5,-264.059 947.5,-264.059"/>
</g>
<!-- e5 -->
<g id="node26" class="node"><title>e5</title>
<g id="a_node26"><a xlink:title="JobGenerator#generateJobs#243">
<text text-anchor="middle" x="1112" y="-236.7" font-family="Arial" font-size="11.00">generateJobs(time)</text>
</a>
</g>
</g>
<!-- jg&#45;&gt;e5 -->
<g id="edge31" class="edge"><title>jg&#45;&gt;e5</title>
<path fill="none" stroke="black" d="M1009.83,-323.959C1016.13,-321.689 1022.29,-319.054 1028,-316 1053.7,-302.245 1077.88,-279.003 1093.64,-261.932"/>
<polygon fill="black" stroke="black" points="1096.58,-263.892 1100.67,-254.116 1091.38,-259.211 1096.58,-263.892"/>
</g>
<!-- c2 -->
<g id="node15" class="node"><title>c2</title>
<text text-anchor="middle" x="944" y="-160.7" font-family="Arial" font-size="11.00">startFirstTime()#100</text>
</g>
<!-- c1&#45;&gt;c2 -->
<g id="edge14" class="edge"><title>c1&#45;&gt;c2</title>
<path fill="none" stroke="black" d="M944,-224.927C944,-214.769 944,-200.607 944,-188.547"/>
<polygon fill="black" stroke="black" points="947.5,-188.237 944,-178.237 940.5,-188.237 947.5,-188.237"/>
</g>
<!-- c3 -->
<g id="node16" class="node"><title>c3</title>
<text text-anchor="middle" x="944" y="-95.7" font-family="Arial" font-size="11.00">graph.start()#194</text>
</g>
<!-- c2&#45;&gt;c3 -->
<g id="edge15" class="edge"><title>c2&#45;&gt;c3</title>
<path fill="none" stroke="black" d="M944,-148.83C944,-141.4 944,-131.996 944,-123.397"/>
<polygon fill="black" stroke="black" points="947.5,-123.143 944,-113.143 940.5,-123.143 947.5,-123.143"/>
</g>
<!-- c4 -->
<g id="node17" class="node"><title>c4</title>
<text text-anchor="middle" x="944" y="-27.7" font-family="Arial" font-size="11.00">timer.start()#195</text>
</g>
<!-- c3&#45;&gt;c4 -->
<g id="edge16" class="edge"><title>c3&#45;&gt;c4</title>
<path fill="none" stroke="black" d="M944,-83.8248C944,-75.5948 944,-64.889 944,-55.3069"/>
<polygon fill="black" stroke="black" points="947.5,-55.1577 944,-45.1577 940.5,-55.1578 947.5,-55.1577"/>
</g>
<!-- rt -->
<g id="node18" class="node"><title>rt</title>
<polygon fill="none" stroke="black" points="1184,-45 1040,-45 1040,-16 1184,-16 1184,-45"/>
<text text-anchor="middle" x="1112" y="-27.7" font-family="Arial" font-size="11.00">RecurringTimer</text>
</g>
<!-- c4&#45;&gt;rt -->
<g id="edge20" class="edge"><title>c4&#45;&gt;rt</title>
<path fill="none" stroke="black" d="M1016.19,-30.5C1020.61,-30.5 1025.03,-30.5 1029.45,-30.5"/>
<polygon fill="black" stroke="black" points="1029.77,-34.0001 1039.77,-30.5 1029.77,-27.0001 1029.77,-34.0001"/>
</g>
<!-- d1 -->
<g id="node20" class="node"><title>d1</title>
<text text-anchor="middle" x="1274" y="-27.7" font-family="Arial" font-size="11.00">loop()#103</text>
</g>
<!-- rt&#45;&gt;d1 -->
<g id="edge17" class="edge"><title>rt&#45;&gt;d1</title>
<path fill="none" stroke="black" d="M1184.14,-30.5C1186.61,-30.5 1189.08,-30.5 1191.54,-30.5"/>
<polygon fill="black" stroke="black" points="1191.69,-34.0001 1201.69,-30.5 1191.69,-27.0001 1191.69,-34.0001"/>
</g>
<!-- jg1 -->
<g id="node19" class="node"><title>jg1</title>
<g id="a_node19"><a xlink:title="调用Callback">
<polygon fill="none" stroke="black" points="1702,-45 1558,-45 1558,-16 1702,-16 1702,-45"/>
<text text-anchor="middle" x="1630" y="-27.7" font-family="Arial" font-size="11.00">JobGenerator</text>
</a>
</g>
</g>
<!-- d2 -->
<g id="node21" class="node"><title>d2</title>
<text text-anchor="middle" x="1452" y="-27.7" font-family="Arial" font-size="11.00">triggerActionForNextInterval()#92</text>
</g>
<!-- d1&#45;&gt;d2 -->
<g id="edge18" class="edge"><title>d1&#45;&gt;d2</title>
<path fill="none" stroke="black" d="M1346.31,-30.5C1348.75,-30.5 1351.19,-30.5 1353.63,-30.5"/>
<polygon fill="black" stroke="black" points="1353.65,-34.0001 1363.65,-30.5 1353.65,-27.0001 1353.65,-34.0001"/>
</g>
<!-- d2&#45;&gt;jg1 -->
<g id="edge19" class="edge"><title>d2&#45;&gt;jg1</title>
<path fill="none" stroke="black" d="M1540.3,-30.5C1542.77,-30.5 1545.23,-30.5 1547.7,-30.5"/>
<polygon fill="black" stroke="black" points="1547.82,-34.0001 1557.82,-30.5 1547.82,-27.0001 1547.82,-34.0001"/>
</g>
<!-- e1 -->
<g id="node22" class="node"><title>e1</title>
<g id="a_node22"><a xlink:title="JobGenerator#private val timer = new RecurringTimer(clock, ssc.graph.batchDuration.milliseconds,longTime =&gt; eventLoop.post(GenerateJobs(new Time(longTime))), &quot;JobGenerator&quot;) ">
<text text-anchor="middle" x="1120" y="-160.7" font-family="Arial" font-size="11.00">callback()#61</text>
</a>
</g>
</g>
<!-- e2 -->
<g id="node23" class="node"><title>e2</title>
<g id="a_node23"><a xlink:title="JobGenerator#eventLoop#processEvent(event)">
<text text-anchor="middle" x="1282" y="-160.7" font-family="Arial" font-size="11.00">processEvent(event)#89</text>
</a>
</g>
</g>
<!-- e1&#45;&gt;e2 -->
<g id="edge21" class="edge"><title>e1&#45;&gt;e2</title>
<path fill="none" stroke="black" d="M1192.14,-163.5C1194.61,-163.5 1197.08,-163.5 1199.54,-163.5"/>
<polygon fill="black" stroke="black" points="1199.69,-167 1209.69,-163.5 1199.69,-160 1199.69,-167"/>
</g>
<!-- e3 -->
<g id="node24" class="node"><title>e3</title>
<g id="a_node24"><a xlink:title="case GenerateJobs(time) =&gt; generateJobs(time)">
<text text-anchor="middle" x="1444" y="-160.7" font-family="Arial" font-size="11.00">generateJobs(time)#183</text>
</a>
</g>
</g>
<!-- e2&#45;&gt;e3 -->
<g id="edge22" class="edge"><title>e2&#45;&gt;e3</title>
<path fill="none" stroke="black" d="M1354.14,-163.5C1356.61,-163.5 1359.08,-163.5 1361.54,-163.5"/>
<polygon fill="black" stroke="black" points="1361.69,-167 1371.69,-163.5 1361.69,-160 1361.69,-167"/>
</g>
<!-- e4 -->
<g id="node25" class="node"><title>e4</title>
<g id="a_node25"><a xlink:title="jobScheduler.receiverTracker.allocateBlocksToBatch(time) // allocate received blocks to batch">
<text text-anchor="middle" x="1625" y="-160.7" font-family="Arial" font-size="11.00">allocateBlocksToBatch(time)#248</text>
</a>
</g>
</g>
<!-- e3&#45;&gt;e4 -->
<g id="edge23" class="edge"><title>e3&#45;&gt;e4</title>
<path fill="none" stroke="black" d="M1516.12,-163.5C1518.88,-163.5 1521.64,-163.5 1524.4,-163.5"/>
<polygon fill="black" stroke="black" points="1524.41,-167 1534.41,-163.5 1524.41,-160 1524.41,-167"/>
</g>
<!-- e5&#45;&gt;e1 -->
<g id="edge30" class="edge"><title>e5&#45;&gt;e1</title>
<path fill="none" stroke="black" d="M1113.47,-224.927C1114.57,-214.769 1116.1,-200.607 1117.4,-188.547"/>
<polygon fill="black" stroke="black" points="1120.92,-188.556 1118.51,-178.237 1113.96,-187.803 1120.92,-188.556"/>
</g>
<!-- fdg -->
<g id="node27" class="node"><title>fdg</title>
<polygon fill="none" stroke="black" points="1346,-254 1202,-254 1202,-225 1346,-225 1346,-254"/>
<text text-anchor="middle" x="1274" y="-236.7" font-family="Arial" font-size="11.00">DStreamGraph</text>
</g>
<!-- e5&#45;&gt;fdg -->
<g id="edge29" class="edge"><title>e5&#45;&gt;fdg</title>
<path fill="none" stroke="black" d="M1184.14,-239.5C1186.61,-239.5 1189.08,-239.5 1191.54,-239.5"/>
<polygon fill="black" stroke="black" points="1191.69,-243 1201.69,-239.5 1191.69,-236 1191.69,-243"/>
</g>
<!-- f1 -->
<g id="node29" class="node"><title>f1</title>
<text text-anchor="middle" x="1436" y="-236.7" font-family="Arial" font-size="11.00">generateJobs()#118</text>
</g>
<!-- fdg&#45;&gt;f1 -->
<g id="edge24" class="edge"><title>fdg&#45;&gt;f1</title>
<path fill="none" stroke="black" d="M1346.14,-239.5C1348.61,-239.5 1351.08,-239.5 1353.54,-239.5"/>
<polygon fill="black" stroke="black" points="1353.69,-243 1363.69,-239.5 1353.69,-236 1353.69,-243"/>
</g>
<!-- fds -->
<g id="node28" class="node"><title>fds</title>
<polygon fill="none" stroke="black" points="1670,-254 1526,-254 1526,-225 1670,-225 1670,-254"/>
<text text-anchor="middle" x="1598" y="-236.7" font-family="Arial" font-size="11.00">ForEachDStream</text>
</g>
<!-- f2 -->
<g id="node30" class="node"><title>f2</title>
<g id="a_node30"><a xlink:title="ForEachDStream#generateJob()">
<text text-anchor="middle" x="1760" y="-236.7" font-family="Arial" font-size="11.00">generateJob()#431</text>
</a>
</g>
</g>
<!-- fds&#45;&gt;f2 -->
<g id="edge26" class="edge"><title>fds&#45;&gt;f2</title>
<path fill="none" stroke="black" d="M1670.14,-239.5C1672.61,-239.5 1675.08,-239.5 1677.54,-239.5"/>
<polygon fill="black" stroke="black" points="1677.69,-243 1687.69,-239.5 1677.69,-236 1677.69,-243"/>
</g>
<!-- f1&#45;&gt;fds -->
<g id="edge25" class="edge"><title>f1&#45;&gt;fds</title>
<path fill="none" stroke="black" d="M1508.14,-239.5C1510.61,-239.5 1513.08,-239.5 1515.54,-239.5"/>
<polygon fill="black" stroke="black" points="1515.69,-243 1525.69,-239.5 1515.69,-236 1515.69,-243"/>
</g>
<!-- f3 -->
<g id="node31" class="node"><title>f3</title>
<g id="a_node31"><a xlink:title="Get the RDD corresponding to the given time; either retrieve it from cache or compute&#45;and&#45;cache it.">
<text text-anchor="middle" x="1922" y="-236.7" font-family="Arial" font-size="11.00">getOrCompute(time)#328</text>
</a>
</g>
</g>
<!-- f2&#45;&gt;f3 -->
<g id="edge27" class="edge"><title>f2&#45;&gt;f3</title>
<path fill="none" stroke="black" d="M1832.14,-239.5C1834.61,-239.5 1837.08,-239.5 1839.54,-239.5"/>
<polygon fill="black" stroke="black" points="1839.69,-243 1849.69,-239.5 1839.69,-236 1839.69,-243"/>
</g>
<!-- f4 -->
<g id="node32" class="node"><title>f4</title>
<g id="a_node32"><a xlink:title="Some(new Job(time, jobFunc))()#438">
<text text-anchor="middle" x="2084" y="-236.7" font-family="Arial" font-size="11.00">RDD</text>
</a>
</g>
</g>
<!-- f3&#45;&gt;f4 -->
<g id="edge28" class="edge"><title>f3&#45;&gt;f4</title>
<path fill="none" stroke="black" d="M1994.14,-239.5C1996.61,-239.5 1999.08,-239.5 2001.54,-239.5"/>
<polygon fill="black" stroke="black" points="2001.69,-243 2011.69,-239.5 2001.69,-236 2001.69,-243"/>
</g>
<!-- f5 -->
<g id="node33" class="node"><title>f5</title>
<g id="a_node33"><a xlink:title="jobScheduler.submitJobSet(JobSet(time, jobs, streamIdToInputInfos))#253">
<text text-anchor="middle" x="2084" y="-160.7" font-family="Arial" font-size="11.00">submitJobSet</text>
</a>
</g>
</g>
<!-- f4&#45;&gt;f5 -->
<g id="edge32" class="edge"><title>f4&#45;&gt;f5</title>
<path fill="none" stroke="black" d="M2084,-224.927C2084,-214.769 2084,-200.607 2084,-188.547"/>
<polygon fill="black" stroke="black" points="2087.5,-188.237 2084,-178.237 2080.5,-188.237 2087.5,-188.237"/>
</g>
<!-- hjs -->
<g id="node34" class="node"><title>hjs</title>
<polygon fill="none" stroke="black" points="2334,-178 2190,-178 2190,-149 2334,-149 2334,-178"/>
<text text-anchor="middle" x="2262" y="-160.7" font-family="Arial" font-size="11.00">JobScheduler</text>
</g>
<!-- f5&#45;&gt;hjs -->
<g id="edge35" class="edge"><title>f5&#45;&gt;hjs</title>
<path fill="none" stroke="black" d="M2156.31,-163.5C2164.06,-163.5 2171.81,-163.5 2179.56,-163.5"/>
<polygon fill="black" stroke="black" points="2179.75,-167 2189.75,-163.5 2179.75,-160 2179.75,-167"/>
</g>
<!-- h1 -->
<g id="node35" class="node"><title>h1</title>
<text text-anchor="middle" x="2262" y="-95.7" font-family="Arial" font-size="11.00">generateJobs()#118</text>
</g>
<!-- hjs&#45;&gt;h1 -->
<g id="edge33" class="edge"><title>hjs&#45;&gt;h1</title>
<path fill="none" stroke="black" d="M2262,-148.83C2262,-141.4 2262,-131.996 2262,-123.397"/>
<polygon fill="black" stroke="black" points="2265.5,-123.143 2262,-113.143 2258.5,-123.143 2265.5,-123.143"/>
</g>
<!-- h2 -->
<g id="node36" class="node"><title>h2</title>
<text text-anchor="middle" x="2262" y="-27.7" font-family="Arial" font-size="11.00">jobExecutor.execute()#153</text>
</g>
<!-- h1&#45;&gt;h2 -->
<g id="edge34" class="edge"><title>h1&#45;&gt;h2</title>
<path fill="none" stroke="black" d="M2262,-83.8248C2262,-75.5948 2262,-64.889 2262,-55.3069"/>
<polygon fill="black" stroke="black" points="2265.5,-55.1577 2262,-45.1577 2258.5,-55.1578 2265.5,-55.1577"/>
</g>
</g>
</svg>
