<?xml version="1.0" encoding="UTF-8" standalone="no"?><svg xmlns="http://www.w3.org/2000/svg" xmlns:xlink="http://www.w3.org/1999/xlink" contentScriptType="application/ecmascript" contentStyleType="text/css" height="714px" preserveAspectRatio="none" style="width:1575px;height:714px;" version="1.1" viewBox="0 0 1575 714" width="1575px" zoomAndPan="magnify"><defs><filter height="300%" id="f8g9l39" width="300%" x="-1" y="-1"><feGaussianBlur result="blurOut" stdDeviation="2.0"/><feColorMatrix in="blurOut" result="blurOut2" type="matrix" values="0 0 0 0 0 0 0 0 0 0 0 0 0 0 0 0 0 0 .4 0"/><feOffset dx="4.0" dy="4.0" in="blurOut2" result="blurOut3"/><feBlend in="SourceGraphic" in2="blurOut3" mode="normal"/></filter></defs><g><rect fill="#FFFFCC" filter="url(#f8g9l39)" height="30" style="stroke: #A80036; stroke-width: 1.0;" width="10" x="244" y="74.1201"/><rect fill="#FFFFCC" filter="url(#f8g9l39)" height="358.0352" style="stroke: #A80036; stroke-width: 1.0;" width="10" x="772" y="306.1377"/><line style="stroke: #A80036; stroke-width: 1.0; stroke-dasharray: 5.0,5.0;" x1="64" x2="64" y1="41.1201" y2="673.1729"/><line style="stroke: #A80036; stroke-width: 1.0; stroke-dasharray: 5.0,5.0;" x1="248.5" x2="248.5" y1="41.1201" y2="673.1729"/><line style="stroke: #A80036; stroke-width: 1.0; stroke-dasharray: 5.0,5.0;" x1="469" x2="469" y1="41.1201" y2="673.1729"/><line style="stroke: #A80036; stroke-width: 1.0; stroke-dasharray: 5.0,5.0;" x1="777" x2="777" y1="41.1201" y2="673.1729"/><line style="stroke: #A80036; stroke-width: 1.0; stroke-dasharray: 5.0,5.0;" x1="924" x2="924" y1="41.1201" y2="673.1729"/><line style="stroke: #A80036; stroke-width: 1.0; stroke-dasharray: 5.0,5.0;" x1="1170" x2="1170" y1="41.1201" y2="673.1729"/><line style="stroke: #A80036; stroke-width: 1.0; stroke-dasharray: 5.0,5.0;" x1="1270" x2="1270" y1="41.1201" y2="673.1729"/><line style="stroke: #A80036; stroke-width: 1.0; stroke-dasharray: 5.0,5.0;" x1="1365" x2="1365" y1="41.1201" y2="673.1729"/><line style="stroke: #A80036; stroke-width: 1.0; stroke-dasharray: 5.0,5.0;" x1="1496" x2="1496" y1="41.1201" y2="673.1729"/><rect fill="#FEFECE" filter="url(#f8g9l39)" height="33.1201" style="stroke: #A80036; stroke-width: 1.5;" width="108" x="8" y="3"/><text fill="#000000" font-family="sans-serif" font-size="14" lengthAdjust="spacingAndGlyphs" textLength="94" x="15" y="26.0439">DAGScheduler</text><rect fill="#FEFECE" filter="url(#f8g9l39)" height="33.1201" style="stroke: #A80036; stroke-width: 1.5;" width="108" x="8" y="672.1729"/><text fill="#000000" font-family="sans-serif" font-size="14" lengthAdjust="spacingAndGlyphs" textLength="94" x="15" y="695.2168">DAGScheduler</text><rect fill="#FEFECE" filter="url(#f8g9l39)" height="33.1201" style="stroke: #A80036; stroke-width: 1.5;" width="115" x="189.5" y="3"/><text fill="#000000" font-family="sans-serif" font-size="14" lengthAdjust="spacingAndGlyphs" textLength="101" x="196.5" y="26.0439">LiveListenerBus</text><rect fill="#FEFECE" filter="url(#f8g9l39)" height="33.1201" style="stroke: #A80036; stroke-width: 1.5;" width="115" x="189.5" y="672.1729"/><text fill="#000000" font-family="sans-serif" font-size="14" lengthAdjust="spacingAndGlyphs" textLength="101" x="196.5" y="695.2168">LiveListenerBus</text><rect fill="#FEFECE" filter="url(#f8g9l39)" height="33.1201" style="stroke: #A80036; stroke-width: 1.5;" width="126" x="404" y="3"/><text fill="#000000" font-family="sans-serif" font-size="14" lengthAdjust="spacingAndGlyphs" textLength="112" x="411" y="26.0439">SparkListenerBus</text><rect fill="#FEFECE" filter="url(#f8g9l39)" height="33.1201" style="stroke: #A80036; stroke-width: 1.5;" width="126" x="404" y="672.1729"/><text fill="#000000" font-family="sans-serif" font-size="14" lengthAdjust="spacingAndGlyphs" textLength="112" x="411" y="695.2168">SparkListenerBus</text><rect fill="#FEFECE" filter="url(#f8g9l39)" height="33.1201" style="stroke: #A80036; stroke-width: 1.5;" width="134" x="708" y="3"/><text fill="#000000" font-family="sans-serif" font-size="14" lengthAdjust="spacingAndGlyphs" textLength="120" x="715" y="26.0439">TaskSchedulerImpl</text><rect fill="#FEFECE" filter="url(#f8g9l39)" height="33.1201" style="stroke: #A80036; stroke-width: 1.5;" width="134" x="708" y="672.1729"/><text fill="#000000" font-family="sans-serif" font-size="14" lengthAdjust="spacingAndGlyphs" textLength="120" x="715" y="695.2168">TaskSchedulerImpl</text><rect fill="#FEFECE" filter="url(#f8g9l39)" height="33.1201" style="stroke: #A80036; stroke-width: 1.5;" width="133" x="856" y="3"/><text fill="#000000" font-family="sans-serif" font-size="14" lengthAdjust="spacingAndGlyphs" textLength="119" x="863" y="26.0439">SchedulerBackend</text><rect fill="#FEFECE" filter="url(#f8g9l39)" height="33.1201" style="stroke: #A80036; stroke-width: 1.5;" width="133" x="856" y="672.1729"/><text fill="#000000" font-family="sans-serif" font-size="14" lengthAdjust="spacingAndGlyphs" textLength="119" x="863" y="695.2168">SchedulerBackend</text><rect fill="#FEFECE" filter="url(#f8g9l39)" height="33.1201" style="stroke: #A80036; stroke-width: 1.5;" width="103" x="1117" y="3"/><text fill="#000000" font-family="sans-serif" font-size="14" lengthAdjust="spacingAndGlyphs" textLength="89" x="1124" y="26.0439">LocalBackend</text><rect fill="#FEFECE" filter="url(#f8g9l39)" height="33.1201" style="stroke: #A80036; stroke-width: 1.5;" width="103" x="1117" y="672.1729"/><text fill="#000000" font-family="sans-serif" font-size="14" lengthAdjust="spacingAndGlyphs" textLength="89" x="1124" y="695.2168">LocalBackend</text><rect fill="#FEFECE" filter="url(#f8g9l39)" height="33.1201" style="stroke: #A80036; stroke-width: 1.5;" width="69" x="1234" y="3"/><text fill="#000000" font-family="sans-serif" font-size="14" lengthAdjust="spacingAndGlyphs" textLength="55" x="1241" y="26.0439">Executor</text><rect fill="#FEFECE" filter="url(#f8g9l39)" height="33.1201" style="stroke: #A80036; stroke-width: 1.5;" width="69" x="1234" y="672.1729"/><text fill="#000000" font-family="sans-serif" font-size="14" lengthAdjust="spacingAndGlyphs" textLength="55" x="1241" y="695.2168">Executor</text><rect fill="#FEFECE" filter="url(#f8g9l39)" height="33.1201" style="stroke: #A80036; stroke-width: 1.5;" width="92" x="1317" y="3"/><text fill="#000000" font-family="sans-serif" font-size="14" lengthAdjust="spacingAndGlyphs" textLength="78" x="1324" y="26.0439">TaskRunner</text><rect fill="#FEFECE" filter="url(#f8g9l39)" height="33.1201" style="stroke: #A80036; stroke-width: 1.5;" width="92" x="1317" y="672.1729"/><text fill="#000000" font-family="sans-serif" font-size="14" lengthAdjust="spacingAndGlyphs" textLength="78" x="1324" y="695.2168">TaskRunner</text><rect fill="#FEFECE" filter="url(#f8g9l39)" height="33.1201" style="stroke: #A80036; stroke-width: 1.5;" width="143" x="1423" y="3"/><text fill="#000000" font-family="sans-serif" font-size="14" lengthAdjust="spacingAndGlyphs" textLength="129" x="1430" y="26.0439">ThreadPoolExecutor</text><rect fill="#FEFECE" filter="url(#f8g9l39)" height="33.1201" style="stroke: #A80036; stroke-width: 1.5;" width="143" x="1423" y="672.1729"/><text fill="#000000" font-family="sans-serif" font-size="14" lengthAdjust="spacingAndGlyphs" textLength="129" x="1430" y="695.2168">ThreadPoolExecutor</text><rect fill="#FFFFCC" filter="url(#f8g9l39)" height="30" style="stroke: #A80036; stroke-width: 1.0;" width="10" x="244" y="74.1201"/><rect fill="#FFFFCC" filter="url(#f8g9l39)" height="358.0352" style="stroke: #A80036; stroke-width: 1.0;" width="10" x="772" y="306.1377"/><polygon fill="#A80036" points="232,70.1201,242,74.1201,232,78.1201,236,74.1201" style="stroke: #A80036; stroke-width: 1.0;"/><line style="stroke: #A80036; stroke-width: 1.0;" x1="64" x2="238" y1="74.1201" y2="74.1201"/><text fill="#000000" font-family="sans-serif" font-size="13" lengthAdjust="spacingAndGlyphs" textLength="161" x="71" y="70.0181">post(SparkListenerJobStart)</text><line style="stroke: #A80036; stroke-width: 1.0;" x1="64" x2="106" y1="136.6289" y2="136.6289"/><line style="stroke: #A80036; stroke-width: 1.0;" x1="106" x2="106" y1="136.6289" y2="149.6289"/><line style="stroke: #A80036; stroke-width: 1.0;" x1="65" x2="106" y1="149.6289" y2="149.6289"/><polygon fill="#A80036" points="75,145.6289,65,149.6289,75,153.6289,71,149.6289" style="stroke: #A80036; stroke-width: 1.0;"/><text fill="#000000" font-family="sans-serif" font-size="13" lengthAdjust="spacingAndGlyphs" textLength="81" x="71" y="131.7725">submitStage()</text><line style="stroke: #A80036; stroke-width: 1.0;" x1="64" x2="106" y1="181.3833" y2="181.3833"/><line style="stroke: #A80036; stroke-width: 1.0;" x1="106" x2="106" y1="181.3833" y2="194.3833"/><line style="stroke: #A80036; stroke-width: 1.0;" x1="65" x2="106" y1="194.3833" y2="194.3833"/><polygon fill="#A80036" points="75,190.3833,65,194.3833,75,198.3833,71,194.3833" style="stroke: #A80036; stroke-width: 1.0;"/><text fill="#000000" font-family="sans-serif" font-size="13" lengthAdjust="spacingAndGlyphs" textLength="127" x="71" y="176.5269">submitMissingTasks()</text><polygon fill="#A80036" points="237,204.3833,247,208.3833,237,212.3833,241,208.3833" style="stroke: #A80036; stroke-width: 1.0;"/><line style="stroke: #A80036; stroke-width: 1.0;" x1="64" x2="243" y1="208.3833" y2="208.3833"/><line style="stroke: #A80036; stroke-width: 1.0;" x1="249" x2="291" y1="240.1377" y2="240.1377"/><line style="stroke: #A80036; stroke-width: 1.0;" x1="291" x2="291" y1="240.1377" y2="253.1377"/><line style="stroke: #A80036; stroke-width: 1.0;" x1="250" x2="291" y1="253.1377" y2="253.1377"/><polygon fill="#A80036" points="260,249.1377,250,253.1377,260,257.1377,256,253.1377" style="stroke: #A80036; stroke-width: 1.0;"/><text fill="#000000" font-family="sans-serif" font-size="13" lengthAdjust="spacingAndGlyphs" textLength="206" x="256" y="235.2813">post(SparkListenerStageSubmitted)</text><polygon fill="#A80036" points="765,263.1377,775,267.1377,765,271.1377,769,267.1377" style="stroke: #A80036; stroke-width: 1.0;"/><line style="stroke: #A80036; stroke-width: 1.0;" x1="64" x2="771" y1="267.1377" y2="267.1377"/><line style="stroke: #A80036; stroke-width: 1.0;" x1="777" x2="824" y1="293.8921" y2="293.8921"/><line style="stroke: #A80036; stroke-width: 1.0;" x1="824" x2="824" y1="293.8921" y2="306.8921"/><line style="stroke: #A80036; stroke-width: 1.0;" x1="783" x2="824" y1="306.8921" y2="306.8921"/><polygon fill="#A80036" points="793,302.8921,783,306.8921,793,310.8921,789,306.8921" style="stroke: #A80036; stroke-width: 1.0;"/><text fill="#000000" font-family="sans-serif" font-size="13" lengthAdjust="spacingAndGlyphs" textLength="74" x="789" y="289.0356">submitTasks</text><polygon fill="#A80036" points="912.5,321.8921,922.5,325.8921,912.5,329.8921,916.5,325.8921" style="stroke: #A80036; stroke-width: 1.0;"/><line style="stroke: #A80036; stroke-width: 1.0;" x1="782" x2="918.5" y1="325.8921" y2="325.8921"/><line style="stroke: #A80036; stroke-width: 1.0;" x1="924.5" x2="966.5" y1="357.6465" y2="357.6465"/><line style="stroke: #A80036; stroke-width: 1.0;" x1="966.5" x2="966.5" y1="357.6465" y2="370.6465"/><line style="stroke: #A80036; stroke-width: 1.0;" x1="925.5" x2="966.5" y1="370.6465" y2="370.6465"/><polygon fill="#A80036" points="935.5,366.6465,925.5,370.6465,935.5,374.6465,931.5,370.6465" style="stroke: #A80036; stroke-width: 1.0;"/><text fill="#000000" font-family="sans-serif" font-size="13" lengthAdjust="spacingAndGlyphs" textLength="73" x="931.5" y="352.79">reviveOffers()</text><polygon fill="#A80036" points="1158.5,397.6465,1168.5,401.6465,1158.5,405.6465,1162.5,401.6465" style="stroke: #A80036; stroke-width: 1.0;"/><line style="stroke: #A80036; stroke-width: 1.0;" x1="924.5" x2="1164.5" y1="401.6465" y2="401.6465"/><text fill="#000000" font-family="sans-serif" font-size="13" lengthAdjust="spacingAndGlyphs" textLength="222" x="931.5" y="397.5444">receiveWithLogging(case ReviveOffers)</text><line style="stroke: #A80036; stroke-width: 1.0;" x1="1170.5" x2="1212.5" y1="434.1553" y2="434.1553"/><line style="stroke: #A80036; stroke-width: 1.0;" x1="1212.5" x2="1212.5" y1="434.1553" y2="447.1553"/><line style="stroke: #A80036; stroke-width: 1.0;" x1="1171.5" x2="1212.5" y1="447.1553" y2="447.1553"/><polygon fill="#A80036" points="1181.5,443.1553,1171.5,447.1553,1181.5,451.1553,1177.5,447.1553" style="stroke: #A80036; stroke-width: 1.0;"/><text fill="#000000" font-family="sans-serif" font-size="13" lengthAdjust="spacingAndGlyphs" textLength="73" x="1177.5" y="429.2988">reviveOffers()</text><polygon fill="#A80036" points="1258.5,457.1553,1268.5,461.1553,1258.5,465.1553,1262.5,461.1553" style="stroke: #A80036; stroke-width: 1.0;"/><line style="stroke: #A80036; stroke-width: 1.0;" x1="1170.5" x2="1264.5" y1="461.1553" y2="461.1553"/><line style="stroke: #A80036; stroke-width: 1.0;" x1="1270.5" x2="1312.5" y1="492.9097" y2="492.9097"/><line style="stroke: #A80036; stroke-width: 1.0;" x1="1312.5" x2="1312.5" y1="492.9097" y2="505.9097"/><line style="stroke: #A80036; stroke-width: 1.0;" x1="1271.5" x2="1312.5" y1="505.9097" y2="505.9097"/><polygon fill="#A80036" points="1281.5,501.9097,1271.5,505.9097,1281.5,509.9097,1277.5,505.9097" style="stroke: #A80036; stroke-width: 1.0;"/><text fill="#000000" font-family="sans-serif" font-size="13" lengthAdjust="spacingAndGlyphs" textLength="74" x="1277.5" y="488.0532">launchTask()</text><polygon fill="#A80036" points="1353,532.9097,1363,536.9097,1353,540.9097,1357,536.9097" style="stroke: #A80036; stroke-width: 1.0;"/><line style="stroke: #A80036; stroke-width: 1.0;" x1="1270.5" x2="1359" y1="536.9097" y2="536.9097"/><text fill="#000000" font-family="sans-serif" font-size="13" lengthAdjust="spacingAndGlyphs" textLength="31" x="1277.5" y="532.8076">new()</text><polygon fill="#A80036" points="1484.5,547.6641,1494.5,551.6641,1484.5,555.6641,1488.5,551.6641" style="stroke: #A80036; stroke-width: 1.0;"/><line style="stroke: #A80036; stroke-width: 1.0;" x1="1270.5" x2="1490.5" y1="551.6641" y2="551.6641"/><line style="stroke: #A80036; stroke-width: 1.0;" x1="1496.5" x2="1538.5" y1="583.4185" y2="583.4185"/><line style="stroke: #A80036; stroke-width: 1.0;" x1="1538.5" x2="1538.5" y1="583.4185" y2="596.4185"/><line style="stroke: #A80036; stroke-width: 1.0;" x1="1497.5" x2="1538.5" y1="596.4185" y2="596.4185"/><polygon fill="#A80036" points="1507.5,592.4185,1497.5,596.4185,1507.5,600.4185,1503.5,596.4185" style="stroke: #A80036; stroke-width: 1.0;"/><text fill="#000000" font-family="sans-serif" font-size="13" lengthAdjust="spacingAndGlyphs" textLength="62" x="1503.5" y="578.562">execute(tr)</text><polygon fill="#A80036" points="457,606.4185,467,610.4185,457,614.4185,461,610.4185" style="stroke: #A80036; stroke-width: 1.0;"/><line style="stroke: #A80036; stroke-width: 1.0;" x1="249" x2="463" y1="610.4185" y2="610.4185"/><line style="stroke: #A80036; stroke-width: 1.0;" x1="469" x2="511" y1="647.1729" y2="647.1729"/><line style="stroke: #A80036; stroke-width: 1.0;" x1="511" x2="511" y1="647.1729" y2="660.1729"/><line style="stroke: #A80036; stroke-width: 1.0;" x1="464" x2="511" y1="660.1729" y2="660.1729"/><polygon fill="#A80036" points="474,656.1729,464,660.1729,474,664.1729,470,660.1729" style="stroke: #A80036; stroke-width: 1.0;"/><text fill="#000000" font-family="sans-serif" font-size="13" lengthAdjust="spacingAndGlyphs" textLength="294" x="476" y="642.3164">onPostEvent(case jobStart: SparkListenerJobStart)</text></g></svg>