<?xml version="1.0" encoding="UTF-8" standalone="no"?>
<!DOCTYPE svg PUBLIC "-//W3C//DTD SVG 1.1//EN"
 "http://www.w3.org/Graphics/SVG/1.1/DTD/svg11.dtd">
<!-- Generated by graphviz version 2.38.0 (20140413.2041)
 -->
<!-- Title: %3 Pages: 1 -->
<svg width="734pt" height="180pt"
 viewBox="0.00 0.00 734.00 179.50" xmlns="http://www.w3.org/2000/svg" xmlns:xlink="http://www.w3.org/1999/xlink">
<g id="graph0" class="graph" transform="scale(1 1) rotate(0) translate(4 175.5)">
<title>%3</title>
<polygon fill="white" stroke="none" points="-4,4 -4,-175.5 730,-175.5 730,4 -4,4"/>
<text text-anchor="start" x="8" y="-157.1" font-family="Times New Roman,serif" font-size="13.00">1</text>
<!-- season_info -->
<g id="node1" class="node"><title>season_info</title>
<polygon fill="#d0e0d0" stroke="none" points="8,-34.5 8,-103.5 109,-103.5 109,-34.5 8,-34.5"/>
<polygon fill="none" stroke="black" points="8.5,-80 8.5,-103 109.5,-103 109.5,-80 8.5,-80"/>
<text text-anchor="start" x="23.5" y="-89.4" font-family="Helvetica,sans-Serif" font-weight="bold" font-size="12.00">season_info</text>
<polygon fill="none" stroke="black" points="8.5,-57 8.5,-80 109.5,-80 109.5,-57 8.5,-57"/>
<text text-anchor="start" x="13.5" y="-66.4" font-family="Helvetica,sans-Serif" text-decoration="underline" font-size="12.00">id</text>
<text text-anchor="start" x="23.5" y="-66.4" font-family="Helvetica,sans-Serif" font-size="12.00"> [赛季ID]</text>
<polygon fill="none" stroke="black" points="8.5,-34 8.5,-57 109.5,-57 109.5,-34 8.5,-34"/>
<text text-anchor="start" x="13.5" y="-43.4" font-family="Helvetica,sans-Serif" font-size="12.00">name</text>
<text text-anchor="start" x="43.5" y="-43.4" font-family="Helvetica,sans-Serif" font-size="12.00"> [商品名称]</text>
</g>
<!-- competition_info -->
<g id="node2" class="node"><title>competition_info</title>
<polygon fill="#d0e0d0" stroke="none" points="198,-34.5 198,-103.5 305,-103.5 305,-34.5 198,-34.5"/>
<polygon fill="none" stroke="black" points="198.5,-80 198.5,-103 305.5,-103 305.5,-80 198.5,-80"/>
<text text-anchor="start" x="203.5" y="-89.4" font-family="Helvetica,sans-Serif" font-weight="bold" font-size="12.00">competition_info</text>
<polygon fill="none" stroke="black" points="198.5,-57 198.5,-80 305.5,-80 305.5,-57 198.5,-57"/>
<text text-anchor="start" x="203.5" y="-66.4" font-family="Helvetica,sans-Serif" text-decoration="underline" font-size="12.00">id</text>
<text text-anchor="start" x="213.5" y="-66.4" font-family="Helvetica,sans-Serif" font-size="12.00"> [赛事ID]</text>
<polygon fill="none" stroke="black" points="198.5,-34 198.5,-57 305.5,-57 305.5,-34 198.5,-34"/>
<text text-anchor="start" x="203.5" y="-43.4" font-family="Helvetica,sans-Serif" font-size="12.00">name</text>
<text text-anchor="start" x="233.5" y="-43.4" font-family="Helvetica,sans-Serif" font-size="12.00"> [商品名称]</text>
</g>
<!-- season_info&#45;&#45;competition_info -->
<g id="edge1" class="edge"><title>season_info&#45;&#45;competition_info</title>
<path fill="none" stroke="#7f7f7f" stroke-dasharray="5,2" d="M117.065,-69C140.022,-69 166.471,-69 189.736,-69"/>
<text text-anchor="start" x="164.736" y="-57.8" font-family="Times New Roman,serif" font-size="14.00">0..N</text>
<text text-anchor="start" x="117.065" y="-57.8" font-family="Times New Roman,serif" font-size="14.00">1</text>
</g>
<!-- competition_rank -->
<g id="node3" class="node"><title>competition_rank</title>
<polygon fill="#d0e0d0" stroke="none" points="394,-46 394,-92 504,-92 504,-46 394,-46"/>
<polygon fill="none" stroke="black" points="394,-69 394,-92 504,-92 504,-69 394,-69"/>
<text text-anchor="start" x="399" y="-78.4" font-family="Helvetica,sans-Serif" font-weight="bold" font-size="12.00">competition_rank</text>
<polygon fill="none" stroke="black" points="394,-46 394,-69 504,-69 504,-46 394,-46"/>
<text text-anchor="start" x="399" y="-55.4" font-family="Helvetica,sans-Serif" text-decoration="underline" font-size="12.00">id</text>
<text text-anchor="start" x="409" y="-55.4" font-family="Helvetica,sans-Serif" font-size="12.00"> [区域ID]</text>
</g>
<!-- competition_info&#45;&#45;competition_rank -->
<g id="edge2" class="edge"><title>competition_info&#45;&#45;competition_rank</title>
<path fill="none" stroke="#7f7f7f" stroke-dasharray="5,2" d="M313.019,-69C336.12,-69 362.482,-69 385.743,-69"/>
<text text-anchor="start" x="360.743" y="-57.8" font-family="Times New Roman,serif" font-size="14.00">0..N</text>
<text text-anchor="start" x="313.019" y="-57.8" font-family="Times New Roman,serif" font-size="14.00">1</text>
</g>
<!-- competition_rank_a -->
<g id="node4" class="node"><title>competition_rank_a</title>
<polygon fill="#d0e0d0" stroke="none" points="593.5,-76.5 593.5,-145.5 717.5,-145.5 717.5,-76.5 593.5,-76.5"/>
<polygon fill="none" stroke="black" points="593.5,-122 593.5,-145 717.5,-145 717.5,-122 593.5,-122"/>
<text text-anchor="start" x="598.5" y="-131.4" font-family="Helvetica,sans-Serif" font-weight="bold" font-size="12.00">competition_rank_a</text>
<polygon fill="none" stroke="black" points="593.5,-99 593.5,-122 717.5,-122 717.5,-99 593.5,-99"/>
<text text-anchor="start" x="598.5" y="-108.4" font-family="Helvetica,sans-Serif" text-decoration="underline" font-size="12.00">id</text>
<text text-anchor="start" x="608.5" y="-108.4" font-family="Helvetica,sans-Serif" font-size="12.00"> [联赛ID]</text>
<polygon fill="none" stroke="black" points="593.5,-76 593.5,-99 717.5,-99 717.5,-76 593.5,-76"/>
<text text-anchor="start" x="598.5" y="-85.4" font-family="Helvetica,sans-Serif" font-size="12.00">name</text>
<text text-anchor="start" x="628.5" y="-85.4" font-family="Helvetica,sans-Serif" font-size="12.00"> [用户名称]</text>
</g>
<!-- competition_rank&#45;&#45;competition_rank_a -->
<g id="edge3" class="edge"><title>competition_rank&#45;&#45;competition_rank_a</title>
<path fill="none" stroke="#7f7f7f" stroke-dasharray="5,2" d="M512.19,-81.7724C535.339,-86.5269 561.743,-91.9496 585.469,-96.8225"/>
<text text-anchor="start" x="560.469" y="-85.6225" font-family="Times New Roman,serif" font-size="14.00">0..N</text>
<text text-anchor="start" x="512.19" y="-70.5724" font-family="Times New Roman,serif" font-size="14.00">1</text>
</g>
<!-- competition_rank_b -->
<g id="node5" class="node"><title>competition_rank_b</title>
<polygon fill="#d0e0d0" stroke="none" points="593,-4 593,-50 718,-50 718,-4 593,-4"/>
<polygon fill="none" stroke="black" points="593.5,-27 593.5,-50 718.5,-50 718.5,-27 593.5,-27"/>
<text text-anchor="start" x="598.5" y="-36.4" font-family="Helvetica,sans-Serif" font-weight="bold" font-size="12.00">competition_rank_b</text>
<polygon fill="none" stroke="black" points="593.5,-4 593.5,-27 718.5,-27 718.5,-4 593.5,-4"/>
<text text-anchor="start" x="598.5" y="-13.4" font-family="Helvetica,sans-Serif" text-decoration="underline" font-size="12.00">id</text>
<text text-anchor="start" x="608.5" y="-13.4" font-family="Helvetica,sans-Serif" font-size="12.00"> [杯赛ID]</text>
</g>
<!-- competition_rank&#45;&#45;competition_rank_b -->
<g id="edge4" class="edge"><title>competition_rank&#45;&#45;competition_rank_b</title>
<path fill="none" stroke="#7f7f7f" stroke-dasharray="5,2" d="M512.19,-56.2276C535.104,-51.5214 561.207,-46.1605 584.745,-41.3261"/>
<text text-anchor="start" x="559.745" y="-30.1261" font-family="Times New Roman,serif" font-size="14.00">0..N</text>
<text text-anchor="start" x="512.19" y="-45.0276" font-family="Times New Roman,serif" font-size="14.00">1</text>
</g>
</g>
</svg>
