<?xml version="1.0" encoding="UTF-8" standalone="no"?>
<!DOCTYPE svg PUBLIC "-//W3C//DTD SVG 1.1//EN"
 "http://www.w3.org/Graphics/SVG/1.1/DTD/svg11.dtd">
<!-- Generated by graphviz version 2.38.0 (20140413.2041)
 -->
<!-- Title: %3 Pages: 1 -->
<svg width="383pt" height="318pt"
 viewBox="0.00 0.00 383.00 317.71" xmlns="http://www.w3.org/2000/svg" xmlns:xlink="http://www.w3.org/1999/xlink">
<g id="graph0" class="graph" transform="scale(1 1) rotate(0) translate(4 313.706)">
<title>%3</title>
<polygon fill="white" stroke="none" points="-4,4 -4,-313.706 379,-313.706 379,4 -4,4"/>
<text text-anchor="start" x="8" y="-295.306" font-family="Times New Roman,serif" font-size="13.00">sv</text>
<!-- SV -->
<g id="node1" class="node"><title>SV</title>
<polygon fill="#d0e0d0" stroke="none" points="29.5,-102.706 29.5,-148.706 56.5,-148.706 56.5,-102.706 29.5,-102.706"/>
<polygon fill="none" stroke="black" points="30,-125.706 30,-148.706 57,-148.706 57,-125.706 30,-125.706"/>
<text text-anchor="start" x="35" y="-135.106" font-family="Helvetica,sans-Serif" font-weight="bold" font-size="12.00">SV</text>
<polygon fill="none" stroke="black" points="30,-102.706 30,-125.706 57,-125.706 57,-102.706 30,-102.706"/>
<text text-anchor="start" x="35" y="-111.106" font-family="Helvetica,sans-Serif" font-size="12.00">sv</text>
</g>
<!-- F_VOLTE_SIP_SV_H -->
<g id="node2" class="node"><title>F_VOLTE_SIP_SV_H</title>
<polygon fill="#d0e0d0" stroke="none" points="201.5,-199.706 201.5,-245.706 332.5,-245.706 332.5,-199.706 201.5,-199.706"/>
<polygon fill="none" stroke="black" points="202,-222.706 202,-245.706 333,-245.706 333,-222.706 202,-222.706"/>
<text text-anchor="start" x="207" y="-232.106" font-family="Helvetica,sans-Serif" font-weight="bold" font-size="12.00">F_VOLTE_SIP_SV_H</text>
<polygon fill="none" stroke="black" points="202,-199.706 202,-222.706 333,-222.706 333,-199.706 202,-199.706"/>
<text text-anchor="start" x="207" y="-208.106" font-family="Helvetica,sans-Serif" font-size="12.00">f_volte_sip_sv_h</text>
</g>
<!-- SV&#45;&#45;F_VOLTE_SIP_SV_H -->
<g id="edge1" class="edge"><title>SV&#45;&#45;F_VOLTE_SIP_SV_H</title>
<path fill="none" stroke="#7f7f7f" stroke-dasharray="5,2" d="M65.7219,-152.866C79.9969,-168.796 100.049,-187.866 122,-198.706 143.929,-209.536 169.787,-215.612 193.496,-218.978"/>
<text text-anchor="start" x="186.496" y="-207.778" font-family="Times New Roman,serif" font-size="14.00">1</text>
<text text-anchor="start" x="58.7219" y="-156.666" font-family="Times New Roman,serif" font-size="14.00">1</text>
</g>
<!-- F_VOLTE_SIP_SV_TERMINAL_H -->
<g id="node3" class="node"><title>F_VOLTE_SIP_SV_TERMINAL_H</title>
<polygon fill="#d0e0d0" stroke="none" points="167,-9.70641 167,-55.7064 367,-55.7064 367,-9.70641 167,-9.70641"/>
<polygon fill="none" stroke="black" points="167,-32.7064 167,-55.7064 367,-55.7064 367,-32.7064 167,-32.7064"/>
<text text-anchor="start" x="172" y="-42.1064" font-family="Helvetica,sans-Serif" font-weight="bold" font-size="12.00">F_VOLTE_SIP_SV_TERMINAL_H</text>
<polygon fill="none" stroke="black" points="167,-9.70641 167,-32.7064 367,-32.7064 367,-9.70641 167,-9.70641"/>
<text text-anchor="start" x="172" y="-18.1064" font-family="Helvetica,sans-Serif" font-size="12.00">f_volte_sip_sv_terminal_h</text>
</g>
<!-- SV&#45;&#45;F_VOLTE_SIP_SV_TERMINAL_H -->
<g id="edge2" class="edge"><title>SV&#45;&#45;F_VOLTE_SIP_SV_TERMINAL_H</title>
<path fill="none" stroke="#7f7f7f" stroke-dasharray="5,2" d="M70.246,-112.936C93.3968,-101.833 128.155,-85.5587 159,-72.7064 169.435,-68.3585 180.527,-63.9638 191.467,-59.7586"/>
<text text-anchor="start" x="184.467" y="-63.5586" font-family="Times New Roman,serif" font-size="14.00">1</text>
<text text-anchor="start" x="70.246" y="-101.736" font-family="Times New Roman,serif" font-size="14.00">1</text>
</g>
<!-- F_VOLTE_SIP_SV_CITY_H -->
<g id="node4" class="node"><title>F_VOLTE_SIP_SV_CITY_H</title>
<polygon fill="#d0e0d0" stroke="none" points="185,-85.7064 185,-131.706 349,-131.706 349,-85.7064 185,-85.7064"/>
<polygon fill="none" stroke="black" points="185,-108.706 185,-131.706 349,-131.706 349,-108.706 185,-108.706"/>
<text text-anchor="start" x="190" y="-118.106" font-family="Helvetica,sans-Serif" font-weight="bold" font-size="12.00">F_VOLTE_SIP_SV_CITY_H</text>
<polygon fill="none" stroke="black" points="185,-85.7064 185,-108.706 349,-108.706 349,-85.7064 185,-85.7064"/>
<text text-anchor="start" x="190" y="-94.1064" font-family="Helvetica,sans-Serif" font-size="12.00">f_volte_sip_sv_city_h</text>
</g>
<!-- SV&#45;&#45;F_VOLTE_SIP_SV_CITY_H -->
<g id="edge3" class="edge"><title>SV&#45;&#45;F_VOLTE_SIP_SV_CITY_H</title>
<path fill="none" stroke="#7f7f7f" stroke-dasharray="5,2" d="M70.3381,-123.69C96.6398,-121.675 138.555,-118.466 176.856,-115.533"/>
<text text-anchor="start" x="169.856" y="-104.333" font-family="Times New Roman,serif" font-size="14.00">1</text>
<text text-anchor="start" x="70.3381" y="-127.49" font-family="Times New Roman,serif" font-size="14.00">1</text>
</g>
<!-- NETCONF -->
<g id="node5" class="node"><title>NETCONF</title>
<polygon fill="#d0e0d0" stroke="none" points="8,-237.706 8,-283.706 78,-283.706 78,-237.706 8,-237.706"/>
<polygon fill="none" stroke="black" points="8,-260.706 8,-283.706 78,-283.706 78,-260.706 8,-260.706"/>
<text text-anchor="start" x="13" y="-270.106" font-family="Helvetica,sans-Serif" font-weight="bold" font-size="12.00">NETCONF</text>
<polygon fill="none" stroke="black" points="8,-237.706 8,-260.706 78,-260.706 78,-237.706 8,-237.706"/>
<text text-anchor="start" x="13" y="-246.106" font-family="Helvetica,sans-Serif" font-size="12.00">netconf</text>
</g>
<!-- NETCONF&#45;&#45;F_VOLTE_SIP_SV_H -->
<g id="edge4" class="edge"><title>NETCONF&#45;&#45;F_VOLTE_SIP_SV_H</title>
<path fill="none" stroke="#7f7f7f" stroke-dasharray="5,2" d="M86.2262,-273.704C98.1188,-275.866 111.066,-276.809 123,-274.706 151.097,-269.756 180.939,-259.728 206.052,-249.787"/>
<text text-anchor="start" x="199.052" y="-253.587" font-family="Times New Roman,serif" font-size="14.00">1</text>
<text text-anchor="start" x="86.2262" y="-262.504" font-family="Times New Roman,serif" font-size="14.00">1</text>
</g>
<!-- NETCONF&#45;&#45;F_VOLTE_SIP_SV_TERMINAL_H -->
<g id="edge5" class="edge"><title>NETCONF&#45;&#45;F_VOLTE_SIP_SV_TERMINAL_H</title>
<path fill="none" stroke="#7f7f7f" stroke-dasharray="5,2" d="M53.9394,-233.436C70.016,-192.927 105.432,-116.898 159,-72.7064 164.89,-67.8475 171.428,-63.5454 178.287,-59.7425"/>
<text text-anchor="start" x="171.287" y="-63.5425" font-family="Times New Roman,serif" font-size="14.00">1</text>
<text text-anchor="start" x="46.9394" y="-222.236" font-family="Times New Roman,serif" font-size="14.00">1</text>
</g>
<!-- NETCONF&#45;&#45;F_VOLTE_SIP_SV_CITY_H -->
<g id="edge6" class="edge"><title>NETCONF&#45;&#45;F_VOLTE_SIP_SV_CITY_H</title>
<path fill="none" stroke="#7f7f7f" stroke-dasharray="5,2" d="M83.6892,-233.532C123.973,-205.95 185.986,-163.49 226.281,-135.902"/>
<text text-anchor="start" x="219.281" y="-139.702" font-family="Times New Roman,serif" font-size="14.00">1</text>
<text text-anchor="start" x="76.6892" y="-222.332" font-family="Times New Roman,serif" font-size="14.00">1</text>
</g>
<!-- CELLLIST -->
<g id="node6" class="node"><title>CELLLIST</title>
<polygon fill="#d0e0d0" stroke="none" points="8.5,-30.7064 8.5,-76.7064 77.5,-76.7064 77.5,-30.7064 8.5,-30.7064"/>
<polygon fill="none" stroke="black" points="9,-53.7064 9,-76.7064 78,-76.7064 78,-53.7064 9,-53.7064"/>
<text text-anchor="start" x="14" y="-63.1064" font-family="Helvetica,sans-Serif" font-weight="bold" font-size="12.00">CELLLIST</text>
<polygon fill="none" stroke="black" points="9,-30.7064 9,-53.7064 78,-53.7064 78,-30.7064 9,-30.7064"/>
<text text-anchor="start" x="14" y="-39.1064" font-family="Helvetica,sans-Serif" font-size="12.00">celllist</text>
</g>
<!-- CELLLIST&#45;&#45;F_VOLTE_SIP_SV_H -->
<g id="edge7" class="edge"><title>CELLLIST&#45;&#45;F_VOLTE_SIP_SV_H</title>
<path fill="none" stroke="#7f7f7f" stroke-dasharray="5,2" d="M77.4409,-80.7379C100.243,-99.0287 131.225,-123.607 159,-144.706 181.699,-161.95 207.512,-180.789 228.098,-195.632"/>
<text text-anchor="start" x="221.098" y="-184.432" font-family="Times New Roman,serif" font-size="14.00">1</text>
<text text-anchor="start" x="70.4409" y="-84.5379" font-family="Times New Roman,serif" font-size="14.00">1</text>
</g>
<!-- CELLLIST&#45;&#45;F_VOLTE_SIP_SV_TERMINAL_H -->
<g id="edge8" class="edge"><title>CELLLIST&#45;&#45;F_VOLTE_SIP_SV_TERMINAL_H</title>
<path fill="none" stroke="#7f7f7f" stroke-dasharray="5,2" d="M85.8071,-31.0729C97.2198,-25.9818 109.809,-21.3163 122,-18.7064 133.789,-16.1826 146.22,-15.0973 158.638,-15"/>
<text text-anchor="start" x="151.638" y="-3.8" font-family="Times New Roman,serif" font-size="14.00">1</text>
<text text-anchor="start" x="85.8071" y="-19.8729" font-family="Times New Roman,serif" font-size="14.00">1</text>
</g>
<!-- CELLLIST&#45;&#45;F_VOLTE_SIP_SV_CITY_H -->
<g id="edge9" class="edge"><title>CELLLIST&#45;&#45;F_VOLTE_SIP_SV_CITY_H</title>
<path fill="none" stroke="#7f7f7f" stroke-dasharray="5,2" d="M85.7565,-64.0515C111.379,-70.3995 145.198,-78.778 176.614,-86.5612"/>
<text text-anchor="start" x="169.614" y="-90.3612" font-family="Times New Roman,serif" font-size="14.00">1</text>
<text text-anchor="start" x="85.7565" y="-52.8515" font-family="Times New Roman,serif" font-size="14.00">1</text>
</g>
</g>
</svg>
