<?xml version="1.0" encoding="UTF-8" standalone="no"?>
<!DOCTYPE svg PUBLIC "-//W3C//DTD SVG 1.1//EN"
 "http://www.w3.org/Graphics/SVG/1.1/DTD/svg11.dtd">
<!-- Generated by graphviz version 2.38.0 (20140413.2041)
 -->
<!-- Title: %3 Pages: 1 -->
<svg width="164pt" height="372pt"
 viewBox="0.00 0.00 164.00 372.00" xmlns="http://www.w3.org/2000/svg" xmlns:xlink="http://www.w3.org/1999/xlink">
<g id="graph0" class="graph" transform="scale(1 1) rotate(0) translate(4 368)">
<title>%3</title>
<polygon fill="white" stroke="none" points="-4,4 -4,-368 160,-368 160,4 -4,4"/>
<text text-anchor="start" x="8" y="-349.6" font-family="Times New Roman,serif" font-size="13.00">云南联通中间表天</text>
<!-- S_MRO_LTE_RSRP_D -->
<g id="node1" class="node"><title>S_MRO_LTE_RSRP_D</title>
<polygon fill="#d0e0d0" stroke="none" points="8,-4 8,-50 148,-50 148,-4 8,-4"/>
<polygon fill="none" stroke="black" points="8,-27 8,-50 148,-50 148,-27 8,-27"/>
<text text-anchor="start" x="13" y="-36.4" font-family="Helvetica,sans-Serif" font-weight="bold" font-size="12.00">S_MRO_LTE_RSRP_D</text>
<polygon fill="none" stroke="black" points="8,-4 8,-27 148,-27 148,-4 8,-4"/>
<text text-anchor="start" x="13" y="-12.4" font-family="Helvetica,sans-Serif" font-size="12.00">邻区MR</text>
</g>
<!-- S_MRS_LTE_RSRP_D -->
<g id="node2" class="node"><title>S_MRS_LTE_RSRP_D</title>
<polygon fill="#d0e0d0" stroke="none" points="8,-76 8,-122 148,-122 148,-76 8,-76"/>
<polygon fill="none" stroke="black" points="8,-99 8,-122 148,-122 148,-99 8,-99"/>
<text text-anchor="start" x="13" y="-108.4" font-family="Helvetica,sans-Serif" font-weight="bold" font-size="12.00">S_MRS_LTE_RSRP_D</text>
<polygon fill="none" stroke="black" points="8,-76 8,-99 148,-99 148,-76 8,-76"/>
<text text-anchor="start" x="13" y="-84.4" font-family="Helvetica,sans-Serif" font-size="12.00">服务小区MR</text>
</g>
<!-- S_MRS_LTE_IOT_D -->
<g id="node3" class="node"><title>S_MRS_LTE_IOT_D</title>
<polygon fill="#d0e0d0" stroke="none" points="15.5,-148 15.5,-194 140.5,-194 140.5,-148 15.5,-148"/>
<polygon fill="none" stroke="black" points="16,-171 16,-194 141,-194 141,-171 16,-171"/>
<text text-anchor="start" x="21" y="-180.4" font-family="Helvetica,sans-Serif" font-weight="bold" font-size="12.00">S_MRS_LTE_IOT_D</text>
<polygon fill="none" stroke="black" points="16,-148 16,-171 141,-171 141,-148 16,-148"/>
<text text-anchor="start" x="21" y="-156.4" font-family="Helvetica,sans-Serif" font-size="12.00">小区干扰</text>
</g>
<!-- S_PM_LTE_CELL_D -->
<g id="node4" class="node"><title>S_PM_LTE_CELL_D</title>
<polygon fill="#d0e0d0" stroke="none" points="14,-220 14,-266 142,-266 142,-220 14,-220"/>
<polygon fill="none" stroke="black" points="14,-243 14,-266 142,-266 142,-243 14,-243"/>
<text text-anchor="start" x="19" y="-252.4" font-family="Helvetica,sans-Serif" font-weight="bold" font-size="12.00">S_PM_LTE_CELL_D</text>
<polygon fill="none" stroke="black" points="14,-220 14,-243 142,-243 142,-220 14,-220"/>
<text text-anchor="start" x="19" y="-228.4" font-family="Helvetica,sans-Serif" font-size="12.00">小区级KPI指标</text>
</g>
<!-- S_PM_LTE_SCITY_D -->
<g id="node5" class="node"><title>S_PM_LTE_SCITY_D</title>
<polygon fill="#d0e0d0" stroke="none" points="12.5,-292 12.5,-338 143.5,-338 143.5,-292 12.5,-292"/>
<polygon fill="none" stroke="black" points="13,-315 13,-338 144,-338 144,-315 13,-315"/>
<text text-anchor="start" x="18" y="-324.4" font-family="Helvetica,sans-Serif" font-weight="bold" font-size="12.00">S_PM_LTE_SCITY_D</text>
<polygon fill="none" stroke="black" points="13,-292 13,-315 144,-315 144,-292 13,-292"/>
<text text-anchor="start" x="18" y="-300.4" font-family="Helvetica,sans-Serif" font-size="12.00">地市级KPI指标</text>
</g>
</g>
</svg>
