<?xml version="1.0" encoding="UTF-8" standalone="no"?>
<!DOCTYPE svg PUBLIC "-//W3C//DTD SVG 1.1//EN"
 "http://www.w3.org/Graphics/SVG/1.1/DTD/svg11.dtd">
<!-- Generated by graphviz version 2.38.0 (20140413.2041)
 -->
<!-- Title: %3 Pages: 1 -->
<svg width="700pt" height="894pt"
 viewBox="0.00 0.00 700.00 894.00" xmlns="http://www.w3.org/2000/svg" xmlns:xlink="http://www.w3.org/1999/xlink">
<g id="graph0" class="graph" transform="scale(1 1) rotate(0) translate(4 890)">
<title>%3</title>
<polygon fill="white" stroke="none" points="-4,4 -4,-890 696,-890 696,4 -4,4"/>
<text text-anchor="start" x="8" y="-871.6" font-family="Times New Roman,serif" font-size="13.00">云南联通中间表小时</text>
<!-- M_MRO_LTE_RSRP_H -->
<g id="node1" class="node"><title>M_MRO_LTE_RSRP_H</title>
<polygon fill="#fff68f" stroke="none" points="308.5,-4 308.5,-50 450.5,-50 450.5,-4 308.5,-4"/>
<polygon fill="none" stroke="black" points="308.5,-27 308.5,-50 450.5,-50 450.5,-27 308.5,-27"/>
<text text-anchor="start" x="313.5" y="-36.4" font-family="Helvetica,sans-Serif" font-weight="bold" font-size="12.00">M_MRO_LTE_RSRP_H</text>
<polygon fill="none" stroke="black" points="308.5,-4 308.5,-27 450.5,-27 450.5,-4 308.5,-4"/>
<text text-anchor="start" x="313.5" y="-12.4" font-family="Helvetica,sans-Serif" font-size="12.00">邻区MR</text>
</g>
<!-- S_MRO_LTE_RSRP_D -->
<g id="node2" class="node"><title>S_MRO_LTE_RSRP_D</title>
<polygon fill="#9aff9a" stroke="none" points="544,-4 544,-50 684,-50 684,-4 544,-4"/>
<polygon fill="none" stroke="black" points="544,-27 544,-50 684,-50 684,-27 544,-27"/>
<text text-anchor="start" x="549" y="-36.4" font-family="Helvetica,sans-Serif" font-weight="bold" font-size="12.00">S_MRO_LTE_RSRP_D</text>
<polygon fill="none" stroke="black" points="544,-4 544,-27 684,-27 684,-4 544,-4"/>
<text text-anchor="start" x="549" y="-12.4" font-family="Helvetica,sans-Serif" font-size="12.00">天邻区MR</text>
</g>
<!-- M_MRO_LTE_RSRP_H&#45;&#45;S_MRO_LTE_RSRP_D -->
<g id="edge1" class="edge"><title>M_MRO_LTE_RSRP_H&#45;&#45;S_MRO_LTE_RSRP_D</title>
<path fill="none" stroke="#7f7f7f" stroke-dasharray="5,2" d="M458.566,-27C483.499,-27 511.068,-27 535.93,-27"/>
<text text-anchor="start" x="528.93" y="-15.8" font-family="Times New Roman,serif" font-size="14.00">1</text>
<text text-anchor="start" x="458.566" y="-15.8" font-family="Times New Roman,serif" font-size="14.00">1</text>
</g>
<!-- M_MRS_LTE_RSRP_H -->
<g id="node3" class="node"><title>M_MRS_LTE_RSRP_H</title>
<polygon fill="#fff68f" stroke="none" points="309,-76 309,-122 450,-122 450,-76 309,-76"/>
<polygon fill="none" stroke="black" points="309.5,-99 309.5,-122 450.5,-122 450.5,-99 309.5,-99"/>
<text text-anchor="start" x="314.5" y="-108.4" font-family="Helvetica,sans-Serif" font-weight="bold" font-size="12.00">M_MRS_LTE_RSRP_H</text>
<polygon fill="none" stroke="black" points="309.5,-76 309.5,-99 450.5,-99 450.5,-76 309.5,-76"/>
<text text-anchor="start" x="314.5" y="-84.4" font-family="Helvetica,sans-Serif" font-size="12.00">服务小区MR</text>
</g>
<!-- S_MRS_LTE_RSRP_D -->
<g id="node4" class="node"><title>S_MRS_LTE_RSRP_D</title>
<polygon fill="#9aff9a" stroke="none" points="544,-76 544,-122 684,-122 684,-76 544,-76"/>
<polygon fill="none" stroke="black" points="544,-99 544,-122 684,-122 684,-99 544,-99"/>
<text text-anchor="start" x="549" y="-108.4" font-family="Helvetica,sans-Serif" font-weight="bold" font-size="12.00">S_MRS_LTE_RSRP_D</text>
<polygon fill="none" stroke="black" points="544,-76 544,-99 684,-99 684,-76 544,-76"/>
<text text-anchor="start" x="549" y="-84.4" font-family="Helvetica,sans-Serif" font-size="12.00">天服务小区MR</text>
</g>
<!-- M_MRS_LTE_RSRP_H&#45;&#45;S_MRS_LTE_RSRP_D -->
<g id="edge2" class="edge"><title>M_MRS_LTE_RSRP_H&#45;&#45;S_MRS_LTE_RSRP_D</title>
<path fill="none" stroke="#7f7f7f" stroke-dasharray="5,2" d="M458.242,-99C483.192,-99 510.81,-99 535.727,-99"/>
<text text-anchor="start" x="528.727" y="-87.8" font-family="Times New Roman,serif" font-size="14.00">1</text>
<text text-anchor="start" x="458.242" y="-87.8" font-family="Times New Roman,serif" font-size="14.00">1</text>
</g>
<!-- M_MRS_LTE_IOT_H -->
<g id="node5" class="node"><title>M_MRS_LTE_IOT_H</title>
<polygon fill="#fff68f" stroke="none" points="316.5,-166 316.5,-212 442.5,-212 442.5,-166 316.5,-166"/>
<polygon fill="none" stroke="black" points="316.5,-189 316.5,-212 442.5,-212 442.5,-189 316.5,-189"/>
<text text-anchor="start" x="321.5" y="-198.4" font-family="Helvetica,sans-Serif" font-weight="bold" font-size="12.00">M_MRS_LTE_IOT_H</text>
<polygon fill="none" stroke="black" points="316.5,-166 316.5,-189 442.5,-189 442.5,-166 316.5,-166"/>
<text text-anchor="start" x="321.5" y="-174.4" font-family="Helvetica,sans-Serif" font-size="12.00">小区干扰</text>
</g>
<!-- S_MRS_LTE_IOT_D -->
<g id="node6" class="node"><title>S_MRS_LTE_IOT_D</title>
<polygon fill="#9aff9a" stroke="none" points="551.5,-166 551.5,-212 676.5,-212 676.5,-166 551.5,-166"/>
<polygon fill="none" stroke="black" points="552,-189 552,-212 677,-212 677,-189 552,-189"/>
<text text-anchor="start" x="557" y="-198.4" font-family="Helvetica,sans-Serif" font-weight="bold" font-size="12.00">S_MRS_LTE_IOT_D</text>
<polygon fill="none" stroke="black" points="552,-166 552,-189 677,-189 677,-166 552,-166"/>
<text text-anchor="start" x="557" y="-174.4" font-family="Helvetica,sans-Serif" font-size="12.00">天小区干扰</text>
</g>
<!-- M_MRS_LTE_IOT_H&#45;&#45;S_MRS_LTE_IOT_D -->
<g id="edge3" class="edge"><title>M_MRS_LTE_IOT_H&#45;&#45;S_MRS_LTE_IOT_D</title>
<path fill="none" stroke="#7f7f7f" stroke-dasharray="5,2" d="M450.573,-189C479.988,-189 514.114,-189 543.471,-189"/>
<text text-anchor="start" x="536.471" y="-177.8" font-family="Times New Roman,serif" font-size="14.00">1</text>
<text text-anchor="start" x="450.573" y="-177.8" font-family="Times New Roman,serif" font-size="14.00">1</text>
</g>
<!-- M_PM_LTE_CELL_H -->
<g id="node7" class="node"><title>M_PM_LTE_CELL_H</title>
<polygon fill="#fff68f" stroke="none" points="314.5,-349 314.5,-395 444.5,-395 444.5,-349 314.5,-349"/>
<polygon fill="none" stroke="black" points="314.5,-372 314.5,-395 444.5,-395 444.5,-372 314.5,-372"/>
<text text-anchor="start" x="319.5" y="-381.4" font-family="Helvetica,sans-Serif" font-weight="bold" font-size="12.00">M_PM_LTE_CELL_H</text>
<polygon fill="none" stroke="black" points="314.5,-349 314.5,-372 444.5,-372 444.5,-349 314.5,-349"/>
<text text-anchor="start" x="319.5" y="-357.4" font-family="Helvetica,sans-Serif" font-size="12.00">小区级KPI指标</text>
</g>
<!-- S_PM_LTE_CELL_D -->
<g id="node8" class="node"><title>S_PM_LTE_CELL_D</title>
<polygon fill="#9aff9a" stroke="none" points="550,-385 550,-431 678,-431 678,-385 550,-385"/>
<polygon fill="none" stroke="black" points="550,-408 550,-431 678,-431 678,-408 550,-408"/>
<text text-anchor="start" x="555" y="-417.4" font-family="Helvetica,sans-Serif" font-weight="bold" font-size="12.00">S_PM_LTE_CELL_D</text>
<polygon fill="none" stroke="black" points="550,-385 550,-408 678,-408 678,-385 550,-385"/>
<text text-anchor="start" x="555" y="-393.4" font-family="Helvetica,sans-Serif" font-size="12.00">天小区级KPI指标</text>
</g>
<!-- M_PM_LTE_CELL_H&#45;&#45;S_PM_LTE_CELL_D -->
<g id="edge4" class="edge"><title>M_PM_LTE_CELL_H&#45;&#45;S_PM_LTE_CELL_D</title>
<path fill="none" stroke="#7f7f7f" stroke-dasharray="5,2" d="M452.79,-383.193C481.183,-387.59 513.68,-392.621 541.952,-396.999"/>
<text text-anchor="start" x="534.952" y="-385.799" font-family="Times New Roman,serif" font-size="14.00">1</text>
<text text-anchor="start" x="452.79" y="-371.993" font-family="Times New Roman,serif" font-size="14.00">1</text>
</g>
<!-- S_PM_LTE_SCITY_D -->
<g id="node9" class="node"><title>S_PM_LTE_SCITY_D</title>
<polygon fill="#9aff9a" stroke="none" points="548.5,-313 548.5,-359 679.5,-359 679.5,-313 548.5,-313"/>
<polygon fill="none" stroke="black" points="549,-336 549,-359 680,-359 680,-336 549,-336"/>
<text text-anchor="start" x="554" y="-345.4" font-family="Helvetica,sans-Serif" font-weight="bold" font-size="12.00">S_PM_LTE_SCITY_D</text>
<polygon fill="none" stroke="black" points="549,-313 549,-336 680,-336 680,-313 549,-313"/>
<text text-anchor="start" x="554" y="-321.4" font-family="Helvetica,sans-Serif" font-size="12.00">天地市级KPI指标</text>
</g>
<!-- M_PM_LTE_CELL_H&#45;&#45;S_PM_LTE_SCITY_D -->
<g id="edge5" class="edge"><title>M_PM_LTE_CELL_H&#45;&#45;S_PM_LTE_SCITY_D</title>
<path fill="none" stroke="#7f7f7f" stroke-dasharray="5,2" d="M452.79,-360.807C480.65,-356.493 512.461,-351.567 540.355,-347.248"/>
<text text-anchor="start" x="533.355" y="-336.048" font-family="Times New Roman,serif" font-size="14.00">1</text>
<text text-anchor="start" x="452.79" y="-349.607" font-family="Times New Roman,serif" font-size="14.00">1</text>
</g>
<!-- M_CM_LTE_CELL_D -->
<g id="node10" class="node"><title>M_CM_LTE_CELL_D</title>
<polygon fill="#9aff9a" stroke="none" points="314,-433 314,-479 445,-479 445,-433 314,-433"/>
<polygon fill="none" stroke="black" points="314.5,-456 314.5,-479 445.5,-479 445.5,-456 314.5,-456"/>
<text text-anchor="start" x="319.5" y="-465.4" font-family="Helvetica,sans-Serif" font-weight="bold" font-size="12.00">M_CM_LTE_CELL_D</text>
<polygon fill="none" stroke="black" points="314.5,-433 314.5,-456 445.5,-456 445.5,-433 314.5,-433"/>
<text text-anchor="start" x="319.5" y="-441.4" font-family="Helvetica,sans-Serif" font-size="12.00">小区级参数</text>
</g>
<!-- M_CM_LTE_ENODEB_D -->
<g id="node11" class="node"><title>M_CM_LTE_ENODEB_D</title>
<polygon fill="#9aff9a" stroke="none" points="304,-257 304,-303 455,-303 455,-257 304,-257"/>
<polygon fill="none" stroke="black" points="304.5,-280 304.5,-303 455.5,-303 455.5,-280 304.5,-280"/>
<text text-anchor="start" x="309.5" y="-289.4" font-family="Helvetica,sans-Serif" font-weight="bold" font-size="12.00">M_CM_LTE_ENODEB_D</text>
<polygon fill="none" stroke="black" points="304.5,-257 304.5,-280 455.5,-280 455.5,-257 304.5,-257"/>
<text text-anchor="start" x="309.5" y="-265.4" font-family="Helvetica,sans-Serif" font-size="12.00">基站级参数</text>
</g>
<!-- O_LTE_MRO_IMSI -->
<g id="node12" class="node"><title>O_LTE_MRO_IMSI</title>
<polygon fill="#d0e0d0" stroke="none" points="54,-15.5 54,-38.5 169,-38.5 169,-15.5 54,-15.5"/>
<polygon fill="none" stroke="black" points="54.5,-15 54.5,-38 169.5,-38 169.5,-15 54.5,-15"/>
<text text-anchor="start" x="59.5" y="-24.4" font-family="Helvetica,sans-Serif" font-weight="bold" font-size="12.00">O_LTE_MRO_IMSI</text>
</g>
<!-- O_LTE_MRO_IMSI&#45;&#45;M_MRO_LTE_RSRP_H -->
<g id="edge6" class="edge"><title>O_LTE_MRO_IMSI&#45;&#45;M_MRO_LTE_RSRP_H</title>
<path fill="none" stroke="#7f7f7f" stroke-dasharray="5,2" d="M177.231,-27C214.292,-27 261.057,-27 300.18,-27"/>
<text text-anchor="start" x="293.18" y="-15.8" font-family="Times New Roman,serif" font-size="14.00">1</text>
<text text-anchor="start" x="177.231" y="-15.8" font-family="Times New Roman,serif" font-size="14.00">1</text>
</g>
<!-- O_LTE_MRS_RSRP -->
<g id="node13" class="node"><title>O_LTE_MRS_RSRP</title>
<polygon fill="#d0e0d0" stroke="none" points="49,-87.5 49,-110.5 174,-110.5 174,-87.5 49,-87.5"/>
<polygon fill="none" stroke="black" points="49.5,-87 49.5,-110 174.5,-110 174.5,-87 49.5,-87"/>
<text text-anchor="start" x="54.5" y="-96.4" font-family="Helvetica,sans-Serif" font-weight="bold" font-size="12.00">O_LTE_MRS_RSRP</text>
</g>
<!-- O_LTE_MRS_RSRP&#45;&#45;M_MRS_LTE_RSRP_H -->
<g id="edge7" class="edge"><title>O_LTE_MRS_RSRP&#45;&#45;M_MRS_LTE_RSRP_H</title>
<path fill="none" stroke="#7f7f7f" stroke-dasharray="5,2" d="M182.041,-99C218.523,-99 263.325,-99 300.929,-99"/>
<text text-anchor="start" x="293.929" y="-87.8" font-family="Times New Roman,serif" font-size="14.00">1</text>
<text text-anchor="start" x="182.041" y="-87.8" font-family="Times New Roman,serif" font-size="14.00">1</text>
</g>
<!-- O_LTE_MRS_RECEIVEDIPOWER -->
<g id="node14" class="node"><title>O_LTE_MRS_RECEIVEDIPOWER</title>
<polygon fill="#d0e0d0" stroke="none" points="10.5,-195.5 10.5,-218.5 212.5,-218.5 212.5,-195.5 10.5,-195.5"/>
<polygon fill="none" stroke="black" points="10.5,-195 10.5,-218 212.5,-218 212.5,-195 10.5,-195"/>
<text text-anchor="start" x="15.5" y="-204.4" font-family="Helvetica,sans-Serif" font-weight="bold" font-size="12.00">O_LTE_MRS_RECEIVEDIPOWER</text>
</g>
<!-- O_LTE_MRS_RECEIVEDIPOWER&#45;&#45;M_MRS_LTE_IOT_H -->
<g id="edge8" class="edge"><title>O_LTE_MRS_RECEIVEDIPOWER&#45;&#45;M_MRS_LTE_IOT_H</title>
<path fill="none" stroke="#7f7f7f" stroke-dasharray="5,2" d="M220.692,-199.679C250.179,-197.683 281.351,-195.574 308.133,-193.762"/>
<text text-anchor="start" x="301.133" y="-182.562" font-family="Times New Roman,serif" font-size="14.00">1</text>
<text text-anchor="start" x="220.692" y="-188.479" font-family="Times New Roman,serif" font-size="14.00">1</text>
</g>
<!-- O_LTE_MRS_POWERHEADROOM -->
<g id="node15" class="node"><title>O_LTE_MRS_POWERHEADROOM</title>
<polygon fill="#d0e0d0" stroke="none" points="8,-141.5 8,-164.5 215,-164.5 215,-141.5 8,-141.5"/>
<polygon fill="none" stroke="black" points="8.5,-141 8.5,-164 215.5,-164 215.5,-141 8.5,-141"/>
<text text-anchor="start" x="13.5" y="-150.4" font-family="Helvetica,sans-Serif" font-weight="bold" font-size="12.00">O_LTE_MRS_POWERHEADROOM</text>
</g>
<!-- O_LTE_MRS_POWERHEADROOM&#45;&#45;M_MRS_LTE_IOT_H -->
<g id="edge9" class="edge"><title>O_LTE_MRS_POWERHEADROOM&#45;&#45;M_MRS_LTE_IOT_H</title>
<path fill="none" stroke="#7f7f7f" stroke-dasharray="5,2" d="M223.382,-168.007C252.178,-171.904 282.397,-175.994 308.434,-179.517"/>
<text text-anchor="start" x="301.434" y="-168.317" font-family="Times New Roman,serif" font-size="14.00">1</text>
<text text-anchor="start" x="223.382" y="-156.807" font-family="Times New Roman,serif" font-size="14.00">1</text>
</g>
<!-- O_LTE_RPM_EUTRANCELL -->
<g id="node16" class="node"><title>O_LTE_RPM_EUTRANCELL</title>
<polygon fill="#d0e0d0" stroke="none" points="25,-303.5 25,-326.5 198,-326.5 198,-303.5 25,-303.5"/>
<polygon fill="none" stroke="black" points="25.5,-303 25.5,-326 198.5,-326 198.5,-303 25.5,-303"/>
<text text-anchor="start" x="30.5" y="-312.4" font-family="Helvetica,sans-Serif" font-weight="bold" font-size="12.00">O_LTE_RPM_EUTRANCELL</text>
</g>
<!-- O_LTE_RPM_EUTRANCELL&#45;&#45;M_PM_LTE_CELL_H -->
<g id="edge10" class="edge"><title>O_LTE_RPM_EUTRANCELL&#45;&#45;M_PM_LTE_CELL_H</title>
<path fill="none" stroke="#7f7f7f" stroke-dasharray="5,2" d="M196.664,-333.035C231.824,-340.569 272.271,-349.237 306.078,-356.481"/>
<text text-anchor="start" x="299.078" y="-345.281" font-family="Times New Roman,serif" font-size="14.00">1</text>
<text text-anchor="start" x="189.664" y="-336.835" font-family="Times New Roman,serif" font-size="14.00">1</text>
</g>
<!-- O_LTE_RCM_EUTRANCELL -->
<g id="node17" class="node"><title>O_LTE_RCM_EUTRANCELL</title>
<polygon fill="#d0e0d0" stroke="none" points="24.5,-455.5 24.5,-478.5 198.5,-478.5 198.5,-455.5 24.5,-455.5"/>
<polygon fill="none" stroke="black" points="24.5,-455 24.5,-478 198.5,-478 198.5,-455 24.5,-455"/>
<text text-anchor="start" x="29.5" y="-464.4" font-family="Helvetica,sans-Serif" font-weight="bold" font-size="12.00">O_LTE_RCM_EUTRANCELL</text>
</g>
<!-- O_LTE_RCM_EUTRANCELL&#45;&#45;M_CM_LTE_CELL_D -->
<g id="edge11" class="edge"><title>O_LTE_RCM_EUTRANCELL&#45;&#45;M_CM_LTE_CELL_D</title>
<path fill="none" stroke="#7f7f7f" stroke-dasharray="5,2" d="M206.656,-463.106C239.237,-461.759 275.226,-460.271 305.816,-459.006"/>
<text text-anchor="start" x="298.816" y="-447.806" font-family="Times New Roman,serif" font-size="14.00">1</text>
<text text-anchor="start" x="206.656" y="-451.906" font-family="Times New Roman,serif" font-size="14.00">1</text>
</g>
<!-- O_LTE_RCM_ENODEB -->
<g id="node18" class="node"><title>O_LTE_RCM_ENODEB</title>
<polygon fill="#d0e0d0" stroke="none" points="40,-249.5 40,-272.5 183,-272.5 183,-249.5 40,-249.5"/>
<polygon fill="none" stroke="black" points="40.5,-249 40.5,-272 183.5,-272 183.5,-249 40.5,-249"/>
<text text-anchor="start" x="45.5" y="-258.4" font-family="Helvetica,sans-Serif" font-weight="bold" font-size="12.00">O_LTE_RCM_ENODEB</text>
</g>
<!-- O_LTE_RCM_ENODEB&#45;&#45;M_CM_LTE_ENODEB_D -->
<g id="edge12" class="edge"><title>O_LTE_RCM_ENODEB&#45;&#45;M_CM_LTE_ENODEB_D</title>
<path fill="none" stroke="#7f7f7f" stroke-dasharray="5,2" d="M191.229,-266.624C224.167,-268.976 262.464,-271.712 295.812,-274.094"/>
<text text-anchor="start" x="288.812" y="-262.894" font-family="Times New Roman,serif" font-size="14.00">1</text>
<text text-anchor="start" x="191.229" y="-255.424" font-family="Times New Roman,serif" font-size="14.00">1</text>
</g>
<!-- P_NETCONF -->
<g id="node19" class="node"><title>P_NETCONF</title>
<polygon fill="#d0e0d0" stroke="none" points="69,-379.5 69,-402.5 154,-402.5 154,-379.5 69,-379.5"/>
<polygon fill="none" stroke="black" points="69.5,-379 69.5,-402 154.5,-402 154.5,-379 69.5,-379"/>
<text text-anchor="start" x="74.5" y="-388.4" font-family="Helvetica,sans-Serif" font-weight="bold" font-size="12.00">P_NETCONF</text>
</g>
<!-- P_NETCONF&#45;&#45;M_PM_LTE_CELL_H -->
<g id="edge13" class="edge"><title>P_NETCONF&#45;&#45;M_PM_LTE_CELL_H</title>
<path fill="none" stroke="#7f7f7f" stroke-dasharray="5,2" d="M162.221,-387.449C202.821,-384.549 260.746,-380.411 306.433,-377.148"/>
<text text-anchor="start" x="299.433" y="-365.948" font-family="Times New Roman,serif" font-size="14.00">1</text>
<text text-anchor="start" x="162.221" y="-376.249" font-family="Times New Roman,serif" font-size="14.00">1</text>
</g>
<!-- P_NETCONF&#45;&#45;M_CM_LTE_CELL_D -->
<g id="edge14" class="edge"><title>P_NETCONF&#45;&#45;M_CM_LTE_CELL_D</title>
<path fill="none" stroke="#7f7f7f" stroke-dasharray="5,2" d="M162.221,-403.15C202.67,-413.034 260.317,-427.121 305.925,-438.265"/>
<text text-anchor="start" x="298.925" y="-427.065" font-family="Times New Roman,serif" font-size="14.00">1</text>
<text text-anchor="start" x="162.221" y="-391.95" font-family="Times New Roman,serif" font-size="14.00">1</text>
</g>
<!-- P_NETCONF&#45;&#45;M_CM_LTE_ENODEB_D -->
<g id="edge15" class="edge"><title>P_NETCONF&#45;&#45;M_CM_LTE_ENODEB_D</title>
<path fill="none" stroke="#7f7f7f" stroke-dasharray="5,2" d="M155.83,-372.919C198.596,-355.073 264.515,-327.565 313.547,-307.105"/>
<text text-anchor="start" x="306.547" y="-310.905" font-family="Times New Roman,serif" font-size="14.00">1</text>
<text text-anchor="start" x="148.83" y="-361.719" font-family="Times New Roman,serif" font-size="14.00">1</text>
</g>
<!-- P_RMCONF -->
<g id="node20" class="node"><title>P_RMCONF</title>
<polygon fill="#ffd700" stroke="none" points="340,-698.5 340,-721.5 419,-721.5 419,-698.5 340,-698.5"/>
<polygon fill="none" stroke="black" points="340.5,-698 340.5,-721 419.5,-721 419.5,-698 340.5,-698"/>
<text text-anchor="start" x="345.5" y="-707.4" font-family="Helvetica,sans-Serif" font-weight="bold" font-size="12.00">P_RMCONF</text>
</g>
<!-- M_AM -->
<g id="node21" class="node"><title>M_AM</title>
<polygon fill="#fff68f" stroke="none" points="591.5,-802.5 591.5,-825.5 636.5,-825.5 636.5,-802.5 591.5,-802.5"/>
<polygon fill="none" stroke="black" points="592,-802 592,-825 637,-825 637,-802 592,-802"/>
<text text-anchor="start" x="597" y="-811.4" font-family="Helvetica,sans-Serif" font-weight="bold" font-size="12.00">M_AM</text>
</g>
<!-- P_RMCONF&#45;&#45;M_AM -->
<g id="edge16" class="edge"><title>P_RMCONF&#45;&#45;M_AM</title>
<path fill="none" stroke="#7f7f7f" stroke-dasharray="5,2" d="M420.998,-728.115C467.315,-748.833 542.048,-782.262 583.288,-800.709"/>
<text text-anchor="start" x="576.288" y="-789.509" font-family="Times New Roman,serif" font-size="14.00">1</text>
<text text-anchor="start" x="413.998" y="-731.915" font-family="Times New Roman,serif" font-size="14.00">1</text>
</g>
<!-- O_RM_ENDEB -->
<g id="node22" class="node"><title>O_RM_ENDEB</title>
<polygon fill="#d0e0d0" stroke="none" points="64,-779.5 64,-802.5 159,-802.5 159,-779.5 64,-779.5"/>
<polygon fill="none" stroke="black" points="64.5,-779 64.5,-802 159.5,-802 159.5,-779 64.5,-779"/>
<text text-anchor="start" x="69.5" y="-788.4" font-family="Helvetica,sans-Serif" font-weight="bold" font-size="12.00">O_RM_ENDEB</text>
</g>
<!-- O_RM_ENDEB&#45;&#45;P_RMCONF -->
<g id="edge17" class="edge"><title>O_RM_ENDEB&#45;&#45;P_RMCONF</title>
<path fill="none" stroke="#7f7f7f" stroke-dasharray="5,2" d="M167.01,-778.763C184.941,-774.45 204.911,-769.338 223,-764 260.003,-753.081 301.223,-738.661 331.921,-727.469"/>
<text text-anchor="start" x="324.921" y="-731.269" font-family="Times New Roman,serif" font-size="14.00">1</text>
<text text-anchor="start" x="167.01" y="-767.563" font-family="Times New Roman,serif" font-size="14.00">1</text>
</g>
<!-- O_RM_EUTRANCELL -->
<g id="node23" class="node"><title>O_RM_EUTRANCELL</title>
<polygon fill="#d0e0d0" stroke="none" points="44,-725.5 44,-748.5 179,-748.5 179,-725.5 44,-725.5"/>
<polygon fill="none" stroke="black" points="44.5,-725 44.5,-748 179.5,-748 179.5,-725 44.5,-725"/>
<text text-anchor="start" x="49.5" y="-734.4" font-family="Helvetica,sans-Serif" font-weight="bold" font-size="12.00">O_RM_EUTRANCELL</text>
</g>
<!-- O_RM_EUTRANCELL&#45;&#45;P_RMCONF -->
<g id="edge18" class="edge"><title>O_RM_EUTRANCELL&#45;&#45;P_RMCONF</title>
<path fill="none" stroke="#7f7f7f" stroke-dasharray="5,2" d="M187.304,-729.407C233.71,-724.697 291.892,-718.791 331.812,-714.739"/>
<text text-anchor="start" x="324.812" y="-703.539" font-family="Times New Roman,serif" font-size="14.00">1</text>
<text text-anchor="start" x="187.304" y="-718.207" font-family="Times New Roman,serif" font-size="14.00">1</text>
</g>
<!-- O_RM_HSS_FE -->
<g id="node24" class="node"><title>O_RM_HSS_FE</title>
<polygon fill="#d0e0d0" stroke="none" points="61.5,-671.5 61.5,-694.5 161.5,-694.5 161.5,-671.5 61.5,-671.5"/>
<polygon fill="none" stroke="black" points="61.5,-671 61.5,-694 161.5,-694 161.5,-671 61.5,-671"/>
<text text-anchor="start" x="66.5" y="-680.4" font-family="Helvetica,sans-Serif" font-weight="bold" font-size="12.00">O_RM_HSS_FE</text>
</g>
<!-- O_RM_HSS_FE&#45;&#45;P_RMCONF -->
<g id="edge19" class="edge"><title>O_RM_HSS_FE&#45;&#45;P_RMCONF</title>
<path fill="none" stroke="#7f7f7f" stroke-dasharray="5,2" d="M169.564,-688.792C217.955,-693.704 286.517,-700.663 331.723,-705.252"/>
<text text-anchor="start" x="324.723" y="-694.052" font-family="Times New Roman,serif" font-size="14.00">1</text>
<text text-anchor="start" x="169.564" y="-677.592" font-family="Times New Roman,serif" font-size="14.00">1</text>
</g>
<!-- O_RM_MME -->
<g id="node25" class="node"><title>O_RM_MME</title>
<polygon fill="#d0e0d0" stroke="none" points="71.5,-617.5 71.5,-640.5 151.5,-640.5 151.5,-617.5 71.5,-617.5"/>
<polygon fill="none" stroke="black" points="71.5,-617 71.5,-640 151.5,-640 151.5,-617 71.5,-617"/>
<text text-anchor="start" x="76.5" y="-626.4" font-family="Helvetica,sans-Serif" font-weight="bold" font-size="12.00">O_RM_MME</text>
</g>
<!-- O_RM_MME&#45;&#45;P_RMCONF -->
<g id="edge20" class="edge"><title>O_RM_MME&#45;&#45;P_RMCONF</title>
<path fill="none" stroke="#7f7f7f" stroke-dasharray="5,2" d="M159.539,-639.457C179.257,-644.109 202.354,-649.908 223,-656 260.003,-666.919 301.223,-681.339 331.921,-692.531"/>
<text text-anchor="start" x="331.921" y="-681.331" font-family="Times New Roman,serif" font-size="14.00">1</text>
<text text-anchor="start" x="159.539" y="-628.257" font-family="Times New Roman,serif" font-size="14.00">1</text>
</g>
<!-- O_RM_PGW -->
<g id="node26" class="node"><title>O_RM_PGW</title>
<polygon fill="#d0e0d0" stroke="none" points="71.5,-563.5 71.5,-586.5 151.5,-586.5 151.5,-563.5 71.5,-563.5"/>
<polygon fill="none" stroke="black" points="71.5,-563 71.5,-586 151.5,-586 151.5,-563 71.5,-563"/>
<text text-anchor="start" x="76.5" y="-572.4" font-family="Helvetica,sans-Serif" font-weight="bold" font-size="12.00">O_RM_PGW</text>
</g>
<!-- O_RM_PGW&#45;&#45;P_RMCONF -->
<g id="edge21" class="edge"><title>O_RM_PGW&#45;&#45;P_RMCONF</title>
<path fill="none" stroke="#7f7f7f" stroke-dasharray="5,2" d="M159.729,-582.564C179.797,-586.779 203.104,-593.035 223,-602 275.743,-625.765 329.462,-667.9 357.886,-691.914"/>
<text text-anchor="start" x="350.886" y="-680.714" font-family="Times New Roman,serif" font-size="14.00">1</text>
<text text-anchor="start" x="159.729" y="-571.364" font-family="Times New Roman,serif" font-size="14.00">1</text>
</g>
<!-- O_RM_SGW -->
<g id="node27" class="node"><title>O_RM_SGW</title>
<polygon fill="#d0e0d0" stroke="none" points="71.5,-509.5 71.5,-532.5 151.5,-532.5 151.5,-509.5 71.5,-509.5"/>
<polygon fill="none" stroke="black" points="71.5,-509 71.5,-532 151.5,-532 151.5,-509 71.5,-509"/>
<text text-anchor="start" x="76.5" y="-518.4" font-family="Helvetica,sans-Serif" font-weight="bold" font-size="12.00">O_RM_SGW</text>
</g>
<!-- O_RM_SGW&#45;&#45;P_RMCONF -->
<g id="edge22" class="edge"><title>O_RM_SGW&#45;&#45;P_RMCONF</title>
<path fill="none" stroke="#7f7f7f" stroke-dasharray="5,2" d="M159.591,-526.484C180.08,-530.35 203.75,-536.908 223,-548 288.023,-585.468 343.183,-658.188 366.546,-691.959"/>
<text text-anchor="start" x="359.546" y="-680.759" font-family="Times New Roman,serif" font-size="14.00">1</text>
<text text-anchor="start" x="159.591" y="-515.284" font-family="Times New Roman,serif" font-size="14.00">1</text>
</g>
<!-- O_AM -->
<g id="node28" class="node"><title>O_AM</title>
<polygon fill="#d0e0d0" stroke="none" points="89.5,-834.5 89.5,-857.5 133.5,-857.5 133.5,-834.5 89.5,-834.5"/>
<polygon fill="none" stroke="black" points="89.5,-834 89.5,-857 133.5,-857 133.5,-834 89.5,-834"/>
<text text-anchor="start" x="94.5" y="-843.4" font-family="Helvetica,sans-Serif" font-weight="bold" font-size="12.00">O_AM</text>
</g>
<!-- O_AM&#45;&#45;P_RMCONF -->
<g id="edge23" class="edge"><title>O_AM&#45;&#45;P_RMCONF</title>
<path fill="none" stroke="#7f7f7f" stroke-dasharray="5,2" d="M141.609,-841.571C164.464,-837.404 196.708,-829.982 223,-818 275.641,-794.01 329.399,-751.959 357.856,-728.021"/>
<text text-anchor="start" x="350.856" y="-731.821" font-family="Times New Roman,serif" font-size="14.00">1</text>
<text text-anchor="start" x="141.609" y="-830.371" font-family="Times New Roman,serif" font-size="14.00">1</text>
</g>
<!-- O_AM&#45;&#45;M_AM -->
<g id="edge24" class="edge"><title>O_AM&#45;&#45;M_AM</title>
<path fill="none" stroke="#7f7f7f" stroke-dasharray="5,2" d="M141.572,-844.141C229.823,-838.499 494.031,-821.606 583.218,-815.904"/>
<text text-anchor="start" x="576.218" y="-804.704" font-family="Times New Roman,serif" font-size="14.00">1</text>
<text text-anchor="start" x="141.572" y="-847.941" font-family="Times New Roman,serif" font-size="14.00">1</text>
</g>
</g>
</svg>
