<?xml version="1.0" encoding="UTF-8" standalone="no"?>
<!DOCTYPE svg PUBLIC "-//W3C//DTD SVG 1.1//EN"
 "http://www.w3.org/Graphics/SVG/1.1/DTD/svg11.dtd">
<!-- Generated by graphviz version 2.38.0 (20140413.2041)
 -->
<!-- Title: G Pages: 1 -->
<svg width="858pt" height="73pt"
 viewBox="0.00 0.00 858.00 72.53" xmlns="http://www.w3.org/2000/svg" xmlns:xlink="http://www.w3.org/1999/xlink">
<g id="graph0" class="graph" transform="scale(1 1) rotate(0) translate(4 68.5269)">
<title>G</title>
<polygon fill="white" stroke="none" points="-4,4 -4,-68.5269 854,-68.5269 854,4 -4,4"/>
<g id="clust1" class="cluster"><title>clusterset1</title>
<polygon fill="none" stroke="green" points="8,-8 8,-56.5269 842,-56.5269 842,-8 8,-8"/>
</g>
<!-- start -->
<g id="node1" class="node"><title>start</title>
<ellipse fill="none" stroke="black" cx="87" cy="-32.2635" rx="71.3357" ry="16.0303"/>
<text text-anchor="middle" x="87" y="-28.5635" font-family="Arial" font-size="14.00">Toolbox Start</text>
</g>
<!-- a -->
<g id="node3" class="node"><title>a</title>
<polygon fill="none" stroke="black" points="320,-46.7635 176,-46.7635 176,-17.7635 320,-17.7635 320,-46.7635"/>
<text text-anchor="middle" x="248" y="-28.5635" font-family="Microsoft Yahei" font-size="14.00">Activator</text>
</g>
<!-- start&#45;&gt;a -->
<g id="edge1" class="edge"><title>start&#45;&gt;a</title>
<path fill="none" stroke="black" d="M158.555,-32C158.555,-32 165.753,-32 165.753,-32"/>
<polygon fill="black" stroke="black" points="165.753,-35.5001 175.753,-32 165.753,-28.5001 165.753,-35.5001"/>
</g>
<!-- md -->
<g id="node2" class="node"><title>md</title>
<polygon fill="none" stroke="black" points="644,-46.7635 500,-46.7635 500,-17.7635 644,-17.7635 644,-46.7635"/>
<text text-anchor="middle" x="572" y="-28.5635" font-family="Microsoft Yahei" font-size="14.00">MessageDriver</text>
</g>
<!-- pt2 -->
<g id="node5" class="node"><title>pt2</title>
<text text-anchor="middle" x="748" y="-29.4635" font-family="Microsoft Yahei" font-size="11.00">MessageDriver#listen(topic)</text>
</g>
<!-- md&#45;&gt;pt2 -->
<g id="edge4" class="edge"><title>md&#45;&gt;pt2</title>
<path fill="none" stroke="black" d="M644.094,-32C644.094,-32 652.224,-32 652.224,-32"/>
<polygon fill="black" stroke="black" points="652.224,-35.5001 662.224,-32 652.224,-28.5001 652.224,-35.5001"/>
</g>
<!-- pt1 -->
<g id="node4" class="node"><title>pt1</title>
<text text-anchor="middle" x="410" y="-29.4635" font-family="Microsoft Yahei" font-size="11.00">Activator#start()</text>
</g>
<!-- a&#45;&gt;pt1 -->
<g id="edge2" class="edge"><title>a&#45;&gt;pt1</title>
<path fill="none" stroke="black" d="M320.471,-32C320.471,-32 327.966,-32 327.966,-32"/>
<polygon fill="black" stroke="black" points="327.966,-35.5001 337.966,-32 327.966,-28.5001 327.966,-35.5001"/>
</g>
<!-- pt1&#45;&gt;md -->
<g id="edge3" class="edge"><title>pt1&#45;&gt;md</title>
<path fill="none" stroke="black" d="M482.471,-32C482.471,-32 489.966,-32 489.966,-32"/>
<polygon fill="black" stroke="black" points="489.966,-35.5001 499.966,-32 489.966,-28.5001 489.966,-35.5001"/>
</g>
</g>
</svg>
