<?xml version="1.0" encoding="UTF-8" standalone="no"?><svg xmlns="http://www.w3.org/2000/svg" xmlns:xlink="http://www.w3.org/1999/xlink" contentScriptType="application/ecmascript" contentStyleType="text/css" height="825px" preserveAspectRatio="none" style="width:1106px;height:825px;" version="1.1" viewBox="0 0 1106 825" width="1106px" zoomAndPan="magnify"><defs><filter height="300%" id="fvrkz11lraaet" width="300%" x="-1" y="-1"><feGaussianBlur result="blurOut" stdDeviation="2.0"/><feColorMatrix in="blurOut" result="blurOut2" type="matrix" values="0 0 0 0 0 0 0 0 0 0 0 0 0 0 0 0 0 0 .4 0"/><feOffset dx="4.0" dy="4.0" in="blurOut2" result="blurOut3"/><feBlend in="SourceGraphic" in2="blurOut3" mode="normal"/></filter></defs><g><rect fill="#FFFFCC" filter="url(#fvrkz11lraaet)" height="717.1406" style="stroke: #A80036; stroke-width: 1.0;" width="10" x="54" y="50.3203"/><rect fill="#FFFF99" filter="url(#fvrkz11lraaet)" height="28" style="stroke: #A80036; stroke-width: 1.0;" width="10" x="59" y="81.3203"/><rect fill="#FFFF99" filter="url(#fvrkz11lraaet)" height="188.0352" style="stroke: #A80036; stroke-width: 1.0;" width="10" x="59" y="457.4023"/><rect fill="#FFFFCC" filter="url(#fvrkz11lraaet)" height="105.0234" style="stroke: #A80036; stroke-width: 1.0;" width="10" x="211" y="147.332"/><rect fill="#FFFF99" filter="url(#fvrkz11lraaet)" height="30" style="stroke: #A80036; stroke-width: 1.0;" width="10" x="216" y="222.3555"/><rect fill="#FFFFCC" filter="url(#fvrkz11lraaet)" height="30" style="stroke: #A80036; stroke-width: 1.0;" width="10" x="328" y="493.4141"/><rect fill="#FFFFCC" filter="url(#fvrkz11lraaet)" height="30" style="stroke: #A80036; stroke-width: 1.0;" width="10" x="328" y="615.4375"/><rect fill="#FFFFCC" filter="url(#fvrkz11lraaet)" height="30" style="stroke: #A80036; stroke-width: 1.0;" width="10" x="328" y="737.4609"/><rect fill="#FFFFCC" filter="url(#fvrkz11lraaet)" height="30" style="stroke: #A80036; stroke-width: 1.0;" width="10" x="515.5" y="554.4258"/><rect fill="#FFFFCC" filter="url(#fvrkz11lraaet)" height="196.0352" style="stroke: #A80036; stroke-width: 1.0;" width="10" x="672" y="222.3555"/><rect fill="#FFFF99" filter="url(#fvrkz11lraaet)" height="66.0117" style="stroke: #A80036; stroke-width: 1.0;" width="10" x="677" y="352.3789"/><rect fill="#FFFFCC" filter="url(#fvrkz11lraaet)" height="30" style="stroke: #A80036; stroke-width: 1.0;" width="10" x="843" y="283.3672"/><rect fill="#FFFFCC" filter="url(#fvrkz11lraaet)" height="30" style="stroke: #A80036; stroke-width: 1.0;" width="10" x="926" y="388.3906"/><rect fill="#FFFFCC" filter="url(#fvrkz11lraaet)" height="30" style="stroke: #A80036; stroke-width: 1.0;" width="10" x="1041" y="676.4492"/><line style="stroke: #A80036; stroke-width: 1.0; stroke-dasharray: 5.0,5.0;" x1="59" x2="59" y1="40.3203" y2="785.4727"/><line style="stroke: #A80036; stroke-width: 1.0; stroke-dasharray: 5.0,5.0;" x1="215.5" x2="215.5" y1="40.3203" y2="785.4727"/><line style="stroke: #A80036; stroke-width: 1.0; stroke-dasharray: 5.0,5.0;" x1="332.5" x2="332.5" y1="40.3203" y2="785.4727"/><line style="stroke: #A80036; stroke-width: 1.0; stroke-dasharray: 5.0,5.0;" x1="520.5" x2="520.5" y1="40.3203" y2="785.4727"/><line style="stroke: #A80036; stroke-width: 1.0; stroke-dasharray: 5.0,5.0;" x1="676.5" x2="676.5" y1="40.3203" y2="785.4727"/><line style="stroke: #A80036; stroke-width: 1.0; stroke-dasharray: 5.0,5.0;" x1="847.5" x2="847.5" y1="40.3203" y2="785.4727"/><line style="stroke: #A80036; stroke-width: 1.0; stroke-dasharray: 5.0,5.0;" x1="930.5" x2="930.5" y1="40.3203" y2="785.4727"/><line style="stroke: #A80036; stroke-width: 1.0; stroke-dasharray: 5.0,5.0;" x1="1045.5" x2="1045.5" y1="40.3203" y2="785.4727"/><rect fill="#FEFECE" filter="url(#fvrkz11lraaet)" height="32.3203" style="stroke: #A80036; stroke-width: 1.5;" width="98" x="8" y="3"/><text fill="#000000" font-family="sans-serif" font-size="14" lengthAdjust="spacingAndGlyphs" textLength="84" x="15" y="24.6016">SparkContext</text><rect fill="#FEFECE" filter="url(#fvrkz11lraaet)" height="32.3203" style="stroke: #A80036; stroke-width: 1.5;" width="98" x="8" y="784.4727"/><text fill="#000000" font-family="sans-serif" font-size="14" lengthAdjust="spacingAndGlyphs" textLength="84" x="15" y="806.0742">SparkContext</text><rect fill="#FEFECE" filter="url(#fvrkz11lraaet)" height="32.3203" style="stroke: #A80036; stroke-width: 1.5;" width="71" x="178.5" y="3"/><text fill="#000000" font-family="sans-serif" font-size="14" lengthAdjust="spacingAndGlyphs" textLength="57" x="185.5" y="24.6016">SparkEnv</text><rect fill="#FEFECE" filter="url(#fvrkz11lraaet)" height="32.3203" style="stroke: #A80036; stroke-width: 1.5;" width="71" x="178.5" y="784.4727"/><text fill="#000000" font-family="sans-serif" font-size="14" lengthAdjust="spacingAndGlyphs" textLength="57" x="185.5" y="806.0742">SparkEnv</text><rect fill="#FEFECE" filter="url(#fvrkz11lraaet)" height="32.3203" style="stroke: #A80036; stroke-width: 1.5;" width="135" x="263.5" y="3"/><text fill="#000000" font-family="sans-serif" font-size="14" lengthAdjust="spacingAndGlyphs" textLength="121" x="270.5" y="24.6016">TaskSchedulerImpl</text><rect fill="#FEFECE" filter="url(#fvrkz11lraaet)" height="32.3203" style="stroke: #A80036; stroke-width: 1.5;" width="135" x="263.5" y="784.4727"/><text fill="#000000" font-family="sans-serif" font-size="14" lengthAdjust="spacingAndGlyphs" textLength="121" x="270.5" y="806.0742">TaskSchedulerImpl</text><rect fill="#FEFECE" filter="url(#fvrkz11lraaet)" height="32.3203" style="stroke: #A80036; stroke-width: 1.5;" width="212" x="412.5" y="3"/><text fill="#000000" font-family="sans-serif" font-size="14" lengthAdjust="spacingAndGlyphs" textLength="198" x="419.5" y="24.6016">SparkDeploySchedulerBackend</text><rect fill="#FEFECE" filter="url(#fvrkz11lraaet)" height="32.3203" style="stroke: #A80036; stroke-width: 1.5;" width="212" x="412.5" y="784.4727"/><text fill="#000000" font-family="sans-serif" font-size="14" lengthAdjust="spacingAndGlyphs" textLength="198" x="419.5" y="806.0742">SparkDeploySchedulerBackend</text><rect fill="#FEFECE" filter="url(#fvrkz11lraaet)" height="32.3203" style="stroke: #A80036; stroke-width: 1.5;" width="73" x="638.5" y="3"/><text fill="#000000" font-family="sans-serif" font-size="14" lengthAdjust="spacingAndGlyphs" textLength="59" x="645.5" y="24.6016">AkkaUtils</text><rect fill="#FEFECE" filter="url(#fvrkz11lraaet)" height="32.3203" style="stroke: #A80036; stroke-width: 1.5;" width="73" x="638.5" y="784.4727"/><text fill="#000000" font-family="sans-serif" font-size="14" lengthAdjust="spacingAndGlyphs" textLength="59" x="645.5" y="806.0742">AkkaUtils</text><rect fill="#FEFECE" filter="url(#fvrkz11lraaet)" height="32.3203" style="stroke: #A80036; stroke-width: 1.5;" width="43" x="824.5" y="3"/><text fill="#000000" font-family="sans-serif" font-size="14" lengthAdjust="spacingAndGlyphs" textLength="29" x="831.5" y="24.6016">Utils</text><rect fill="#FEFECE" filter="url(#fvrkz11lraaet)" height="32.3203" style="stroke: #A80036; stroke-width: 1.5;" width="43" x="824.5" y="784.4727"/><text fill="#000000" font-family="sans-serif" font-size="14" lengthAdjust="spacingAndGlyphs" textLength="29" x="831.5" y="806.0742">Utils</text><rect fill="#FEFECE" filter="url(#fvrkz11lraaet)" height="32.3203" style="stroke: #A80036; stroke-width: 1.5;" width="95" x="881.5" y="3"/><text fill="#000000" font-family="sans-serif" font-size="14" lengthAdjust="spacingAndGlyphs" textLength="81" x="888.5" y="24.6016">ActorSystem</text><rect fill="#FEFECE" filter="url(#fvrkz11lraaet)" height="32.3203" style="stroke: #A80036; stroke-width: 1.5;" width="95" x="881.5" y="784.4727"/><text fill="#000000" font-family="sans-serif" font-size="14" lengthAdjust="spacingAndGlyphs" textLength="81" x="888.5" y="806.0742">ActorSystem</text><rect fill="#FEFECE" filter="url(#fvrkz11lraaet)" height="32.3203" style="stroke: #A80036; stroke-width: 1.5;" width="107" x="990.5" y="3"/><text fill="#000000" font-family="sans-serif" font-size="14" lengthAdjust="spacingAndGlyphs" textLength="93" x="997.5" y="24.6016">DAGScheduler</text><rect fill="#FEFECE" filter="url(#fvrkz11lraaet)" height="32.3203" style="stroke: #A80036; stroke-width: 1.5;" width="107" x="990.5" y="784.4727"/><text fill="#000000" font-family="sans-serif" font-size="14" lengthAdjust="spacingAndGlyphs" textLength="93" x="997.5" y="806.0742">DAGScheduler</text><rect fill="#FFFFCC" filter="url(#fvrkz11lraaet)" height="717.1406" style="stroke: #A80036; stroke-width: 1.0;" width="10" x="54" y="50.3203"/><rect fill="#FFFF99" filter="url(#fvrkz11lraaet)" height="28" style="stroke: #A80036; stroke-width: 1.0;" width="10" x="59" y="81.3203"/><rect fill="#FFFF99" filter="url(#fvrkz11lraaet)" height="188.0352" style="stroke: #A80036; stroke-width: 1.0;" width="10" x="59" y="457.4023"/><rect fill="#FFFFCC" filter="url(#fvrkz11lraaet)" height="105.0234" style="stroke: #A80036; stroke-width: 1.0;" width="10" x="211" y="147.332"/><rect fill="#FFFF99" filter="url(#fvrkz11lraaet)" height="30" style="stroke: #A80036; stroke-width: 1.0;" width="10" x="216" y="222.3555"/><rect fill="#FFFFCC" filter="url(#fvrkz11lraaet)" height="30" style="stroke: #A80036; stroke-width: 1.0;" width="10" x="328" y="493.4141"/><rect fill="#FFFFCC" filter="url(#fvrkz11lraaet)" height="30" style="stroke: #A80036; stroke-width: 1.0;" width="10" x="328" y="615.4375"/><rect fill="#FFFFCC" filter="url(#fvrkz11lraaet)" height="30" style="stroke: #A80036; stroke-width: 1.0;" width="10" x="328" y="737.4609"/><rect fill="#FFFFCC" filter="url(#fvrkz11lraaet)" height="30" style="stroke: #A80036; stroke-width: 1.0;" width="10" x="515.5" y="554.4258"/><rect fill="#FFFFCC" filter="url(#fvrkz11lraaet)" height="196.0352" style="stroke: #A80036; stroke-width: 1.0;" width="10" x="672" y="222.3555"/><rect fill="#FFFF99" filter="url(#fvrkz11lraaet)" height="66.0117" style="stroke: #A80036; stroke-width: 1.0;" width="10" x="677" y="352.3789"/><rect fill="#FFFFCC" filter="url(#fvrkz11lraaet)" height="30" style="stroke: #A80036; stroke-width: 1.0;" width="10" x="843" y="283.3672"/><rect fill="#FFFFCC" filter="url(#fvrkz11lraaet)" height="30" style="stroke: #A80036; stroke-width: 1.0;" width="10" x="926" y="388.3906"/><rect fill="#FFFFCC" filter="url(#fvrkz11lraaet)" height="30" style="stroke: #A80036; stroke-width: 1.0;" width="10" x="1041" y="676.4492"/><line style="stroke: #A80036; stroke-width: 1.0;" x1="69" x2="111" y1="73.332" y2="73.332"/><line style="stroke: #A80036; stroke-width: 1.0;" x1="111" x2="111" y1="73.332" y2="86.332"/><line style="stroke: #A80036; stroke-width: 1.0;" x1="70" x2="111" y1="86.332" y2="86.332"/><polygon fill="#A80036" points="80,82.332,70,86.332,80,90.332,76,86.332" style="stroke: #A80036; stroke-width: 1.0;"/><text fill="#000000" font-family="sans-serif" font-size="13" font-weight="bold" lengthAdjust="spacingAndGlyphs" textLength="8" x="76" y="67.8789">1</text><text fill="#000000" font-family="sans-serif" font-size="13" lengthAdjust="spacingAndGlyphs" textLength="90" x="88" y="67.8789">createSparkEnv</text><polygon fill="#A80036" points="199,143.332,209,147.332,199,151.332,203,147.332" style="stroke: #A80036; stroke-width: 1.0;"/><line style="stroke: #A80036; stroke-width: 1.0;" x1="64" x2="205" y1="147.332" y2="147.332"/><text fill="#000000" font-family="sans-serif" font-size="13" font-weight="bold" lengthAdjust="spacingAndGlyphs" textLength="8" x="71" y="141.8906">2</text><text fill="#000000" font-family="sans-serif" font-size="13" lengthAdjust="spacingAndGlyphs" textLength="92" x="83" y="141.8906">createDriverEnv</text><line style="stroke: #A80036; stroke-width: 1.0;" x1="221" x2="263" y1="178.3555" y2="178.3555"/><line style="stroke: #A80036; stroke-width: 1.0;" x1="263" x2="263" y1="178.3555" y2="191.3555"/><line style="stroke: #A80036; stroke-width: 1.0;" x1="222" x2="263" y1="191.3555" y2="191.3555"/><polygon fill="#A80036" points="232,187.3555,222,191.3555,232,195.3555,228,191.3555" style="stroke: #A80036; stroke-width: 1.0;"/><text fill="#000000" font-family="sans-serif" font-size="13" font-weight="bold" lengthAdjust="spacingAndGlyphs" textLength="8" x="228" y="172.9023">3</text><text fill="#000000" font-family="sans-serif" font-size="13" lengthAdjust="spacingAndGlyphs" textLength="44" x="240" y="172.9023">create()</text><polygon fill="#A80036" points="660,218.3555,670,222.3555,660,226.3555,664,222.3555" style="stroke: #A80036; stroke-width: 1.0;"/><line style="stroke: #A80036; stroke-width: 1.0;" x1="226" x2="666" y1="222.3555" y2="222.3555"/><text fill="#000000" font-family="sans-serif" font-size="13" font-weight="bold" lengthAdjust="spacingAndGlyphs" textLength="8" x="233" y="216.9141">4</text><text fill="#000000" font-family="sans-serif" font-size="13" lengthAdjust="spacingAndGlyphs" textLength="117" x="245" y="216.9141">createActorSystem()</text><polygon fill="#A80036" points="831,279.3672,841,283.3672,831,287.3672,835,283.3672" style="stroke: #A80036; stroke-width: 1.0;"/><line style="stroke: #A80036; stroke-width: 1.0;" x1="682" x2="837" y1="283.3672" y2="283.3672"/><text fill="#000000" font-family="sans-serif" font-size="13" font-weight="bold" lengthAdjust="spacingAndGlyphs" textLength="8" x="689" y="277.9258">5</text><text fill="#000000" font-family="sans-serif" font-size="13" lengthAdjust="spacingAndGlyphs" textLength="118" x="701" y="277.9258">startServiceOnPort()</text><line style="stroke: #A80036; stroke-width: 1.0;" x1="682" x2="729" y1="339.3906" y2="339.3906"/><line style="stroke: #A80036; stroke-width: 1.0;" x1="729" x2="729" y1="339.3906" y2="352.3906"/><line style="stroke: #A80036; stroke-width: 1.0;" x1="688" x2="729" y1="352.3906" y2="352.3906"/><polygon fill="#A80036" points="698,348.3906,688,352.3906,698,356.3906,694,352.3906" style="stroke: #A80036; stroke-width: 1.0;"/><text fill="#000000" font-family="sans-serif" font-size="13" font-weight="bold" lengthAdjust="spacingAndGlyphs" textLength="8" x="694" y="333.9375">6</text><text fill="#000000" font-family="sans-serif" font-size="13" lengthAdjust="spacingAndGlyphs" textLength="135" x="706" y="333.9375">doCreateActorSystem()</text><polygon fill="#A80036" points="914,384.3906,924,388.3906,914,392.3906,918,388.3906" style="stroke: #A80036; stroke-width: 1.0;"/><line style="stroke: #A80036; stroke-width: 1.0;" x1="687" x2="920" y1="388.3906" y2="388.3906"/><text fill="#000000" font-family="sans-serif" font-size="13" font-weight="bold" lengthAdjust="spacingAndGlyphs" textLength="8" x="694" y="382.9492">7</text><text fill="#000000" font-family="sans-serif" font-size="13" lengthAdjust="spacingAndGlyphs" textLength="40" x="706" y="382.9492">apply()</text><line style="stroke: #A80036; stroke-width: 1.0;" x1="64" x2="111" y1="444.4141" y2="444.4141"/><line style="stroke: #A80036; stroke-width: 1.0;" x1="111" x2="111" y1="444.4141" y2="457.4141"/><line style="stroke: #A80036; stroke-width: 1.0;" x1="70" x2="111" y1="457.4141" y2="457.4141"/><polygon fill="#A80036" points="80,453.4141,70,457.4141,80,461.4141,76,457.4141" style="stroke: #A80036; stroke-width: 1.0;"/><text fill="#000000" font-family="sans-serif" font-size="13" font-weight="bold" lengthAdjust="spacingAndGlyphs" textLength="8" x="76" y="438.9609">8</text><text fill="#000000" font-family="sans-serif" font-size="13" lengthAdjust="spacingAndGlyphs" textLength="121" x="88" y="438.9609">createTaskScheduler</text><polygon fill="#A80036" points="316,489.4141,326,493.4141,316,497.4141,320,493.4141" style="stroke: #A80036; stroke-width: 1.0;"/><line style="stroke: #A80036; stroke-width: 1.0;" x1="69" x2="322" y1="493.4141" y2="493.4141"/><text fill="#000000" font-family="sans-serif" font-size="13" font-weight="bold" lengthAdjust="spacingAndGlyphs" textLength="8" x="76" y="487.9727">9</text><text fill="#000000" font-family="sans-serif" font-size="13" lengthAdjust="spacingAndGlyphs" textLength="33" x="88" y="487.9727">new()</text><polygon fill="#A80036" points="503.5,550.4258,513.5,554.4258,503.5,558.4258,507.5,554.4258" style="stroke: #A80036; stroke-width: 1.0;"/><line style="stroke: #A80036; stroke-width: 1.0;" x1="69" x2="509.5" y1="554.4258" y2="554.4258"/><text fill="#000000" font-family="sans-serif" font-size="13" font-weight="bold" lengthAdjust="spacingAndGlyphs" textLength="16" x="76" y="548.9844">10</text><text fill="#000000" font-family="sans-serif" font-size="13" lengthAdjust="spacingAndGlyphs" textLength="33" x="96" y="548.9844">new()</text><polygon fill="#A80036" points="316,611.4375,326,615.4375,316,619.4375,320,615.4375" style="stroke: #A80036; stroke-width: 1.0;"/><line style="stroke: #A80036; stroke-width: 1.0;" x1="69" x2="322" y1="615.4375" y2="615.4375"/><text fill="#000000" font-family="sans-serif" font-size="13" font-weight="bold" lengthAdjust="spacingAndGlyphs" textLength="16" x="76" y="609.9961">11</text><text fill="#000000" font-family="sans-serif" font-size="13" lengthAdjust="spacingAndGlyphs" textLength="55" x="96" y="609.9961">initialize()</text><polygon fill="#A80036" points="1029,672.4492,1039,676.4492,1029,680.4492,1033,676.4492" style="stroke: #A80036; stroke-width: 1.0;"/><line style="stroke: #A80036; stroke-width: 1.0;" x1="64" x2="1035" y1="676.4492" y2="676.4492"/><text fill="#000000" font-family="sans-serif" font-size="13" font-weight="bold" lengthAdjust="spacingAndGlyphs" textLength="16" x="71" y="671.0078">12</text><text fill="#000000" font-family="sans-serif" font-size="13" lengthAdjust="spacingAndGlyphs" textLength="33" x="91" y="671.0078">new()</text><polygon fill="#A80036" points="316,733.4609,326,737.4609,316,741.4609,320,737.4609" style="stroke: #A80036; stroke-width: 1.0;"/><line style="stroke: #A80036; stroke-width: 1.0;" x1="64" x2="322" y1="737.4609" y2="737.4609"/><text fill="#000000" font-family="sans-serif" font-size="13" font-weight="bold" lengthAdjust="spacingAndGlyphs" textLength="16" x="71" y="732.0195">13</text><text fill="#000000" font-family="sans-serif" font-size="13" lengthAdjust="spacingAndGlyphs" textLength="34" x="91" y="732.0195">start()</text></g></svg>